<?xml version="1.0" encoding="utf-8" standalone="no"?>
<!DOCTYPE svg PUBLIC "-//W3C//DTD SVG 1.1//EN"
  "http://www.w3.org/Graphics/SVG/1.1/DTD/svg11.dtd">
<!-- Created with matplotlib (https://matplotlib.org/) -->
<svg height="504pt" version="1.1" viewBox="0 0 936 504" width="936pt" xmlns="http://www.w3.org/2000/svg" xmlns:xlink="http://www.w3.org/1999/xlink">
 <defs>
  <style type="text/css">
*{stroke-linecap:butt;stroke-linejoin:round;}
  </style>
 </defs>
 <g id="figure_1">
  <g id="patch_1">
   <path d="M 0 504 
L 936 504 
L 936 0 
L 0 0 
z
" style="fill:#ffffff;"/>
  </g>
  <g id="axes_1">
   <g id="patch_2">
    <path d="M 117 441 
L 842.4 441 
L 842.4 60.48 
L 117 60.48 
z
" style="fill:#ffffff;"/>
   </g>
   <g id="matplotlib.axis_1">
    <g id="xtick_1">
     <g id="line2d_1">
      <defs>
       <path d="M 0 0 
L 0 3.5 
" id="mbe71dfc92c" style="stroke:#000000;stroke-width:0.8;"/>
      </defs>
      <g>
       <use style="stroke:#000000;stroke-width:0.8;" x="149.972727" xlink:href="#mbe71dfc92c" y="441"/>
      </g>
     </g>
     <g id="text_1">
      <!-- 10 -->
      <defs>
       <path d="M 12.40625 8.296875 
L 28.515625 8.296875 
L 28.515625 63.921875 
L 10.984375 60.40625 
L 10.984375 69.390625 
L 28.421875 72.90625 
L 38.28125 72.90625 
L 38.28125 8.296875 
L 54.390625 8.296875 
L 54.390625 0 
L 12.40625 0 
z
" id="DejaVuSans-49"/>
       <path d="M 31.78125 66.40625 
Q 24.171875 66.40625 20.328125 58.90625 
Q 16.5 51.421875 16.5 36.375 
Q 16.5 21.390625 20.328125 13.890625 
Q 24.171875 6.390625 31.78125 6.390625 
Q 39.453125 6.390625 43.28125 13.890625 
Q 47.125 21.390625 47.125 36.375 
Q 47.125 51.421875 43.28125 58.90625 
Q 39.453125 66.40625 31.78125 66.40625 
z
M 31.78125 74.21875 
Q 44.046875 74.21875 50.515625 64.515625 
Q 56.984375 54.828125 56.984375 36.375 
Q 56.984375 17.96875 50.515625 8.265625 
Q 44.046875 -1.421875 31.78125 -1.421875 
Q 19.53125 -1.421875 13.0625 8.265625 
Q 6.59375 17.96875 6.59375 36.375 
Q 6.59375 54.828125 13.0625 64.515625 
Q 19.53125 74.21875 31.78125 74.21875 
z
" id="DejaVuSans-48"/>
      </defs>
      <g transform="translate(143.610227 455.598437)scale(0.1 -0.1)">
       <use xlink:href="#DejaVuSans-49"/>
       <use x="63.623047" xlink:href="#DejaVuSans-48"/>
      </g>
     </g>
    </g>
    <g id="xtick_2">
     <g id="line2d_2">
      <g>
       <use style="stroke:#000000;stroke-width:0.8;" x="281.863636" xlink:href="#mbe71dfc92c" y="441"/>
      </g>
     </g>
     <g id="text_2">
      <!-- 12 -->
      <defs>
       <path d="M 19.1875 8.296875 
L 53.609375 8.296875 
L 53.609375 0 
L 7.328125 0 
L 7.328125 8.296875 
Q 12.9375 14.109375 22.625 23.890625 
Q 32.328125 33.6875 34.8125 36.53125 
Q 39.546875 41.84375 41.421875 45.53125 
Q 43.3125 49.21875 43.3125 52.78125 
Q 43.3125 58.59375 39.234375 62.25 
Q 35.15625 65.921875 28.609375 65.921875 
Q 23.96875 65.921875 18.8125 64.3125 
Q 13.671875 62.703125 7.8125 59.421875 
L 7.8125 69.390625 
Q 13.765625 71.78125 18.9375 73 
Q 24.125 74.21875 28.421875 74.21875 
Q 39.75 74.21875 46.484375 68.546875 
Q 53.21875 62.890625 53.21875 53.421875 
Q 53.21875 48.921875 51.53125 44.890625 
Q 49.859375 40.875 45.40625 35.40625 
Q 44.1875 33.984375 37.640625 27.21875 
Q 31.109375 20.453125 19.1875 8.296875 
z
" id="DejaVuSans-50"/>
      </defs>
      <g transform="translate(275.501136 455.598437)scale(0.1 -0.1)">
       <use xlink:href="#DejaVuSans-49"/>
       <use x="63.623047" xlink:href="#DejaVuSans-50"/>
      </g>
     </g>
    </g>
    <g id="xtick_3">
     <g id="line2d_3">
      <g>
       <use style="stroke:#000000;stroke-width:0.8;" x="413.754545" xlink:href="#mbe71dfc92c" y="441"/>
      </g>
     </g>
     <g id="text_3">
      <!-- 14 -->
      <defs>
       <path d="M 37.796875 64.3125 
L 12.890625 25.390625 
L 37.796875 25.390625 
z
M 35.203125 72.90625 
L 47.609375 72.90625 
L 47.609375 25.390625 
L 58.015625 25.390625 
L 58.015625 17.1875 
L 47.609375 17.1875 
L 47.609375 0 
L 37.796875 0 
L 37.796875 17.1875 
L 4.890625 17.1875 
L 4.890625 26.703125 
z
" id="DejaVuSans-52"/>
      </defs>
      <g transform="translate(407.392045 455.598437)scale(0.1 -0.1)">
       <use xlink:href="#DejaVuSans-49"/>
       <use x="63.623047" xlink:href="#DejaVuSans-52"/>
      </g>
     </g>
    </g>
    <g id="xtick_4">
     <g id="line2d_4">
      <g>
       <use style="stroke:#000000;stroke-width:0.8;" x="545.645455" xlink:href="#mbe71dfc92c" y="441"/>
      </g>
     </g>
     <g id="text_4">
      <!-- 16 -->
      <defs>
       <path d="M 33.015625 40.375 
Q 26.375 40.375 22.484375 35.828125 
Q 18.609375 31.296875 18.609375 23.390625 
Q 18.609375 15.53125 22.484375 10.953125 
Q 26.375 6.390625 33.015625 6.390625 
Q 39.65625 6.390625 43.53125 10.953125 
Q 47.40625 15.53125 47.40625 23.390625 
Q 47.40625 31.296875 43.53125 35.828125 
Q 39.65625 40.375 33.015625 40.375 
z
M 52.59375 71.296875 
L 52.59375 62.3125 
Q 48.875 64.0625 45.09375 64.984375 
Q 41.3125 65.921875 37.59375 65.921875 
Q 27.828125 65.921875 22.671875 59.328125 
Q 17.53125 52.734375 16.796875 39.40625 
Q 19.671875 43.65625 24.015625 45.921875 
Q 28.375 48.1875 33.59375 48.1875 
Q 44.578125 48.1875 50.953125 41.515625 
Q 57.328125 34.859375 57.328125 23.390625 
Q 57.328125 12.15625 50.6875 5.359375 
Q 44.046875 -1.421875 33.015625 -1.421875 
Q 20.359375 -1.421875 13.671875 8.265625 
Q 6.984375 17.96875 6.984375 36.375 
Q 6.984375 53.65625 15.1875 63.9375 
Q 23.390625 74.21875 37.203125 74.21875 
Q 40.921875 74.21875 44.703125 73.484375 
Q 48.484375 72.75 52.59375 71.296875 
z
" id="DejaVuSans-54"/>
      </defs>
      <g transform="translate(539.282955 455.598437)scale(0.1 -0.1)">
       <use xlink:href="#DejaVuSans-49"/>
       <use x="63.623047" xlink:href="#DejaVuSans-54"/>
      </g>
     </g>
    </g>
    <g id="xtick_5">
     <g id="line2d_5">
      <g>
       <use style="stroke:#000000;stroke-width:0.8;" x="677.536364" xlink:href="#mbe71dfc92c" y="441"/>
      </g>
     </g>
     <g id="text_5">
      <!-- 18 -->
      <defs>
       <path d="M 31.78125 34.625 
Q 24.75 34.625 20.71875 30.859375 
Q 16.703125 27.09375 16.703125 20.515625 
Q 16.703125 13.921875 20.71875 10.15625 
Q 24.75 6.390625 31.78125 6.390625 
Q 38.8125 6.390625 42.859375 10.171875 
Q 46.921875 13.96875 46.921875 20.515625 
Q 46.921875 27.09375 42.890625 30.859375 
Q 38.875 34.625 31.78125 34.625 
z
M 21.921875 38.8125 
Q 15.578125 40.375 12.03125 44.71875 
Q 8.5 49.078125 8.5 55.328125 
Q 8.5 64.0625 14.71875 69.140625 
Q 20.953125 74.21875 31.78125 74.21875 
Q 42.671875 74.21875 48.875 69.140625 
Q 55.078125 64.0625 55.078125 55.328125 
Q 55.078125 49.078125 51.53125 44.71875 
Q 48 40.375 41.703125 38.8125 
Q 48.828125 37.15625 52.796875 32.3125 
Q 56.78125 27.484375 56.78125 20.515625 
Q 56.78125 9.90625 50.3125 4.234375 
Q 43.84375 -1.421875 31.78125 -1.421875 
Q 19.734375 -1.421875 13.25 4.234375 
Q 6.78125 9.90625 6.78125 20.515625 
Q 6.78125 27.484375 10.78125 32.3125 
Q 14.796875 37.15625 21.921875 38.8125 
z
M 18.3125 54.390625 
Q 18.3125 48.734375 21.84375 45.5625 
Q 25.390625 42.390625 31.78125 42.390625 
Q 38.140625 42.390625 41.71875 45.5625 
Q 45.3125 48.734375 45.3125 54.390625 
Q 45.3125 60.0625 41.71875 63.234375 
Q 38.140625 66.40625 31.78125 66.40625 
Q 25.390625 66.40625 21.84375 63.234375 
Q 18.3125 60.0625 18.3125 54.390625 
z
" id="DejaVuSans-56"/>
      </defs>
      <g transform="translate(671.173864 455.598437)scale(0.1 -0.1)">
       <use xlink:href="#DejaVuSans-49"/>
       <use x="63.623047" xlink:href="#DejaVuSans-56"/>
      </g>
     </g>
    </g>
    <g id="xtick_6">
     <g id="line2d_6">
      <g>
       <use style="stroke:#000000;stroke-width:0.8;" x="809.427273" xlink:href="#mbe71dfc92c" y="441"/>
      </g>
     </g>
     <g id="text_6">
      <!-- 20 -->
      <g transform="translate(803.064773 455.598437)scale(0.1 -0.1)">
       <use xlink:href="#DejaVuSans-50"/>
       <use x="63.623047" xlink:href="#DejaVuSans-48"/>
      </g>
     </g>
    </g>
    <g id="text_7">
     <!-- Number of training data points -->
     <defs>
      <path d="M 9.8125 72.90625 
L 23.09375 72.90625 
L 55.421875 11.921875 
L 55.421875 72.90625 
L 64.984375 72.90625 
L 64.984375 0 
L 51.703125 0 
L 19.390625 60.984375 
L 19.390625 0 
L 9.8125 0 
z
" id="DejaVuSans-78"/>
      <path d="M 8.5 21.578125 
L 8.5 54.6875 
L 17.484375 54.6875 
L 17.484375 21.921875 
Q 17.484375 14.15625 20.5 10.265625 
Q 23.53125 6.390625 29.59375 6.390625 
Q 36.859375 6.390625 41.078125 11.03125 
Q 45.3125 15.671875 45.3125 23.6875 
L 45.3125 54.6875 
L 54.296875 54.6875 
L 54.296875 0 
L 45.3125 0 
L 45.3125 8.40625 
Q 42.046875 3.421875 37.71875 1 
Q 33.40625 -1.421875 27.6875 -1.421875 
Q 18.265625 -1.421875 13.375 4.4375 
Q 8.5 10.296875 8.5 21.578125 
z
M 31.109375 56 
z
" id="DejaVuSans-117"/>
      <path d="M 52 44.1875 
Q 55.375 50.25 60.0625 53.125 
Q 64.75 56 71.09375 56 
Q 79.640625 56 84.28125 50.015625 
Q 88.921875 44.046875 88.921875 33.015625 
L 88.921875 0 
L 79.890625 0 
L 79.890625 32.71875 
Q 79.890625 40.578125 77.09375 44.375 
Q 74.3125 48.1875 68.609375 48.1875 
Q 61.625 48.1875 57.5625 43.546875 
Q 53.515625 38.921875 53.515625 30.90625 
L 53.515625 0 
L 44.484375 0 
L 44.484375 32.71875 
Q 44.484375 40.625 41.703125 44.40625 
Q 38.921875 48.1875 33.109375 48.1875 
Q 26.21875 48.1875 22.15625 43.53125 
Q 18.109375 38.875 18.109375 30.90625 
L 18.109375 0 
L 9.078125 0 
L 9.078125 54.6875 
L 18.109375 54.6875 
L 18.109375 46.1875 
Q 21.1875 51.21875 25.484375 53.609375 
Q 29.78125 56 35.6875 56 
Q 41.65625 56 45.828125 52.96875 
Q 50 49.953125 52 44.1875 
z
" id="DejaVuSans-109"/>
      <path d="M 48.6875 27.296875 
Q 48.6875 37.203125 44.609375 42.84375 
Q 40.53125 48.484375 33.40625 48.484375 
Q 26.265625 48.484375 22.1875 42.84375 
Q 18.109375 37.203125 18.109375 27.296875 
Q 18.109375 17.390625 22.1875 11.75 
Q 26.265625 6.109375 33.40625 6.109375 
Q 40.53125 6.109375 44.609375 11.75 
Q 48.6875 17.390625 48.6875 27.296875 
z
M 18.109375 46.390625 
Q 20.953125 51.265625 25.265625 53.625 
Q 29.59375 56 35.59375 56 
Q 45.5625 56 51.78125 48.09375 
Q 58.015625 40.1875 58.015625 27.296875 
Q 58.015625 14.40625 51.78125 6.484375 
Q 45.5625 -1.421875 35.59375 -1.421875 
Q 29.59375 -1.421875 25.265625 0.953125 
Q 20.953125 3.328125 18.109375 8.203125 
L 18.109375 0 
L 9.078125 0 
L 9.078125 75.984375 
L 18.109375 75.984375 
z
" id="DejaVuSans-98"/>
      <path d="M 56.203125 29.59375 
L 56.203125 25.203125 
L 14.890625 25.203125 
Q 15.484375 15.921875 20.484375 11.0625 
Q 25.484375 6.203125 34.421875 6.203125 
Q 39.59375 6.203125 44.453125 7.46875 
Q 49.3125 8.734375 54.109375 11.28125 
L 54.109375 2.78125 
Q 49.265625 0.734375 44.1875 -0.34375 
Q 39.109375 -1.421875 33.890625 -1.421875 
Q 20.796875 -1.421875 13.15625 6.1875 
Q 5.515625 13.8125 5.515625 26.8125 
Q 5.515625 40.234375 12.765625 48.109375 
Q 20.015625 56 32.328125 56 
Q 43.359375 56 49.78125 48.890625 
Q 56.203125 41.796875 56.203125 29.59375 
z
M 47.21875 32.234375 
Q 47.125 39.59375 43.09375 43.984375 
Q 39.0625 48.390625 32.421875 48.390625 
Q 24.90625 48.390625 20.390625 44.140625 
Q 15.875 39.890625 15.1875 32.171875 
z
" id="DejaVuSans-101"/>
      <path d="M 41.109375 46.296875 
Q 39.59375 47.171875 37.8125 47.578125 
Q 36.03125 48 33.890625 48 
Q 26.265625 48 22.1875 43.046875 
Q 18.109375 38.09375 18.109375 28.8125 
L 18.109375 0 
L 9.078125 0 
L 9.078125 54.6875 
L 18.109375 54.6875 
L 18.109375 46.1875 
Q 20.953125 51.171875 25.484375 53.578125 
Q 30.03125 56 36.53125 56 
Q 37.453125 56 38.578125 55.875 
Q 39.703125 55.765625 41.0625 55.515625 
z
" id="DejaVuSans-114"/>
      <path id="DejaVuSans-32"/>
      <path d="M 30.609375 48.390625 
Q 23.390625 48.390625 19.1875 42.75 
Q 14.984375 37.109375 14.984375 27.296875 
Q 14.984375 17.484375 19.15625 11.84375 
Q 23.34375 6.203125 30.609375 6.203125 
Q 37.796875 6.203125 41.984375 11.859375 
Q 46.1875 17.53125 46.1875 27.296875 
Q 46.1875 37.015625 41.984375 42.703125 
Q 37.796875 48.390625 30.609375 48.390625 
z
M 30.609375 56 
Q 42.328125 56 49.015625 48.375 
Q 55.71875 40.765625 55.71875 27.296875 
Q 55.71875 13.875 49.015625 6.21875 
Q 42.328125 -1.421875 30.609375 -1.421875 
Q 18.84375 -1.421875 12.171875 6.21875 
Q 5.515625 13.875 5.515625 27.296875 
Q 5.515625 40.765625 12.171875 48.375 
Q 18.84375 56 30.609375 56 
z
" id="DejaVuSans-111"/>
      <path d="M 37.109375 75.984375 
L 37.109375 68.5 
L 28.515625 68.5 
Q 23.6875 68.5 21.796875 66.546875 
Q 19.921875 64.59375 19.921875 59.515625 
L 19.921875 54.6875 
L 34.71875 54.6875 
L 34.71875 47.703125 
L 19.921875 47.703125 
L 19.921875 0 
L 10.890625 0 
L 10.890625 47.703125 
L 2.296875 47.703125 
L 2.296875 54.6875 
L 10.890625 54.6875 
L 10.890625 58.5 
Q 10.890625 67.625 15.140625 71.796875 
Q 19.390625 75.984375 28.609375 75.984375 
z
" id="DejaVuSans-102"/>
      <path d="M 18.3125 70.21875 
L 18.3125 54.6875 
L 36.8125 54.6875 
L 36.8125 47.703125 
L 18.3125 47.703125 
L 18.3125 18.015625 
Q 18.3125 11.328125 20.140625 9.421875 
Q 21.96875 7.515625 27.59375 7.515625 
L 36.8125 7.515625 
L 36.8125 0 
L 27.59375 0 
Q 17.1875 0 13.234375 3.875 
Q 9.28125 7.765625 9.28125 18.015625 
L 9.28125 47.703125 
L 2.6875 47.703125 
L 2.6875 54.6875 
L 9.28125 54.6875 
L 9.28125 70.21875 
z
" id="DejaVuSans-116"/>
      <path d="M 34.28125 27.484375 
Q 23.390625 27.484375 19.1875 25 
Q 14.984375 22.515625 14.984375 16.5 
Q 14.984375 11.71875 18.140625 8.90625 
Q 21.296875 6.109375 26.703125 6.109375 
Q 34.1875 6.109375 38.703125 11.40625 
Q 43.21875 16.703125 43.21875 25.484375 
L 43.21875 27.484375 
z
M 52.203125 31.203125 
L 52.203125 0 
L 43.21875 0 
L 43.21875 8.296875 
Q 40.140625 3.328125 35.546875 0.953125 
Q 30.953125 -1.421875 24.3125 -1.421875 
Q 15.921875 -1.421875 10.953125 3.296875 
Q 6 8.015625 6 15.921875 
Q 6 25.140625 12.171875 29.828125 
Q 18.359375 34.515625 30.609375 34.515625 
L 43.21875 34.515625 
L 43.21875 35.40625 
Q 43.21875 41.609375 39.140625 45 
Q 35.0625 48.390625 27.6875 48.390625 
Q 23 48.390625 18.546875 47.265625 
Q 14.109375 46.140625 10.015625 43.890625 
L 10.015625 52.203125 
Q 14.9375 54.109375 19.578125 55.046875 
Q 24.21875 56 28.609375 56 
Q 40.484375 56 46.34375 49.84375 
Q 52.203125 43.703125 52.203125 31.203125 
z
" id="DejaVuSans-97"/>
      <path d="M 9.421875 54.6875 
L 18.40625 54.6875 
L 18.40625 0 
L 9.421875 0 
z
M 9.421875 75.984375 
L 18.40625 75.984375 
L 18.40625 64.59375 
L 9.421875 64.59375 
z
" id="DejaVuSans-105"/>
      <path d="M 54.890625 33.015625 
L 54.890625 0 
L 45.90625 0 
L 45.90625 32.71875 
Q 45.90625 40.484375 42.875 44.328125 
Q 39.84375 48.1875 33.796875 48.1875 
Q 26.515625 48.1875 22.3125 43.546875 
Q 18.109375 38.921875 18.109375 30.90625 
L 18.109375 0 
L 9.078125 0 
L 9.078125 54.6875 
L 18.109375 54.6875 
L 18.109375 46.1875 
Q 21.34375 51.125 25.703125 53.5625 
Q 30.078125 56 35.796875 56 
Q 45.21875 56 50.046875 50.171875 
Q 54.890625 44.34375 54.890625 33.015625 
z
" id="DejaVuSans-110"/>
      <path d="M 45.40625 27.984375 
Q 45.40625 37.75 41.375 43.109375 
Q 37.359375 48.484375 30.078125 48.484375 
Q 22.859375 48.484375 18.828125 43.109375 
Q 14.796875 37.75 14.796875 27.984375 
Q 14.796875 18.265625 18.828125 12.890625 
Q 22.859375 7.515625 30.078125 7.515625 
Q 37.359375 7.515625 41.375 12.890625 
Q 45.40625 18.265625 45.40625 27.984375 
z
M 54.390625 6.78125 
Q 54.390625 -7.171875 48.1875 -13.984375 
Q 42 -20.796875 29.203125 -20.796875 
Q 24.46875 -20.796875 20.265625 -20.09375 
Q 16.0625 -19.390625 12.109375 -17.921875 
L 12.109375 -9.1875 
Q 16.0625 -11.328125 19.921875 -12.34375 
Q 23.78125 -13.375 27.78125 -13.375 
Q 36.625 -13.375 41.015625 -8.765625 
Q 45.40625 -4.15625 45.40625 5.171875 
L 45.40625 9.625 
Q 42.625 4.78125 38.28125 2.390625 
Q 33.9375 0 27.875 0 
Q 17.828125 0 11.671875 7.65625 
Q 5.515625 15.328125 5.515625 27.984375 
Q 5.515625 40.671875 11.671875 48.328125 
Q 17.828125 56 27.875 56 
Q 33.9375 56 38.28125 53.609375 
Q 42.625 51.21875 45.40625 46.390625 
L 45.40625 54.6875 
L 54.390625 54.6875 
z
" id="DejaVuSans-103"/>
      <path d="M 45.40625 46.390625 
L 45.40625 75.984375 
L 54.390625 75.984375 
L 54.390625 0 
L 45.40625 0 
L 45.40625 8.203125 
Q 42.578125 3.328125 38.25 0.953125 
Q 33.9375 -1.421875 27.875 -1.421875 
Q 17.96875 -1.421875 11.734375 6.484375 
Q 5.515625 14.40625 5.515625 27.296875 
Q 5.515625 40.1875 11.734375 48.09375 
Q 17.96875 56 27.875 56 
Q 33.9375 56 38.25 53.625 
Q 42.578125 51.265625 45.40625 46.390625 
z
M 14.796875 27.296875 
Q 14.796875 17.390625 18.875 11.75 
Q 22.953125 6.109375 30.078125 6.109375 
Q 37.203125 6.109375 41.296875 11.75 
Q 45.40625 17.390625 45.40625 27.296875 
Q 45.40625 37.203125 41.296875 42.84375 
Q 37.203125 48.484375 30.078125 48.484375 
Q 22.953125 48.484375 18.875 42.84375 
Q 14.796875 37.203125 14.796875 27.296875 
z
" id="DejaVuSans-100"/>
      <path d="M 18.109375 8.203125 
L 18.109375 -20.796875 
L 9.078125 -20.796875 
L 9.078125 54.6875 
L 18.109375 54.6875 
L 18.109375 46.390625 
Q 20.953125 51.265625 25.265625 53.625 
Q 29.59375 56 35.59375 56 
Q 45.5625 56 51.78125 48.09375 
Q 58.015625 40.1875 58.015625 27.296875 
Q 58.015625 14.40625 51.78125 6.484375 
Q 45.5625 -1.421875 35.59375 -1.421875 
Q 29.59375 -1.421875 25.265625 0.953125 
Q 20.953125 3.328125 18.109375 8.203125 
z
M 48.6875 27.296875 
Q 48.6875 37.203125 44.609375 42.84375 
Q 40.53125 48.484375 33.40625 48.484375 
Q 26.265625 48.484375 22.1875 42.84375 
Q 18.109375 37.203125 18.109375 27.296875 
Q 18.109375 17.390625 22.1875 11.75 
Q 26.265625 6.109375 33.40625 6.109375 
Q 40.53125 6.109375 44.609375 11.75 
Q 48.6875 17.390625 48.6875 27.296875 
z
" id="DejaVuSans-112"/>
      <path d="M 44.28125 53.078125 
L 44.28125 44.578125 
Q 40.484375 46.53125 36.375 47.5 
Q 32.28125 48.484375 27.875 48.484375 
Q 21.1875 48.484375 17.84375 46.4375 
Q 14.5 44.390625 14.5 40.28125 
Q 14.5 37.15625 16.890625 35.375 
Q 19.28125 33.59375 26.515625 31.984375 
L 29.59375 31.296875 
Q 39.15625 29.25 43.1875 25.515625 
Q 47.21875 21.78125 47.21875 15.09375 
Q 47.21875 7.46875 41.1875 3.015625 
Q 35.15625 -1.421875 24.609375 -1.421875 
Q 20.21875 -1.421875 15.453125 -0.5625 
Q 10.6875 0.296875 5.421875 2 
L 5.421875 11.28125 
Q 10.40625 8.6875 15.234375 7.390625 
Q 20.0625 6.109375 24.8125 6.109375 
Q 31.15625 6.109375 34.5625 8.28125 
Q 37.984375 10.453125 37.984375 14.40625 
Q 37.984375 18.0625 35.515625 20.015625 
Q 33.0625 21.96875 24.703125 23.78125 
L 21.578125 24.515625 
Q 13.234375 26.265625 9.515625 29.90625 
Q 5.8125 33.546875 5.8125 39.890625 
Q 5.8125 47.609375 11.28125 51.796875 
Q 16.75 56 26.8125 56 
Q 31.78125 56 36.171875 55.265625 
Q 40.578125 54.546875 44.28125 53.078125 
z
" id="DejaVuSans-115"/>
     </defs>
     <g transform="translate(402.45 469.276563)scale(0.1 -0.1)">
      <use xlink:href="#DejaVuSans-78"/>
      <use x="74.804688" xlink:href="#DejaVuSans-117"/>
      <use x="138.183594" xlink:href="#DejaVuSans-109"/>
      <use x="235.595703" xlink:href="#DejaVuSans-98"/>
      <use x="299.072266" xlink:href="#DejaVuSans-101"/>
      <use x="360.595703" xlink:href="#DejaVuSans-114"/>
      <use x="401.708984" xlink:href="#DejaVuSans-32"/>
      <use x="433.496094" xlink:href="#DejaVuSans-111"/>
      <use x="494.677734" xlink:href="#DejaVuSans-102"/>
      <use x="529.882812" xlink:href="#DejaVuSans-32"/>
      <use x="561.669922" xlink:href="#DejaVuSans-116"/>
      <use x="600.878906" xlink:href="#DejaVuSans-114"/>
      <use x="641.992188" xlink:href="#DejaVuSans-97"/>
      <use x="703.271484" xlink:href="#DejaVuSans-105"/>
      <use x="731.054688" xlink:href="#DejaVuSans-110"/>
      <use x="794.433594" xlink:href="#DejaVuSans-105"/>
      <use x="822.216797" xlink:href="#DejaVuSans-110"/>
      <use x="885.595703" xlink:href="#DejaVuSans-103"/>
      <use x="949.072266" xlink:href="#DejaVuSans-32"/>
      <use x="980.859375" xlink:href="#DejaVuSans-100"/>
      <use x="1044.335938" xlink:href="#DejaVuSans-97"/>
      <use x="1105.615234" xlink:href="#DejaVuSans-116"/>
      <use x="1144.824219" xlink:href="#DejaVuSans-97"/>
      <use x="1206.103516" xlink:href="#DejaVuSans-32"/>
      <use x="1237.890625" xlink:href="#DejaVuSans-112"/>
      <use x="1301.367188" xlink:href="#DejaVuSans-111"/>
      <use x="1362.548828" xlink:href="#DejaVuSans-105"/>
      <use x="1390.332031" xlink:href="#DejaVuSans-110"/>
      <use x="1453.710938" xlink:href="#DejaVuSans-116"/>
      <use x="1492.919922" xlink:href="#DejaVuSans-115"/>
     </g>
    </g>
   </g>
   <g id="matplotlib.axis_2">
    <g id="ytick_1">
     <g id="line2d_7">
      <defs>
       <path d="M 0 0 
L -3.5 0 
" id="m605f3fae99" style="stroke:#000000;stroke-width:0.8;"/>
      </defs>
      <g>
       <use style="stroke:#000000;stroke-width:0.8;" x="117" xlink:href="#m605f3fae99" y="415.348096"/>
      </g>
     </g>
     <g id="text_8">
      <!-- $\mathdefault{10^{-3}}$ -->
      <defs>
       <path d="M 10.59375 35.5 
L 73.1875 35.5 
L 73.1875 27.203125 
L 10.59375 27.203125 
z
" id="DejaVuSans-8722"/>
       <path d="M 40.578125 39.3125 
Q 47.65625 37.796875 51.625 33 
Q 55.609375 28.21875 55.609375 21.1875 
Q 55.609375 10.40625 48.1875 4.484375 
Q 40.765625 -1.421875 27.09375 -1.421875 
Q 22.515625 -1.421875 17.65625 -0.515625 
Q 12.796875 0.390625 7.625 2.203125 
L 7.625 11.71875 
Q 11.71875 9.328125 16.59375 8.109375 
Q 21.484375 6.890625 26.8125 6.890625 
Q 36.078125 6.890625 40.9375 10.546875 
Q 45.796875 14.203125 45.796875 21.1875 
Q 45.796875 27.640625 41.28125 31.265625 
Q 36.765625 34.90625 28.71875 34.90625 
L 20.21875 34.90625 
L 20.21875 43.015625 
L 29.109375 43.015625 
Q 36.375 43.015625 40.234375 45.921875 
Q 44.09375 48.828125 44.09375 54.296875 
Q 44.09375 59.90625 40.109375 62.90625 
Q 36.140625 65.921875 28.71875 65.921875 
Q 24.65625 65.921875 20.015625 65.03125 
Q 15.375 64.15625 9.8125 62.3125 
L 9.8125 71.09375 
Q 15.4375 72.65625 20.34375 73.4375 
Q 25.25 74.21875 29.59375 74.21875 
Q 40.828125 74.21875 47.359375 69.109375 
Q 53.90625 64.015625 53.90625 55.328125 
Q 53.90625 49.265625 50.4375 45.09375 
Q 46.96875 40.921875 40.578125 39.3125 
z
" id="DejaVuSans-51"/>
      </defs>
      <g transform="translate(86.5 419.147315)scale(0.1 -0.1)">
       <use transform="translate(0 0.765625)" xlink:href="#DejaVuSans-49"/>
       <use transform="translate(63.623047 0.765625)" xlink:href="#DejaVuSans-48"/>
       <use transform="translate(128.203125 39.046875)scale(0.7)" xlink:href="#DejaVuSans-8722"/>
       <use transform="translate(186.855469 39.046875)scale(0.7)" xlink:href="#DejaVuSans-51"/>
      </g>
     </g>
    </g>
    <g id="ytick_2">
     <g id="line2d_8">
      <g>
       <use style="stroke:#000000;stroke-width:0.8;" x="117" xlink:href="#m605f3fae99" y="288.12191"/>
      </g>
     </g>
     <g id="text_9">
      <!-- $\mathdefault{10^{-2}}$ -->
      <g transform="translate(86.5 291.921129)scale(0.1 -0.1)">
       <use transform="translate(0 0.765625)" xlink:href="#DejaVuSans-49"/>
       <use transform="translate(63.623047 0.765625)" xlink:href="#DejaVuSans-48"/>
       <use transform="translate(128.203125 39.046875)scale(0.7)" xlink:href="#DejaVuSans-8722"/>
       <use transform="translate(186.855469 39.046875)scale(0.7)" xlink:href="#DejaVuSans-50"/>
      </g>
     </g>
    </g>
    <g id="ytick_3">
     <g id="line2d_9">
      <g>
       <use style="stroke:#000000;stroke-width:0.8;" x="117" xlink:href="#m605f3fae99" y="160.895725"/>
      </g>
     </g>
     <g id="text_10">
      <!-- $\mathdefault{10^{-1}}$ -->
      <g transform="translate(86.5 164.694944)scale(0.1 -0.1)">
       <use transform="translate(0 0.684375)" xlink:href="#DejaVuSans-49"/>
       <use transform="translate(63.623047 0.684375)" xlink:href="#DejaVuSans-48"/>
       <use transform="translate(128.203125 38.965625)scale(0.7)" xlink:href="#DejaVuSans-8722"/>
       <use transform="translate(186.855469 38.965625)scale(0.7)" xlink:href="#DejaVuSans-49"/>
      </g>
     </g>
    </g>
    <g id="ytick_4">
     <g id="line2d_10">
      <defs>
       <path d="M 0 0 
L -2 0 
" id="m79f3d57c75" style="stroke:#000000;stroke-width:0.6;"/>
      </defs>
      <g>
       <use style="stroke:#000000;stroke-width:0.6;" x="117" xlink:href="#m79f3d57c75" y="435.055682"/>
      </g>
     </g>
    </g>
    <g id="ytick_5">
     <g id="line2d_11">
      <g>
       <use style="stroke:#000000;stroke-width:0.6;" x="117" xlink:href="#m79f3d57c75" y="427.677587"/>
      </g>
     </g>
    </g>
    <g id="ytick_6">
     <g id="line2d_12">
      <g>
       <use style="stroke:#000000;stroke-width:0.6;" x="117" xlink:href="#m79f3d57c75" y="421.169647"/>
      </g>
     </g>
    </g>
    <g id="ytick_7">
     <g id="line2d_13">
      <g>
       <use style="stroke:#000000;stroke-width:0.6;" x="117" xlink:href="#m79f3d57c75" y="377.049198"/>
      </g>
     </g>
    </g>
    <g id="ytick_8">
     <g id="line2d_14">
      <g>
       <use style="stroke:#000000;stroke-width:0.6;" x="117" xlink:href="#m79f3d57c75" y="354.645779"/>
      </g>
     </g>
    </g>
    <g id="ytick_9">
     <g id="line2d_15">
      <g>
       <use style="stroke:#000000;stroke-width:0.6;" x="117" xlink:href="#m79f3d57c75" y="338.7503"/>
      </g>
     </g>
    </g>
    <g id="ytick_10">
     <g id="line2d_16">
      <g>
       <use style="stroke:#000000;stroke-width:0.6;" x="117" xlink:href="#m79f3d57c75" y="326.420809"/>
      </g>
     </g>
    </g>
    <g id="ytick_11">
     <g id="line2d_17">
      <g>
       <use style="stroke:#000000;stroke-width:0.6;" x="117" xlink:href="#m79f3d57c75" y="316.346881"/>
      </g>
     </g>
    </g>
    <g id="ytick_12">
     <g id="line2d_18">
      <g>
       <use style="stroke:#000000;stroke-width:0.6;" x="117" xlink:href="#m79f3d57c75" y="307.829496"/>
      </g>
     </g>
    </g>
    <g id="ytick_13">
     <g id="line2d_19">
      <g>
       <use style="stroke:#000000;stroke-width:0.6;" x="117" xlink:href="#m79f3d57c75" y="300.451402"/>
      </g>
     </g>
    </g>
    <g id="ytick_14">
     <g id="line2d_20">
      <g>
       <use style="stroke:#000000;stroke-width:0.6;" x="117" xlink:href="#m79f3d57c75" y="293.943461"/>
      </g>
     </g>
    </g>
    <g id="ytick_15">
     <g id="line2d_21">
      <g>
       <use style="stroke:#000000;stroke-width:0.6;" x="117" xlink:href="#m79f3d57c75" y="249.823012"/>
      </g>
     </g>
    </g>
    <g id="ytick_16">
     <g id="line2d_22">
      <g>
       <use style="stroke:#000000;stroke-width:0.6;" x="117" xlink:href="#m79f3d57c75" y="227.419593"/>
      </g>
     </g>
    </g>
    <g id="ytick_17">
     <g id="line2d_23">
      <g>
       <use style="stroke:#000000;stroke-width:0.6;" x="117" xlink:href="#m79f3d57c75" y="211.524114"/>
      </g>
     </g>
    </g>
    <g id="ytick_18">
     <g id="line2d_24">
      <g>
       <use style="stroke:#000000;stroke-width:0.6;" x="117" xlink:href="#m79f3d57c75" y="199.194623"/>
      </g>
     </g>
    </g>
    <g id="ytick_19">
     <g id="line2d_25">
      <g>
       <use style="stroke:#000000;stroke-width:0.6;" x="117" xlink:href="#m79f3d57c75" y="189.120695"/>
      </g>
     </g>
    </g>
    <g id="ytick_20">
     <g id="line2d_26">
      <g>
       <use style="stroke:#000000;stroke-width:0.6;" x="117" xlink:href="#m79f3d57c75" y="180.60331"/>
      </g>
     </g>
    </g>
    <g id="ytick_21">
     <g id="line2d_27">
      <g>
       <use style="stroke:#000000;stroke-width:0.6;" x="117" xlink:href="#m79f3d57c75" y="173.225216"/>
      </g>
     </g>
    </g>
    <g id="ytick_22">
     <g id="line2d_28">
      <g>
       <use style="stroke:#000000;stroke-width:0.6;" x="117" xlink:href="#m79f3d57c75" y="166.717276"/>
      </g>
     </g>
    </g>
    <g id="ytick_23">
     <g id="line2d_29">
      <g>
       <use style="stroke:#000000;stroke-width:0.6;" x="117" xlink:href="#m79f3d57c75" y="122.596827"/>
      </g>
     </g>
    </g>
    <g id="ytick_24">
     <g id="line2d_30">
      <g>
       <use style="stroke:#000000;stroke-width:0.6;" x="117" xlink:href="#m79f3d57c75" y="100.193408"/>
      </g>
     </g>
    </g>
    <g id="ytick_25">
     <g id="line2d_31">
      <g>
       <use style="stroke:#000000;stroke-width:0.6;" x="117" xlink:href="#m79f3d57c75" y="84.297929"/>
      </g>
     </g>
    </g>
    <g id="ytick_26">
     <g id="line2d_32">
      <g>
       <use style="stroke:#000000;stroke-width:0.6;" x="117" xlink:href="#m79f3d57c75" y="71.968437"/>
      </g>
     </g>
    </g>
    <g id="ytick_27">
     <g id="line2d_33">
      <g>
       <use style="stroke:#000000;stroke-width:0.6;" x="117" xlink:href="#m79f3d57c75" y="61.89451"/>
      </g>
     </g>
    </g>
    <g id="text_11">
     <!-- Test MSE loss -->
     <defs>
      <path d="M -0.296875 72.90625 
L 61.375 72.90625 
L 61.375 64.59375 
L 35.5 64.59375 
L 35.5 0 
L 25.59375 0 
L 25.59375 64.59375 
L -0.296875 64.59375 
z
" id="DejaVuSans-84"/>
      <path d="M 9.8125 72.90625 
L 24.515625 72.90625 
L 43.109375 23.296875 
L 61.8125 72.90625 
L 76.515625 72.90625 
L 76.515625 0 
L 66.890625 0 
L 66.890625 64.015625 
L 48.09375 14.015625 
L 38.1875 14.015625 
L 19.390625 64.015625 
L 19.390625 0 
L 9.8125 0 
z
" id="DejaVuSans-77"/>
      <path d="M 53.515625 70.515625 
L 53.515625 60.890625 
Q 47.90625 63.578125 42.921875 64.890625 
Q 37.9375 66.21875 33.296875 66.21875 
Q 25.25 66.21875 20.875 63.09375 
Q 16.5 59.96875 16.5 54.203125 
Q 16.5 49.359375 19.40625 46.890625 
Q 22.3125 44.4375 30.421875 42.921875 
L 36.375 41.703125 
Q 47.40625 39.59375 52.65625 34.296875 
Q 57.90625 29 57.90625 20.125 
Q 57.90625 9.515625 50.796875 4.046875 
Q 43.703125 -1.421875 29.984375 -1.421875 
Q 24.8125 -1.421875 18.96875 -0.25 
Q 13.140625 0.921875 6.890625 3.21875 
L 6.890625 13.375 
Q 12.890625 10.015625 18.65625 8.296875 
Q 24.421875 6.59375 29.984375 6.59375 
Q 38.421875 6.59375 43.015625 9.90625 
Q 47.609375 13.234375 47.609375 19.390625 
Q 47.609375 24.75 44.3125 27.78125 
Q 41.015625 30.8125 33.5 32.328125 
L 27.484375 33.5 
Q 16.453125 35.6875 11.515625 40.375 
Q 6.59375 45.0625 6.59375 53.421875 
Q 6.59375 63.09375 13.40625 68.65625 
Q 20.21875 74.21875 32.171875 74.21875 
Q 37.3125 74.21875 42.625 73.28125 
Q 47.953125 72.359375 53.515625 70.515625 
z
" id="DejaVuSans-83"/>
      <path d="M 9.8125 72.90625 
L 55.90625 72.90625 
L 55.90625 64.59375 
L 19.671875 64.59375 
L 19.671875 43.015625 
L 54.390625 43.015625 
L 54.390625 34.71875 
L 19.671875 34.71875 
L 19.671875 8.296875 
L 56.78125 8.296875 
L 56.78125 0 
L 9.8125 0 
z
" id="DejaVuSans-69"/>
      <path d="M 9.421875 75.984375 
L 18.40625 75.984375 
L 18.40625 0 
L 9.421875 0 
z
" id="DejaVuSans-108"/>
     </defs>
     <g transform="translate(80.420312 284.905625)rotate(-90)scale(0.1 -0.1)">
      <use xlink:href="#DejaVuSans-84"/>
      <use x="60.818359" xlink:href="#DejaVuSans-101"/>
      <use x="122.341797" xlink:href="#DejaVuSans-115"/>
      <use x="174.441406" xlink:href="#DejaVuSans-116"/>
      <use x="213.650391" xlink:href="#DejaVuSans-32"/>
      <use x="245.4375" xlink:href="#DejaVuSans-77"/>
      <use x="331.716797" xlink:href="#DejaVuSans-83"/>
      <use x="395.193359" xlink:href="#DejaVuSans-69"/>
      <use x="458.376953" xlink:href="#DejaVuSans-32"/>
      <use x="490.164062" xlink:href="#DejaVuSans-108"/>
      <use x="517.947266" xlink:href="#DejaVuSans-111"/>
      <use x="579.128906" xlink:href="#DejaVuSans-115"/>
      <use x="631.228516" xlink:href="#DejaVuSans-115"/>
     </g>
    </g>
   </g>
   <g id="line2d_34">
    <path clip-path="url(#pd8f437068a)" d="M 149.972727 142.950658 
L 215.918182 176.749109 
L 281.863636 215.863123 
L 347.809091 215.451033 
L 413.754545 208.389671 
L 479.7 217.624598 
L 545.645455 223.32768 
L 611.590909 232.825504 
L 677.536364 242.819633 
L 743.481818 257.372232 
L 809.427273 260.391908 
" style="fill:none;stroke:#1f77b4;stroke-linecap:square;stroke-width:1.5;"/>
   </g>
   <g id="line2d_35">
    <path clip-path="url(#pd8f437068a)" d="M 149.972727 77.776364 
L 215.918182 105.009745 
L 281.863636 147.510809 
L 347.809091 182.716898 
L 413.754545 184.238012 
L 479.7 192.3524 
L 545.645455 193.208347 
L 611.590909 197.72937 
L 677.536364 220.12087 
L 743.481818 219.013584 
L 809.427273 225.610819 
" style="fill:none;stroke:#1f77b4;stroke-dasharray:1.85,0.8;stroke-dashoffset:0;stroke-width:0.5;"/>
   </g>
   <g id="line2d_36">
    <path clip-path="url(#pd8f437068a)" d="M 149.972727 220.466171 
L 215.918182 214.732478 
L 281.863636 227.788256 
L 347.809091 228.433999 
L 413.754545 241.825183 
L 479.7 264.583812 
L 545.645455 278.20681 
L 611.590909 289.578118 
L 677.536364 289.143712 
L 743.481818 303.610973 
L 809.427273 310.29879 
" style="fill:none;stroke:#1f77b4;stroke-dasharray:1.85,0.8;stroke-dashoffset:0;stroke-width:0.5;"/>
   </g>
   <g id="line2d_37">
    <path clip-path="url(#pd8f437068a)" d="M 149.972727 185.836766 
L 215.918182 206.823642 
L 281.863636 240.938833 
L 347.809091 254.245899 
L 413.754545 265.461114 
L 479.7 283.662569 
L 545.645455 287.798614 
L 611.590909 333.140938 
L 677.536364 356.53149 
L 743.481818 367.12036 
L 809.427273 383.866399 
" style="fill:none;stroke:#ff7f0e;stroke-linecap:square;stroke-width:1.5;"/>
   </g>
   <g id="line2d_38">
    <path clip-path="url(#pd8f437068a)" d="M 149.972727 128.161111 
L 215.918182 181.743142 
L 281.863636 199.484686 
L 347.809091 218.404468 
L 413.754545 223.077622 
L 479.7 243.248456 
L 545.645455 241.3318 
L 611.590909 285.025509 
L 677.536364 316.077062 
L 743.481818 333.461443 
L 809.427273 329.928401 
" style="fill:none;stroke:#ff7f0e;stroke-dasharray:1.85,0.8;stroke-dashoffset:0;stroke-width:0.5;"/>
   </g>
   <g id="line2d_39">
    <path clip-path="url(#pd8f437068a)" d="M 149.972727 240.147685 
L 215.918182 244.081091 
L 281.863636 270.560193 
L 347.809091 291.873603 
L 413.754545 289.790088 
L 479.7 327.888883 
L 545.645455 355.295957 
L 611.590909 369.824701 
L 677.536364 402.811481 
L 743.481818 408.258691 
L 809.427273 423.703636 
" style="fill:none;stroke:#ff7f0e;stroke-dasharray:1.85,0.8;stroke-dashoffset:0;stroke-width:0.5;"/>
   </g>
   <g id="line2d_40">
    <path clip-path="url(#pd8f437068a)" d="M 149.972727 168.846092 
L 215.918182 198.305016 
L 281.863636 229.995117 
L 347.809091 250.913947 
L 413.754545 255.405761 
L 479.7 279.844533 
L 545.645455 287.744964 
L 611.590909 329.928357 
L 677.536364 347.258161 
L 743.481818 361.115009 
L 809.427273 374.217171 
" style="fill:none;stroke:#2ca02c;stroke-linecap:square;stroke-width:1.5;"/>
   </g>
   <g id="line2d_41">
    <path clip-path="url(#pd8f437068a)" d="M 149.972727 108.358043 
L 215.918182 161.751652 
L 281.863636 182.553622 
L 347.809091 203.288765 
L 413.754545 200.270905 
L 479.7 232.893381 
L 545.645455 238.798247 
L 611.590909 282.539056 
L 677.536364 308.712574 
L 743.481818 327.054829 
L 809.427273 327.889719 
" style="fill:none;stroke:#2ca02c;stroke-dasharray:1.85,0.8;stroke-dashoffset:0;stroke-width:0.5;"/>
   </g>
   <g id="line2d_42">
    <path clip-path="url(#pd8f437068a)" d="M 149.972727 218.850421 
L 215.918182 231.111128 
L 281.863636 267.181685 
L 347.809091 265.177063 
L 413.754545 290.083415 
L 479.7 316.429874 
L 545.645455 346.248698 
L 611.590909 360.392335 
L 677.536364 404.767699 
L 743.481818 415.750561 
L 809.427273 420.178333 
" style="fill:none;stroke:#2ca02c;stroke-dasharray:1.85,0.8;stroke-dashoffset:0;stroke-width:0.5;"/>
   </g>
   <g id="line2d_43">
    <path clip-path="url(#pd8f437068a)" d="M 149.972727 153.96366 
L 215.918182 190.274379 
L 281.863636 223.768305 
L 347.809091 238.942781 
L 413.754545 243.666865 
L 479.7 262.553357 
L 545.645455 286.739738 
L 611.590909 314.234762 
L 677.536364 335.916816 
L 743.481818 349.140681 
L 809.427273 359.394624 
" style="fill:none;stroke:#d62728;stroke-linecap:square;stroke-width:1.5;"/>
   </g>
   <g id="line2d_44">
    <path clip-path="url(#pd8f437068a)" d="M 149.972727 89.925096 
L 215.918182 134.931085 
L 281.863636 168.517734 
L 347.809091 189.242473 
L 413.754545 199.406691 
L 479.7 226.914302 
L 545.645455 238.335784 
L 611.590909 269.220808 
L 677.536364 314.672213 
L 743.481818 316.884316 
L 809.427273 323.486047 
" style="fill:none;stroke:#d62728;stroke-dasharray:1.85,0.8;stroke-dashoffset:0;stroke-width:0.5;"/>
   </g>
   <g id="line2d_45">
    <path clip-path="url(#pd8f437068a)" d="M 149.972727 199.591646 
L 215.918182 217.28381 
L 281.863636 251.245798 
L 347.809091 251.204313 
L 413.754545 278.72189 
L 479.7 316.744771 
L 545.645455 343.329553 
L 611.590909 357.959384 
L 677.536364 376.6757 
L 743.481818 389.914369 
L 809.427273 420.496939 
" style="fill:none;stroke:#d62728;stroke-dasharray:1.85,0.8;stroke-dashoffset:0;stroke-width:0.5;"/>
   </g>
   <g id="line2d_46">
    <path clip-path="url(#pd8f437068a)" d="M 149.972727 149.001286 
L 215.918182 184.665835 
L 281.863636 222.272108 
L 347.809091 237.609561 
L 413.754545 240.398251 
L 479.7 259.500914 
L 545.645455 276.311243 
L 611.590909 305.919898 
L 677.536364 332.540049 
L 743.481818 350.905902 
L 809.427273 344.820182 
" style="fill:none;stroke:#9467bd;stroke-linecap:square;stroke-width:1.5;"/>
   </g>
   <g id="line2d_47">
    <path clip-path="url(#pd8f437068a)" d="M 149.972727 91.324927 
L 215.918182 126.492468 
L 281.863636 168.241994 
L 347.809091 185.987707 
L 413.754545 199.14763 
L 479.7 223.931021 
L 545.645455 231.451098 
L 611.590909 267.896977 
L 677.536364 305.917523 
L 743.481818 316.242961 
L 809.427273 318.454304 
" style="fill:none;stroke:#9467bd;stroke-dasharray:1.85,0.8;stroke-dashoffset:0;stroke-width:0.5;"/>
   </g>
   <g id="line2d_48">
    <path clip-path="url(#pd8f437068a)" d="M 149.972727 198.600113 
L 215.918182 216.823059 
L 281.863636 252.289431 
L 347.809091 253.511868 
L 413.754545 281.165766 
L 479.7 311.011282 
L 545.645455 345.578238 
L 611.590909 378.646095 
L 677.536364 370.030645 
L 743.481818 384.410859 
L 809.427273 413.67167 
" style="fill:none;stroke:#9467bd;stroke-dasharray:1.85,0.8;stroke-dashoffset:0;stroke-width:0.5;"/>
   </g>
   <g id="line2d_49">
    <path clip-path="url(#pd8f437068a)" d="M 149.972727 158.649623 
L 215.918182 167.897281 
L 281.863636 208.403685 
L 347.809091 222.25658 
L 413.754545 229.389103 
L 479.7 252.931891 
L 545.645455 263.791554 
L 611.590909 300.795846 
L 677.536364 323.838265 
L 743.481818 340.365015 
L 809.427273 336.542967 
" style="fill:none;stroke:#8c564b;stroke-linecap:square;stroke-width:1.5;"/>
   </g>
   <g id="line2d_50">
    <path clip-path="url(#pd8f437068a)" d="M 149.972727 98.23937 
L 215.918182 123.294841 
L 281.863636 162.25302 
L 347.809091 175.184032 
L 413.754545 195.509263 
L 479.7 216.274309 
L 545.645455 228.130606 
L 611.590909 254.890731 
L 677.536364 290.741028 
L 743.481818 302.80869 
L 809.427273 304.304635 
" style="fill:none;stroke:#8c564b;stroke-dasharray:1.85,0.8;stroke-dashoffset:0;stroke-width:0.5;"/>
   </g>
   <g id="line2d_51">
    <path clip-path="url(#pd8f437068a)" d="M 149.972727 185.99236 
L 215.918182 203.247686 
L 281.863636 240.799307 
L 347.809091 257.280508 
L 413.754545 259.519672 
L 479.7 288.43616 
L 545.645455 324.598487 
L 611.590909 358.265835 
L 677.536364 357.913148 
L 743.481818 379.443251 
L 809.427273 396.326429 
" style="fill:none;stroke:#8c564b;stroke-dasharray:1.85,0.8;stroke-dashoffset:0;stroke-width:0.5;"/>
   </g>
   <g id="patch_3">
    <path d="M 117 441 
L 117 60.48 
" style="fill:none;stroke:#000000;stroke-linecap:square;stroke-linejoin:miter;stroke-width:0.8;"/>
   </g>
   <g id="patch_4">
    <path d="M 842.4 441 
L 842.4 60.48 
" style="fill:none;stroke:#000000;stroke-linecap:square;stroke-linejoin:miter;stroke-width:0.8;"/>
   </g>
   <g id="patch_5">
    <path d="M 117 441 
L 842.4 441 
" style="fill:none;stroke:#000000;stroke-linecap:square;stroke-linejoin:miter;stroke-width:0.8;"/>
   </g>
   <g id="patch_6">
    <path d="M 117 60.48 
L 842.4 60.48 
" style="fill:none;stroke:#000000;stroke-linecap:square;stroke-linejoin:miter;stroke-width:0.8;"/>
   </g>
   <g id="legend_1">
    <g id="patch_7">
     <path d="M 764.146875 171.226875 
L 835.4 171.226875 
Q 837.4 171.226875 837.4 169.226875 
L 837.4 67.48 
Q 837.4 65.48 835.4 65.48 
L 764.146875 65.48 
Q 762.146875 65.48 762.146875 67.48 
L 762.146875 169.226875 
Q 762.146875 171.226875 764.146875 171.226875 
z
" style="fill:#ffffff;opacity:0.8;stroke:#cccccc;stroke-linejoin:miter;"/>
    </g>
    <g id="text_12">
     <!-- Learning rate -->
     <defs>
      <path d="M 9.8125 72.90625 
L 19.671875 72.90625 
L 19.671875 8.296875 
L 55.171875 8.296875 
L 55.171875 0 
L 9.8125 0 
z
" id="DejaVuSans-76"/>
     </defs>
     <g transform="translate(766.146875 77.078438)scale(0.1 -0.1)">
      <use xlink:href="#DejaVuSans-76"/>
      <use x="55.697266" xlink:href="#DejaVuSans-101"/>
      <use x="117.220703" xlink:href="#DejaVuSans-97"/>
      <use x="178.5" xlink:href="#DejaVuSans-114"/>
      <use x="219.597656" xlink:href="#DejaVuSans-110"/>
      <use x="282.976562" xlink:href="#DejaVuSans-105"/>
      <use x="310.759766" xlink:href="#DejaVuSans-110"/>
      <use x="374.138672" xlink:href="#DejaVuSans-103"/>
      <use x="437.615234" xlink:href="#DejaVuSans-32"/>
      <use x="469.402344" xlink:href="#DejaVuSans-114"/>
      <use x="510.515625" xlink:href="#DejaVuSans-97"/>
      <use x="571.794922" xlink:href="#DejaVuSans-116"/>
      <use x="611.003906" xlink:href="#DejaVuSans-101"/>
     </g>
    </g>
    <g id="line2d_52">
     <path d="M 768.278125 88.256563 
L 788.278125 88.256563 
" style="fill:none;stroke:#1f77b4;stroke-linecap:square;stroke-width:1.5;"/>
    </g>
    <g id="line2d_53"/>
    <g id="text_13">
     <!-- 1e-05 -->
     <defs>
      <path d="M 4.890625 31.390625 
L 31.203125 31.390625 
L 31.203125 23.390625 
L 4.890625 23.390625 
z
" id="DejaVuSans-45"/>
      <path d="M 10.796875 72.90625 
L 49.515625 72.90625 
L 49.515625 64.59375 
L 19.828125 64.59375 
L 19.828125 46.734375 
Q 21.96875 47.46875 24.109375 47.828125 
Q 26.265625 48.1875 28.421875 48.1875 
Q 40.625 48.1875 47.75 41.5 
Q 54.890625 34.8125 54.890625 23.390625 
Q 54.890625 11.625 47.5625 5.09375 
Q 40.234375 -1.421875 26.90625 -1.421875 
Q 22.3125 -1.421875 17.546875 -0.640625 
Q 12.796875 0.140625 7.71875 1.703125 
L 7.71875 11.625 
Q 12.109375 9.234375 16.796875 8.0625 
Q 21.484375 6.890625 26.703125 6.890625 
Q 35.15625 6.890625 40.078125 11.328125 
Q 45.015625 15.765625 45.015625 23.390625 
Q 45.015625 31 40.078125 35.4375 
Q 35.15625 39.890625 26.703125 39.890625 
Q 22.75 39.890625 18.8125 39.015625 
Q 14.890625 38.140625 10.796875 36.28125 
z
" id="DejaVuSans-53"/>
     </defs>
     <g transform="translate(796.278125 91.756563)scale(0.1 -0.1)">
      <use xlink:href="#DejaVuSans-49"/>
      <use x="63.623047" xlink:href="#DejaVuSans-101"/>
      <use x="125.146484" xlink:href="#DejaVuSans-45"/>
      <use x="161.230469" xlink:href="#DejaVuSans-48"/>
      <use x="224.853516" xlink:href="#DejaVuSans-53"/>
     </g>
    </g>
    <g id="line2d_54">
     <path d="M 768.278125 102.934688 
L 788.278125 102.934688 
" style="fill:none;stroke:#ff7f0e;stroke-linecap:square;stroke-width:1.5;"/>
    </g>
    <g id="line2d_55"/>
    <g id="text_14">
     <!-- 5e-05 -->
     <g transform="translate(796.278125 106.434688)scale(0.1 -0.1)">
      <use xlink:href="#DejaVuSans-53"/>
      <use x="63.623047" xlink:href="#DejaVuSans-101"/>
      <use x="125.146484" xlink:href="#DejaVuSans-45"/>
      <use x="161.230469" xlink:href="#DejaVuSans-48"/>
      <use x="224.853516" xlink:href="#DejaVuSans-53"/>
     </g>
    </g>
    <g id="line2d_56">
     <path d="M 768.278125 117.612813 
L 788.278125 117.612813 
" style="fill:none;stroke:#2ca02c;stroke-linecap:square;stroke-width:1.5;"/>
    </g>
    <g id="line2d_57"/>
    <g id="text_15">
     <!-- 0.0001 -->
     <defs>
      <path d="M 10.6875 12.40625 
L 21 12.40625 
L 21 0 
L 10.6875 0 
z
" id="DejaVuSans-46"/>
     </defs>
     <g transform="translate(796.278125 121.112813)scale(0.1 -0.1)">
      <use xlink:href="#DejaVuSans-48"/>
      <use x="63.623047" xlink:href="#DejaVuSans-46"/>
      <use x="95.410156" xlink:href="#DejaVuSans-48"/>
      <use x="159.033203" xlink:href="#DejaVuSans-48"/>
      <use x="222.65625" xlink:href="#DejaVuSans-48"/>
      <use x="286.279297" xlink:href="#DejaVuSans-49"/>
     </g>
    </g>
    <g id="line2d_58">
     <path d="M 768.278125 132.290938 
L 788.278125 132.290938 
" style="fill:none;stroke:#d62728;stroke-linecap:square;stroke-width:1.5;"/>
    </g>
    <g id="line2d_59"/>
    <g id="text_16">
     <!-- 0.0005 -->
     <g transform="translate(796.278125 135.790938)scale(0.1 -0.1)">
      <use xlink:href="#DejaVuSans-48"/>
      <use x="63.623047" xlink:href="#DejaVuSans-46"/>
      <use x="95.410156" xlink:href="#DejaVuSans-48"/>
      <use x="159.033203" xlink:href="#DejaVuSans-48"/>
      <use x="222.65625" xlink:href="#DejaVuSans-48"/>
      <use x="286.279297" xlink:href="#DejaVuSans-53"/>
     </g>
    </g>
    <g id="line2d_60">
     <path d="M 768.278125 146.969063 
L 788.278125 146.969063 
" style="fill:none;stroke:#9467bd;stroke-linecap:square;stroke-width:1.5;"/>
    </g>
    <g id="line2d_61"/>
    <g id="text_17">
     <!-- 0.001 -->
     <g transform="translate(796.278125 150.469063)scale(0.1 -0.1)">
      <use xlink:href="#DejaVuSans-48"/>
      <use x="63.623047" xlink:href="#DejaVuSans-46"/>
      <use x="95.410156" xlink:href="#DejaVuSans-48"/>
      <use x="159.033203" xlink:href="#DejaVuSans-48"/>
      <use x="222.65625" xlink:href="#DejaVuSans-49"/>
     </g>
    </g>
    <g id="line2d_62">
     <path d="M 768.278125 161.647188 
L 788.278125 161.647188 
" style="fill:none;stroke:#8c564b;stroke-linecap:square;stroke-width:1.5;"/>
    </g>
    <g id="line2d_63"/>
    <g id="text_18">
     <!-- 0.005 -->
     <g transform="translate(796.278125 165.147188)scale(0.1 -0.1)">
      <use xlink:href="#DejaVuSans-48"/>
      <use x="63.623047" xlink:href="#DejaVuSans-46"/>
      <use x="95.410156" xlink:href="#DejaVuSans-48"/>
      <use x="159.033203" xlink:href="#DejaVuSans-48"/>
      <use x="222.65625" xlink:href="#DejaVuSans-53"/>
     </g>
    </g>
   </g>
  </g>
 </g>
 <defs>
  <clipPath id="pd8f437068a">
   <rect height="380.52" width="725.4" x="117" y="60.48"/>
  </clipPath>
 </defs>
</svg>
