<?xml version="1.0" encoding="utf-8" standalone="no"?>
<!DOCTYPE svg PUBLIC "-//W3C//DTD SVG 1.1//EN"
  "http://www.w3.org/Graphics/SVG/1.1/DTD/svg11.dtd">
<!-- Created with matplotlib (https://matplotlib.org/) -->
<svg height="504pt" version="1.1" viewBox="0 0 936 504" width="936pt" xmlns="http://www.w3.org/2000/svg" xmlns:xlink="http://www.w3.org/1999/xlink">
 <defs>
  <style type="text/css">
*{stroke-linecap:butt;stroke-linejoin:round;}
  </style>
 </defs>
 <g id="figure_1">
  <g id="patch_1">
   <path d="M 0 504 
L 936 504 
L 936 0 
L 0 0 
z
" style="fill:#ffffff;"/>
  </g>
  <g id="axes_1">
   <g id="patch_2">
    <path d="M 117 441 
L 842.4 441 
L 842.4 60.48 
L 117 60.48 
z
" style="fill:#ffffff;"/>
   </g>
   <g id="matplotlib.axis_1">
    <g id="xtick_1">
     <g id="line2d_1">
      <defs>
       <path d="M 0 0 
L 0 3.5 
" id="m8abb1bfb2c" style="stroke:#000000;stroke-width:0.8;"/>
      </defs>
      <g>
       <use style="stroke:#000000;stroke-width:0.8;" x="158.462431" xlink:href="#m8abb1bfb2c" y="441"/>
      </g>
     </g>
     <g id="text_1">
      <!-- −3 -->
      <defs>
       <path d="M 10.59375 35.5 
L 73.1875 35.5 
L 73.1875 27.203125 
L 10.59375 27.203125 
z
" id="DejaVuSans-8722"/>
       <path d="M 40.578125 39.3125 
Q 47.65625 37.796875 51.625 33 
Q 55.609375 28.21875 55.609375 21.1875 
Q 55.609375 10.40625 48.1875 4.484375 
Q 40.765625 -1.421875 27.09375 -1.421875 
Q 22.515625 -1.421875 17.65625 -0.515625 
Q 12.796875 0.390625 7.625 2.203125 
L 7.625 11.71875 
Q 11.71875 9.328125 16.59375 8.109375 
Q 21.484375 6.890625 26.8125 6.890625 
Q 36.078125 6.890625 40.9375 10.546875 
Q 45.796875 14.203125 45.796875 21.1875 
Q 45.796875 27.640625 41.28125 31.265625 
Q 36.765625 34.90625 28.71875 34.90625 
L 20.21875 34.90625 
L 20.21875 43.015625 
L 29.109375 43.015625 
Q 36.375 43.015625 40.234375 45.921875 
Q 44.09375 48.828125 44.09375 54.296875 
Q 44.09375 59.90625 40.109375 62.90625 
Q 36.140625 65.921875 28.71875 65.921875 
Q 24.65625 65.921875 20.015625 65.03125 
Q 15.375 64.15625 9.8125 62.3125 
L 9.8125 71.09375 
Q 15.4375 72.65625 20.34375 73.4375 
Q 25.25 74.21875 29.59375 74.21875 
Q 40.828125 74.21875 47.359375 69.109375 
Q 53.90625 64.015625 53.90625 55.328125 
Q 53.90625 49.265625 50.4375 45.09375 
Q 46.96875 40.921875 40.578125 39.3125 
z
" id="DejaVuSans-51"/>
      </defs>
      <g transform="translate(151.091337 455.598437)scale(0.1 -0.1)">
       <use xlink:href="#DejaVuSans-8722"/>
       <use x="83.789062" xlink:href="#DejaVuSans-51"/>
      </g>
     </g>
    </g>
    <g id="xtick_2">
     <g id="line2d_2">
      <g>
       <use style="stroke:#000000;stroke-width:0.8;" x="265.550843" xlink:href="#m8abb1bfb2c" y="441"/>
      </g>
     </g>
     <g id="text_2">
      <!-- −2 -->
      <defs>
       <path d="M 19.1875 8.296875 
L 53.609375 8.296875 
L 53.609375 0 
L 7.328125 0 
L 7.328125 8.296875 
Q 12.9375 14.109375 22.625 23.890625 
Q 32.328125 33.6875 34.8125 36.53125 
Q 39.546875 41.84375 41.421875 45.53125 
Q 43.3125 49.21875 43.3125 52.78125 
Q 43.3125 58.59375 39.234375 62.25 
Q 35.15625 65.921875 28.609375 65.921875 
Q 23.96875 65.921875 18.8125 64.3125 
Q 13.671875 62.703125 7.8125 59.421875 
L 7.8125 69.390625 
Q 13.765625 71.78125 18.9375 73 
Q 24.125 74.21875 28.421875 74.21875 
Q 39.75 74.21875 46.484375 68.546875 
Q 53.21875 62.890625 53.21875 53.421875 
Q 53.21875 48.921875 51.53125 44.890625 
Q 49.859375 40.875 45.40625 35.40625 
Q 44.1875 33.984375 37.640625 27.21875 
Q 31.109375 20.453125 19.1875 8.296875 
z
" id="DejaVuSans-50"/>
      </defs>
      <g transform="translate(258.179749 455.598437)scale(0.1 -0.1)">
       <use xlink:href="#DejaVuSans-8722"/>
       <use x="83.789062" xlink:href="#DejaVuSans-50"/>
      </g>
     </g>
    </g>
    <g id="xtick_3">
     <g id="line2d_3">
      <g>
       <use style="stroke:#000000;stroke-width:0.8;" x="372.639255" xlink:href="#m8abb1bfb2c" y="441"/>
      </g>
     </g>
     <g id="text_3">
      <!-- −1 -->
      <defs>
       <path d="M 12.40625 8.296875 
L 28.515625 8.296875 
L 28.515625 63.921875 
L 10.984375 60.40625 
L 10.984375 69.390625 
L 28.421875 72.90625 
L 38.28125 72.90625 
L 38.28125 8.296875 
L 54.390625 8.296875 
L 54.390625 0 
L 12.40625 0 
z
" id="DejaVuSans-49"/>
      </defs>
      <g transform="translate(365.268161 455.598437)scale(0.1 -0.1)">
       <use xlink:href="#DejaVuSans-8722"/>
       <use x="83.789062" xlink:href="#DejaVuSans-49"/>
      </g>
     </g>
    </g>
    <g id="xtick_4">
     <g id="line2d_4">
      <g>
       <use style="stroke:#000000;stroke-width:0.8;" x="479.727667" xlink:href="#m8abb1bfb2c" y="441"/>
      </g>
     </g>
     <g id="text_4">
      <!-- 0 -->
      <defs>
       <path d="M 31.78125 66.40625 
Q 24.171875 66.40625 20.328125 58.90625 
Q 16.5 51.421875 16.5 36.375 
Q 16.5 21.390625 20.328125 13.890625 
Q 24.171875 6.390625 31.78125 6.390625 
Q 39.453125 6.390625 43.28125 13.890625 
Q 47.125 21.390625 47.125 36.375 
Q 47.125 51.421875 43.28125 58.90625 
Q 39.453125 66.40625 31.78125 66.40625 
z
M 31.78125 74.21875 
Q 44.046875 74.21875 50.515625 64.515625 
Q 56.984375 54.828125 56.984375 36.375 
Q 56.984375 17.96875 50.515625 8.265625 
Q 44.046875 -1.421875 31.78125 -1.421875 
Q 19.53125 -1.421875 13.0625 8.265625 
Q 6.59375 17.96875 6.59375 36.375 
Q 6.59375 54.828125 13.0625 64.515625 
Q 19.53125 74.21875 31.78125 74.21875 
z
" id="DejaVuSans-48"/>
      </defs>
      <g transform="translate(476.546417 455.598437)scale(0.1 -0.1)">
       <use xlink:href="#DejaVuSans-48"/>
      </g>
     </g>
    </g>
    <g id="xtick_5">
     <g id="line2d_5">
      <g>
       <use style="stroke:#000000;stroke-width:0.8;" x="586.816079" xlink:href="#m8abb1bfb2c" y="441"/>
      </g>
     </g>
     <g id="text_5">
      <!-- 1 -->
      <g transform="translate(583.634829 455.598437)scale(0.1 -0.1)">
       <use xlink:href="#DejaVuSans-49"/>
      </g>
     </g>
    </g>
    <g id="xtick_6">
     <g id="line2d_6">
      <g>
       <use style="stroke:#000000;stroke-width:0.8;" x="693.904491" xlink:href="#m8abb1bfb2c" y="441"/>
      </g>
     </g>
     <g id="text_6">
      <!-- 2 -->
      <g transform="translate(690.723241 455.598437)scale(0.1 -0.1)">
       <use xlink:href="#DejaVuSans-50"/>
      </g>
     </g>
    </g>
    <g id="xtick_7">
     <g id="line2d_7">
      <g>
       <use style="stroke:#000000;stroke-width:0.8;" x="800.992904" xlink:href="#m8abb1bfb2c" y="441"/>
      </g>
     </g>
     <g id="text_7">
      <!-- 3 -->
      <g transform="translate(797.811654 455.598437)scale(0.1 -0.1)">
       <use xlink:href="#DejaVuSans-51"/>
      </g>
     </g>
    </g>
    <g id="text_8">
     <!-- Alpha -->
     <defs>
      <path d="M 34.1875 63.1875 
L 20.796875 26.90625 
L 47.609375 26.90625 
z
M 28.609375 72.90625 
L 39.796875 72.90625 
L 67.578125 0 
L 57.328125 0 
L 50.6875 18.703125 
L 17.828125 18.703125 
L 11.1875 0 
L 0.78125 0 
z
" id="DejaVuSans-65"/>
      <path d="M 9.421875 75.984375 
L 18.40625 75.984375 
L 18.40625 0 
L 9.421875 0 
z
" id="DejaVuSans-108"/>
      <path d="M 18.109375 8.203125 
L 18.109375 -20.796875 
L 9.078125 -20.796875 
L 9.078125 54.6875 
L 18.109375 54.6875 
L 18.109375 46.390625 
Q 20.953125 51.265625 25.265625 53.625 
Q 29.59375 56 35.59375 56 
Q 45.5625 56 51.78125 48.09375 
Q 58.015625 40.1875 58.015625 27.296875 
Q 58.015625 14.40625 51.78125 6.484375 
Q 45.5625 -1.421875 35.59375 -1.421875 
Q 29.59375 -1.421875 25.265625 0.953125 
Q 20.953125 3.328125 18.109375 8.203125 
z
M 48.6875 27.296875 
Q 48.6875 37.203125 44.609375 42.84375 
Q 40.53125 48.484375 33.40625 48.484375 
Q 26.265625 48.484375 22.1875 42.84375 
Q 18.109375 37.203125 18.109375 27.296875 
Q 18.109375 17.390625 22.1875 11.75 
Q 26.265625 6.109375 33.40625 6.109375 
Q 40.53125 6.109375 44.609375 11.75 
Q 48.6875 17.390625 48.6875 27.296875 
z
" id="DejaVuSans-112"/>
      <path d="M 54.890625 33.015625 
L 54.890625 0 
L 45.90625 0 
L 45.90625 32.71875 
Q 45.90625 40.484375 42.875 44.328125 
Q 39.84375 48.1875 33.796875 48.1875 
Q 26.515625 48.1875 22.3125 43.546875 
Q 18.109375 38.921875 18.109375 30.90625 
L 18.109375 0 
L 9.078125 0 
L 9.078125 75.984375 
L 18.109375 75.984375 
L 18.109375 46.1875 
Q 21.34375 51.125 25.703125 53.5625 
Q 30.078125 56 35.796875 56 
Q 45.21875 56 50.046875 50.171875 
Q 54.890625 44.34375 54.890625 33.015625 
z
" id="DejaVuSans-104"/>
      <path d="M 34.28125 27.484375 
Q 23.390625 27.484375 19.1875 25 
Q 14.984375 22.515625 14.984375 16.5 
Q 14.984375 11.71875 18.140625 8.90625 
Q 21.296875 6.109375 26.703125 6.109375 
Q 34.1875 6.109375 38.703125 11.40625 
Q 43.21875 16.703125 43.21875 25.484375 
L 43.21875 27.484375 
z
M 52.203125 31.203125 
L 52.203125 0 
L 43.21875 0 
L 43.21875 8.296875 
Q 40.140625 3.328125 35.546875 0.953125 
Q 30.953125 -1.421875 24.3125 -1.421875 
Q 15.921875 -1.421875 10.953125 3.296875 
Q 6 8.015625 6 15.921875 
Q 6 25.140625 12.171875 29.828125 
Q 18.359375 34.515625 30.609375 34.515625 
L 43.21875 34.515625 
L 43.21875 35.40625 
Q 43.21875 41.609375 39.140625 45 
Q 35.0625 48.390625 27.6875 48.390625 
Q 23 48.390625 18.546875 47.265625 
Q 14.109375 46.140625 10.015625 43.890625 
L 10.015625 52.203125 
Q 14.9375 54.109375 19.578125 55.046875 
Q 24.21875 56 28.609375 56 
Q 40.484375 56 46.34375 49.84375 
Q 52.203125 43.703125 52.203125 31.203125 
z
" id="DejaVuSans-97"/>
     </defs>
     <g transform="translate(465.483594 469.276563)scale(0.1 -0.1)">
      <use xlink:href="#DejaVuSans-65"/>
      <use x="68.408203" xlink:href="#DejaVuSans-108"/>
      <use x="96.191406" xlink:href="#DejaVuSans-112"/>
      <use x="159.667969" xlink:href="#DejaVuSans-104"/>
      <use x="223.046875" xlink:href="#DejaVuSans-97"/>
     </g>
    </g>
   </g>
   <g id="matplotlib.axis_2">
    <g id="ytick_1">
     <g id="line2d_8">
      <defs>
       <path d="M 0 0 
L -3.5 0 
" id="mb5b71f42c9" style="stroke:#000000;stroke-width:0.8;"/>
      </defs>
      <g>
       <use style="stroke:#000000;stroke-width:0.8;" x="117" xlink:href="#mb5b71f42c9" y="423.703809"/>
      </g>
     </g>
     <g id="text_9">
      <!-- 0.00 -->
      <defs>
       <path d="M 10.6875 12.40625 
L 21 12.40625 
L 21 0 
L 10.6875 0 
z
" id="DejaVuSans-46"/>
      </defs>
      <g transform="translate(87.734375 427.503027)scale(0.1 -0.1)">
       <use xlink:href="#DejaVuSans-48"/>
       <use x="63.623047" xlink:href="#DejaVuSans-46"/>
       <use x="95.410156" xlink:href="#DejaVuSans-48"/>
       <use x="159.033203" xlink:href="#DejaVuSans-48"/>
      </g>
     </g>
    </g>
    <g id="ytick_2">
     <g id="line2d_9">
      <g>
       <use style="stroke:#000000;stroke-width:0.8;" x="117" xlink:href="#mb5b71f42c9" y="381.322603"/>
      </g>
     </g>
     <g id="text_10">
      <!-- 0.25 -->
      <defs>
       <path d="M 10.796875 72.90625 
L 49.515625 72.90625 
L 49.515625 64.59375 
L 19.828125 64.59375 
L 19.828125 46.734375 
Q 21.96875 47.46875 24.109375 47.828125 
Q 26.265625 48.1875 28.421875 48.1875 
Q 40.625 48.1875 47.75 41.5 
Q 54.890625 34.8125 54.890625 23.390625 
Q 54.890625 11.625 47.5625 5.09375 
Q 40.234375 -1.421875 26.90625 -1.421875 
Q 22.3125 -1.421875 17.546875 -0.640625 
Q 12.796875 0.140625 7.71875 1.703125 
L 7.71875 11.625 
Q 12.109375 9.234375 16.796875 8.0625 
Q 21.484375 6.890625 26.703125 6.890625 
Q 35.15625 6.890625 40.078125 11.328125 
Q 45.015625 15.765625 45.015625 23.390625 
Q 45.015625 31 40.078125 35.4375 
Q 35.15625 39.890625 26.703125 39.890625 
Q 22.75 39.890625 18.8125 39.015625 
Q 14.890625 38.140625 10.796875 36.28125 
z
" id="DejaVuSans-53"/>
      </defs>
      <g transform="translate(87.734375 385.121822)scale(0.1 -0.1)">
       <use xlink:href="#DejaVuSans-48"/>
       <use x="63.623047" xlink:href="#DejaVuSans-46"/>
       <use x="95.410156" xlink:href="#DejaVuSans-50"/>
       <use x="159.033203" xlink:href="#DejaVuSans-53"/>
      </g>
     </g>
    </g>
    <g id="ytick_3">
     <g id="line2d_10">
      <g>
       <use style="stroke:#000000;stroke-width:0.8;" x="117" xlink:href="#mb5b71f42c9" y="338.941397"/>
      </g>
     </g>
     <g id="text_11">
      <!-- 0.50 -->
      <g transform="translate(87.734375 342.740616)scale(0.1 -0.1)">
       <use xlink:href="#DejaVuSans-48"/>
       <use x="63.623047" xlink:href="#DejaVuSans-46"/>
       <use x="95.410156" xlink:href="#DejaVuSans-53"/>
       <use x="159.033203" xlink:href="#DejaVuSans-48"/>
      </g>
     </g>
    </g>
    <g id="ytick_4">
     <g id="line2d_11">
      <g>
       <use style="stroke:#000000;stroke-width:0.8;" x="117" xlink:href="#mb5b71f42c9" y="296.560192"/>
      </g>
     </g>
     <g id="text_12">
      <!-- 0.75 -->
      <defs>
       <path d="M 8.203125 72.90625 
L 55.078125 72.90625 
L 55.078125 68.703125 
L 28.609375 0 
L 18.3125 0 
L 43.21875 64.59375 
L 8.203125 64.59375 
z
" id="DejaVuSans-55"/>
      </defs>
      <g transform="translate(87.734375 300.359411)scale(0.1 -0.1)">
       <use xlink:href="#DejaVuSans-48"/>
       <use x="63.623047" xlink:href="#DejaVuSans-46"/>
       <use x="95.410156" xlink:href="#DejaVuSans-55"/>
       <use x="159.033203" xlink:href="#DejaVuSans-53"/>
      </g>
     </g>
    </g>
    <g id="ytick_5">
     <g id="line2d_12">
      <g>
       <use style="stroke:#000000;stroke-width:0.8;" x="117" xlink:href="#mb5b71f42c9" y="254.178986"/>
      </g>
     </g>
     <g id="text_13">
      <!-- 1.00 -->
      <g transform="translate(87.734375 257.978205)scale(0.1 -0.1)">
       <use xlink:href="#DejaVuSans-49"/>
       <use x="63.623047" xlink:href="#DejaVuSans-46"/>
       <use x="95.410156" xlink:href="#DejaVuSans-48"/>
       <use x="159.033203" xlink:href="#DejaVuSans-48"/>
      </g>
     </g>
    </g>
    <g id="ytick_6">
     <g id="line2d_13">
      <g>
       <use style="stroke:#000000;stroke-width:0.8;" x="117" xlink:href="#mb5b71f42c9" y="211.797781"/>
      </g>
     </g>
     <g id="text_14">
      <!-- 1.25 -->
      <g transform="translate(87.734375 215.596999)scale(0.1 -0.1)">
       <use xlink:href="#DejaVuSans-49"/>
       <use x="63.623047" xlink:href="#DejaVuSans-46"/>
       <use x="95.410156" xlink:href="#DejaVuSans-50"/>
       <use x="159.033203" xlink:href="#DejaVuSans-53"/>
      </g>
     </g>
    </g>
    <g id="ytick_7">
     <g id="line2d_14">
      <g>
       <use style="stroke:#000000;stroke-width:0.8;" x="117" xlink:href="#mb5b71f42c9" y="169.416575"/>
      </g>
     </g>
     <g id="text_15">
      <!-- 1.50 -->
      <g transform="translate(87.734375 173.215794)scale(0.1 -0.1)">
       <use xlink:href="#DejaVuSans-49"/>
       <use x="63.623047" xlink:href="#DejaVuSans-46"/>
       <use x="95.410156" xlink:href="#DejaVuSans-53"/>
       <use x="159.033203" xlink:href="#DejaVuSans-48"/>
      </g>
     </g>
    </g>
    <g id="ytick_8">
     <g id="line2d_15">
      <g>
       <use style="stroke:#000000;stroke-width:0.8;" x="117" xlink:href="#mb5b71f42c9" y="127.035369"/>
      </g>
     </g>
     <g id="text_16">
      <!-- 1.75 -->
      <g transform="translate(87.734375 130.834588)scale(0.1 -0.1)">
       <use xlink:href="#DejaVuSans-49"/>
       <use x="63.623047" xlink:href="#DejaVuSans-46"/>
       <use x="95.410156" xlink:href="#DejaVuSans-55"/>
       <use x="159.033203" xlink:href="#DejaVuSans-53"/>
      </g>
     </g>
    </g>
    <g id="ytick_9">
     <g id="line2d_16">
      <g>
       <use style="stroke:#000000;stroke-width:0.8;" x="117" xlink:href="#mb5b71f42c9" y="84.654164"/>
      </g>
     </g>
     <g id="text_17">
      <!-- 2.00 -->
      <g transform="translate(87.734375 88.453383)scale(0.1 -0.1)">
       <use xlink:href="#DejaVuSans-50"/>
       <use x="63.623047" xlink:href="#DejaVuSans-46"/>
       <use x="95.410156" xlink:href="#DejaVuSans-48"/>
       <use x="159.033203" xlink:href="#DejaVuSans-48"/>
      </g>
     </g>
    </g>
    <g id="text_18">
     <!-- Norm, Determinant, MSE loss -->
     <defs>
      <path d="M 9.8125 72.90625 
L 23.09375 72.90625 
L 55.421875 11.921875 
L 55.421875 72.90625 
L 64.984375 72.90625 
L 64.984375 0 
L 51.703125 0 
L 19.390625 60.984375 
L 19.390625 0 
L 9.8125 0 
z
" id="DejaVuSans-78"/>
      <path d="M 30.609375 48.390625 
Q 23.390625 48.390625 19.1875 42.75 
Q 14.984375 37.109375 14.984375 27.296875 
Q 14.984375 17.484375 19.15625 11.84375 
Q 23.34375 6.203125 30.609375 6.203125 
Q 37.796875 6.203125 41.984375 11.859375 
Q 46.1875 17.53125 46.1875 27.296875 
Q 46.1875 37.015625 41.984375 42.703125 
Q 37.796875 48.390625 30.609375 48.390625 
z
M 30.609375 56 
Q 42.328125 56 49.015625 48.375 
Q 55.71875 40.765625 55.71875 27.296875 
Q 55.71875 13.875 49.015625 6.21875 
Q 42.328125 -1.421875 30.609375 -1.421875 
Q 18.84375 -1.421875 12.171875 6.21875 
Q 5.515625 13.875 5.515625 27.296875 
Q 5.515625 40.765625 12.171875 48.375 
Q 18.84375 56 30.609375 56 
z
" id="DejaVuSans-111"/>
      <path d="M 41.109375 46.296875 
Q 39.59375 47.171875 37.8125 47.578125 
Q 36.03125 48 33.890625 48 
Q 26.265625 48 22.1875 43.046875 
Q 18.109375 38.09375 18.109375 28.8125 
L 18.109375 0 
L 9.078125 0 
L 9.078125 54.6875 
L 18.109375 54.6875 
L 18.109375 46.1875 
Q 20.953125 51.171875 25.484375 53.578125 
Q 30.03125 56 36.53125 56 
Q 37.453125 56 38.578125 55.875 
Q 39.703125 55.765625 41.0625 55.515625 
z
" id="DejaVuSans-114"/>
      <path d="M 52 44.1875 
Q 55.375 50.25 60.0625 53.125 
Q 64.75 56 71.09375 56 
Q 79.640625 56 84.28125 50.015625 
Q 88.921875 44.046875 88.921875 33.015625 
L 88.921875 0 
L 79.890625 0 
L 79.890625 32.71875 
Q 79.890625 40.578125 77.09375 44.375 
Q 74.3125 48.1875 68.609375 48.1875 
Q 61.625 48.1875 57.5625 43.546875 
Q 53.515625 38.921875 53.515625 30.90625 
L 53.515625 0 
L 44.484375 0 
L 44.484375 32.71875 
Q 44.484375 40.625 41.703125 44.40625 
Q 38.921875 48.1875 33.109375 48.1875 
Q 26.21875 48.1875 22.15625 43.53125 
Q 18.109375 38.875 18.109375 30.90625 
L 18.109375 0 
L 9.078125 0 
L 9.078125 54.6875 
L 18.109375 54.6875 
L 18.109375 46.1875 
Q 21.1875 51.21875 25.484375 53.609375 
Q 29.78125 56 35.6875 56 
Q 41.65625 56 45.828125 52.96875 
Q 50 49.953125 52 44.1875 
z
" id="DejaVuSans-109"/>
      <path d="M 11.71875 12.40625 
L 22.015625 12.40625 
L 22.015625 4 
L 14.015625 -11.625 
L 7.71875 -11.625 
L 11.71875 4 
z
" id="DejaVuSans-44"/>
      <path id="DejaVuSans-32"/>
      <path d="M 19.671875 64.796875 
L 19.671875 8.109375 
L 31.59375 8.109375 
Q 46.6875 8.109375 53.6875 14.9375 
Q 60.6875 21.78125 60.6875 36.53125 
Q 60.6875 51.171875 53.6875 57.984375 
Q 46.6875 64.796875 31.59375 64.796875 
z
M 9.8125 72.90625 
L 30.078125 72.90625 
Q 51.265625 72.90625 61.171875 64.09375 
Q 71.09375 55.28125 71.09375 36.53125 
Q 71.09375 17.671875 61.125 8.828125 
Q 51.171875 0 30.078125 0 
L 9.8125 0 
z
" id="DejaVuSans-68"/>
      <path d="M 56.203125 29.59375 
L 56.203125 25.203125 
L 14.890625 25.203125 
Q 15.484375 15.921875 20.484375 11.0625 
Q 25.484375 6.203125 34.421875 6.203125 
Q 39.59375 6.203125 44.453125 7.46875 
Q 49.3125 8.734375 54.109375 11.28125 
L 54.109375 2.78125 
Q 49.265625 0.734375 44.1875 -0.34375 
Q 39.109375 -1.421875 33.890625 -1.421875 
Q 20.796875 -1.421875 13.15625 6.1875 
Q 5.515625 13.8125 5.515625 26.8125 
Q 5.515625 40.234375 12.765625 48.109375 
Q 20.015625 56 32.328125 56 
Q 43.359375 56 49.78125 48.890625 
Q 56.203125 41.796875 56.203125 29.59375 
z
M 47.21875 32.234375 
Q 47.125 39.59375 43.09375 43.984375 
Q 39.0625 48.390625 32.421875 48.390625 
Q 24.90625 48.390625 20.390625 44.140625 
Q 15.875 39.890625 15.1875 32.171875 
z
" id="DejaVuSans-101"/>
      <path d="M 18.3125 70.21875 
L 18.3125 54.6875 
L 36.8125 54.6875 
L 36.8125 47.703125 
L 18.3125 47.703125 
L 18.3125 18.015625 
Q 18.3125 11.328125 20.140625 9.421875 
Q 21.96875 7.515625 27.59375 7.515625 
L 36.8125 7.515625 
L 36.8125 0 
L 27.59375 0 
Q 17.1875 0 13.234375 3.875 
Q 9.28125 7.765625 9.28125 18.015625 
L 9.28125 47.703125 
L 2.6875 47.703125 
L 2.6875 54.6875 
L 9.28125 54.6875 
L 9.28125 70.21875 
z
" id="DejaVuSans-116"/>
      <path d="M 9.421875 54.6875 
L 18.40625 54.6875 
L 18.40625 0 
L 9.421875 0 
z
M 9.421875 75.984375 
L 18.40625 75.984375 
L 18.40625 64.59375 
L 9.421875 64.59375 
z
" id="DejaVuSans-105"/>
      <path d="M 54.890625 33.015625 
L 54.890625 0 
L 45.90625 0 
L 45.90625 32.71875 
Q 45.90625 40.484375 42.875 44.328125 
Q 39.84375 48.1875 33.796875 48.1875 
Q 26.515625 48.1875 22.3125 43.546875 
Q 18.109375 38.921875 18.109375 30.90625 
L 18.109375 0 
L 9.078125 0 
L 9.078125 54.6875 
L 18.109375 54.6875 
L 18.109375 46.1875 
Q 21.34375 51.125 25.703125 53.5625 
Q 30.078125 56 35.796875 56 
Q 45.21875 56 50.046875 50.171875 
Q 54.890625 44.34375 54.890625 33.015625 
z
" id="DejaVuSans-110"/>
      <path d="M 9.8125 72.90625 
L 24.515625 72.90625 
L 43.109375 23.296875 
L 61.8125 72.90625 
L 76.515625 72.90625 
L 76.515625 0 
L 66.890625 0 
L 66.890625 64.015625 
L 48.09375 14.015625 
L 38.1875 14.015625 
L 19.390625 64.015625 
L 19.390625 0 
L 9.8125 0 
z
" id="DejaVuSans-77"/>
      <path d="M 53.515625 70.515625 
L 53.515625 60.890625 
Q 47.90625 63.578125 42.921875 64.890625 
Q 37.9375 66.21875 33.296875 66.21875 
Q 25.25 66.21875 20.875 63.09375 
Q 16.5 59.96875 16.5 54.203125 
Q 16.5 49.359375 19.40625 46.890625 
Q 22.3125 44.4375 30.421875 42.921875 
L 36.375 41.703125 
Q 47.40625 39.59375 52.65625 34.296875 
Q 57.90625 29 57.90625 20.125 
Q 57.90625 9.515625 50.796875 4.046875 
Q 43.703125 -1.421875 29.984375 -1.421875 
Q 24.8125 -1.421875 18.96875 -0.25 
Q 13.140625 0.921875 6.890625 3.21875 
L 6.890625 13.375 
Q 12.890625 10.015625 18.65625 8.296875 
Q 24.421875 6.59375 29.984375 6.59375 
Q 38.421875 6.59375 43.015625 9.90625 
Q 47.609375 13.234375 47.609375 19.390625 
Q 47.609375 24.75 44.3125 27.78125 
Q 41.015625 30.8125 33.5 32.328125 
L 27.484375 33.5 
Q 16.453125 35.6875 11.515625 40.375 
Q 6.59375 45.0625 6.59375 53.421875 
Q 6.59375 63.09375 13.40625 68.65625 
Q 20.21875 74.21875 32.171875 74.21875 
Q 37.3125 74.21875 42.625 73.28125 
Q 47.953125 72.359375 53.515625 70.515625 
z
" id="DejaVuSans-83"/>
      <path d="M 9.8125 72.90625 
L 55.90625 72.90625 
L 55.90625 64.59375 
L 19.671875 64.59375 
L 19.671875 43.015625 
L 54.390625 43.015625 
L 54.390625 34.71875 
L 19.671875 34.71875 
L 19.671875 8.296875 
L 56.78125 8.296875 
L 56.78125 0 
L 9.8125 0 
z
" id="DejaVuSans-69"/>
      <path d="M 44.28125 53.078125 
L 44.28125 44.578125 
Q 40.484375 46.53125 36.375 47.5 
Q 32.28125 48.484375 27.875 48.484375 
Q 21.1875 48.484375 17.84375 46.4375 
Q 14.5 44.390625 14.5 40.28125 
Q 14.5 37.15625 16.890625 35.375 
Q 19.28125 33.59375 26.515625 31.984375 
L 29.59375 31.296875 
Q 39.15625 29.25 43.1875 25.515625 
Q 47.21875 21.78125 47.21875 15.09375 
Q 47.21875 7.46875 41.1875 3.015625 
Q 35.15625 -1.421875 24.609375 -1.421875 
Q 20.21875 -1.421875 15.453125 -0.5625 
Q 10.6875 0.296875 5.421875 2 
L 5.421875 11.28125 
Q 10.40625 8.6875 15.234375 7.390625 
Q 20.0625 6.109375 24.8125 6.109375 
Q 31.15625 6.109375 34.5625 8.28125 
Q 37.984375 10.453125 37.984375 14.40625 
Q 37.984375 18.0625 35.515625 20.015625 
Q 33.0625 21.96875 24.703125 23.78125 
L 21.578125 24.515625 
Q 13.234375 26.265625 9.515625 29.90625 
Q 5.8125 33.546875 5.8125 39.890625 
Q 5.8125 47.609375 11.28125 51.796875 
Q 16.75 56 26.8125 56 
Q 31.78125 56 36.171875 55.265625 
Q 40.578125 54.546875 44.28125 53.078125 
z
" id="DejaVuSans-115"/>
     </defs>
     <g transform="translate(81.654687 324.354844)rotate(-90)scale(0.1 -0.1)">
      <use xlink:href="#DejaVuSans-78"/>
      <use x="74.804688" xlink:href="#DejaVuSans-111"/>
      <use x="135.986328" xlink:href="#DejaVuSans-114"/>
      <use x="177.083984" xlink:href="#DejaVuSans-109"/>
      <use x="274.496094" xlink:href="#DejaVuSans-44"/>
      <use x="306.283203" xlink:href="#DejaVuSans-32"/>
      <use x="338.070312" xlink:href="#DejaVuSans-68"/>
      <use x="415.072266" xlink:href="#DejaVuSans-101"/>
      <use x="476.595703" xlink:href="#DejaVuSans-116"/>
      <use x="515.804688" xlink:href="#DejaVuSans-101"/>
      <use x="577.328125" xlink:href="#DejaVuSans-114"/>
      <use x="618.425781" xlink:href="#DejaVuSans-109"/>
      <use x="715.837891" xlink:href="#DejaVuSans-105"/>
      <use x="743.621094" xlink:href="#DejaVuSans-110"/>
      <use x="807" xlink:href="#DejaVuSans-97"/>
      <use x="868.279297" xlink:href="#DejaVuSans-110"/>
      <use x="931.658203" xlink:href="#DejaVuSans-116"/>
      <use x="970.867188" xlink:href="#DejaVuSans-44"/>
      <use x="1002.654297" xlink:href="#DejaVuSans-32"/>
      <use x="1034.441406" xlink:href="#DejaVuSans-77"/>
      <use x="1120.720703" xlink:href="#DejaVuSans-83"/>
      <use x="1184.197266" xlink:href="#DejaVuSans-69"/>
      <use x="1247.380859" xlink:href="#DejaVuSans-32"/>
      <use x="1279.167969" xlink:href="#DejaVuSans-108"/>
      <use x="1306.951172" xlink:href="#DejaVuSans-111"/>
      <use x="1368.132812" xlink:href="#DejaVuSans-115"/>
      <use x="1420.232422" xlink:href="#DejaVuSans-115"/>
     </g>
    </g>
   </g>
   <g id="line2d_17">
    <path clip-path="url(#pd03ae99c19)" d="M 490.202636 441 
L 490.202636 60.48 
" style="fill:none;stroke:#000000;stroke-dasharray:0.74,0.32;stroke-dashoffset:0;stroke-width:0.2;"/>
   </g>
   <g id="line2d_18">
    <path clip-path="url(#pd03ae99c19)" d="M 247.139558 441 
L 247.139558 60.48 
" style="fill:none;stroke:#000000;stroke-dasharray:0.74,0.32;stroke-dashoffset:0;stroke-width:0.2;"/>
   </g>
   <g id="line2d_19">
    <path clip-path="url(#pd03ae99c19)" d="M 206.227192 441 
L 206.227192 60.48 
" style="fill:none;stroke:#000000;stroke-dasharray:0.74,0.32;stroke-dashoffset:0;stroke-width:0.2;"/>
   </g>
   <g id="line2d_20">
    <path clip-path="url(#pd03ae99c19)" d="M 725.189199 441 
L 725.189199 60.48 
" style="fill:none;stroke:#000000;stroke-dasharray:0.74,0.32;stroke-dashoffset:0;stroke-width:0.2;"/>
   </g>
   <g id="line2d_21">
    <path clip-path="url(#pd03ae99c19)" d="M 367.852694 441 
L 367.852694 60.48 
" style="fill:none;stroke:#000000;stroke-dasharray:0.74,0.32;stroke-dashoffset:0;stroke-width:0.2;"/>
   </g>
   <g id="line2d_22">
    <path clip-path="url(#pd03ae99c19)" d="M 459.374859 441 
L 459.374859 60.48 
" style="fill:none;stroke:#000000;stroke-dasharray:0.74,0.32;stroke-dashoffset:0;stroke-width:0.2;"/>
   </g>
   <g id="line2d_23">
    <path clip-path="url(#pd03ae99c19)" d="M 149.972727 441 
L 149.972727 60.48 
" style="fill:none;stroke:#000000;stroke-dasharray:0.74,0.32;stroke-dashoffset:0;stroke-width:0.2;"/>
   </g>
   <g id="line2d_24">
    <path clip-path="url(#pd03ae99c19)" d="M 749.117128 441 
L 749.117128 60.48 
" style="fill:none;stroke:#000000;stroke-dasharray:0.74,0.32;stroke-dashoffset:0;stroke-width:0.2;"/>
   </g>
   <g id="line2d_25">
    <path clip-path="url(#pd03ae99c19)" d="M 217.242763 441 
L 217.242763 60.48 
" style="fill:none;stroke:#000000;stroke-dasharray:0.74,0.32;stroke-dashoffset:0;stroke-width:0.2;"/>
   </g>
   <g id="line2d_26">
    <path clip-path="url(#pd03ae99c19)" d="M 354.393557 441 
L 354.393557 60.48 
" style="fill:none;stroke:#000000;stroke-dasharray:0.74,0.32;stroke-dashoffset:0;stroke-width:0.2;"/>
   </g>
   <g id="line2d_27">
    <path clip-path="url(#pd03ae99c19)" d="M 431.574815 441 
L 431.574815 60.48 
" style="fill:none;stroke:#000000;stroke-dasharray:0.74,0.32;stroke-dashoffset:0;stroke-width:0.2;"/>
   </g>
   <g id="line2d_28">
    <path clip-path="url(#pd03ae99c19)" d="M 365.021363 441 
L 365.021363 60.48 
" style="fill:none;stroke:#000000;stroke-dasharray:0.74,0.32;stroke-dashoffset:0;stroke-width:0.2;"/>
   </g>
   <g id="line2d_29">
    <path clip-path="url(#pd03ae99c19)" d="M 176.746235 441 
L 176.746235 60.48 
" style="fill:none;stroke:#000000;stroke-dasharray:0.74,0.32;stroke-dashoffset:0;stroke-width:0.2;"/>
   </g>
   <g id="line2d_30">
    <path clip-path="url(#pd03ae99c19)" d="M 494.72108 441 
L 494.72108 60.48 
" style="fill:none;stroke:#000000;stroke-dasharray:0.74,0.32;stroke-dashoffset:0;stroke-width:0.2;"/>
   </g>
   <g id="line2d_31">
    <path clip-path="url(#pd03ae99c19)" d="M 150.028061 248.084639 
L 163.485188 249.757474 
L 176.942315 251.419618 
L 190.399442 252.918494 
L 203.856568 253.393324 
L 217.313695 253.852713 
L 230.770822 254.064866 
L 244.227949 254.286912 
L 257.685076 254.645368 
L 271.142202 255.182835 
L 284.599329 255.278251 
L 298.056456 255.344122 
L 311.513583 255.267429 
L 324.970709 255.112841 
L 338.427836 254.911924 
L 351.884963 254.517152 
L 365.34209 254.106679 
L 378.799216 253.749001 
L 392.256343 253.497703 
L 405.71347 253.394253 
L 419.170597 253.480464 
L 432.627723 253.715899 
L 446.08485 253.990477 
L 459.541977 254.236097 
L 472.999104 254.399355 
L 486.45623 254.436529 
L 499.913357 254.312921 
L 513.370484 254.116035 
L 526.827611 254.255255 
L 540.284738 254.397526 
L 553.741864 255.093319 
L 567.198991 256.387873 
L 580.656118 258.75242 
L 594.113245 261.684271 
L 607.570371 265.899248 
L 621.027498 269.482009 
L 634.484625 273.175879 
L 647.941752 275.697348 
L 661.398878 277.867363 
L 674.856005 279.147558 
L 688.313132 279.047383 
L 701.770259 275.058119 
L 715.227385 269.888936 
L 728.684512 260.304253 
L 742.141639 250.110584 
L 755.598766 239.997064 
L 769.055892 226.263942 
L 782.513019 211.875787 
L 795.970146 197.687721 
L 809.427273 182.157459 
" style="fill:none;stroke:#1f77b4;stroke-linecap:square;stroke-width:1.5;"/>
   </g>
   <g id="line2d_32">
    <path clip-path="url(#pd03ae99c19)" d="M 150.028061 240.421977 
L 163.485188 245.89131 
L 176.942315 249.387548 
L 190.399442 251.491956 
L 203.856568 252.815599 
L 217.313695 253.519991 
L 230.770822 254.051934 
L 244.227949 254.57685 
L 257.685076 255.117559 
L 271.142202 255.686065 
L 284.599329 256.143538 
L 298.056456 256.455879 
L 311.513583 256.48533 
L 324.970709 256.20251 
L 338.427836 255.62535 
L 351.884963 254.846729 
L 365.34209 254.031859 
L 378.799216 253.318368 
L 392.256343 252.798683 
L 405.71347 252.634714 
L 419.170597 252.791349 
L 432.627723 253.228504 
L 446.08485 253.819921 
L 459.541977 254.339123 
L 472.999104 254.658129 
L 486.45623 254.689747 
L 499.913357 254.477625 
L 513.370484 254.148548 
L 526.827611 254.069981 
L 540.284738 254.578109 
L 553.741864 256.289157 
L 567.198991 259.182034 
L 580.656118 263.436754 
L 594.113245 269.190923 
L 607.570371 276.150549 
L 621.027498 282.934701 
L 634.484625 290.346664 
L 647.941752 295.797056 
L 661.398878 299.738968 
L 674.856005 300.903493 
L 688.313132 298.809361 
L 701.770259 292.849866 
L 715.227385 283.285876 
L 728.684512 267.112144 
L 742.141639 248.448474 
L 755.598766 222.745957 
L 769.055892 193.460963 
L 782.513019 159.661765 
L 795.970146 120.997989 
L 809.427273 77.776364 
" style="fill:none;stroke:#ff7f0e;stroke-linecap:square;stroke-width:1.5;"/>
   </g>
   <g id="line2d_33">
    <path clip-path="url(#pd03ae99c19)" d="M 150.028061 423.087353 
L 163.485188 423.370846 
L 176.942315 423.55864 
L 190.399442 423.64477 
L 203.856568 423.683645 
L 217.313695 423.697149 
L 230.770822 423.694128 
L 244.227949 423.681757 
L 257.685076 423.663965 
L 271.142202 423.655215 
L 284.599329 423.658191 
L 298.056456 423.65827 
L 311.513583 423.673417 
L 324.970709 423.685339 
L 338.427836 423.696273 
L 351.884963 423.702077 
L 365.34209 423.703636 
L 378.799216 423.702574 
L 392.256343 423.700905 
L 405.71347 423.700045 
L 419.170597 423.700647 
L 432.627723 423.701942 
L 446.08485 423.702905 
L 459.541977 423.703277 
L 472.999104 423.70329 
L 486.45623 423.703127 
L 499.913357 423.701342 
L 513.370484 423.69027 
L 526.827611 423.657291 
L 540.284738 423.572368 
L 553.741864 423.359618 
L 567.198991 423.069672 
L 580.656118 422.56442 
L 594.113245 421.923567 
L 607.570371 420.970254 
L 621.027498 420.115686 
L 634.484625 419.279569 
L 647.941752 419.02472 
L 661.398878 418.772999 
L 674.856005 418.848168 
L 688.313132 419.202672 
L 701.770259 420.614913 
L 715.227385 421.731216 
L 728.684512 422.941785 
L 742.141639 423.043466 
L 755.598766 421.728223 
L 769.055892 417.990815 
L 782.513019 410.246853 
L 795.970146 398.96791 
L 809.427273 380.452093 
" style="fill:none;stroke:#2ca02c;stroke-linecap:square;stroke-width:1.5;"/>
   </g>
   <g id="line2d_34">
    <path clip-path="url(#pd03ae99c19)" d="M 150.028061 234.903604 
L 163.485188 238.232299 
L 176.942315 242.722784 
L 190.399442 247.54795 
L 203.856568 249.644506 
L 217.313695 251.838489 
L 230.770822 253.171066 
L 244.227949 253.992539 
L 257.685076 254.539281 
L 271.142202 255.50354 
L 284.599329 255.428222 
L 298.056456 255.17853 
L 311.513583 254.979048 
L 324.970709 254.889805 
L 338.427836 255.033329 
L 351.884963 254.786386 
L 365.34209 254.583377 
L 378.799216 254.232237 
L 392.256343 253.953556 
L 405.71347 253.306769 
L 419.170597 253.129415 
L 432.627723 252.676452 
L 446.08485 252.501301 
L 459.541977 252.797605 
L 472.999104 253.2227 
L 486.45623 254.168558 
L 499.913357 255.461172 
L 513.370484 257.455087 
L 526.827611 261.468207 
L 540.284738 263.598239 
L 553.741864 265.85199 
L 567.198991 268.554389 
L 580.656118 273.247126 
L 594.113245 276.058502 
L 607.570371 282.558665 
L 621.027498 283.858655 
L 634.484625 282.403834 
L 647.941752 279.27055 
L 661.398878 278.700587 
L 674.856005 279.548079 
L 688.313132 281.106663 
L 701.770259 274.179283 
L 715.227385 270.707196 
L 728.684512 263.941437 
L 742.141639 257.784917 
L 755.598766 251.342016 
L 769.055892 243.148364 
L 782.513019 238.209382 
L 795.970146 228.583867 
L 809.427273 222.940805 
" style="fill:none;stroke:#d62728;stroke-linecap:square;stroke-width:1.5;"/>
   </g>
   <g id="line2d_35">
    <path clip-path="url(#pd03ae99c19)" d="M 150.028061 211.529967 
L 163.485188 223.918525 
L 176.942315 233.477155 
L 190.399442 240.600693 
L 203.856568 246.227486 
L 217.313695 249.753305 
L 230.770822 252.294916 
L 244.227949 254.029636 
L 257.685076 255.049629 
L 271.142202 255.668552 
L 284.599329 255.998754 
L 298.056456 256.18448 
L 311.513583 256.228338 
L 324.970709 256.143279 
L 338.427836 255.909673 
L 351.884963 255.513901 
L 365.34209 254.97695 
L 378.799216 254.315484 
L 392.256343 253.508328 
L 405.71347 252.732141 
L 419.170597 252.013182 
L 432.627723 251.43736 
L 446.08485 251.186607 
L 459.541977 251.443714 
L 472.999104 252.370786 
L 486.45623 254.174462 
L 499.913357 256.918671 
L 513.370484 261.237919 
L 526.827611 266.748607 
L 540.284738 272.84512 
L 553.741864 280.684915 
L 567.198991 288.227136 
L 580.656118 295.621229 
L 594.113245 302.583467 
L 607.570371 308.427842 
L 621.027498 312.183345 
L 634.484625 314.275407 
L 647.941752 314.034811 
L 661.398878 311.650606 
L 674.856005 307.449361 
L 688.313132 301.195626 
L 701.770259 293.464563 
L 715.227385 284.914929 
L 728.684512 273.70617 
L 742.141639 263.039737 
L 755.598766 250.346063 
L 769.055892 237.541543 
L 782.513019 224.085451 
L 795.970146 209.833777 
L 809.427273 194.855714 
" style="fill:none;stroke:#9467bd;stroke-linecap:square;stroke-width:1.5;"/>
   </g>
   <g id="line2d_36">
    <path clip-path="url(#pd03ae99c19)" d="M 150.028061 418.539019 
L 163.485188 420.506157 
L 176.942315 422.084278 
L 190.399442 423.019331 
L 203.856568 423.44183 
L 217.313695 423.641305 
L 230.770822 423.685249 
L 244.227949 423.661626 
L 257.685076 423.615313 
L 271.142202 423.583221 
L 284.599329 423.588483 
L 298.056456 423.579207 
L 311.513583 423.616089 
L 324.970709 423.636287 
L 338.427836 423.668892 
L 351.884963 423.686168 
L 365.34209 423.696951 
L 378.799216 423.700647 
L 392.256343 423.698167 
L 405.71347 423.686517 
L 419.170597 423.671696 
L 432.627723 423.662596 
L 446.08485 423.654789 
L 459.541977 423.665155 
L 472.999104 423.687827 
L 486.45623 423.700593 
L 499.913357 423.660159 
L 513.370484 423.48484 
L 526.827611 422.990295 
L 540.284738 422.391699 
L 553.741864 421.412141 
L 567.198991 420.29933 
L 580.656118 418.384017 
L 594.113245 416.7331 
L 607.570371 413.790069 
L 621.027498 412.703241 
L 634.484625 412.760009 
L 647.941752 413.766571 
L 661.398878 414.481342 
L 674.856005 414.815198 
L 688.313132 415.564191 
L 701.770259 418.091079 
L 715.227385 420.398627 
L 728.684512 422.450675 
L 742.141639 423.249481 
L 755.598766 422.778508 
L 769.055892 419.984226 
L 782.513019 415.985821 
L 795.970146 407.892018 
L 809.427273 399.784462 
" style="fill:none;stroke:#8c564b;stroke-linecap:square;stroke-width:1.5;"/>
   </g>
   <g id="patch_3">
    <path d="M 117 441 
L 117 60.48 
" style="fill:none;stroke:#000000;stroke-linecap:square;stroke-linejoin:miter;stroke-width:0.8;"/>
   </g>
   <g id="patch_4">
    <path d="M 842.4 441 
L 842.4 60.48 
" style="fill:none;stroke:#000000;stroke-linecap:square;stroke-linejoin:miter;stroke-width:0.8;"/>
   </g>
   <g id="patch_5">
    <path d="M 117 441 
L 842.4 441 
" style="fill:none;stroke:#000000;stroke-linecap:square;stroke-linejoin:miter;stroke-width:0.8;"/>
   </g>
   <g id="patch_6">
    <path d="M 117 60.48 
L 842.4 60.48 
" style="fill:none;stroke:#000000;stroke-linecap:square;stroke-linejoin:miter;stroke-width:0.8;"/>
   </g>
   <g id="legend_1">
    <g id="patch_7">
     <path d="M 124 171.226875 
L 214.8375 171.226875 
Q 216.8375 171.226875 216.8375 169.226875 
L 216.8375 67.48 
Q 216.8375 65.48 214.8375 65.48 
L 124 65.48 
Q 122 65.48 122 67.48 
L 122 169.226875 
Q 122 171.226875 124 171.226875 
z
" style="fill:#ffffff;opacity:0.8;stroke:#cccccc;stroke-linejoin:miter;"/>
    </g>
    <g id="text_19">
     <!-- Norm loss weight -->
     <defs>
      <path d="M 4.203125 54.6875 
L 13.1875 54.6875 
L 24.421875 12.015625 
L 35.59375 54.6875 
L 46.1875 54.6875 
L 57.421875 12.015625 
L 68.609375 54.6875 
L 77.59375 54.6875 
L 63.28125 0 
L 52.6875 0 
L 40.921875 44.828125 
L 29.109375 0 
L 18.5 0 
z
" id="DejaVuSans-119"/>
      <path d="M 45.40625 27.984375 
Q 45.40625 37.75 41.375 43.109375 
Q 37.359375 48.484375 30.078125 48.484375 
Q 22.859375 48.484375 18.828125 43.109375 
Q 14.796875 37.75 14.796875 27.984375 
Q 14.796875 18.265625 18.828125 12.890625 
Q 22.859375 7.515625 30.078125 7.515625 
Q 37.359375 7.515625 41.375 12.890625 
Q 45.40625 18.265625 45.40625 27.984375 
z
M 54.390625 6.78125 
Q 54.390625 -7.171875 48.1875 -13.984375 
Q 42 -20.796875 29.203125 -20.796875 
Q 24.46875 -20.796875 20.265625 -20.09375 
Q 16.0625 -19.390625 12.109375 -17.921875 
L 12.109375 -9.1875 
Q 16.0625 -11.328125 19.921875 -12.34375 
Q 23.78125 -13.375 27.78125 -13.375 
Q 36.625 -13.375 41.015625 -8.765625 
Q 45.40625 -4.15625 45.40625 5.171875 
L 45.40625 9.625 
Q 42.625 4.78125 38.28125 2.390625 
Q 33.9375 0 27.875 0 
Q 17.828125 0 11.671875 7.65625 
Q 5.515625 15.328125 5.515625 27.984375 
Q 5.515625 40.671875 11.671875 48.328125 
Q 17.828125 56 27.875 56 
Q 33.9375 56 38.28125 53.609375 
Q 42.625 51.21875 45.40625 46.390625 
L 45.40625 54.6875 
L 54.390625 54.6875 
z
" id="DejaVuSans-103"/>
     </defs>
     <g transform="translate(126 77.078438)scale(0.1 -0.1)">
      <use xlink:href="#DejaVuSans-78"/>
      <use x="74.804688" xlink:href="#DejaVuSans-111"/>
      <use x="135.986328" xlink:href="#DejaVuSans-114"/>
      <use x="177.083984" xlink:href="#DejaVuSans-109"/>
      <use x="274.496094" xlink:href="#DejaVuSans-32"/>
      <use x="306.283203" xlink:href="#DejaVuSans-108"/>
      <use x="334.066406" xlink:href="#DejaVuSans-111"/>
      <use x="395.248047" xlink:href="#DejaVuSans-115"/>
      <use x="447.347656" xlink:href="#DejaVuSans-115"/>
      <use x="499.447266" xlink:href="#DejaVuSans-32"/>
      <use x="531.234375" xlink:href="#DejaVuSans-119"/>
      <use x="613.021484" xlink:href="#DejaVuSans-101"/>
      <use x="674.544922" xlink:href="#DejaVuSans-105"/>
      <use x="702.328125" xlink:href="#DejaVuSans-103"/>
      <use x="765.804688" xlink:href="#DejaVuSans-104"/>
      <use x="829.183594" xlink:href="#DejaVuSans-116"/>
     </g>
    </g>
    <g id="line2d_37">
     <path d="M 128.971875 88.256563 
L 148.971875 88.256563 
" style="fill:none;stroke:#1f77b4;stroke-linecap:square;stroke-width:1.5;"/>
    </g>
    <g id="line2d_38"/>
    <g id="text_20">
     <!-- 0 Norm -->
     <g transform="translate(156.971875 91.756563)scale(0.1 -0.1)">
      <use xlink:href="#DejaVuSans-48"/>
      <use x="63.623047" xlink:href="#DejaVuSans-32"/>
      <use x="95.410156" xlink:href="#DejaVuSans-78"/>
      <use x="170.214844" xlink:href="#DejaVuSans-111"/>
      <use x="231.396484" xlink:href="#DejaVuSans-114"/>
      <use x="272.494141" xlink:href="#DejaVuSans-109"/>
     </g>
    </g>
    <g id="line2d_39">
     <path d="M 128.971875 102.934688 
L 148.971875 102.934688 
" style="fill:none;stroke:#ff7f0e;stroke-linecap:square;stroke-width:1.5;"/>
    </g>
    <g id="line2d_40"/>
    <g id="text_21">
     <!-- 0 Det -->
     <g transform="translate(156.971875 106.434688)scale(0.1 -0.1)">
      <use xlink:href="#DejaVuSans-48"/>
      <use x="63.623047" xlink:href="#DejaVuSans-32"/>
      <use x="95.410156" xlink:href="#DejaVuSans-68"/>
      <use x="172.412109" xlink:href="#DejaVuSans-101"/>
      <use x="233.935547" xlink:href="#DejaVuSans-116"/>
     </g>
    </g>
    <g id="line2d_41">
     <path d="M 128.971875 117.612813 
L 148.971875 117.612813 
" style="fill:none;stroke:#2ca02c;stroke-linecap:square;stroke-width:1.5;"/>
    </g>
    <g id="line2d_42"/>
    <g id="text_22">
     <!-- 0 MSE -->
     <g transform="translate(156.971875 121.112813)scale(0.1 -0.1)">
      <use xlink:href="#DejaVuSans-48"/>
      <use x="63.623047" xlink:href="#DejaVuSans-32"/>
      <use x="95.410156" xlink:href="#DejaVuSans-77"/>
      <use x="181.689453" xlink:href="#DejaVuSans-83"/>
      <use x="245.166016" xlink:href="#DejaVuSans-69"/>
     </g>
    </g>
    <g id="line2d_43">
     <path d="M 128.971875 132.290938 
L 148.971875 132.290938 
" style="fill:none;stroke:#d62728;stroke-linecap:square;stroke-width:1.5;"/>
    </g>
    <g id="line2d_44"/>
    <g id="text_23">
     <!-- 10.0 Norm -->
     <g transform="translate(156.971875 135.790938)scale(0.1 -0.1)">
      <use xlink:href="#DejaVuSans-49"/>
      <use x="63.623047" xlink:href="#DejaVuSans-48"/>
      <use x="127.246094" xlink:href="#DejaVuSans-46"/>
      <use x="159.033203" xlink:href="#DejaVuSans-48"/>
      <use x="222.65625" xlink:href="#DejaVuSans-32"/>
      <use x="254.443359" xlink:href="#DejaVuSans-78"/>
      <use x="329.248047" xlink:href="#DejaVuSans-111"/>
      <use x="390.429688" xlink:href="#DejaVuSans-114"/>
      <use x="431.527344" xlink:href="#DejaVuSans-109"/>
     </g>
    </g>
    <g id="line2d_45">
     <path d="M 128.971875 146.969063 
L 148.971875 146.969063 
" style="fill:none;stroke:#9467bd;stroke-linecap:square;stroke-width:1.5;"/>
    </g>
    <g id="line2d_46"/>
    <g id="text_24">
     <!-- 10.0 Det -->
     <g transform="translate(156.971875 150.469063)scale(0.1 -0.1)">
      <use xlink:href="#DejaVuSans-49"/>
      <use x="63.623047" xlink:href="#DejaVuSans-48"/>
      <use x="127.246094" xlink:href="#DejaVuSans-46"/>
      <use x="159.033203" xlink:href="#DejaVuSans-48"/>
      <use x="222.65625" xlink:href="#DejaVuSans-32"/>
      <use x="254.443359" xlink:href="#DejaVuSans-68"/>
      <use x="331.445312" xlink:href="#DejaVuSans-101"/>
      <use x="392.96875" xlink:href="#DejaVuSans-116"/>
     </g>
    </g>
    <g id="line2d_47">
     <path d="M 128.971875 161.647188 
L 148.971875 161.647188 
" style="fill:none;stroke:#8c564b;stroke-linecap:square;stroke-width:1.5;"/>
    </g>
    <g id="line2d_48"/>
    <g id="text_25">
     <!-- 10.0 MSE -->
     <g transform="translate(156.971875 165.147188)scale(0.1 -0.1)">
      <use xlink:href="#DejaVuSans-49"/>
      <use x="63.623047" xlink:href="#DejaVuSans-48"/>
      <use x="127.246094" xlink:href="#DejaVuSans-46"/>
      <use x="159.033203" xlink:href="#DejaVuSans-48"/>
      <use x="222.65625" xlink:href="#DejaVuSans-32"/>
      <use x="254.443359" xlink:href="#DejaVuSans-77"/>
      <use x="340.722656" xlink:href="#DejaVuSans-83"/>
      <use x="404.199219" xlink:href="#DejaVuSans-69"/>
     </g>
    </g>
   </g>
  </g>
 </g>
 <defs>
  <clipPath id="pd03ae99c19">
   <rect height="380.52" width="725.4" x="117" y="60.48"/>
  </clipPath>
 </defs>
</svg>
