<?xml version="1.0" encoding="utf-8" standalone="no"?>
<!DOCTYPE svg PUBLIC "-//W3C//DTD SVG 1.1//EN"
  "http://www.w3.org/Graphics/SVG/1.1/DTD/svg11.dtd">
<!-- Created with matplotlib (https://matplotlib.org/) -->
<svg height="504pt" version="1.1" viewBox="0 0 936 504" width="936pt" xmlns="http://www.w3.org/2000/svg" xmlns:xlink="http://www.w3.org/1999/xlink">
 <defs>
  <style type="text/css">
*{stroke-linecap:butt;stroke-linejoin:round;}
  </style>
 </defs>
 <g id="figure_1">
  <g id="patch_1">
   <path d="M 0 504 
L 936 504 
L 936 0 
L 0 0 
z
" style="fill:#ffffff;"/>
  </g>
  <g id="axes_1">
   <g id="patch_2">
    <path d="M 117 441 
L 842.4 441 
L 842.4 60.48 
L 117 60.48 
z
" style="fill:#ffffff;"/>
   </g>
   <g id="matplotlib.axis_1">
    <g id="xtick_1">
     <g id="line2d_1">
      <defs>
       <path d="M 0 0 
L 0 3.5 
" id="m03dc71d18b" style="stroke:#000000;stroke-width:0.8;"/>
      </defs>
      <g>
       <use style="stroke:#000000;stroke-width:0.8;" x="147.324315" xlink:href="#m03dc71d18b" y="441"/>
      </g>
     </g>
     <g id="text_1">
      <!-- 0 -->
      <defs>
       <path d="M 31.78125 66.40625 
Q 24.171875 66.40625 20.328125 58.90625 
Q 16.5 51.421875 16.5 36.375 
Q 16.5 21.390625 20.328125 13.890625 
Q 24.171875 6.390625 31.78125 6.390625 
Q 39.453125 6.390625 43.28125 13.890625 
Q 47.125 21.390625 47.125 36.375 
Q 47.125 51.421875 43.28125 58.90625 
Q 39.453125 66.40625 31.78125 66.40625 
z
M 31.78125 74.21875 
Q 44.046875 74.21875 50.515625 64.515625 
Q 56.984375 54.828125 56.984375 36.375 
Q 56.984375 17.96875 50.515625 8.265625 
Q 44.046875 -1.421875 31.78125 -1.421875 
Q 19.53125 -1.421875 13.0625 8.265625 
Q 6.59375 17.96875 6.59375 36.375 
Q 6.59375 54.828125 13.0625 64.515625 
Q 19.53125 74.21875 31.78125 74.21875 
z
" id="DejaVuSans-48"/>
      </defs>
      <g transform="translate(144.143065 455.598437)scale(0.1 -0.1)">
       <use xlink:href="#DejaVuSans-48"/>
      </g>
     </g>
    </g>
    <g id="xtick_2">
     <g id="line2d_2">
      <g>
       <use style="stroke:#000000;stroke-width:0.8;" x="279.744907" xlink:href="#m03dc71d18b" y="441"/>
      </g>
     </g>
     <g id="text_2">
      <!-- 10000 -->
      <defs>
       <path d="M 12.40625 8.296875 
L 28.515625 8.296875 
L 28.515625 63.921875 
L 10.984375 60.40625 
L 10.984375 69.390625 
L 28.421875 72.90625 
L 38.28125 72.90625 
L 38.28125 8.296875 
L 54.390625 8.296875 
L 54.390625 0 
L 12.40625 0 
z
" id="DejaVuSans-49"/>
      </defs>
      <g transform="translate(263.838657 455.598437)scale(0.1 -0.1)">
       <use xlink:href="#DejaVuSans-49"/>
       <use x="63.623047" xlink:href="#DejaVuSans-48"/>
       <use x="127.246094" xlink:href="#DejaVuSans-48"/>
       <use x="190.869141" xlink:href="#DejaVuSans-48"/>
       <use x="254.492188" xlink:href="#DejaVuSans-48"/>
      </g>
     </g>
    </g>
    <g id="xtick_3">
     <g id="line2d_3">
      <g>
       <use style="stroke:#000000;stroke-width:0.8;" x="412.165498" xlink:href="#m03dc71d18b" y="441"/>
      </g>
     </g>
     <g id="text_3">
      <!-- 20000 -->
      <defs>
       <path d="M 19.1875 8.296875 
L 53.609375 8.296875 
L 53.609375 0 
L 7.328125 0 
L 7.328125 8.296875 
Q 12.9375 14.109375 22.625 23.890625 
Q 32.328125 33.6875 34.8125 36.53125 
Q 39.546875 41.84375 41.421875 45.53125 
Q 43.3125 49.21875 43.3125 52.78125 
Q 43.3125 58.59375 39.234375 62.25 
Q 35.15625 65.921875 28.609375 65.921875 
Q 23.96875 65.921875 18.8125 64.3125 
Q 13.671875 62.703125 7.8125 59.421875 
L 7.8125 69.390625 
Q 13.765625 71.78125 18.9375 73 
Q 24.125 74.21875 28.421875 74.21875 
Q 39.75 74.21875 46.484375 68.546875 
Q 53.21875 62.890625 53.21875 53.421875 
Q 53.21875 48.921875 51.53125 44.890625 
Q 49.859375 40.875 45.40625 35.40625 
Q 44.1875 33.984375 37.640625 27.21875 
Q 31.109375 20.453125 19.1875 8.296875 
z
" id="DejaVuSans-50"/>
      </defs>
      <g transform="translate(396.259248 455.598437)scale(0.1 -0.1)">
       <use xlink:href="#DejaVuSans-50"/>
       <use x="63.623047" xlink:href="#DejaVuSans-48"/>
       <use x="127.246094" xlink:href="#DejaVuSans-48"/>
       <use x="190.869141" xlink:href="#DejaVuSans-48"/>
       <use x="254.492188" xlink:href="#DejaVuSans-48"/>
      </g>
     </g>
    </g>
    <g id="xtick_4">
     <g id="line2d_4">
      <g>
       <use style="stroke:#000000;stroke-width:0.8;" x="544.58609" xlink:href="#m03dc71d18b" y="441"/>
      </g>
     </g>
     <g id="text_4">
      <!-- 30000 -->
      <defs>
       <path d="M 40.578125 39.3125 
Q 47.65625 37.796875 51.625 33 
Q 55.609375 28.21875 55.609375 21.1875 
Q 55.609375 10.40625 48.1875 4.484375 
Q 40.765625 -1.421875 27.09375 -1.421875 
Q 22.515625 -1.421875 17.65625 -0.515625 
Q 12.796875 0.390625 7.625 2.203125 
L 7.625 11.71875 
Q 11.71875 9.328125 16.59375 8.109375 
Q 21.484375 6.890625 26.8125 6.890625 
Q 36.078125 6.890625 40.9375 10.546875 
Q 45.796875 14.203125 45.796875 21.1875 
Q 45.796875 27.640625 41.28125 31.265625 
Q 36.765625 34.90625 28.71875 34.90625 
L 20.21875 34.90625 
L 20.21875 43.015625 
L 29.109375 43.015625 
Q 36.375 43.015625 40.234375 45.921875 
Q 44.09375 48.828125 44.09375 54.296875 
Q 44.09375 59.90625 40.109375 62.90625 
Q 36.140625 65.921875 28.71875 65.921875 
Q 24.65625 65.921875 20.015625 65.03125 
Q 15.375 64.15625 9.8125 62.3125 
L 9.8125 71.09375 
Q 15.4375 72.65625 20.34375 73.4375 
Q 25.25 74.21875 29.59375 74.21875 
Q 40.828125 74.21875 47.359375 69.109375 
Q 53.90625 64.015625 53.90625 55.328125 
Q 53.90625 49.265625 50.4375 45.09375 
Q 46.96875 40.921875 40.578125 39.3125 
z
" id="DejaVuSans-51"/>
      </defs>
      <g transform="translate(528.67984 455.598437)scale(0.1 -0.1)">
       <use xlink:href="#DejaVuSans-51"/>
       <use x="63.623047" xlink:href="#DejaVuSans-48"/>
       <use x="127.246094" xlink:href="#DejaVuSans-48"/>
       <use x="190.869141" xlink:href="#DejaVuSans-48"/>
       <use x="254.492188" xlink:href="#DejaVuSans-48"/>
      </g>
     </g>
    </g>
    <g id="xtick_5">
     <g id="line2d_5">
      <g>
       <use style="stroke:#000000;stroke-width:0.8;" x="677.006681" xlink:href="#m03dc71d18b" y="441"/>
      </g>
     </g>
     <g id="text_5">
      <!-- 40000 -->
      <defs>
       <path d="M 37.796875 64.3125 
L 12.890625 25.390625 
L 37.796875 25.390625 
z
M 35.203125 72.90625 
L 47.609375 72.90625 
L 47.609375 25.390625 
L 58.015625 25.390625 
L 58.015625 17.1875 
L 47.609375 17.1875 
L 47.609375 0 
L 37.796875 0 
L 37.796875 17.1875 
L 4.890625 17.1875 
L 4.890625 26.703125 
z
" id="DejaVuSans-52"/>
      </defs>
      <g transform="translate(661.100431 455.598437)scale(0.1 -0.1)">
       <use xlink:href="#DejaVuSans-52"/>
       <use x="63.623047" xlink:href="#DejaVuSans-48"/>
       <use x="127.246094" xlink:href="#DejaVuSans-48"/>
       <use x="190.869141" xlink:href="#DejaVuSans-48"/>
       <use x="254.492188" xlink:href="#DejaVuSans-48"/>
      </g>
     </g>
    </g>
    <g id="xtick_6">
     <g id="line2d_6">
      <g>
       <use style="stroke:#000000;stroke-width:0.8;" x="809.427273" xlink:href="#m03dc71d18b" y="441"/>
      </g>
     </g>
     <g id="text_6">
      <!-- 50000 -->
      <defs>
       <path d="M 10.796875 72.90625 
L 49.515625 72.90625 
L 49.515625 64.59375 
L 19.828125 64.59375 
L 19.828125 46.734375 
Q 21.96875 47.46875 24.109375 47.828125 
Q 26.265625 48.1875 28.421875 48.1875 
Q 40.625 48.1875 47.75 41.5 
Q 54.890625 34.8125 54.890625 23.390625 
Q 54.890625 11.625 47.5625 5.09375 
Q 40.234375 -1.421875 26.90625 -1.421875 
Q 22.3125 -1.421875 17.546875 -0.640625 
Q 12.796875 0.140625 7.71875 1.703125 
L 7.71875 11.625 
Q 12.109375 9.234375 16.796875 8.0625 
Q 21.484375 6.890625 26.703125 6.890625 
Q 35.15625 6.890625 40.078125 11.328125 
Q 45.015625 15.765625 45.015625 23.390625 
Q 45.015625 31 40.078125 35.4375 
Q 35.15625 39.890625 26.703125 39.890625 
Q 22.75 39.890625 18.8125 39.015625 
Q 14.890625 38.140625 10.796875 36.28125 
z
" id="DejaVuSans-53"/>
      </defs>
      <g transform="translate(793.521023 455.598437)scale(0.1 -0.1)">
       <use xlink:href="#DejaVuSans-53"/>
       <use x="63.623047" xlink:href="#DejaVuSans-48"/>
       <use x="127.246094" xlink:href="#DejaVuSans-48"/>
       <use x="190.869141" xlink:href="#DejaVuSans-48"/>
       <use x="254.492188" xlink:href="#DejaVuSans-48"/>
      </g>
     </g>
    </g>
    <g id="text_7">
     <!-- Iteration -->
     <defs>
      <path d="M 9.8125 72.90625 
L 19.671875 72.90625 
L 19.671875 0 
L 9.8125 0 
z
" id="DejaVuSans-73"/>
      <path d="M 18.3125 70.21875 
L 18.3125 54.6875 
L 36.8125 54.6875 
L 36.8125 47.703125 
L 18.3125 47.703125 
L 18.3125 18.015625 
Q 18.3125 11.328125 20.140625 9.421875 
Q 21.96875 7.515625 27.59375 7.515625 
L 36.8125 7.515625 
L 36.8125 0 
L 27.59375 0 
Q 17.1875 0 13.234375 3.875 
Q 9.28125 7.765625 9.28125 18.015625 
L 9.28125 47.703125 
L 2.6875 47.703125 
L 2.6875 54.6875 
L 9.28125 54.6875 
L 9.28125 70.21875 
z
" id="DejaVuSans-116"/>
      <path d="M 56.203125 29.59375 
L 56.203125 25.203125 
L 14.890625 25.203125 
Q 15.484375 15.921875 20.484375 11.0625 
Q 25.484375 6.203125 34.421875 6.203125 
Q 39.59375 6.203125 44.453125 7.46875 
Q 49.3125 8.734375 54.109375 11.28125 
L 54.109375 2.78125 
Q 49.265625 0.734375 44.1875 -0.34375 
Q 39.109375 -1.421875 33.890625 -1.421875 
Q 20.796875 -1.421875 13.15625 6.1875 
Q 5.515625 13.8125 5.515625 26.8125 
Q 5.515625 40.234375 12.765625 48.109375 
Q 20.015625 56 32.328125 56 
Q 43.359375 56 49.78125 48.890625 
Q 56.203125 41.796875 56.203125 29.59375 
z
M 47.21875 32.234375 
Q 47.125 39.59375 43.09375 43.984375 
Q 39.0625 48.390625 32.421875 48.390625 
Q 24.90625 48.390625 20.390625 44.140625 
Q 15.875 39.890625 15.1875 32.171875 
z
" id="DejaVuSans-101"/>
      <path d="M 41.109375 46.296875 
Q 39.59375 47.171875 37.8125 47.578125 
Q 36.03125 48 33.890625 48 
Q 26.265625 48 22.1875 43.046875 
Q 18.109375 38.09375 18.109375 28.8125 
L 18.109375 0 
L 9.078125 0 
L 9.078125 54.6875 
L 18.109375 54.6875 
L 18.109375 46.1875 
Q 20.953125 51.171875 25.484375 53.578125 
Q 30.03125 56 36.53125 56 
Q 37.453125 56 38.578125 55.875 
Q 39.703125 55.765625 41.0625 55.515625 
z
" id="DejaVuSans-114"/>
      <path d="M 34.28125 27.484375 
Q 23.390625 27.484375 19.1875 25 
Q 14.984375 22.515625 14.984375 16.5 
Q 14.984375 11.71875 18.140625 8.90625 
Q 21.296875 6.109375 26.703125 6.109375 
Q 34.1875 6.109375 38.703125 11.40625 
Q 43.21875 16.703125 43.21875 25.484375 
L 43.21875 27.484375 
z
M 52.203125 31.203125 
L 52.203125 0 
L 43.21875 0 
L 43.21875 8.296875 
Q 40.140625 3.328125 35.546875 0.953125 
Q 30.953125 -1.421875 24.3125 -1.421875 
Q 15.921875 -1.421875 10.953125 3.296875 
Q 6 8.015625 6 15.921875 
Q 6 25.140625 12.171875 29.828125 
Q 18.359375 34.515625 30.609375 34.515625 
L 43.21875 34.515625 
L 43.21875 35.40625 
Q 43.21875 41.609375 39.140625 45 
Q 35.0625 48.390625 27.6875 48.390625 
Q 23 48.390625 18.546875 47.265625 
Q 14.109375 46.140625 10.015625 43.890625 
L 10.015625 52.203125 
Q 14.9375 54.109375 19.578125 55.046875 
Q 24.21875 56 28.609375 56 
Q 40.484375 56 46.34375 49.84375 
Q 52.203125 43.703125 52.203125 31.203125 
z
" id="DejaVuSans-97"/>
      <path d="M 9.421875 54.6875 
L 18.40625 54.6875 
L 18.40625 0 
L 9.421875 0 
z
M 9.421875 75.984375 
L 18.40625 75.984375 
L 18.40625 64.59375 
L 9.421875 64.59375 
z
" id="DejaVuSans-105"/>
      <path d="M 30.609375 48.390625 
Q 23.390625 48.390625 19.1875 42.75 
Q 14.984375 37.109375 14.984375 27.296875 
Q 14.984375 17.484375 19.15625 11.84375 
Q 23.34375 6.203125 30.609375 6.203125 
Q 37.796875 6.203125 41.984375 11.859375 
Q 46.1875 17.53125 46.1875 27.296875 
Q 46.1875 37.015625 41.984375 42.703125 
Q 37.796875 48.390625 30.609375 48.390625 
z
M 30.609375 56 
Q 42.328125 56 49.015625 48.375 
Q 55.71875 40.765625 55.71875 27.296875 
Q 55.71875 13.875 49.015625 6.21875 
Q 42.328125 -1.421875 30.609375 -1.421875 
Q 18.84375 -1.421875 12.171875 6.21875 
Q 5.515625 13.875 5.515625 27.296875 
Q 5.515625 40.765625 12.171875 48.375 
Q 18.84375 56 30.609375 56 
z
" id="DejaVuSans-111"/>
      <path d="M 54.890625 33.015625 
L 54.890625 0 
L 45.90625 0 
L 45.90625 32.71875 
Q 45.90625 40.484375 42.875 44.328125 
Q 39.84375 48.1875 33.796875 48.1875 
Q 26.515625 48.1875 22.3125 43.546875 
Q 18.109375 38.921875 18.109375 30.90625 
L 18.109375 0 
L 9.078125 0 
L 9.078125 54.6875 
L 18.109375 54.6875 
L 18.109375 46.1875 
Q 21.34375 51.125 25.703125 53.5625 
Q 30.078125 56 35.796875 56 
Q 45.21875 56 50.046875 50.171875 
Q 54.890625 44.34375 54.890625 33.015625 
z
" id="DejaVuSans-110"/>
     </defs>
     <g transform="translate(458.491406 469.276563)scale(0.1 -0.1)">
      <use xlink:href="#DejaVuSans-73"/>
      <use x="29.492188" xlink:href="#DejaVuSans-116"/>
      <use x="68.701172" xlink:href="#DejaVuSans-101"/>
      <use x="130.224609" xlink:href="#DejaVuSans-114"/>
      <use x="171.337891" xlink:href="#DejaVuSans-97"/>
      <use x="232.617188" xlink:href="#DejaVuSans-116"/>
      <use x="271.826172" xlink:href="#DejaVuSans-105"/>
      <use x="299.609375" xlink:href="#DejaVuSans-111"/>
      <use x="360.791016" xlink:href="#DejaVuSans-110"/>
     </g>
    </g>
   </g>
   <g id="matplotlib.axis_2">
    <g id="ytick_1">
     <g id="line2d_7">
      <defs>
       <path d="M 0 0 
L -3.5 0 
" id="m315af41e7c" style="stroke:#000000;stroke-width:0.8;"/>
      </defs>
      <g>
       <use style="stroke:#000000;stroke-width:0.8;" x="117" xlink:href="#m315af41e7c" y="431.736494"/>
      </g>
     </g>
     <g id="text_8">
      <!-- $\mathdefault{10^{-6}}$ -->
      <defs>
       <path d="M 10.59375 35.5 
L 73.1875 35.5 
L 73.1875 27.203125 
L 10.59375 27.203125 
z
" id="DejaVuSans-8722"/>
       <path d="M 33.015625 40.375 
Q 26.375 40.375 22.484375 35.828125 
Q 18.609375 31.296875 18.609375 23.390625 
Q 18.609375 15.53125 22.484375 10.953125 
Q 26.375 6.390625 33.015625 6.390625 
Q 39.65625 6.390625 43.53125 10.953125 
Q 47.40625 15.53125 47.40625 23.390625 
Q 47.40625 31.296875 43.53125 35.828125 
Q 39.65625 40.375 33.015625 40.375 
z
M 52.59375 71.296875 
L 52.59375 62.3125 
Q 48.875 64.0625 45.09375 64.984375 
Q 41.3125 65.921875 37.59375 65.921875 
Q 27.828125 65.921875 22.671875 59.328125 
Q 17.53125 52.734375 16.796875 39.40625 
Q 19.671875 43.65625 24.015625 45.921875 
Q 28.375 48.1875 33.59375 48.1875 
Q 44.578125 48.1875 50.953125 41.515625 
Q 57.328125 34.859375 57.328125 23.390625 
Q 57.328125 12.15625 50.6875 5.359375 
Q 44.046875 -1.421875 33.015625 -1.421875 
Q 20.359375 -1.421875 13.671875 8.265625 
Q 6.984375 17.96875 6.984375 36.375 
Q 6.984375 53.65625 15.1875 63.9375 
Q 23.390625 74.21875 37.203125 74.21875 
Q 40.921875 74.21875 44.703125 73.484375 
Q 48.484375 72.75 52.59375 71.296875 
z
" id="DejaVuSans-54"/>
      </defs>
      <g transform="translate(86.5 435.535713)scale(0.1 -0.1)">
       <use transform="translate(0 0.765625)" xlink:href="#DejaVuSans-49"/>
       <use transform="translate(63.623047 0.765625)" xlink:href="#DejaVuSans-48"/>
       <use transform="translate(128.203125 39.046875)scale(0.7)" xlink:href="#DejaVuSans-8722"/>
       <use transform="translate(186.855469 39.046875)scale(0.7)" xlink:href="#DejaVuSans-54"/>
      </g>
     </g>
    </g>
    <g id="ytick_2">
     <g id="line2d_8">
      <g>
       <use style="stroke:#000000;stroke-width:0.8;" x="117" xlink:href="#m315af41e7c" y="389.646479"/>
      </g>
     </g>
     <g id="text_9">
      <!-- $\mathdefault{10^{-5}}$ -->
      <g transform="translate(86.5 393.445698)scale(0.1 -0.1)">
       <use transform="translate(0 0.684375)" xlink:href="#DejaVuSans-49"/>
       <use transform="translate(63.623047 0.684375)" xlink:href="#DejaVuSans-48"/>
       <use transform="translate(128.203125 38.965625)scale(0.7)" xlink:href="#DejaVuSans-8722"/>
       <use transform="translate(186.855469 38.965625)scale(0.7)" xlink:href="#DejaVuSans-53"/>
      </g>
     </g>
    </g>
    <g id="ytick_3">
     <g id="line2d_9">
      <g>
       <use style="stroke:#000000;stroke-width:0.8;" x="117" xlink:href="#m315af41e7c" y="347.556465"/>
      </g>
     </g>
     <g id="text_10">
      <!-- $\mathdefault{10^{-4}}$ -->
      <g transform="translate(86.5 351.355684)scale(0.1 -0.1)">
       <use transform="translate(0 0.684375)" xlink:href="#DejaVuSans-49"/>
       <use transform="translate(63.623047 0.684375)" xlink:href="#DejaVuSans-48"/>
       <use transform="translate(128.203125 38.965625)scale(0.7)" xlink:href="#DejaVuSans-8722"/>
       <use transform="translate(186.855469 38.965625)scale(0.7)" xlink:href="#DejaVuSans-52"/>
      </g>
     </g>
    </g>
    <g id="ytick_4">
     <g id="line2d_10">
      <g>
       <use style="stroke:#000000;stroke-width:0.8;" x="117" xlink:href="#m315af41e7c" y="305.46645"/>
      </g>
     </g>
     <g id="text_11">
      <!-- $\mathdefault{10^{-3}}$ -->
      <g transform="translate(86.5 309.265669)scale(0.1 -0.1)">
       <use transform="translate(0 0.765625)" xlink:href="#DejaVuSans-49"/>
       <use transform="translate(63.623047 0.765625)" xlink:href="#DejaVuSans-48"/>
       <use transform="translate(128.203125 39.046875)scale(0.7)" xlink:href="#DejaVuSans-8722"/>
       <use transform="translate(186.855469 39.046875)scale(0.7)" xlink:href="#DejaVuSans-51"/>
      </g>
     </g>
    </g>
    <g id="ytick_5">
     <g id="line2d_11">
      <g>
       <use style="stroke:#000000;stroke-width:0.8;" x="117" xlink:href="#m315af41e7c" y="263.376436"/>
      </g>
     </g>
     <g id="text_12">
      <!-- $\mathdefault{10^{-2}}$ -->
      <g transform="translate(86.5 267.175654)scale(0.1 -0.1)">
       <use transform="translate(0 0.765625)" xlink:href="#DejaVuSans-49"/>
       <use transform="translate(63.623047 0.765625)" xlink:href="#DejaVuSans-48"/>
       <use transform="translate(128.203125 39.046875)scale(0.7)" xlink:href="#DejaVuSans-8722"/>
       <use transform="translate(186.855469 39.046875)scale(0.7)" xlink:href="#DejaVuSans-50"/>
      </g>
     </g>
    </g>
    <g id="ytick_6">
     <g id="line2d_12">
      <g>
       <use style="stroke:#000000;stroke-width:0.8;" x="117" xlink:href="#m315af41e7c" y="221.286421"/>
      </g>
     </g>
     <g id="text_13">
      <!-- $\mathdefault{10^{-1}}$ -->
      <g transform="translate(86.5 225.08564)scale(0.1 -0.1)">
       <use transform="translate(0 0.684375)" xlink:href="#DejaVuSans-49"/>
       <use transform="translate(63.623047 0.684375)" xlink:href="#DejaVuSans-48"/>
       <use transform="translate(128.203125 38.965625)scale(0.7)" xlink:href="#DejaVuSans-8722"/>
       <use transform="translate(186.855469 38.965625)scale(0.7)" xlink:href="#DejaVuSans-49"/>
      </g>
     </g>
    </g>
    <g id="ytick_7">
     <g id="line2d_13">
      <g>
       <use style="stroke:#000000;stroke-width:0.8;" x="117" xlink:href="#m315af41e7c" y="179.196407"/>
      </g>
     </g>
     <g id="text_14">
      <!-- $\mathdefault{10^{0}}$ -->
      <g transform="translate(92.4 182.995625)scale(0.1 -0.1)">
       <use transform="translate(0 0.765625)" xlink:href="#DejaVuSans-49"/>
       <use transform="translate(63.623047 0.765625)" xlink:href="#DejaVuSans-48"/>
       <use transform="translate(128.203125 39.046875)scale(0.7)" xlink:href="#DejaVuSans-48"/>
      </g>
     </g>
    </g>
    <g id="ytick_8">
     <g id="line2d_14">
      <g>
       <use style="stroke:#000000;stroke-width:0.8;" x="117" xlink:href="#m315af41e7c" y="137.106392"/>
      </g>
     </g>
     <g id="text_15">
      <!-- $\mathdefault{10^{1}}$ -->
      <g transform="translate(92.4 140.905611)scale(0.1 -0.1)">
       <use transform="translate(0 0.684375)" xlink:href="#DejaVuSans-49"/>
       <use transform="translate(63.623047 0.684375)" xlink:href="#DejaVuSans-48"/>
       <use transform="translate(128.203125 38.965625)scale(0.7)" xlink:href="#DejaVuSans-49"/>
      </g>
     </g>
    </g>
    <g id="ytick_9">
     <g id="line2d_15">
      <g>
       <use style="stroke:#000000;stroke-width:0.8;" x="117" xlink:href="#m315af41e7c" y="95.016377"/>
      </g>
     </g>
     <g id="text_16">
      <!-- $\mathdefault{10^{2}}$ -->
      <g transform="translate(92.4 98.815596)scale(0.1 -0.1)">
       <use transform="translate(0 0.765625)" xlink:href="#DejaVuSans-49"/>
       <use transform="translate(63.623047 0.765625)" xlink:href="#DejaVuSans-48"/>
       <use transform="translate(128.203125 39.046875)scale(0.7)" xlink:href="#DejaVuSans-50"/>
      </g>
     </g>
    </g>
    <g id="ytick_10">
     <g id="line2d_16">
      <defs>
       <path d="M 0 0 
L -2 0 
" id="mdbbabfee88" style="stroke:#000000;stroke-width:0.6;"/>
      </defs>
      <g>
       <use style="stroke:#000000;stroke-width:0.6;" x="117" xlink:href="#mdbbabfee88" y="441.074111"/>
      </g>
     </g>
    </g>
    <g id="ytick_11">
     <g id="line2d_17">
      <g>
       <use style="stroke:#000000;stroke-width:0.6;" x="117" xlink:href="#mdbbabfee88" y="438.25632"/>
      </g>
     </g>
    </g>
    <g id="ytick_12">
     <g id="line2d_18">
      <g>
       <use style="stroke:#000000;stroke-width:0.6;" x="117" xlink:href="#mdbbabfee88" y="435.815438"/>
      </g>
     </g>
    </g>
    <g id="ytick_13">
     <g id="line2d_19">
      <g>
       <use style="stroke:#000000;stroke-width:0.6;" x="117" xlink:href="#mdbbabfee88" y="433.662428"/>
      </g>
     </g>
    </g>
    <g id="ytick_14">
     <g id="line2d_20">
      <g>
       <use style="stroke:#000000;stroke-width:0.6;" x="117" xlink:href="#mdbbabfee88" y="419.066137"/>
      </g>
     </g>
    </g>
    <g id="ytick_15">
     <g id="line2d_21">
      <g>
       <use style="stroke:#000000;stroke-width:0.6;" x="117" xlink:href="#mdbbabfee88" y="411.654454"/>
      </g>
     </g>
    </g>
    <g id="ytick_16">
     <g id="line2d_22">
      <g>
       <use style="stroke:#000000;stroke-width:0.6;" x="117" xlink:href="#mdbbabfee88" y="406.39578"/>
      </g>
     </g>
    </g>
    <g id="ytick_17">
     <g id="line2d_23">
      <g>
       <use style="stroke:#000000;stroke-width:0.6;" x="117" xlink:href="#mdbbabfee88" y="402.316836"/>
      </g>
     </g>
    </g>
    <g id="ytick_18">
     <g id="line2d_24">
      <g>
       <use style="stroke:#000000;stroke-width:0.6;" x="117" xlink:href="#mdbbabfee88" y="398.984097"/>
      </g>
     </g>
    </g>
    <g id="ytick_19">
     <g id="line2d_25">
      <g>
       <use style="stroke:#000000;stroke-width:0.6;" x="117" xlink:href="#mdbbabfee88" y="396.166305"/>
      </g>
     </g>
    </g>
    <g id="ytick_20">
     <g id="line2d_26">
      <g>
       <use style="stroke:#000000;stroke-width:0.6;" x="117" xlink:href="#mdbbabfee88" y="393.725423"/>
      </g>
     </g>
    </g>
    <g id="ytick_21">
     <g id="line2d_27">
      <g>
       <use style="stroke:#000000;stroke-width:0.6;" x="117" xlink:href="#mdbbabfee88" y="391.572413"/>
      </g>
     </g>
    </g>
    <g id="ytick_22">
     <g id="line2d_28">
      <g>
       <use style="stroke:#000000;stroke-width:0.6;" x="117" xlink:href="#mdbbabfee88" y="376.976123"/>
      </g>
     </g>
    </g>
    <g id="ytick_23">
     <g id="line2d_29">
      <g>
       <use style="stroke:#000000;stroke-width:0.6;" x="117" xlink:href="#mdbbabfee88" y="369.564439"/>
      </g>
     </g>
    </g>
    <g id="ytick_24">
     <g id="line2d_30">
      <g>
       <use style="stroke:#000000;stroke-width:0.6;" x="117" xlink:href="#mdbbabfee88" y="364.305766"/>
      </g>
     </g>
    </g>
    <g id="ytick_25">
     <g id="line2d_31">
      <g>
       <use style="stroke:#000000;stroke-width:0.6;" x="117" xlink:href="#mdbbabfee88" y="360.226822"/>
      </g>
     </g>
    </g>
    <g id="ytick_26">
     <g id="line2d_32">
      <g>
       <use style="stroke:#000000;stroke-width:0.6;" x="117" xlink:href="#mdbbabfee88" y="356.894082"/>
      </g>
     </g>
    </g>
    <g id="ytick_27">
     <g id="line2d_33">
      <g>
       <use style="stroke:#000000;stroke-width:0.6;" x="117" xlink:href="#mdbbabfee88" y="354.076291"/>
      </g>
     </g>
    </g>
    <g id="ytick_28">
     <g id="line2d_34">
      <g>
       <use style="stroke:#000000;stroke-width:0.6;" x="117" xlink:href="#mdbbabfee88" y="351.635409"/>
      </g>
     </g>
    </g>
    <g id="ytick_29">
     <g id="line2d_35">
      <g>
       <use style="stroke:#000000;stroke-width:0.6;" x="117" xlink:href="#mdbbabfee88" y="349.482398"/>
      </g>
     </g>
    </g>
    <g id="ytick_30">
     <g id="line2d_36">
      <g>
       <use style="stroke:#000000;stroke-width:0.6;" x="117" xlink:href="#mdbbabfee88" y="334.886108"/>
      </g>
     </g>
    </g>
    <g id="ytick_31">
     <g id="line2d_37">
      <g>
       <use style="stroke:#000000;stroke-width:0.6;" x="117" xlink:href="#mdbbabfee88" y="327.474424"/>
      </g>
     </g>
    </g>
    <g id="ytick_32">
     <g id="line2d_38">
      <g>
       <use style="stroke:#000000;stroke-width:0.6;" x="117" xlink:href="#mdbbabfee88" y="322.215751"/>
      </g>
     </g>
    </g>
    <g id="ytick_33">
     <g id="line2d_39">
      <g>
       <use style="stroke:#000000;stroke-width:0.6;" x="117" xlink:href="#mdbbabfee88" y="318.136807"/>
      </g>
     </g>
    </g>
    <g id="ytick_34">
     <g id="line2d_40">
      <g>
       <use style="stroke:#000000;stroke-width:0.6;" x="117" xlink:href="#mdbbabfee88" y="314.804067"/>
      </g>
     </g>
    </g>
    <g id="ytick_35">
     <g id="line2d_41">
      <g>
       <use style="stroke:#000000;stroke-width:0.6;" x="117" xlink:href="#mdbbabfee88" y="311.986276"/>
      </g>
     </g>
    </g>
    <g id="ytick_36">
     <g id="line2d_42">
      <g>
       <use style="stroke:#000000;stroke-width:0.6;" x="117" xlink:href="#mdbbabfee88" y="309.545394"/>
      </g>
     </g>
    </g>
    <g id="ytick_37">
     <g id="line2d_43">
      <g>
       <use style="stroke:#000000;stroke-width:0.6;" x="117" xlink:href="#mdbbabfee88" y="307.392384"/>
      </g>
     </g>
    </g>
    <g id="ytick_38">
     <g id="line2d_44">
      <g>
       <use style="stroke:#000000;stroke-width:0.6;" x="117" xlink:href="#mdbbabfee88" y="292.796093"/>
      </g>
     </g>
    </g>
    <g id="ytick_39">
     <g id="line2d_45">
      <g>
       <use style="stroke:#000000;stroke-width:0.6;" x="117" xlink:href="#mdbbabfee88" y="285.38441"/>
      </g>
     </g>
    </g>
    <g id="ytick_40">
     <g id="line2d_46">
      <g>
       <use style="stroke:#000000;stroke-width:0.6;" x="117" xlink:href="#mdbbabfee88" y="280.125736"/>
      </g>
     </g>
    </g>
    <g id="ytick_41">
     <g id="line2d_47">
      <g>
       <use style="stroke:#000000;stroke-width:0.6;" x="117" xlink:href="#mdbbabfee88" y="276.046793"/>
      </g>
     </g>
    </g>
    <g id="ytick_42">
     <g id="line2d_48">
      <g>
       <use style="stroke:#000000;stroke-width:0.6;" x="117" xlink:href="#mdbbabfee88" y="272.714053"/>
      </g>
     </g>
    </g>
    <g id="ytick_43">
     <g id="line2d_49">
      <g>
       <use style="stroke:#000000;stroke-width:0.6;" x="117" xlink:href="#mdbbabfee88" y="269.896261"/>
      </g>
     </g>
    </g>
    <g id="ytick_44">
     <g id="line2d_50">
      <g>
       <use style="stroke:#000000;stroke-width:0.6;" x="117" xlink:href="#mdbbabfee88" y="267.45538"/>
      </g>
     </g>
    </g>
    <g id="ytick_45">
     <g id="line2d_51">
      <g>
       <use style="stroke:#000000;stroke-width:0.6;" x="117" xlink:href="#mdbbabfee88" y="265.302369"/>
      </g>
     </g>
    </g>
    <g id="ytick_46">
     <g id="line2d_52">
      <g>
       <use style="stroke:#000000;stroke-width:0.6;" x="117" xlink:href="#mdbbabfee88" y="250.706079"/>
      </g>
     </g>
    </g>
    <g id="ytick_47">
     <g id="line2d_53">
      <g>
       <use style="stroke:#000000;stroke-width:0.6;" x="117" xlink:href="#mdbbabfee88" y="243.294395"/>
      </g>
     </g>
    </g>
    <g id="ytick_48">
     <g id="line2d_54">
      <g>
       <use style="stroke:#000000;stroke-width:0.6;" x="117" xlink:href="#mdbbabfee88" y="238.035722"/>
      </g>
     </g>
    </g>
    <g id="ytick_49">
     <g id="line2d_55">
      <g>
       <use style="stroke:#000000;stroke-width:0.6;" x="117" xlink:href="#mdbbabfee88" y="233.956778"/>
      </g>
     </g>
    </g>
    <g id="ytick_50">
     <g id="line2d_56">
      <g>
       <use style="stroke:#000000;stroke-width:0.6;" x="117" xlink:href="#mdbbabfee88" y="230.624038"/>
      </g>
     </g>
    </g>
    <g id="ytick_51">
     <g id="line2d_57">
      <g>
       <use style="stroke:#000000;stroke-width:0.6;" x="117" xlink:href="#mdbbabfee88" y="227.806247"/>
      </g>
     </g>
    </g>
    <g id="ytick_52">
     <g id="line2d_58">
      <g>
       <use style="stroke:#000000;stroke-width:0.6;" x="117" xlink:href="#mdbbabfee88" y="225.365365"/>
      </g>
     </g>
    </g>
    <g id="ytick_53">
     <g id="line2d_59">
      <g>
       <use style="stroke:#000000;stroke-width:0.6;" x="117" xlink:href="#mdbbabfee88" y="223.212355"/>
      </g>
     </g>
    </g>
    <g id="ytick_54">
     <g id="line2d_60">
      <g>
       <use style="stroke:#000000;stroke-width:0.6;" x="117" xlink:href="#mdbbabfee88" y="208.616064"/>
      </g>
     </g>
    </g>
    <g id="ytick_55">
     <g id="line2d_61">
      <g>
       <use style="stroke:#000000;stroke-width:0.6;" x="117" xlink:href="#mdbbabfee88" y="201.204381"/>
      </g>
     </g>
    </g>
    <g id="ytick_56">
     <g id="line2d_62">
      <g>
       <use style="stroke:#000000;stroke-width:0.6;" x="117" xlink:href="#mdbbabfee88" y="195.945707"/>
      </g>
     </g>
    </g>
    <g id="ytick_57">
     <g id="line2d_63">
      <g>
       <use style="stroke:#000000;stroke-width:0.6;" x="117" xlink:href="#mdbbabfee88" y="191.866763"/>
      </g>
     </g>
    </g>
    <g id="ytick_58">
     <g id="line2d_64">
      <g>
       <use style="stroke:#000000;stroke-width:0.6;" x="117" xlink:href="#mdbbabfee88" y="188.534024"/>
      </g>
     </g>
    </g>
    <g id="ytick_59">
     <g id="line2d_65">
      <g>
       <use style="stroke:#000000;stroke-width:0.6;" x="117" xlink:href="#mdbbabfee88" y="185.716232"/>
      </g>
     </g>
    </g>
    <g id="ytick_60">
     <g id="line2d_66">
      <g>
       <use style="stroke:#000000;stroke-width:0.6;" x="117" xlink:href="#mdbbabfee88" y="183.27535"/>
      </g>
     </g>
    </g>
    <g id="ytick_61">
     <g id="line2d_67">
      <g>
       <use style="stroke:#000000;stroke-width:0.6;" x="117" xlink:href="#mdbbabfee88" y="181.12234"/>
      </g>
     </g>
    </g>
    <g id="ytick_62">
     <g id="line2d_68">
      <g>
       <use style="stroke:#000000;stroke-width:0.6;" x="117" xlink:href="#mdbbabfee88" y="166.52605"/>
      </g>
     </g>
    </g>
    <g id="ytick_63">
     <g id="line2d_69">
      <g>
       <use style="stroke:#000000;stroke-width:0.6;" x="117" xlink:href="#mdbbabfee88" y="159.114366"/>
      </g>
     </g>
    </g>
    <g id="ytick_64">
     <g id="line2d_70">
      <g>
       <use style="stroke:#000000;stroke-width:0.6;" x="117" xlink:href="#mdbbabfee88" y="153.855693"/>
      </g>
     </g>
    </g>
    <g id="ytick_65">
     <g id="line2d_71">
      <g>
       <use style="stroke:#000000;stroke-width:0.6;" x="117" xlink:href="#mdbbabfee88" y="149.776749"/>
      </g>
     </g>
    </g>
    <g id="ytick_66">
     <g id="line2d_72">
      <g>
       <use style="stroke:#000000;stroke-width:0.6;" x="117" xlink:href="#mdbbabfee88" y="146.444009"/>
      </g>
     </g>
    </g>
    <g id="ytick_67">
     <g id="line2d_73">
      <g>
       <use style="stroke:#000000;stroke-width:0.6;" x="117" xlink:href="#mdbbabfee88" y="143.626218"/>
      </g>
     </g>
    </g>
    <g id="ytick_68">
     <g id="line2d_74">
      <g>
       <use style="stroke:#000000;stroke-width:0.6;" x="117" xlink:href="#mdbbabfee88" y="141.185336"/>
      </g>
     </g>
    </g>
    <g id="ytick_69">
     <g id="line2d_75">
      <g>
       <use style="stroke:#000000;stroke-width:0.6;" x="117" xlink:href="#mdbbabfee88" y="139.032325"/>
      </g>
     </g>
    </g>
    <g id="ytick_70">
     <g id="line2d_76">
      <g>
       <use style="stroke:#000000;stroke-width:0.6;" x="117" xlink:href="#mdbbabfee88" y="124.436035"/>
      </g>
     </g>
    </g>
    <g id="ytick_71">
     <g id="line2d_77">
      <g>
       <use style="stroke:#000000;stroke-width:0.6;" x="117" xlink:href="#mdbbabfee88" y="117.024351"/>
      </g>
     </g>
    </g>
    <g id="ytick_72">
     <g id="line2d_78">
      <g>
       <use style="stroke:#000000;stroke-width:0.6;" x="117" xlink:href="#mdbbabfee88" y="111.765678"/>
      </g>
     </g>
    </g>
    <g id="ytick_73">
     <g id="line2d_79">
      <g>
       <use style="stroke:#000000;stroke-width:0.6;" x="117" xlink:href="#mdbbabfee88" y="107.686734"/>
      </g>
     </g>
    </g>
    <g id="ytick_74">
     <g id="line2d_80">
      <g>
       <use style="stroke:#000000;stroke-width:0.6;" x="117" xlink:href="#mdbbabfee88" y="104.353994"/>
      </g>
     </g>
    </g>
    <g id="ytick_75">
     <g id="line2d_81">
      <g>
       <use style="stroke:#000000;stroke-width:0.6;" x="117" xlink:href="#mdbbabfee88" y="101.536203"/>
      </g>
     </g>
    </g>
    <g id="ytick_76">
     <g id="line2d_82">
      <g>
       <use style="stroke:#000000;stroke-width:0.6;" x="117" xlink:href="#mdbbabfee88" y="99.095321"/>
      </g>
     </g>
    </g>
    <g id="ytick_77">
     <g id="line2d_83">
      <g>
       <use style="stroke:#000000;stroke-width:0.6;" x="117" xlink:href="#mdbbabfee88" y="96.942311"/>
      </g>
     </g>
    </g>
    <g id="ytick_78">
     <g id="line2d_84">
      <g>
       <use style="stroke:#000000;stroke-width:0.6;" x="117" xlink:href="#mdbbabfee88" y="82.34602"/>
      </g>
     </g>
    </g>
    <g id="ytick_79">
     <g id="line2d_85">
      <g>
       <use style="stroke:#000000;stroke-width:0.6;" x="117" xlink:href="#mdbbabfee88" y="74.934337"/>
      </g>
     </g>
    </g>
    <g id="ytick_80">
     <g id="line2d_86">
      <g>
       <use style="stroke:#000000;stroke-width:0.6;" x="117" xlink:href="#mdbbabfee88" y="69.675664"/>
      </g>
     </g>
    </g>
    <g id="ytick_81">
     <g id="line2d_87">
      <g>
       <use style="stroke:#000000;stroke-width:0.6;" x="117" xlink:href="#mdbbabfee88" y="65.59672"/>
      </g>
     </g>
    </g>
    <g id="ytick_82">
     <g id="line2d_88">
      <g>
       <use style="stroke:#000000;stroke-width:0.6;" x="117" xlink:href="#mdbbabfee88" y="62.26398"/>
      </g>
     </g>
    </g>
    <g id="text_17">
     <!-- Loss value -->
     <defs>
      <path d="M 9.8125 72.90625 
L 19.671875 72.90625 
L 19.671875 8.296875 
L 55.171875 8.296875 
L 55.171875 0 
L 9.8125 0 
z
" id="DejaVuSans-76"/>
      <path d="M 44.28125 53.078125 
L 44.28125 44.578125 
Q 40.484375 46.53125 36.375 47.5 
Q 32.28125 48.484375 27.875 48.484375 
Q 21.1875 48.484375 17.84375 46.4375 
Q 14.5 44.390625 14.5 40.28125 
Q 14.5 37.15625 16.890625 35.375 
Q 19.28125 33.59375 26.515625 31.984375 
L 29.59375 31.296875 
Q 39.15625 29.25 43.1875 25.515625 
Q 47.21875 21.78125 47.21875 15.09375 
Q 47.21875 7.46875 41.1875 3.015625 
Q 35.15625 -1.421875 24.609375 -1.421875 
Q 20.21875 -1.421875 15.453125 -0.5625 
Q 10.6875 0.296875 5.421875 2 
L 5.421875 11.28125 
Q 10.40625 8.6875 15.234375 7.390625 
Q 20.0625 6.109375 24.8125 6.109375 
Q 31.15625 6.109375 34.5625 8.28125 
Q 37.984375 10.453125 37.984375 14.40625 
Q 37.984375 18.0625 35.515625 20.015625 
Q 33.0625 21.96875 24.703125 23.78125 
L 21.578125 24.515625 
Q 13.234375 26.265625 9.515625 29.90625 
Q 5.8125 33.546875 5.8125 39.890625 
Q 5.8125 47.609375 11.28125 51.796875 
Q 16.75 56 26.8125 56 
Q 31.78125 56 36.171875 55.265625 
Q 40.578125 54.546875 44.28125 53.078125 
z
" id="DejaVuSans-115"/>
      <path id="DejaVuSans-32"/>
      <path d="M 2.984375 54.6875 
L 12.5 54.6875 
L 29.59375 8.796875 
L 46.6875 54.6875 
L 56.203125 54.6875 
L 35.6875 0 
L 23.484375 0 
z
" id="DejaVuSans-118"/>
      <path d="M 9.421875 75.984375 
L 18.40625 75.984375 
L 18.40625 0 
L 9.421875 0 
z
" id="DejaVuSans-108"/>
      <path d="M 8.5 21.578125 
L 8.5 54.6875 
L 17.484375 54.6875 
L 17.484375 21.921875 
Q 17.484375 14.15625 20.5 10.265625 
Q 23.53125 6.390625 29.59375 6.390625 
Q 36.859375 6.390625 41.078125 11.03125 
Q 45.3125 15.671875 45.3125 23.6875 
L 45.3125 54.6875 
L 54.296875 54.6875 
L 54.296875 0 
L 45.3125 0 
L 45.3125 8.40625 
Q 42.046875 3.421875 37.71875 1 
Q 33.40625 -1.421875 27.6875 -1.421875 
Q 18.265625 -1.421875 13.375 4.4375 
Q 8.5 10.296875 8.5 21.578125 
z
M 31.109375 56 
z
" id="DejaVuSans-117"/>
     </defs>
     <g transform="translate(80.420312 277.040781)rotate(-90)scale(0.1 -0.1)">
      <use xlink:href="#DejaVuSans-76"/>
      <use x="55.697266" xlink:href="#DejaVuSans-111"/>
      <use x="116.878906" xlink:href="#DejaVuSans-115"/>
      <use x="168.978516" xlink:href="#DejaVuSans-115"/>
      <use x="221.078125" xlink:href="#DejaVuSans-32"/>
      <use x="252.865234" xlink:href="#DejaVuSans-118"/>
      <use x="312.044922" xlink:href="#DejaVuSans-97"/>
      <use x="373.324219" xlink:href="#DejaVuSans-108"/>
      <use x="401.107422" xlink:href="#DejaVuSans-117"/>
      <use x="464.486328" xlink:href="#DejaVuSans-101"/>
     </g>
    </g>
   </g>
   <g id="line2d_89">
    <path clip-path="url(#pe5dd8a0dd8)" d="M 149.972727 198.542611 
L 152.621139 200.792782 
L 155.269551 202.427575 
L 157.917963 203.739866 
L 163.214786 205.878077 
L 168.51161 207.663191 
L 187.050493 213.457711 
L 192.347317 215.401668 
L 197.64414 217.549077 
L 202.940964 219.917735 
L 208.237788 222.529017 
L 213.534611 225.404245 
L 218.831435 228.554843 
L 224.128258 231.973295 
L 229.425082 235.627204 
L 237.370318 241.40675 
L 247.963965 249.172547 
L 255.9092 254.692217 
L 263.854436 259.866637 
L 274.448083 266.363772 
L 287.690142 274.405833 
L 298.28379 281.121117 
L 306.229025 286.40783 
L 314.174261 291.988879 
L 322.119496 297.928323 
L 330.064732 304.205173 
L 343.306791 314.84885 
L 348.603614 318.799638 
L 353.900438 322.381011 
L 359.197262 325.596352 
L 367.142497 330.006911 
L 380.384556 337.05465 
L 385.68138 339.71966 
L 390.978204 342.185348 
L 396.275027 344.400491 
L 401.571851 346.36871 
L 409.517087 348.966432 
L 433.352793 356.48696 
L 467.782147 367.644906 
L 481.024206 371.6271 
L 494.266265 375.349757 
L 507.508324 378.861843 
L 520.750383 382.175529 
L 539.289266 386.53012 
L 555.179737 390.021185 
L 571.070208 393.282304 
L 605.499562 399.632851 
L 608.147974 400.083868 
L 610.796386 400.421119 
L 613.444797 400.97242 
L 637.280504 404.731203 
L 655.819387 407.472206 
L 677.006681 410.346346 
L 692.897152 412.394626 
L 716.732859 415.235887 
L 724.678094 416.04583 
L 729.974918 416.700789 
L 735.271742 417.261128 
L 737.920153 417.389428 
L 740.568565 417.812371 
L 743.216977 417.879696 
L 745.865389 418.329154 
L 751.162212 418.872224 
L 767.052683 420.361602 
L 769.701095 420.517591 
L 772.349507 420.829384 
L 774.997919 420.968652 
L 777.646331 421.27865 
L 780.294743 421.386498 
L 804.130449 423.342646 
L 809.427273 423.703636 
L 809.427273 423.703636 
" style="fill:none;stroke:#1f77b4;stroke-linecap:square;stroke-width:1.5;"/>
   </g>
   <g id="line2d_90">
    <path clip-path="url(#pe5dd8a0dd8)" d="M 149.972727 183.036189 
L 155.269551 183.426525 
L 160.566375 184.123687 
L 179.105257 187.021126 
L 184.402081 188.06786 
L 189.698905 189.30569 
L 194.995728 190.726051 
L 200.292552 192.317798 
L 205.589376 194.078273 
L 210.886199 196.010228 
L 218.831435 199.214253 
L 226.77667 202.706879 
L 245.315553 211.088018 
L 253.260789 214.357501 
L 261.206024 217.295801 
L 269.15126 219.945878 
L 287.690142 225.936626 
L 292.986966 227.850224 
L 298.28379 229.938574 
L 303.580613 232.233501 
L 308.877437 234.747327 
L 314.174261 237.475005 
L 322.119496 241.902801 
L 335.361555 249.514674 
L 340.658379 252.256452 
L 345.955203 254.586547 
L 348.603614 255.555455 
L 351.252026 256.3798 
L 353.900438 257.05645 
L 356.54885 257.588193 
L 359.197262 257.983612 
L 364.494085 258.422664 
L 369.790909 258.510317 
L 377.736145 258.272221 
L 396.275027 257.481144 
L 404.220263 257.396958 
L 412.165498 257.525393 
L 459.836911 258.806236 
L 486.32103 259.083645 
L 510.156736 259.108465 
L 536.640854 258.899069 
L 592.257503 258.136883 
L 650.522563 257.46054 
L 711.436035 256.982551 
L 809.427273 256.449988 
L 809.427273 256.449988 
" style="fill:none;stroke:#ff7f0e;stroke-linecap:square;stroke-width:1.5;"/>
   </g>
   <g id="line2d_91">
    <path clip-path="url(#pe5dd8a0dd8)" d="M 149.972727 144.023414 
L 155.269551 149.159703 
L 160.566375 154.235064 
L 163.214786 157.628934 
L 165.863198 162.510141 
L 168.51161 165.868804 
L 171.160022 168.421759 
L 173.808434 170.577411 
L 176.456846 172.477375 
L 179.105257 174.19636 
L 184.402081 177.23344 
L 189.698905 179.882308 
L 194.995728 182.23686 
L 200.292552 184.350811 
L 205.589376 186.258138 
L 208.237788 187.14211 
L 210.886199 156.767468 
L 213.534611 157.838203 
L 216.183023 189.127018 
L 226.77667 188.665472 
L 234.721906 188.208033 
L 237.370318 177.643072 
L 240.018729 191.602459 
L 245.315553 196.285747 
L 247.963965 197.522909 
L 250.612377 198.349927 
L 253.260789 199.044467 
L 255.9092 192.429547 
L 258.557612 194.057977 
L 261.206024 196.823059 
L 263.854436 200.073527 
L 266.502848 202.24433 
L 269.15126 202.760297 
L 274.448083 203.400609 
L 282.393319 204.018527 
L 292.986966 204.825135 
L 298.28379 205.386746 
L 303.580613 206.213485 
L 306.229025 206.802953 
L 308.877437 207.5589 
L 311.525849 208.496951 
L 314.174261 209.597652 
L 316.822673 210.830531 
L 319.471084 212.229178 
L 322.119496 214.096772 
L 324.767908 217.730855 
L 327.41632 212.262737 
L 330.064732 195.25811 
L 332.713143 201.492625 
L 335.361555 203.284928 
L 338.009967 204.101466 
L 340.658379 207.511632 
L 343.306791 213.698436 
L 345.955203 172.005913 
L 348.603614 212.81902 
L 351.252026 192.111146 
L 353.900438 208.681213 
L 356.54885 209.249241 
L 364.494085 209.695612 
L 390.978204 210.702357 
L 393.626616 189.179868 
L 396.275027 178.591886 
L 398.923439 196.477696 
L 401.571851 202.091954 
L 404.220263 176.542239 
L 406.868675 202.805774 
L 409.517087 205.89293 
L 412.165498 203.309995 
L 414.81391 210.080141 
L 417.462322 211.339669 
L 420.110734 199.34095 
L 422.759146 201.00531 
L 425.407558 197.771893 
L 428.055969 201.642778 
L 430.704381 204.009534 
L 433.352793 204.153018 
L 436.001205 200.558823 
L 438.649617 188.588805 
L 441.298028 195.538172 
L 443.94644 199.174402 
L 446.594852 200.90788 
L 449.243264 201.512002 
L 454.540088 201.719783 
L 459.836911 201.832193 
L 462.485323 167.622272 
L 465.133735 189.013495 
L 467.782147 199.054666 
L 470.430559 199.215777 
L 473.07897 189.149062 
L 475.727382 162.158485 
L 478.375794 161.891856 
L 481.024206 174.977289 
L 483.672618 151.638262 
L 486.32103 183.9108 
L 488.969441 197.181895 
L 491.617853 199.360887 
L 494.266265 200.89256 
L 496.914677 201.503317 
L 499.563089 201.75445 
L 502.211501 201.866792 
L 504.859912 204.652196 
L 515.45356 205.456793 
L 518.101972 186.827146 
L 526.047207 193.28101 
L 528.695619 195.228235 
L 531.344031 187.447013 
L 536.640854 189.219676 
L 544.58609 191.951942 
L 549.882913 193.576963 
L 555.179737 194.889559 
L 560.476561 195.837764 
L 571.070208 197.431985 
L 576.367032 198.730709 
L 581.663855 200.336448 
L 584.312267 201.532905 
L 586.960679 205.795553 
L 589.609091 207.46273 
L 592.257503 208.166582 
L 597.554326 209.239814 
L 605.499562 210.532318 
L 608.147974 174.785771 
L 610.796386 172.639116 
L 613.444797 174.39766 
L 616.093209 203.315714 
L 618.741621 177.567761 
L 621.390033 175.956616 
L 624.038445 198.160411 
L 626.686857 200.103045 
L 629.335268 175.311819 
L 631.98368 200.771691 
L 634.632092 202.468181 
L 637.280504 205.408859 
L 639.928916 184.615983 
L 642.577327 207.780328 
L 645.225739 198.782852 
L 647.874151 197.891924 
L 650.522563 200.791028 
L 653.170975 202.752109 
L 655.819387 203.856667 
L 658.467798 204.304368 
L 661.11621 204.30081 
L 663.764622 203.834565 
L 666.413034 180.2945 
L 669.061446 168.638512 
L 671.709858 177.568263 
L 674.358269 199.591106 
L 677.006681 199.144356 
L 679.655093 203.20306 
L 682.303505 181.546341 
L 684.951917 184.766799 
L 687.600329 203.134664 
L 690.24874 206.271083 
L 692.897152 207.006472 
L 706.139211 207.819418 
L 727.326506 209.528728 
L 745.865389 210.97197 
L 748.513801 188.138215 
L 751.162212 175.152085 
L 753.810624 191.874062 
L 756.459036 193.447768 
L 759.107448 170.565 
L 761.75586 165.0231 
L 764.404272 203.512237 
L 767.052683 205.979081 
L 769.701095 206.39299 
L 774.997919 206.806077 
L 777.646331 204.238299 
L 780.294743 206.291909 
L 782.943154 178.914689 
L 785.591566 182.342352 
L 788.239978 180.752549 
L 790.88839 173.642504 
L 793.536802 176.182447 
L 796.185214 177.795825 
L 798.833625 190.27193 
L 801.482037 181.489248 
L 806.778861 187.864166 
L 809.427273 192.565809 
L 809.427273 192.565809 
" style="fill:none;stroke:#2ca02c;stroke-linecap:square;stroke-width:1.5;"/>
   </g>
   <g id="line2d_92">
    <path clip-path="url(#pe5dd8a0dd8)" d="M 149.972727 141.452495 
L 152.621139 142.845862 
L 155.269551 132.69387 
L 157.917963 140.14512 
L 160.566375 134.1885 
L 163.214786 138.258234 
L 165.863198 143.102875 
L 168.51161 143.858434 
L 171.160022 143.297631 
L 173.808434 143.595152 
L 176.456846 138.369146 
L 179.105257 150.51929 
L 181.753669 137.541629 
L 184.402081 139.649149 
L 187.050493 144.670611 
L 189.698905 147.211294 
L 192.347317 120.436046 
L 194.995728 145.284866 
L 197.64414 128.634902 
L 200.292552 152.816889 
L 202.940964 149.639134 
L 205.589376 102.480537 
L 208.237788 145.977693 
L 210.886199 155.020877 
L 213.534611 134.600149 
L 216.183023 162.342045 
L 218.831435 153.704166 
L 221.479847 164.234942 
L 224.128258 161.715869 
L 226.77667 161.591349 
L 229.425082 161.678371 
L 232.073494 166.794858 
L 234.721906 165.551758 
L 237.370318 166.325534 
L 240.018729 167.636664 
L 242.667141 172.3829 
L 245.315553 169.41956 
L 247.963965 176.992392 
L 250.612377 171.240796 
L 253.260789 169.930428 
L 255.9092 171.212081 
L 258.557612 172.692468 
L 261.206024 179.93906 
L 263.854436 185.800375 
L 266.502848 186.95435 
L 269.15126 187.501622 
L 274.448083 188.215405 
L 282.393319 188.882412 
L 295.635378 189.644857 
L 314.174261 190.737095 
L 316.822673 191.034594 
L 319.471084 191.638084 
L 322.119496 193.137327 
L 324.767908 197.460482 
L 327.41632 168.44607 
L 330.064732 158.725881 
L 332.713143 152.976092 
L 335.361555 165.151762 
L 338.009967 166.671846 
L 340.658379 112.168315 
L 343.306791 162.292615 
L 345.955203 147.144743 
L 348.603614 149.765503 
L 351.252026 169.490947 
L 353.900438 157.07452 
L 356.54885 160.369988 
L 359.197262 156.844106 
L 361.845674 153.047294 
L 364.494085 152.323284 
L 367.142497 158.239746 
L 369.790909 161.631118 
L 372.439321 152.061274 
L 375.087733 158.677164 
L 377.736145 164.842725 
L 380.384556 158.019311 
L 383.032968 161.400344 
L 385.68138 160.955854 
L 388.329792 159.780469 
L 390.978204 156.254382 
L 393.626616 156.103117 
L 396.275027 159.202076 
L 398.923439 155.174629 
L 401.571851 173.695631 
L 404.220263 147.235006 
L 406.868675 173.178879 
L 409.517087 172.850449 
L 412.165498 166.883322 
L 414.81391 154.198058 
L 417.462322 153.437041 
L 420.110734 154.175255 
L 422.759146 169.09164 
L 425.407558 159.875373 
L 428.055969 172.456187 
L 430.704381 162.774672 
L 433.352793 157.341047 
L 436.001205 165.280021 
L 438.649617 140.383463 
L 441.298028 149.607167 
L 443.94644 153.684051 
L 446.594852 163.178421 
L 449.243264 164.162192 
L 451.891676 167.284404 
L 454.540088 166.331854 
L 457.188499 167.96774 
L 459.836911 168.503973 
L 462.485323 136.638071 
L 465.133735 152.727655 
L 467.782147 142.471348 
L 470.430559 158.22251 
L 473.07897 148.454761 
L 475.727382 139.321309 
L 478.375794 138.115603 
L 481.024206 154.027711 
L 483.672618 134.406803 
L 486.32103 167.686513 
L 488.969441 160.380373 
L 491.617853 157.454488 
L 494.266265 168.638137 
L 496.914677 167.323913 
L 499.563089 169.597133 
L 502.211501 166.843459 
L 504.859912 165.21746 
L 507.508324 159.506773 
L 510.156736 168.410217 
L 512.805148 165.530175 
L 515.45356 168.464909 
L 518.101972 161.045234 
L 520.750383 159.563823 
L 523.398795 165.37165 
L 526.047207 164.358909 
L 528.695619 162.590817 
L 531.344031 139.307333 
L 533.992442 143.959658 
L 536.640854 140.367658 
L 539.289266 106.400603 
L 541.937678 149.528938 
L 544.58609 160.114146 
L 547.234502 160.703046 
L 549.882913 148.486087 
L 552.531325 156.421576 
L 555.179737 160.322414 
L 557.828149 163.03588 
L 560.476561 149.663298 
L 563.124973 157.819772 
L 565.773384 154.054455 
L 568.421796 165.271735 
L 571.070208 165.561688 
L 573.71862 166.437573 
L 576.367032 161.898054 
L 579.015444 167.711849 
L 581.663855 170.272744 
L 584.312267 160.409753 
L 586.960679 144.126249 
L 589.609091 167.836883 
L 592.257503 168.786361 
L 594.905915 167.702175 
L 597.554326 168.757554 
L 600.202738 169.289589 
L 602.85115 145.327004 
L 605.499562 149.691536 
L 608.147974 154.708553 
L 610.796386 166.254669 
L 613.444797 172.055433 
L 616.093209 176.938709 
L 618.741621 149.718027 
L 621.390033 167.762327 
L 624.038445 166.519997 
L 626.686857 165.699132 
L 629.335268 140.452781 
L 631.98368 162.327608 
L 634.632092 162.420465 
L 637.280504 144.196648 
L 639.928916 162.772235 
L 642.577327 134.735491 
L 645.225739 137.38981 
L 647.874151 165.421985 
L 650.522563 154.171576 
L 653.170975 168.472291 
L 655.819387 169.514101 
L 658.467798 158.601195 
L 661.11621 159.66722 
L 663.764622 162.6921 
L 666.413034 164.47142 
L 669.061446 152.827987 
L 671.709858 156.493302 
L 674.358269 151.626232 
L 677.006681 157.610316 
L 679.655093 157.169743 
L 682.303505 161.203744 
L 684.951917 131.966813 
L 687.600329 147.689415 
L 690.24874 162.008335 
L 692.897152 158.687227 
L 695.545564 159.295419 
L 698.193976 160.114857 
L 700.842388 156.566064 
L 703.4908 161.01287 
L 706.139211 156.985781 
L 708.787623 160.228857 
L 711.436035 162.215432 
L 714.084447 157.235537 
L 716.732859 144.376512 
L 719.381271 159.540413 
L 722.029682 157.110833 
L 724.678094 150.080186 
L 727.326506 152.539684 
L 729.974918 154.832621 
L 732.62333 161.112062 
L 735.271742 154.515739 
L 737.920153 153.112389 
L 740.568565 153.873608 
L 743.216977 163.836056 
L 745.865389 77.776364 
L 748.513801 165.516404 
L 751.162212 162.540632 
L 753.810624 147.680113 
L 756.459036 152.515301 
L 759.107448 122.151879 
L 761.75586 166.385399 
L 764.404272 173.155785 
L 767.052683 156.753016 
L 769.701095 172.753568 
L 772.349507 172.735599 
L 774.997919 174.349097 
L 777.646331 168.641289 
L 780.294743 182.396557 
L 782.943154 154.99773 
L 785.591566 159.073291 
L 788.239978 157.352727 
L 790.88839 154.884418 
L 793.536802 132.650291 
L 796.185214 160.617543 
L 798.833625 153.021644 
L 801.482037 148.993648 
L 804.130449 138.640487 
L 806.778861 132.681952 
L 809.427273 139.899567 
L 809.427273 139.899567 
" style="fill:none;stroke:#d62728;stroke-linecap:square;stroke-width:1.5;"/>
   </g>
   <g id="patch_3">
    <path d="M 117 441 
L 117 60.48 
" style="fill:none;stroke:#000000;stroke-linecap:square;stroke-linejoin:miter;stroke-width:0.8;"/>
   </g>
   <g id="patch_4">
    <path d="M 842.4 441 
L 842.4 60.48 
" style="fill:none;stroke:#000000;stroke-linecap:square;stroke-linejoin:miter;stroke-width:0.8;"/>
   </g>
   <g id="patch_5">
    <path d="M 117 441 
L 842.4 441 
" style="fill:none;stroke:#000000;stroke-linecap:square;stroke-linejoin:miter;stroke-width:0.8;"/>
   </g>
   <g id="patch_6">
    <path d="M 117 60.48 
L 842.4 60.48 
" style="fill:none;stroke:#000000;stroke-linecap:square;stroke-linejoin:miter;stroke-width:0.8;"/>
   </g>
   <g id="legend_1">
    <g id="patch_7">
     <path d="M 124 436 
L 310.071875 436 
Q 312.071875 436 312.071875 434 
L 312.071875 376.2875 
Q 312.071875 374.2875 310.071875 374.2875 
L 124 374.2875 
Q 122 374.2875 122 376.2875 
L 122 434 
Q 122 436 124 436 
z
" style="fill:#ffffff;opacity:0.8;stroke:#cccccc;stroke-linejoin:miter;"/>
    </g>
    <g id="line2d_93">
     <path d="M 126 382.385938 
L 146 382.385938 
" style="fill:none;stroke:#1f77b4;stroke-linecap:square;stroke-width:1.5;"/>
    </g>
    <g id="line2d_94"/>
    <g id="text_18">
     <!-- Original MSE -->
     <defs>
      <path d="M 39.40625 66.21875 
Q 28.65625 66.21875 22.328125 58.203125 
Q 16.015625 50.203125 16.015625 36.375 
Q 16.015625 22.609375 22.328125 14.59375 
Q 28.65625 6.59375 39.40625 6.59375 
Q 50.140625 6.59375 56.421875 14.59375 
Q 62.703125 22.609375 62.703125 36.375 
Q 62.703125 50.203125 56.421875 58.203125 
Q 50.140625 66.21875 39.40625 66.21875 
z
M 39.40625 74.21875 
Q 54.734375 74.21875 63.90625 63.9375 
Q 73.09375 53.65625 73.09375 36.375 
Q 73.09375 19.140625 63.90625 8.859375 
Q 54.734375 -1.421875 39.40625 -1.421875 
Q 24.03125 -1.421875 14.8125 8.828125 
Q 5.609375 19.09375 5.609375 36.375 
Q 5.609375 53.65625 14.8125 63.9375 
Q 24.03125 74.21875 39.40625 74.21875 
z
" id="DejaVuSans-79"/>
      <path d="M 45.40625 27.984375 
Q 45.40625 37.75 41.375 43.109375 
Q 37.359375 48.484375 30.078125 48.484375 
Q 22.859375 48.484375 18.828125 43.109375 
Q 14.796875 37.75 14.796875 27.984375 
Q 14.796875 18.265625 18.828125 12.890625 
Q 22.859375 7.515625 30.078125 7.515625 
Q 37.359375 7.515625 41.375 12.890625 
Q 45.40625 18.265625 45.40625 27.984375 
z
M 54.390625 6.78125 
Q 54.390625 -7.171875 48.1875 -13.984375 
Q 42 -20.796875 29.203125 -20.796875 
Q 24.46875 -20.796875 20.265625 -20.09375 
Q 16.0625 -19.390625 12.109375 -17.921875 
L 12.109375 -9.1875 
Q 16.0625 -11.328125 19.921875 -12.34375 
Q 23.78125 -13.375 27.78125 -13.375 
Q 36.625 -13.375 41.015625 -8.765625 
Q 45.40625 -4.15625 45.40625 5.171875 
L 45.40625 9.625 
Q 42.625 4.78125 38.28125 2.390625 
Q 33.9375 0 27.875 0 
Q 17.828125 0 11.671875 7.65625 
Q 5.515625 15.328125 5.515625 27.984375 
Q 5.515625 40.671875 11.671875 48.328125 
Q 17.828125 56 27.875 56 
Q 33.9375 56 38.28125 53.609375 
Q 42.625 51.21875 45.40625 46.390625 
L 45.40625 54.6875 
L 54.390625 54.6875 
z
" id="DejaVuSans-103"/>
      <path d="M 9.8125 72.90625 
L 24.515625 72.90625 
L 43.109375 23.296875 
L 61.8125 72.90625 
L 76.515625 72.90625 
L 76.515625 0 
L 66.890625 0 
L 66.890625 64.015625 
L 48.09375 14.015625 
L 38.1875 14.015625 
L 19.390625 64.015625 
L 19.390625 0 
L 9.8125 0 
z
" id="DejaVuSans-77"/>
      <path d="M 53.515625 70.515625 
L 53.515625 60.890625 
Q 47.90625 63.578125 42.921875 64.890625 
Q 37.9375 66.21875 33.296875 66.21875 
Q 25.25 66.21875 20.875 63.09375 
Q 16.5 59.96875 16.5 54.203125 
Q 16.5 49.359375 19.40625 46.890625 
Q 22.3125 44.4375 30.421875 42.921875 
L 36.375 41.703125 
Q 47.40625 39.59375 52.65625 34.296875 
Q 57.90625 29 57.90625 20.125 
Q 57.90625 9.515625 50.796875 4.046875 
Q 43.703125 -1.421875 29.984375 -1.421875 
Q 24.8125 -1.421875 18.96875 -0.25 
Q 13.140625 0.921875 6.890625 3.21875 
L 6.890625 13.375 
Q 12.890625 10.015625 18.65625 8.296875 
Q 24.421875 6.59375 29.984375 6.59375 
Q 38.421875 6.59375 43.015625 9.90625 
Q 47.609375 13.234375 47.609375 19.390625 
Q 47.609375 24.75 44.3125 27.78125 
Q 41.015625 30.8125 33.5 32.328125 
L 27.484375 33.5 
Q 16.453125 35.6875 11.515625 40.375 
Q 6.59375 45.0625 6.59375 53.421875 
Q 6.59375 63.09375 13.40625 68.65625 
Q 20.21875 74.21875 32.171875 74.21875 
Q 37.3125 74.21875 42.625 73.28125 
Q 47.953125 72.359375 53.515625 70.515625 
z
" id="DejaVuSans-83"/>
      <path d="M 9.8125 72.90625 
L 55.90625 72.90625 
L 55.90625 64.59375 
L 19.671875 64.59375 
L 19.671875 43.015625 
L 54.390625 43.015625 
L 54.390625 34.71875 
L 19.671875 34.71875 
L 19.671875 8.296875 
L 56.78125 8.296875 
L 56.78125 0 
L 9.8125 0 
z
" id="DejaVuSans-69"/>
     </defs>
     <g transform="translate(154 385.885938)scale(0.1 -0.1)">
      <use xlink:href="#DejaVuSans-79"/>
      <use x="78.710938" xlink:href="#DejaVuSans-114"/>
      <use x="119.824219" xlink:href="#DejaVuSans-105"/>
      <use x="147.607422" xlink:href="#DejaVuSans-103"/>
      <use x="211.083984" xlink:href="#DejaVuSans-105"/>
      <use x="238.867188" xlink:href="#DejaVuSans-110"/>
      <use x="302.246094" xlink:href="#DejaVuSans-97"/>
      <use x="363.525391" xlink:href="#DejaVuSans-108"/>
      <use x="391.308594" xlink:href="#DejaVuSans-32"/>
      <use x="423.095703" xlink:href="#DejaVuSans-77"/>
      <use x="509.375" xlink:href="#DejaVuSans-83"/>
      <use x="572.851562" xlink:href="#DejaVuSans-69"/>
     </g>
    </g>
    <g id="line2d_95">
     <path d="M 126 397.064062 
L 146 397.064062 
" style="fill:none;stroke:#ff7f0e;stroke-linecap:square;stroke-width:1.5;"/>
    </g>
    <g id="line2d_96"/>
    <g id="text_19">
     <!-- Original Test MSE -->
     <defs>
      <path d="M -0.296875 72.90625 
L 61.375 72.90625 
L 61.375 64.59375 
L 35.5 64.59375 
L 35.5 0 
L 25.59375 0 
L 25.59375 64.59375 
L -0.296875 64.59375 
z
" id="DejaVuSans-84"/>
     </defs>
     <g transform="translate(154 400.564062)scale(0.1 -0.1)">
      <use xlink:href="#DejaVuSans-79"/>
      <use x="78.710938" xlink:href="#DejaVuSans-114"/>
      <use x="119.824219" xlink:href="#DejaVuSans-105"/>
      <use x="147.607422" xlink:href="#DejaVuSans-103"/>
      <use x="211.083984" xlink:href="#DejaVuSans-105"/>
      <use x="238.867188" xlink:href="#DejaVuSans-110"/>
      <use x="302.246094" xlink:href="#DejaVuSans-97"/>
      <use x="363.525391" xlink:href="#DejaVuSans-108"/>
      <use x="391.308594" xlink:href="#DejaVuSans-32"/>
      <use x="423.095703" xlink:href="#DejaVuSans-84"/>
      <use x="483.914062" xlink:href="#DejaVuSans-101"/>
      <use x="545.4375" xlink:href="#DejaVuSans-115"/>
      <use x="597.537109" xlink:href="#DejaVuSans-116"/>
      <use x="636.746094" xlink:href="#DejaVuSans-32"/>
      <use x="668.533203" xlink:href="#DejaVuSans-77"/>
      <use x="754.8125" xlink:href="#DejaVuSans-83"/>
      <use x="818.289062" xlink:href="#DejaVuSans-69"/>
     </g>
    </g>
    <g id="line2d_97">
     <path d="M 126 411.742188 
L 146 411.742188 
" style="fill:none;stroke:#2ca02c;stroke-linecap:square;stroke-width:1.5;"/>
    </g>
    <g id="line2d_98"/>
    <g id="text_20">
     <!-- Normed determinant MSE -->
     <defs>
      <path d="M 9.8125 72.90625 
L 23.09375 72.90625 
L 55.421875 11.921875 
L 55.421875 72.90625 
L 64.984375 72.90625 
L 64.984375 0 
L 51.703125 0 
L 19.390625 60.984375 
L 19.390625 0 
L 9.8125 0 
z
" id="DejaVuSans-78"/>
      <path d="M 52 44.1875 
Q 55.375 50.25 60.0625 53.125 
Q 64.75 56 71.09375 56 
Q 79.640625 56 84.28125 50.015625 
Q 88.921875 44.046875 88.921875 33.015625 
L 88.921875 0 
L 79.890625 0 
L 79.890625 32.71875 
Q 79.890625 40.578125 77.09375 44.375 
Q 74.3125 48.1875 68.609375 48.1875 
Q 61.625 48.1875 57.5625 43.546875 
Q 53.515625 38.921875 53.515625 30.90625 
L 53.515625 0 
L 44.484375 0 
L 44.484375 32.71875 
Q 44.484375 40.625 41.703125 44.40625 
Q 38.921875 48.1875 33.109375 48.1875 
Q 26.21875 48.1875 22.15625 43.53125 
Q 18.109375 38.875 18.109375 30.90625 
L 18.109375 0 
L 9.078125 0 
L 9.078125 54.6875 
L 18.109375 54.6875 
L 18.109375 46.1875 
Q 21.1875 51.21875 25.484375 53.609375 
Q 29.78125 56 35.6875 56 
Q 41.65625 56 45.828125 52.96875 
Q 50 49.953125 52 44.1875 
z
" id="DejaVuSans-109"/>
      <path d="M 45.40625 46.390625 
L 45.40625 75.984375 
L 54.390625 75.984375 
L 54.390625 0 
L 45.40625 0 
L 45.40625 8.203125 
Q 42.578125 3.328125 38.25 0.953125 
Q 33.9375 -1.421875 27.875 -1.421875 
Q 17.96875 -1.421875 11.734375 6.484375 
Q 5.515625 14.40625 5.515625 27.296875 
Q 5.515625 40.1875 11.734375 48.09375 
Q 17.96875 56 27.875 56 
Q 33.9375 56 38.25 53.625 
Q 42.578125 51.265625 45.40625 46.390625 
z
M 14.796875 27.296875 
Q 14.796875 17.390625 18.875 11.75 
Q 22.953125 6.109375 30.078125 6.109375 
Q 37.203125 6.109375 41.296875 11.75 
Q 45.40625 17.390625 45.40625 27.296875 
Q 45.40625 37.203125 41.296875 42.84375 
Q 37.203125 48.484375 30.078125 48.484375 
Q 22.953125 48.484375 18.875 42.84375 
Q 14.796875 37.203125 14.796875 27.296875 
z
" id="DejaVuSans-100"/>
     </defs>
     <g transform="translate(154 415.242188)scale(0.1 -0.1)">
      <use xlink:href="#DejaVuSans-78"/>
      <use x="74.804688" xlink:href="#DejaVuSans-111"/>
      <use x="135.986328" xlink:href="#DejaVuSans-114"/>
      <use x="177.083984" xlink:href="#DejaVuSans-109"/>
      <use x="274.496094" xlink:href="#DejaVuSans-101"/>
      <use x="336.019531" xlink:href="#DejaVuSans-100"/>
      <use x="399.496094" xlink:href="#DejaVuSans-32"/>
      <use x="431.283203" xlink:href="#DejaVuSans-100"/>
      <use x="494.759766" xlink:href="#DejaVuSans-101"/>
      <use x="556.283203" xlink:href="#DejaVuSans-116"/>
      <use x="595.492188" xlink:href="#DejaVuSans-101"/>
      <use x="657.015625" xlink:href="#DejaVuSans-114"/>
      <use x="698.113281" xlink:href="#DejaVuSans-109"/>
      <use x="795.525391" xlink:href="#DejaVuSans-105"/>
      <use x="823.308594" xlink:href="#DejaVuSans-110"/>
      <use x="886.6875" xlink:href="#DejaVuSans-97"/>
      <use x="947.966797" xlink:href="#DejaVuSans-110"/>
      <use x="1011.345703" xlink:href="#DejaVuSans-116"/>
      <use x="1050.554688" xlink:href="#DejaVuSans-32"/>
      <use x="1082.341797" xlink:href="#DejaVuSans-77"/>
      <use x="1168.621094" xlink:href="#DejaVuSans-83"/>
      <use x="1232.097656" xlink:href="#DejaVuSans-69"/>
     </g>
    </g>
    <g id="line2d_99">
     <path d="M 126 426.420313 
L 146 426.420313 
" style="fill:none;stroke:#d62728;stroke-linecap:square;stroke-width:1.5;"/>
    </g>
    <g id="line2d_100"/>
    <g id="text_21">
     <!-- Normed determinant Test MSE -->
     <g transform="translate(154 429.920313)scale(0.1 -0.1)">
      <use xlink:href="#DejaVuSans-78"/>
      <use x="74.804688" xlink:href="#DejaVuSans-111"/>
      <use x="135.986328" xlink:href="#DejaVuSans-114"/>
      <use x="177.083984" xlink:href="#DejaVuSans-109"/>
      <use x="274.496094" xlink:href="#DejaVuSans-101"/>
      <use x="336.019531" xlink:href="#DejaVuSans-100"/>
      <use x="399.496094" xlink:href="#DejaVuSans-32"/>
      <use x="431.283203" xlink:href="#DejaVuSans-100"/>
      <use x="494.759766" xlink:href="#DejaVuSans-101"/>
      <use x="556.283203" xlink:href="#DejaVuSans-116"/>
      <use x="595.492188" xlink:href="#DejaVuSans-101"/>
      <use x="657.015625" xlink:href="#DejaVuSans-114"/>
      <use x="698.113281" xlink:href="#DejaVuSans-109"/>
      <use x="795.525391" xlink:href="#DejaVuSans-105"/>
      <use x="823.308594" xlink:href="#DejaVuSans-110"/>
      <use x="886.6875" xlink:href="#DejaVuSans-97"/>
      <use x="947.966797" xlink:href="#DejaVuSans-110"/>
      <use x="1011.345703" xlink:href="#DejaVuSans-116"/>
      <use x="1050.554688" xlink:href="#DejaVuSans-32"/>
      <use x="1082.341797" xlink:href="#DejaVuSans-84"/>
      <use x="1143.160156" xlink:href="#DejaVuSans-101"/>
      <use x="1204.683594" xlink:href="#DejaVuSans-115"/>
      <use x="1256.783203" xlink:href="#DejaVuSans-116"/>
      <use x="1295.992188" xlink:href="#DejaVuSans-32"/>
      <use x="1327.779297" xlink:href="#DejaVuSans-77"/>
      <use x="1414.058594" xlink:href="#DejaVuSans-83"/>
      <use x="1477.535156" xlink:href="#DejaVuSans-69"/>
     </g>
    </g>
   </g>
  </g>
 </g>
 <defs>
  <clipPath id="pe5dd8a0dd8">
   <rect height="380.52" width="725.4" x="117" y="60.48"/>
  </clipPath>
 </defs>
</svg>
