<?xml version="1.0" encoding="utf-8" standalone="no"?>
<!DOCTYPE svg PUBLIC "-//W3C//DTD SVG 1.1//EN"
  "http://www.w3.org/Graphics/SVG/1.1/DTD/svg11.dtd">
<!-- Created with matplotlib (https://matplotlib.org/) -->
<svg height="504pt" version="1.1" viewBox="0 0 936 504" width="936pt" xmlns="http://www.w3.org/2000/svg" xmlns:xlink="http://www.w3.org/1999/xlink">
 <defs>
  <style type="text/css">
*{stroke-linecap:butt;stroke-linejoin:round;}
  </style>
 </defs>
 <g id="figure_1">
  <g id="patch_1">
   <path d="M 0 504 
L 936 504 
L 936 0 
L 0 0 
z
" style="fill:#ffffff;"/>
  </g>
  <g id="axes_1">
   <g id="patch_2">
    <path d="M 117 441 
L 842.4 441 
L 842.4 60.48 
L 117 60.48 
z
" style="fill:#ffffff;"/>
   </g>
   <g id="matplotlib.axis_1">
    <g id="xtick_1">
     <g id="line2d_1">
      <defs>
       <path d="M 0 0 
L 0 3.5 
" id="m91f144f17b" style="stroke:#000000;stroke-width:0.8;"/>
      </defs>
      <g>
       <use style="stroke:#000000;stroke-width:0.8;" x="149.368555" xlink:href="#m91f144f17b" y="441"/>
      </g>
     </g>
     <g id="text_1">
      <!-- 0 -->
      <defs>
       <path d="M 31.78125 66.40625 
Q 24.171875 66.40625 20.328125 58.90625 
Q 16.5 51.421875 16.5 36.375 
Q 16.5 21.390625 20.328125 13.890625 
Q 24.171875 6.390625 31.78125 6.390625 
Q 39.453125 6.390625 43.28125 13.890625 
Q 47.125 21.390625 47.125 36.375 
Q 47.125 51.421875 43.28125 58.90625 
Q 39.453125 66.40625 31.78125 66.40625 
z
M 31.78125 74.21875 
Q 44.046875 74.21875 50.515625 64.515625 
Q 56.984375 54.828125 56.984375 36.375 
Q 56.984375 17.96875 50.515625 8.265625 
Q 44.046875 -1.421875 31.78125 -1.421875 
Q 19.53125 -1.421875 13.0625 8.265625 
Q 6.59375 17.96875 6.59375 36.375 
Q 6.59375 54.828125 13.0625 64.515625 
Q 19.53125 74.21875 31.78125 74.21875 
z
" id="DejaVuSans-48"/>
      </defs>
      <g transform="translate(146.187305 455.598437)scale(0.1 -0.1)">
       <use xlink:href="#DejaVuSans-48"/>
      </g>
     </g>
    </g>
    <g id="xtick_2">
     <g id="line2d_2">
      <g>
       <use style="stroke:#000000;stroke-width:0.8;" x="300.411739" xlink:href="#m91f144f17b" y="441"/>
      </g>
     </g>
     <g id="text_2">
      <!-- 50000 -->
      <defs>
       <path d="M 10.796875 72.90625 
L 49.515625 72.90625 
L 49.515625 64.59375 
L 19.828125 64.59375 
L 19.828125 46.734375 
Q 21.96875 47.46875 24.109375 47.828125 
Q 26.265625 48.1875 28.421875 48.1875 
Q 40.625 48.1875 47.75 41.5 
Q 54.890625 34.8125 54.890625 23.390625 
Q 54.890625 11.625 47.5625 5.09375 
Q 40.234375 -1.421875 26.90625 -1.421875 
Q 22.3125 -1.421875 17.546875 -0.640625 
Q 12.796875 0.140625 7.71875 1.703125 
L 7.71875 11.625 
Q 12.109375 9.234375 16.796875 8.0625 
Q 21.484375 6.890625 26.703125 6.890625 
Q 35.15625 6.890625 40.078125 11.328125 
Q 45.015625 15.765625 45.015625 23.390625 
Q 45.015625 31 40.078125 35.4375 
Q 35.15625 39.890625 26.703125 39.890625 
Q 22.75 39.890625 18.8125 39.015625 
Q 14.890625 38.140625 10.796875 36.28125 
z
" id="DejaVuSans-53"/>
      </defs>
      <g transform="translate(284.505489 455.598437)scale(0.1 -0.1)">
       <use xlink:href="#DejaVuSans-53"/>
       <use x="63.623047" xlink:href="#DejaVuSans-48"/>
       <use x="127.246094" xlink:href="#DejaVuSans-48"/>
       <use x="190.869141" xlink:href="#DejaVuSans-48"/>
       <use x="254.492188" xlink:href="#DejaVuSans-48"/>
      </g>
     </g>
    </g>
    <g id="xtick_3">
     <g id="line2d_3">
      <g>
       <use style="stroke:#000000;stroke-width:0.8;" x="451.454924" xlink:href="#m91f144f17b" y="441"/>
      </g>
     </g>
     <g id="text_3">
      <!-- 100000 -->
      <defs>
       <path d="M 12.40625 8.296875 
L 28.515625 8.296875 
L 28.515625 63.921875 
L 10.984375 60.40625 
L 10.984375 69.390625 
L 28.421875 72.90625 
L 38.28125 72.90625 
L 38.28125 8.296875 
L 54.390625 8.296875 
L 54.390625 0 
L 12.40625 0 
z
" id="DejaVuSans-49"/>
      </defs>
      <g transform="translate(432.367424 455.598437)scale(0.1 -0.1)">
       <use xlink:href="#DejaVuSans-49"/>
       <use x="63.623047" xlink:href="#DejaVuSans-48"/>
       <use x="127.246094" xlink:href="#DejaVuSans-48"/>
       <use x="190.869141" xlink:href="#DejaVuSans-48"/>
       <use x="254.492188" xlink:href="#DejaVuSans-48"/>
       <use x="318.115234" xlink:href="#DejaVuSans-48"/>
      </g>
     </g>
    </g>
    <g id="xtick_4">
     <g id="line2d_4">
      <g>
       <use style="stroke:#000000;stroke-width:0.8;" x="602.498109" xlink:href="#m91f144f17b" y="441"/>
      </g>
     </g>
     <g id="text_4">
      <!-- 150000 -->
      <g transform="translate(583.410609 455.598437)scale(0.1 -0.1)">
       <use xlink:href="#DejaVuSans-49"/>
       <use x="63.623047" xlink:href="#DejaVuSans-53"/>
       <use x="127.246094" xlink:href="#DejaVuSans-48"/>
       <use x="190.869141" xlink:href="#DejaVuSans-48"/>
       <use x="254.492188" xlink:href="#DejaVuSans-48"/>
       <use x="318.115234" xlink:href="#DejaVuSans-48"/>
      </g>
     </g>
    </g>
    <g id="xtick_5">
     <g id="line2d_5">
      <g>
       <use style="stroke:#000000;stroke-width:0.8;" x="753.541294" xlink:href="#m91f144f17b" y="441"/>
      </g>
     </g>
     <g id="text_5">
      <!-- 200000 -->
      <defs>
       <path d="M 19.1875 8.296875 
L 53.609375 8.296875 
L 53.609375 0 
L 7.328125 0 
L 7.328125 8.296875 
Q 12.9375 14.109375 22.625 23.890625 
Q 32.328125 33.6875 34.8125 36.53125 
Q 39.546875 41.84375 41.421875 45.53125 
Q 43.3125 49.21875 43.3125 52.78125 
Q 43.3125 58.59375 39.234375 62.25 
Q 35.15625 65.921875 28.609375 65.921875 
Q 23.96875 65.921875 18.8125 64.3125 
Q 13.671875 62.703125 7.8125 59.421875 
L 7.8125 69.390625 
Q 13.765625 71.78125 18.9375 73 
Q 24.125 74.21875 28.421875 74.21875 
Q 39.75 74.21875 46.484375 68.546875 
Q 53.21875 62.890625 53.21875 53.421875 
Q 53.21875 48.921875 51.53125 44.890625 
Q 49.859375 40.875 45.40625 35.40625 
Q 44.1875 33.984375 37.640625 27.21875 
Q 31.109375 20.453125 19.1875 8.296875 
z
" id="DejaVuSans-50"/>
      </defs>
      <g transform="translate(734.453794 455.598437)scale(0.1 -0.1)">
       <use xlink:href="#DejaVuSans-50"/>
       <use x="63.623047" xlink:href="#DejaVuSans-48"/>
       <use x="127.246094" xlink:href="#DejaVuSans-48"/>
       <use x="190.869141" xlink:href="#DejaVuSans-48"/>
       <use x="254.492188" xlink:href="#DejaVuSans-48"/>
       <use x="318.115234" xlink:href="#DejaVuSans-48"/>
      </g>
     </g>
    </g>
    <g id="text_6">
     <!-- Iteration -->
     <defs>
      <path d="M 9.8125 72.90625 
L 19.671875 72.90625 
L 19.671875 0 
L 9.8125 0 
z
" id="DejaVuSans-73"/>
      <path d="M 18.3125 70.21875 
L 18.3125 54.6875 
L 36.8125 54.6875 
L 36.8125 47.703125 
L 18.3125 47.703125 
L 18.3125 18.015625 
Q 18.3125 11.328125 20.140625 9.421875 
Q 21.96875 7.515625 27.59375 7.515625 
L 36.8125 7.515625 
L 36.8125 0 
L 27.59375 0 
Q 17.1875 0 13.234375 3.875 
Q 9.28125 7.765625 9.28125 18.015625 
L 9.28125 47.703125 
L 2.6875 47.703125 
L 2.6875 54.6875 
L 9.28125 54.6875 
L 9.28125 70.21875 
z
" id="DejaVuSans-116"/>
      <path d="M 56.203125 29.59375 
L 56.203125 25.203125 
L 14.890625 25.203125 
Q 15.484375 15.921875 20.484375 11.0625 
Q 25.484375 6.203125 34.421875 6.203125 
Q 39.59375 6.203125 44.453125 7.46875 
Q 49.3125 8.734375 54.109375 11.28125 
L 54.109375 2.78125 
Q 49.265625 0.734375 44.1875 -0.34375 
Q 39.109375 -1.421875 33.890625 -1.421875 
Q 20.796875 -1.421875 13.15625 6.1875 
Q 5.515625 13.8125 5.515625 26.8125 
Q 5.515625 40.234375 12.765625 48.109375 
Q 20.015625 56 32.328125 56 
Q 43.359375 56 49.78125 48.890625 
Q 56.203125 41.796875 56.203125 29.59375 
z
M 47.21875 32.234375 
Q 47.125 39.59375 43.09375 43.984375 
Q 39.0625 48.390625 32.421875 48.390625 
Q 24.90625 48.390625 20.390625 44.140625 
Q 15.875 39.890625 15.1875 32.171875 
z
" id="DejaVuSans-101"/>
      <path d="M 41.109375 46.296875 
Q 39.59375 47.171875 37.8125 47.578125 
Q 36.03125 48 33.890625 48 
Q 26.265625 48 22.1875 43.046875 
Q 18.109375 38.09375 18.109375 28.8125 
L 18.109375 0 
L 9.078125 0 
L 9.078125 54.6875 
L 18.109375 54.6875 
L 18.109375 46.1875 
Q 20.953125 51.171875 25.484375 53.578125 
Q 30.03125 56 36.53125 56 
Q 37.453125 56 38.578125 55.875 
Q 39.703125 55.765625 41.0625 55.515625 
z
" id="DejaVuSans-114"/>
      <path d="M 34.28125 27.484375 
Q 23.390625 27.484375 19.1875 25 
Q 14.984375 22.515625 14.984375 16.5 
Q 14.984375 11.71875 18.140625 8.90625 
Q 21.296875 6.109375 26.703125 6.109375 
Q 34.1875 6.109375 38.703125 11.40625 
Q 43.21875 16.703125 43.21875 25.484375 
L 43.21875 27.484375 
z
M 52.203125 31.203125 
L 52.203125 0 
L 43.21875 0 
L 43.21875 8.296875 
Q 40.140625 3.328125 35.546875 0.953125 
Q 30.953125 -1.421875 24.3125 -1.421875 
Q 15.921875 -1.421875 10.953125 3.296875 
Q 6 8.015625 6 15.921875 
Q 6 25.140625 12.171875 29.828125 
Q 18.359375 34.515625 30.609375 34.515625 
L 43.21875 34.515625 
L 43.21875 35.40625 
Q 43.21875 41.609375 39.140625 45 
Q 35.0625 48.390625 27.6875 48.390625 
Q 23 48.390625 18.546875 47.265625 
Q 14.109375 46.140625 10.015625 43.890625 
L 10.015625 52.203125 
Q 14.9375 54.109375 19.578125 55.046875 
Q 24.21875 56 28.609375 56 
Q 40.484375 56 46.34375 49.84375 
Q 52.203125 43.703125 52.203125 31.203125 
z
" id="DejaVuSans-97"/>
      <path d="M 9.421875 54.6875 
L 18.40625 54.6875 
L 18.40625 0 
L 9.421875 0 
z
M 9.421875 75.984375 
L 18.40625 75.984375 
L 18.40625 64.59375 
L 9.421875 64.59375 
z
" id="DejaVuSans-105"/>
      <path d="M 30.609375 48.390625 
Q 23.390625 48.390625 19.1875 42.75 
Q 14.984375 37.109375 14.984375 27.296875 
Q 14.984375 17.484375 19.15625 11.84375 
Q 23.34375 6.203125 30.609375 6.203125 
Q 37.796875 6.203125 41.984375 11.859375 
Q 46.1875 17.53125 46.1875 27.296875 
Q 46.1875 37.015625 41.984375 42.703125 
Q 37.796875 48.390625 30.609375 48.390625 
z
M 30.609375 56 
Q 42.328125 56 49.015625 48.375 
Q 55.71875 40.765625 55.71875 27.296875 
Q 55.71875 13.875 49.015625 6.21875 
Q 42.328125 -1.421875 30.609375 -1.421875 
Q 18.84375 -1.421875 12.171875 6.21875 
Q 5.515625 13.875 5.515625 27.296875 
Q 5.515625 40.765625 12.171875 48.375 
Q 18.84375 56 30.609375 56 
z
" id="DejaVuSans-111"/>
      <path d="M 54.890625 33.015625 
L 54.890625 0 
L 45.90625 0 
L 45.90625 32.71875 
Q 45.90625 40.484375 42.875 44.328125 
Q 39.84375 48.1875 33.796875 48.1875 
Q 26.515625 48.1875 22.3125 43.546875 
Q 18.109375 38.921875 18.109375 30.90625 
L 18.109375 0 
L 9.078125 0 
L 9.078125 54.6875 
L 18.109375 54.6875 
L 18.109375 46.1875 
Q 21.34375 51.125 25.703125 53.5625 
Q 30.078125 56 35.796875 56 
Q 45.21875 56 50.046875 50.171875 
Q 54.890625 44.34375 54.890625 33.015625 
z
" id="DejaVuSans-110"/>
     </defs>
     <g transform="translate(458.491406 469.276563)scale(0.1 -0.1)">
      <use xlink:href="#DejaVuSans-73"/>
      <use x="29.492188" xlink:href="#DejaVuSans-116"/>
      <use x="68.701172" xlink:href="#DejaVuSans-101"/>
      <use x="130.224609" xlink:href="#DejaVuSans-114"/>
      <use x="171.337891" xlink:href="#DejaVuSans-97"/>
      <use x="232.617188" xlink:href="#DejaVuSans-116"/>
      <use x="271.826172" xlink:href="#DejaVuSans-105"/>
      <use x="299.609375" xlink:href="#DejaVuSans-111"/>
      <use x="360.791016" xlink:href="#DejaVuSans-110"/>
     </g>
    </g>
   </g>
   <g id="matplotlib.axis_2">
    <g id="ytick_1">
     <g id="line2d_6">
      <defs>
       <path d="M 0 0 
L -3.5 0 
" id="m43a1d2b02e" style="stroke:#000000;stroke-width:0.8;"/>
      </defs>
      <g>
       <use style="stroke:#000000;stroke-width:0.8;" x="117" xlink:href="#m43a1d2b02e" y="409.12508"/>
      </g>
     </g>
     <g id="text_7">
      <!-- $\mathdefault{10^{-8}}$ -->
      <defs>
       <path d="M 10.59375 35.5 
L 73.1875 35.5 
L 73.1875 27.203125 
L 10.59375 27.203125 
z
" id="DejaVuSans-8722"/>
       <path d="M 31.78125 34.625 
Q 24.75 34.625 20.71875 30.859375 
Q 16.703125 27.09375 16.703125 20.515625 
Q 16.703125 13.921875 20.71875 10.15625 
Q 24.75 6.390625 31.78125 6.390625 
Q 38.8125 6.390625 42.859375 10.171875 
Q 46.921875 13.96875 46.921875 20.515625 
Q 46.921875 27.09375 42.890625 30.859375 
Q 38.875 34.625 31.78125 34.625 
z
M 21.921875 38.8125 
Q 15.578125 40.375 12.03125 44.71875 
Q 8.5 49.078125 8.5 55.328125 
Q 8.5 64.0625 14.71875 69.140625 
Q 20.953125 74.21875 31.78125 74.21875 
Q 42.671875 74.21875 48.875 69.140625 
Q 55.078125 64.0625 55.078125 55.328125 
Q 55.078125 49.078125 51.53125 44.71875 
Q 48 40.375 41.703125 38.8125 
Q 48.828125 37.15625 52.796875 32.3125 
Q 56.78125 27.484375 56.78125 20.515625 
Q 56.78125 9.90625 50.3125 4.234375 
Q 43.84375 -1.421875 31.78125 -1.421875 
Q 19.734375 -1.421875 13.25 4.234375 
Q 6.78125 9.90625 6.78125 20.515625 
Q 6.78125 27.484375 10.78125 32.3125 
Q 14.796875 37.15625 21.921875 38.8125 
z
M 18.3125 54.390625 
Q 18.3125 48.734375 21.84375 45.5625 
Q 25.390625 42.390625 31.78125 42.390625 
Q 38.140625 42.390625 41.71875 45.5625 
Q 45.3125 48.734375 45.3125 54.390625 
Q 45.3125 60.0625 41.71875 63.234375 
Q 38.140625 66.40625 31.78125 66.40625 
Q 25.390625 66.40625 21.84375 63.234375 
Q 18.3125 60.0625 18.3125 54.390625 
z
" id="DejaVuSans-56"/>
      </defs>
      <g transform="translate(86.5 412.924299)scale(0.1 -0.1)">
       <use transform="translate(0 0.765625)" xlink:href="#DejaVuSans-49"/>
       <use transform="translate(63.623047 0.765625)" xlink:href="#DejaVuSans-48"/>
       <use transform="translate(128.203125 39.046875)scale(0.7)" xlink:href="#DejaVuSans-8722"/>
       <use transform="translate(186.855469 39.046875)scale(0.7)" xlink:href="#DejaVuSans-56"/>
      </g>
     </g>
    </g>
    <g id="ytick_2">
     <g id="line2d_7">
      <g>
       <use style="stroke:#000000;stroke-width:0.8;" x="117" xlink:href="#m43a1d2b02e" y="367.12091"/>
      </g>
     </g>
     <g id="text_8">
      <!-- $\mathdefault{10^{-7}}$ -->
      <defs>
       <path d="M 8.203125 72.90625 
L 55.078125 72.90625 
L 55.078125 68.703125 
L 28.609375 0 
L 18.3125 0 
L 43.21875 64.59375 
L 8.203125 64.59375 
z
" id="DejaVuSans-55"/>
      </defs>
      <g transform="translate(86.5 370.920129)scale(0.1 -0.1)">
       <use transform="translate(0 0.684375)" xlink:href="#DejaVuSans-49"/>
       <use transform="translate(63.623047 0.684375)" xlink:href="#DejaVuSans-48"/>
       <use transform="translate(128.203125 38.965625)scale(0.7)" xlink:href="#DejaVuSans-8722"/>
       <use transform="translate(186.855469 38.965625)scale(0.7)" xlink:href="#DejaVuSans-55"/>
      </g>
     </g>
    </g>
    <g id="ytick_3">
     <g id="line2d_8">
      <g>
       <use style="stroke:#000000;stroke-width:0.8;" x="117" xlink:href="#m43a1d2b02e" y="325.11674"/>
      </g>
     </g>
     <g id="text_9">
      <!-- $\mathdefault{10^{-6}}$ -->
      <defs>
       <path d="M 33.015625 40.375 
Q 26.375 40.375 22.484375 35.828125 
Q 18.609375 31.296875 18.609375 23.390625 
Q 18.609375 15.53125 22.484375 10.953125 
Q 26.375 6.390625 33.015625 6.390625 
Q 39.65625 6.390625 43.53125 10.953125 
Q 47.40625 15.53125 47.40625 23.390625 
Q 47.40625 31.296875 43.53125 35.828125 
Q 39.65625 40.375 33.015625 40.375 
z
M 52.59375 71.296875 
L 52.59375 62.3125 
Q 48.875 64.0625 45.09375 64.984375 
Q 41.3125 65.921875 37.59375 65.921875 
Q 27.828125 65.921875 22.671875 59.328125 
Q 17.53125 52.734375 16.796875 39.40625 
Q 19.671875 43.65625 24.015625 45.921875 
Q 28.375 48.1875 33.59375 48.1875 
Q 44.578125 48.1875 50.953125 41.515625 
Q 57.328125 34.859375 57.328125 23.390625 
Q 57.328125 12.15625 50.6875 5.359375 
Q 44.046875 -1.421875 33.015625 -1.421875 
Q 20.359375 -1.421875 13.671875 8.265625 
Q 6.984375 17.96875 6.984375 36.375 
Q 6.984375 53.65625 15.1875 63.9375 
Q 23.390625 74.21875 37.203125 74.21875 
Q 40.921875 74.21875 44.703125 73.484375 
Q 48.484375 72.75 52.59375 71.296875 
z
" id="DejaVuSans-54"/>
      </defs>
      <g transform="translate(86.5 328.915958)scale(0.1 -0.1)">
       <use transform="translate(0 0.765625)" xlink:href="#DejaVuSans-49"/>
       <use transform="translate(63.623047 0.765625)" xlink:href="#DejaVuSans-48"/>
       <use transform="translate(128.203125 39.046875)scale(0.7)" xlink:href="#DejaVuSans-8722"/>
       <use transform="translate(186.855469 39.046875)scale(0.7)" xlink:href="#DejaVuSans-54"/>
      </g>
     </g>
    </g>
    <g id="ytick_4">
     <g id="line2d_9">
      <g>
       <use style="stroke:#000000;stroke-width:0.8;" x="117" xlink:href="#m43a1d2b02e" y="283.112569"/>
      </g>
     </g>
     <g id="text_10">
      <!-- $\mathdefault{10^{-5}}$ -->
      <g transform="translate(86.5 286.911788)scale(0.1 -0.1)">
       <use transform="translate(0 0.684375)" xlink:href="#DejaVuSans-49"/>
       <use transform="translate(63.623047 0.684375)" xlink:href="#DejaVuSans-48"/>
       <use transform="translate(128.203125 38.965625)scale(0.7)" xlink:href="#DejaVuSans-8722"/>
       <use transform="translate(186.855469 38.965625)scale(0.7)" xlink:href="#DejaVuSans-53"/>
      </g>
     </g>
    </g>
    <g id="ytick_5">
     <g id="line2d_10">
      <g>
       <use style="stroke:#000000;stroke-width:0.8;" x="117" xlink:href="#m43a1d2b02e" y="241.108399"/>
      </g>
     </g>
     <g id="text_11">
      <!-- $\mathdefault{10^{-4}}$ -->
      <defs>
       <path d="M 37.796875 64.3125 
L 12.890625 25.390625 
L 37.796875 25.390625 
z
M 35.203125 72.90625 
L 47.609375 72.90625 
L 47.609375 25.390625 
L 58.015625 25.390625 
L 58.015625 17.1875 
L 47.609375 17.1875 
L 47.609375 0 
L 37.796875 0 
L 37.796875 17.1875 
L 4.890625 17.1875 
L 4.890625 26.703125 
z
" id="DejaVuSans-52"/>
      </defs>
      <g transform="translate(86.5 244.907618)scale(0.1 -0.1)">
       <use transform="translate(0 0.684375)" xlink:href="#DejaVuSans-49"/>
       <use transform="translate(63.623047 0.684375)" xlink:href="#DejaVuSans-48"/>
       <use transform="translate(128.203125 38.965625)scale(0.7)" xlink:href="#DejaVuSans-8722"/>
       <use transform="translate(186.855469 38.965625)scale(0.7)" xlink:href="#DejaVuSans-52"/>
      </g>
     </g>
    </g>
    <g id="ytick_6">
     <g id="line2d_11">
      <g>
       <use style="stroke:#000000;stroke-width:0.8;" x="117" xlink:href="#m43a1d2b02e" y="199.104228"/>
      </g>
     </g>
     <g id="text_12">
      <!-- $\mathdefault{10^{-3}}$ -->
      <defs>
       <path d="M 40.578125 39.3125 
Q 47.65625 37.796875 51.625 33 
Q 55.609375 28.21875 55.609375 21.1875 
Q 55.609375 10.40625 48.1875 4.484375 
Q 40.765625 -1.421875 27.09375 -1.421875 
Q 22.515625 -1.421875 17.65625 -0.515625 
Q 12.796875 0.390625 7.625 2.203125 
L 7.625 11.71875 
Q 11.71875 9.328125 16.59375 8.109375 
Q 21.484375 6.890625 26.8125 6.890625 
Q 36.078125 6.890625 40.9375 10.546875 
Q 45.796875 14.203125 45.796875 21.1875 
Q 45.796875 27.640625 41.28125 31.265625 
Q 36.765625 34.90625 28.71875 34.90625 
L 20.21875 34.90625 
L 20.21875 43.015625 
L 29.109375 43.015625 
Q 36.375 43.015625 40.234375 45.921875 
Q 44.09375 48.828125 44.09375 54.296875 
Q 44.09375 59.90625 40.109375 62.90625 
Q 36.140625 65.921875 28.71875 65.921875 
Q 24.65625 65.921875 20.015625 65.03125 
Q 15.375 64.15625 9.8125 62.3125 
L 9.8125 71.09375 
Q 15.4375 72.65625 20.34375 73.4375 
Q 25.25 74.21875 29.59375 74.21875 
Q 40.828125 74.21875 47.359375 69.109375 
Q 53.90625 64.015625 53.90625 55.328125 
Q 53.90625 49.265625 50.4375 45.09375 
Q 46.96875 40.921875 40.578125 39.3125 
z
" id="DejaVuSans-51"/>
      </defs>
      <g transform="translate(86.5 202.903447)scale(0.1 -0.1)">
       <use transform="translate(0 0.765625)" xlink:href="#DejaVuSans-49"/>
       <use transform="translate(63.623047 0.765625)" xlink:href="#DejaVuSans-48"/>
       <use transform="translate(128.203125 39.046875)scale(0.7)" xlink:href="#DejaVuSans-8722"/>
       <use transform="translate(186.855469 39.046875)scale(0.7)" xlink:href="#DejaVuSans-51"/>
      </g>
     </g>
    </g>
    <g id="ytick_7">
     <g id="line2d_12">
      <g>
       <use style="stroke:#000000;stroke-width:0.8;" x="117" xlink:href="#m43a1d2b02e" y="157.100058"/>
      </g>
     </g>
     <g id="text_13">
      <!-- $\mathdefault{10^{-2}}$ -->
      <g transform="translate(86.5 160.899277)scale(0.1 -0.1)">
       <use transform="translate(0 0.765625)" xlink:href="#DejaVuSans-49"/>
       <use transform="translate(63.623047 0.765625)" xlink:href="#DejaVuSans-48"/>
       <use transform="translate(128.203125 39.046875)scale(0.7)" xlink:href="#DejaVuSans-8722"/>
       <use transform="translate(186.855469 39.046875)scale(0.7)" xlink:href="#DejaVuSans-50"/>
      </g>
     </g>
    </g>
    <g id="ytick_8">
     <g id="line2d_13">
      <g>
       <use style="stroke:#000000;stroke-width:0.8;" x="117" xlink:href="#m43a1d2b02e" y="115.095888"/>
      </g>
     </g>
     <g id="text_14">
      <!-- $\mathdefault{10^{-1}}$ -->
      <g transform="translate(86.5 118.895107)scale(0.1 -0.1)">
       <use transform="translate(0 0.684375)" xlink:href="#DejaVuSans-49"/>
       <use transform="translate(63.623047 0.684375)" xlink:href="#DejaVuSans-48"/>
       <use transform="translate(128.203125 38.965625)scale(0.7)" xlink:href="#DejaVuSans-8722"/>
       <use transform="translate(186.855469 38.965625)scale(0.7)" xlink:href="#DejaVuSans-49"/>
      </g>
     </g>
    </g>
    <g id="ytick_9">
     <g id="line2d_14">
      <g>
       <use style="stroke:#000000;stroke-width:0.8;" x="117" xlink:href="#m43a1d2b02e" y="73.091717"/>
      </g>
     </g>
     <g id="text_15">
      <!-- $\mathdefault{10^{0}}$ -->
      <g transform="translate(92.4 76.890936)scale(0.1 -0.1)">
       <use transform="translate(0 0.765625)" xlink:href="#DejaVuSans-49"/>
       <use transform="translate(63.623047 0.765625)" xlink:href="#DejaVuSans-48"/>
       <use transform="translate(128.203125 39.046875)scale(0.7)" xlink:href="#DejaVuSans-48"/>
      </g>
     </g>
    </g>
    <g id="ytick_10">
     <g id="line2d_15">
      <defs>
       <path d="M 0 0 
L -2 0 
" id="m994f079205" style="stroke:#000000;stroke-width:0.6;"/>
      </defs>
      <g>
       <use style="stroke:#000000;stroke-width:0.6;" x="117" xlink:href="#m994f079205" y="438.484735"/>
      </g>
     </g>
    </g>
    <g id="ytick_11">
     <g id="line2d_16">
      <g>
       <use style="stroke:#000000;stroke-width:0.6;" x="117" xlink:href="#m994f079205" y="431.088168"/>
      </g>
     </g>
    </g>
    <g id="ytick_12">
     <g id="line2d_17">
      <g>
       <use style="stroke:#000000;stroke-width:0.6;" x="117" xlink:href="#m994f079205" y="425.84022"/>
      </g>
     </g>
    </g>
    <g id="ytick_13">
     <g id="line2d_18">
      <g>
       <use style="stroke:#000000;stroke-width:0.6;" x="117" xlink:href="#m994f079205" y="421.769596"/>
      </g>
     </g>
    </g>
    <g id="ytick_14">
     <g id="line2d_19">
      <g>
       <use style="stroke:#000000;stroke-width:0.6;" x="117" xlink:href="#m994f079205" y="418.443653"/>
      </g>
     </g>
    </g>
    <g id="ytick_15">
     <g id="line2d_20">
      <g>
       <use style="stroke:#000000;stroke-width:0.6;" x="117" xlink:href="#m994f079205" y="415.631609"/>
      </g>
     </g>
    </g>
    <g id="ytick_16">
     <g id="line2d_21">
      <g>
       <use style="stroke:#000000;stroke-width:0.6;" x="117" xlink:href="#m994f079205" y="413.195705"/>
      </g>
     </g>
    </g>
    <g id="ytick_17">
     <g id="line2d_22">
      <g>
       <use style="stroke:#000000;stroke-width:0.6;" x="117" xlink:href="#m994f079205" y="411.047086"/>
      </g>
     </g>
    </g>
    <g id="ytick_18">
     <g id="line2d_23">
      <g>
       <use style="stroke:#000000;stroke-width:0.6;" x="117" xlink:href="#m994f079205" y="396.480565"/>
      </g>
     </g>
    </g>
    <g id="ytick_19">
     <g id="line2d_24">
      <g>
       <use style="stroke:#000000;stroke-width:0.6;" x="117" xlink:href="#m994f079205" y="389.083998"/>
      </g>
     </g>
    </g>
    <g id="ytick_20">
     <g id="line2d_25">
      <g>
       <use style="stroke:#000000;stroke-width:0.6;" x="117" xlink:href="#m994f079205" y="383.83605"/>
      </g>
     </g>
    </g>
    <g id="ytick_21">
     <g id="line2d_26">
      <g>
       <use style="stroke:#000000;stroke-width:0.6;" x="117" xlink:href="#m994f079205" y="379.765425"/>
      </g>
     </g>
    </g>
    <g id="ytick_22">
     <g id="line2d_27">
      <g>
       <use style="stroke:#000000;stroke-width:0.6;" x="117" xlink:href="#m994f079205" y="376.439483"/>
      </g>
     </g>
    </g>
    <g id="ytick_23">
     <g id="line2d_28">
      <g>
       <use style="stroke:#000000;stroke-width:0.6;" x="117" xlink:href="#m994f079205" y="373.627438"/>
      </g>
     </g>
    </g>
    <g id="ytick_24">
     <g id="line2d_29">
      <g>
       <use style="stroke:#000000;stroke-width:0.6;" x="117" xlink:href="#m994f079205" y="371.191535"/>
      </g>
     </g>
    </g>
    <g id="ytick_25">
     <g id="line2d_30">
      <g>
       <use style="stroke:#000000;stroke-width:0.6;" x="117" xlink:href="#m994f079205" y="369.042915"/>
      </g>
     </g>
    </g>
    <g id="ytick_26">
     <g id="line2d_31">
      <g>
       <use style="stroke:#000000;stroke-width:0.6;" x="117" xlink:href="#m994f079205" y="354.476395"/>
      </g>
     </g>
    </g>
    <g id="ytick_27">
     <g id="line2d_32">
      <g>
       <use style="stroke:#000000;stroke-width:0.6;" x="117" xlink:href="#m994f079205" y="347.079827"/>
      </g>
     </g>
    </g>
    <g id="ytick_28">
     <g id="line2d_33">
      <g>
       <use style="stroke:#000000;stroke-width:0.6;" x="117" xlink:href="#m994f079205" y="341.83188"/>
      </g>
     </g>
    </g>
    <g id="ytick_29">
     <g id="line2d_34">
      <g>
       <use style="stroke:#000000;stroke-width:0.6;" x="117" xlink:href="#m994f079205" y="337.761255"/>
      </g>
     </g>
    </g>
    <g id="ytick_30">
     <g id="line2d_35">
      <g>
       <use style="stroke:#000000;stroke-width:0.6;" x="117" xlink:href="#m994f079205" y="334.435312"/>
      </g>
     </g>
    </g>
    <g id="ytick_31">
     <g id="line2d_36">
      <g>
       <use style="stroke:#000000;stroke-width:0.6;" x="117" xlink:href="#m994f079205" y="331.623268"/>
      </g>
     </g>
    </g>
    <g id="ytick_32">
     <g id="line2d_37">
      <g>
       <use style="stroke:#000000;stroke-width:0.6;" x="117" xlink:href="#m994f079205" y="329.187364"/>
      </g>
     </g>
    </g>
    <g id="ytick_33">
     <g id="line2d_38">
      <g>
       <use style="stroke:#000000;stroke-width:0.6;" x="117" xlink:href="#m994f079205" y="327.038745"/>
      </g>
     </g>
    </g>
    <g id="ytick_34">
     <g id="line2d_39">
      <g>
       <use style="stroke:#000000;stroke-width:0.6;" x="117" xlink:href="#m994f079205" y="312.472224"/>
      </g>
     </g>
    </g>
    <g id="ytick_35">
     <g id="line2d_40">
      <g>
       <use style="stroke:#000000;stroke-width:0.6;" x="117" xlink:href="#m994f079205" y="305.075657"/>
      </g>
     </g>
    </g>
    <g id="ytick_36">
     <g id="line2d_41">
      <g>
       <use style="stroke:#000000;stroke-width:0.6;" x="117" xlink:href="#m994f079205" y="299.827709"/>
      </g>
     </g>
    </g>
    <g id="ytick_37">
     <g id="line2d_42">
      <g>
       <use style="stroke:#000000;stroke-width:0.6;" x="117" xlink:href="#m994f079205" y="295.757084"/>
      </g>
     </g>
    </g>
    <g id="ytick_38">
     <g id="line2d_43">
      <g>
       <use style="stroke:#000000;stroke-width:0.6;" x="117" xlink:href="#m994f079205" y="292.431142"/>
      </g>
     </g>
    </g>
    <g id="ytick_39">
     <g id="line2d_44">
      <g>
       <use style="stroke:#000000;stroke-width:0.6;" x="117" xlink:href="#m994f079205" y="289.619098"/>
      </g>
     </g>
    </g>
    <g id="ytick_40">
     <g id="line2d_45">
      <g>
       <use style="stroke:#000000;stroke-width:0.6;" x="117" xlink:href="#m994f079205" y="287.183194"/>
      </g>
     </g>
    </g>
    <g id="ytick_41">
     <g id="line2d_46">
      <g>
       <use style="stroke:#000000;stroke-width:0.6;" x="117" xlink:href="#m994f079205" y="285.034575"/>
      </g>
     </g>
    </g>
    <g id="ytick_42">
     <g id="line2d_47">
      <g>
       <use style="stroke:#000000;stroke-width:0.6;" x="117" xlink:href="#m994f079205" y="270.468054"/>
      </g>
     </g>
    </g>
    <g id="ytick_43">
     <g id="line2d_48">
      <g>
       <use style="stroke:#000000;stroke-width:0.6;" x="117" xlink:href="#m994f079205" y="263.071487"/>
      </g>
     </g>
    </g>
    <g id="ytick_44">
     <g id="line2d_49">
      <g>
       <use style="stroke:#000000;stroke-width:0.6;" x="117" xlink:href="#m994f079205" y="257.823539"/>
      </g>
     </g>
    </g>
    <g id="ytick_45">
     <g id="line2d_50">
      <g>
       <use style="stroke:#000000;stroke-width:0.6;" x="117" xlink:href="#m994f079205" y="253.752914"/>
      </g>
     </g>
    </g>
    <g id="ytick_46">
     <g id="line2d_51">
      <g>
       <use style="stroke:#000000;stroke-width:0.6;" x="117" xlink:href="#m994f079205" y="250.426972"/>
      </g>
     </g>
    </g>
    <g id="ytick_47">
     <g id="line2d_52">
      <g>
       <use style="stroke:#000000;stroke-width:0.6;" x="117" xlink:href="#m994f079205" y="247.614927"/>
      </g>
     </g>
    </g>
    <g id="ytick_48">
     <g id="line2d_53">
      <g>
       <use style="stroke:#000000;stroke-width:0.6;" x="117" xlink:href="#m994f079205" y="245.179024"/>
      </g>
     </g>
    </g>
    <g id="ytick_49">
     <g id="line2d_54">
      <g>
       <use style="stroke:#000000;stroke-width:0.6;" x="117" xlink:href="#m994f079205" y="243.030404"/>
      </g>
     </g>
    </g>
    <g id="ytick_50">
     <g id="line2d_55">
      <g>
       <use style="stroke:#000000;stroke-width:0.6;" x="117" xlink:href="#m994f079205" y="228.463884"/>
      </g>
     </g>
    </g>
    <g id="ytick_51">
     <g id="line2d_56">
      <g>
       <use style="stroke:#000000;stroke-width:0.6;" x="117" xlink:href="#m994f079205" y="221.067316"/>
      </g>
     </g>
    </g>
    <g id="ytick_52">
     <g id="line2d_57">
      <g>
       <use style="stroke:#000000;stroke-width:0.6;" x="117" xlink:href="#m994f079205" y="215.819368"/>
      </g>
     </g>
    </g>
    <g id="ytick_53">
     <g id="line2d_58">
      <g>
       <use style="stroke:#000000;stroke-width:0.6;" x="117" xlink:href="#m994f079205" y="211.748744"/>
      </g>
     </g>
    </g>
    <g id="ytick_54">
     <g id="line2d_59">
      <g>
       <use style="stroke:#000000;stroke-width:0.6;" x="117" xlink:href="#m994f079205" y="208.422801"/>
      </g>
     </g>
    </g>
    <g id="ytick_55">
     <g id="line2d_60">
      <g>
       <use style="stroke:#000000;stroke-width:0.6;" x="117" xlink:href="#m994f079205" y="205.610757"/>
      </g>
     </g>
    </g>
    <g id="ytick_56">
     <g id="line2d_61">
      <g>
       <use style="stroke:#000000;stroke-width:0.6;" x="117" xlink:href="#m994f079205" y="203.174853"/>
      </g>
     </g>
    </g>
    <g id="ytick_57">
     <g id="line2d_62">
      <g>
       <use style="stroke:#000000;stroke-width:0.6;" x="117" xlink:href="#m994f079205" y="201.026234"/>
      </g>
     </g>
    </g>
    <g id="ytick_58">
     <g id="line2d_63">
      <g>
       <use style="stroke:#000000;stroke-width:0.6;" x="117" xlink:href="#m994f079205" y="186.459713"/>
      </g>
     </g>
    </g>
    <g id="ytick_59">
     <g id="line2d_64">
      <g>
       <use style="stroke:#000000;stroke-width:0.6;" x="117" xlink:href="#m994f079205" y="179.063146"/>
      </g>
     </g>
    </g>
    <g id="ytick_60">
     <g id="line2d_65">
      <g>
       <use style="stroke:#000000;stroke-width:0.6;" x="117" xlink:href="#m994f079205" y="173.815198"/>
      </g>
     </g>
    </g>
    <g id="ytick_61">
     <g id="line2d_66">
      <g>
       <use style="stroke:#000000;stroke-width:0.6;" x="117" xlink:href="#m994f079205" y="169.744573"/>
      </g>
     </g>
    </g>
    <g id="ytick_62">
     <g id="line2d_67">
      <g>
       <use style="stroke:#000000;stroke-width:0.6;" x="117" xlink:href="#m994f079205" y="166.418631"/>
      </g>
     </g>
    </g>
    <g id="ytick_63">
     <g id="line2d_68">
      <g>
       <use style="stroke:#000000;stroke-width:0.6;" x="117" xlink:href="#m994f079205" y="163.606586"/>
      </g>
     </g>
    </g>
    <g id="ytick_64">
     <g id="line2d_69">
      <g>
       <use style="stroke:#000000;stroke-width:0.6;" x="117" xlink:href="#m994f079205" y="161.170683"/>
      </g>
     </g>
    </g>
    <g id="ytick_65">
     <g id="line2d_70">
      <g>
       <use style="stroke:#000000;stroke-width:0.6;" x="117" xlink:href="#m994f079205" y="159.022064"/>
      </g>
     </g>
    </g>
    <g id="ytick_66">
     <g id="line2d_71">
      <g>
       <use style="stroke:#000000;stroke-width:0.6;" x="117" xlink:href="#m994f079205" y="144.455543"/>
      </g>
     </g>
    </g>
    <g id="ytick_67">
     <g id="line2d_72">
      <g>
       <use style="stroke:#000000;stroke-width:0.6;" x="117" xlink:href="#m994f079205" y="137.058976"/>
      </g>
     </g>
    </g>
    <g id="ytick_68">
     <g id="line2d_73">
      <g>
       <use style="stroke:#000000;stroke-width:0.6;" x="117" xlink:href="#m994f079205" y="131.811028"/>
      </g>
     </g>
    </g>
    <g id="ytick_69">
     <g id="line2d_74">
      <g>
       <use style="stroke:#000000;stroke-width:0.6;" x="117" xlink:href="#m994f079205" y="127.740403"/>
      </g>
     </g>
    </g>
    <g id="ytick_70">
     <g id="line2d_75">
      <g>
       <use style="stroke:#000000;stroke-width:0.6;" x="117" xlink:href="#m994f079205" y="124.41446"/>
      </g>
     </g>
    </g>
    <g id="ytick_71">
     <g id="line2d_76">
      <g>
       <use style="stroke:#000000;stroke-width:0.6;" x="117" xlink:href="#m994f079205" y="121.602416"/>
      </g>
     </g>
    </g>
    <g id="ytick_72">
     <g id="line2d_77">
      <g>
       <use style="stroke:#000000;stroke-width:0.6;" x="117" xlink:href="#m994f079205" y="119.166512"/>
      </g>
     </g>
    </g>
    <g id="ytick_73">
     <g id="line2d_78">
      <g>
       <use style="stroke:#000000;stroke-width:0.6;" x="117" xlink:href="#m994f079205" y="117.017893"/>
      </g>
     </g>
    </g>
    <g id="ytick_74">
     <g id="line2d_79">
      <g>
       <use style="stroke:#000000;stroke-width:0.6;" x="117" xlink:href="#m994f079205" y="102.451373"/>
      </g>
     </g>
    </g>
    <g id="ytick_75">
     <g id="line2d_80">
      <g>
       <use style="stroke:#000000;stroke-width:0.6;" x="117" xlink:href="#m994f079205" y="95.054805"/>
      </g>
     </g>
    </g>
    <g id="ytick_76">
     <g id="line2d_81">
      <g>
       <use style="stroke:#000000;stroke-width:0.6;" x="117" xlink:href="#m994f079205" y="89.806857"/>
      </g>
     </g>
    </g>
    <g id="ytick_77">
     <g id="line2d_82">
      <g>
       <use style="stroke:#000000;stroke-width:0.6;" x="117" xlink:href="#m994f079205" y="85.736233"/>
      </g>
     </g>
    </g>
    <g id="ytick_78">
     <g id="line2d_83">
      <g>
       <use style="stroke:#000000;stroke-width:0.6;" x="117" xlink:href="#m994f079205" y="82.41029"/>
      </g>
     </g>
    </g>
    <g id="ytick_79">
     <g id="line2d_84">
      <g>
       <use style="stroke:#000000;stroke-width:0.6;" x="117" xlink:href="#m994f079205" y="79.598246"/>
      </g>
     </g>
    </g>
    <g id="ytick_80">
     <g id="line2d_85">
      <g>
       <use style="stroke:#000000;stroke-width:0.6;" x="117" xlink:href="#m994f079205" y="77.162342"/>
      </g>
     </g>
    </g>
    <g id="ytick_81">
     <g id="line2d_86">
      <g>
       <use style="stroke:#000000;stroke-width:0.6;" x="117" xlink:href="#m994f079205" y="75.013723"/>
      </g>
     </g>
    </g>
    <g id="ytick_82">
     <g id="line2d_87">
      <g>
       <use style="stroke:#000000;stroke-width:0.6;" x="117" xlink:href="#m994f079205" y="60.447202"/>
      </g>
     </g>
    </g>
    <g id="text_16">
     <!-- Loss value -->
     <defs>
      <path d="M 9.8125 72.90625 
L 19.671875 72.90625 
L 19.671875 8.296875 
L 55.171875 8.296875 
L 55.171875 0 
L 9.8125 0 
z
" id="DejaVuSans-76"/>
      <path d="M 44.28125 53.078125 
L 44.28125 44.578125 
Q 40.484375 46.53125 36.375 47.5 
Q 32.28125 48.484375 27.875 48.484375 
Q 21.1875 48.484375 17.84375 46.4375 
Q 14.5 44.390625 14.5 40.28125 
Q 14.5 37.15625 16.890625 35.375 
Q 19.28125 33.59375 26.515625 31.984375 
L 29.59375 31.296875 
Q 39.15625 29.25 43.1875 25.515625 
Q 47.21875 21.78125 47.21875 15.09375 
Q 47.21875 7.46875 41.1875 3.015625 
Q 35.15625 -1.421875 24.609375 -1.421875 
Q 20.21875 -1.421875 15.453125 -0.5625 
Q 10.6875 0.296875 5.421875 2 
L 5.421875 11.28125 
Q 10.40625 8.6875 15.234375 7.390625 
Q 20.0625 6.109375 24.8125 6.109375 
Q 31.15625 6.109375 34.5625 8.28125 
Q 37.984375 10.453125 37.984375 14.40625 
Q 37.984375 18.0625 35.515625 20.015625 
Q 33.0625 21.96875 24.703125 23.78125 
L 21.578125 24.515625 
Q 13.234375 26.265625 9.515625 29.90625 
Q 5.8125 33.546875 5.8125 39.890625 
Q 5.8125 47.609375 11.28125 51.796875 
Q 16.75 56 26.8125 56 
Q 31.78125 56 36.171875 55.265625 
Q 40.578125 54.546875 44.28125 53.078125 
z
" id="DejaVuSans-115"/>
      <path id="DejaVuSans-32"/>
      <path d="M 2.984375 54.6875 
L 12.5 54.6875 
L 29.59375 8.796875 
L 46.6875 54.6875 
L 56.203125 54.6875 
L 35.6875 0 
L 23.484375 0 
z
" id="DejaVuSans-118"/>
      <path d="M 9.421875 75.984375 
L 18.40625 75.984375 
L 18.40625 0 
L 9.421875 0 
z
" id="DejaVuSans-108"/>
      <path d="M 8.5 21.578125 
L 8.5 54.6875 
L 17.484375 54.6875 
L 17.484375 21.921875 
Q 17.484375 14.15625 20.5 10.265625 
Q 23.53125 6.390625 29.59375 6.390625 
Q 36.859375 6.390625 41.078125 11.03125 
Q 45.3125 15.671875 45.3125 23.6875 
L 45.3125 54.6875 
L 54.296875 54.6875 
L 54.296875 0 
L 45.3125 0 
L 45.3125 8.40625 
Q 42.046875 3.421875 37.71875 1 
Q 33.40625 -1.421875 27.6875 -1.421875 
Q 18.265625 -1.421875 13.375 4.4375 
Q 8.5 10.296875 8.5 21.578125 
z
M 31.109375 56 
z
" id="DejaVuSans-117"/>
     </defs>
     <g transform="translate(80.420312 277.040781)rotate(-90)scale(0.1 -0.1)">
      <use xlink:href="#DejaVuSans-76"/>
      <use x="55.697266" xlink:href="#DejaVuSans-111"/>
      <use x="116.878906" xlink:href="#DejaVuSans-115"/>
      <use x="168.978516" xlink:href="#DejaVuSans-115"/>
      <use x="221.078125" xlink:href="#DejaVuSans-32"/>
      <use x="252.865234" xlink:href="#DejaVuSans-118"/>
      <use x="312.044922" xlink:href="#DejaVuSans-97"/>
      <use x="373.324219" xlink:href="#DejaVuSans-108"/>
      <use x="401.107422" xlink:href="#DejaVuSans-117"/>
      <use x="464.486328" xlink:href="#DejaVuSans-101"/>
     </g>
    </g>
   </g>
   <g id="line2d_88">
    <path clip-path="url(#pd7ead325c1)" d="M 149.972727 92.093364 
L 150.5769 93.800156 
L 151.785245 96.302436 
L 152.993591 98.245579 
L 154.806109 100.678934 
L 157.2228 103.897895 
L 159.035318 106.823407 
L 160.847837 110.340539 
L 162.660355 114.488908 
L 164.472873 119.314597 
L 166.285391 124.83374 
L 168.702082 133.078711 
L 174.74381 155.02101 
L 177.160501 163.779978 
L 178.973019 169.6184 
L 180.785537 174.669869 
L 182.598055 179.105581 
L 185.014746 184.359191 
L 187.431437 188.975367 
L 192.868992 198.73281 
L 194.077337 201.446476 
L 195.889855 206.219893 
L 197.702374 211.914618 
L 199.514892 218.585805 
L 201.32741 226.189566 
L 204.952447 241.987378 
L 206.160792 245.994691 
L 206.764965 247.530107 
L 207.369138 248.731224 
L 207.97331 249.641519 
L 208.577483 250.293881 
L 209.785829 251.119481 
L 213.410865 252.477925 
L 215.827556 253.706529 
L 230.931874 262.37605 
L 244.223675 269.773592 
L 252.07792 274.453485 
L 253.286266 275.226164 
L 256.307129 277.14283 
L 259.327993 278.981543 
L 259.932166 279.47907 
L 261.744684 280.602399 
L 264.765548 282.594561 
L 265.369721 282.767825 
L 265.973893 283.396973 
L 270.807275 286.507043 
L 271.411448 286.839964 
L 272.015621 287.364659 
L 272.619793 287.657589 
L 274.432312 288.952291 
L 275.036484 289.208698 
L 277.453175 290.678154 
L 278.057348 290.906202 
L 278.661521 291.376782 
L 285.307421 295.03636 
L 285.911594 295.180974 
L 287.119939 295.946269 
L 289.53663 296.907774 
L 291.349148 297.508218 
L 291.953321 298.257686 
L 292.557494 298.344863 
L 293.161667 298.752814 
L 293.765839 298.901308 
L 294.370012 299.3092 
L 295.578358 299.596084 
L 297.390876 300.280895 
L 297.995049 300.468121 
L 298.599221 300.786939 
L 299.807567 301.148112 
L 300.411739 301.575578 
L 300.411739 301.575578 
" style="fill:none;stroke:#1f77b4;stroke-linecap:square;stroke-width:1.5;"/>
   </g>
   <g id="line2d_89">
    <path clip-path="url(#pd7ead325c1)" d="M 149.972727 118.0825 
L 150.5769 120.44311 
L 151.785245 123.53326 
L 152.993591 125.9423 
L 154.806109 129.013564 
L 156.618627 131.631331 
L 160.847837 137.287882 
L 162.056182 139.224182 
L 163.264528 141.465032 
L 164.472873 144.108462 
L 165.681219 147.268708 
L 166.889564 151.061917 
L 168.097909 155.575981 
L 169.306255 160.819253 
L 173.535464 180.286284 
L 174.74381 183.800007 
L 175.347982 185.060998 
L 176.556328 186.877488 
L 179.577192 190.559611 
L 180.785537 192.682393 
L 181.993882 195.359263 
L 183.202228 198.529874 
L 185.014746 203.956676 
L 189.243955 217.048604 
L 190.452301 220.159408 
L 191.660646 222.813339 
L 192.868992 225.055123 
L 194.68151 227.914961 
L 198.306546 233.416989 
L 200.723237 237.605745 
L 203.139928 242.266866 
L 207.97331 251.94403 
L 209.181656 253.936012 
L 210.994174 256.241257 
L 211.598347 256.842468 
L 212.202519 257.253079 
L 213.410865 258.230936 
L 217.035901 260.572985 
L 217.640074 260.979775 
L 218.244247 261.232095 
L 218.84842 261.904073 
L 220.056765 262.74544 
L 224.890147 266.773632 
L 229.119356 270.65965 
L 242.411156 283.654456 
L 249.057057 289.621481 
L 252.07792 292.029642 
L 252.682093 292.290734 
L 253.890439 293.414401 
L 254.494611 293.726911 
L 255.702957 294.729731 
L 256.307129 295.068052 
L 259.327993 297.361621 
L 259.932166 297.466143 
L 260.536339 297.955165 
L 262.348857 298.827767 
L 262.95303 299.498416 
L 263.557202 299.668363 
L 264.765548 300.368456 
L 265.369721 301.225338 
L 265.973893 300.985593 
L 267.182239 301.565705 
L 267.786412 302.090718 
L 268.390584 302.105405 
L 268.994757 302.345425 
L 270.203102 303.177081 
L 270.807275 303.427524 
L 271.411448 303.843747 
L 272.015621 303.765825 
L 272.619793 304.25825 
L 273.223966 304.361598 
L 273.828139 304.714668 
L 274.432312 304.641154 
L 275.036484 305.187235 
L 277.453175 306.157224 
L 278.057348 306.666224 
L 278.661521 306.646183 
L 279.265694 306.920162 
L 279.869866 307.049597 
L 282.286557 308.127207 
L 282.89073 308.473317 
L 283.494903 308.326473 
L 284.099076 308.661857 
L 285.307421 308.965803 
L 285.911594 309.490556 
L 286.515766 309.431498 
L 287.119939 309.543943 
L 287.724112 309.803183 
L 288.328285 309.767935 
L 288.932457 310.081825 
L 289.53663 310.66015 
L 291.349148 311.50573 
L 291.953321 310.818942 
L 292.557494 311.363293 
L 293.161667 311.203426 
L 293.765839 311.609207 
L 294.370012 311.409735 
L 294.974185 311.928395 
L 295.578358 312.187379 
L 296.18253 312.324189 
L 296.786703 312.279088 
L 297.390876 312.697241 
L 297.995049 312.922281 
L 298.599221 312.897382 
L 299.807567 313.352782 
L 300.411739 312.949885 
L 300.411739 312.949885 
" style="fill:none;stroke:#ff7f0e;stroke-linecap:square;stroke-width:1.5;"/>
   </g>
   <g id="line2d_90">
    <path clip-path="url(#pd7ead325c1)" d="M 149.972727 77.776364 
L 151.181073 78.979394 
L 152.993591 80.457851 
L 154.201936 81.181279 
L 156.618627 82.432063 
L 157.826973 83.275405 
L 159.035318 84.33801 
L 160.847837 86.301277 
L 162.660355 88.662166 
L 164.472873 91.400781 
L 166.889564 95.520457 
L 170.5146 101.856311 
L 172.327119 104.61261 
L 174.139637 106.907607 
L 175.952155 108.715022 
L 177.764673 110.117764 
L 182.598055 113.511914 
L 184.410573 115.117051 
L 186.827264 117.570376 
L 189.243955 120.360979 
L 191.056474 122.734281 
L 192.868992 125.407962 
L 194.68151 128.414412 
L 197.098201 132.927538 
L 202.535756 143.684746 
L 203.744101 145.604946 
L 204.952447 147.131647 
L 206.160792 148.221916 
L 207.369138 148.89916 
L 208.577483 149.24504 
L 210.390001 149.403692 
L 214.015038 149.62459 
L 217.035901 150.104184 
L 223.077629 151.366 
L 232.744393 153.579324 
L 240.598638 155.590739 
L 244.827847 156.877017 
L 249.057057 158.343541 
L 255.702957 160.930486 
L 262.95303 163.726373 
L 267.786412 165.26842 
L 271.411448 166.151947 
L 274.432312 166.675598 
L 278.661521 167.080253 
L 281.682385 167.151008 
L 285.911594 167.008004 
L 290.744976 166.599267 
L 300.411739 165.543408 
L 300.411739 165.543408 
" style="fill:none;stroke:#2ca02c;stroke-linecap:square;stroke-width:1.5;"/>
   </g>
   <g id="line2d_91">
    <path clip-path="url(#pd7ead325c1)" d="M 150.878986 95.012786 
L 152.389418 98.107266 
L 153.89985 100.460264 
L 156.920714 104.788538 
L 158.431146 107.287713 
L 159.941577 110.14019 
L 161.452009 113.374048 
L 162.962441 117.010281 
L 164.472873 121.059454 
L 167.493737 130.299741 
L 170.5146 140.635176 
L 173.535464 152.074186 
L 178.06676 170.484194 
L 179.577192 175.361765 
L 181.087623 179.216629 
L 182.598055 182.398407 
L 190.150214 196.786931 
L 191.660646 200.15152 
L 193.171078 203.957193 
L 194.68151 208.241267 
L 196.191942 213.278739 
L 197.702374 219.152513 
L 199.212806 225.955462 
L 200.723237 233.703869 
L 202.233669 242.161457 
L 203.744101 248.918155 
L 205.254533 255.049246 
L 206.764965 258.544707 
L 208.275397 260.097548 
L 211.29626 261.467201 
L 212.806692 260.078007 
L 215.827556 261.480714 
L 220.358851 263.772073 
L 221.869283 263.346991 
L 229.421443 266.116588 
L 230.931874 266.292725 
L 236.973602 267.507123 
L 244.525761 268.137383 
L 247.546625 268.393573 
L 249.057057 268.600608 
L 253.588352 268.935366 
L 256.609216 269.331044 
L 258.119648 269.925524 
L 259.63008 270.154166 
L 261.140511 270.633163 
L 264.161375 271.223862 
L 265.671807 271.59799 
L 267.182239 273.29315 
L 268.692671 273.728802 
L 270.203102 274.280473 
L 273.223966 275.757948 
L 274.734398 276.301967 
L 276.24483 279.425426 
L 280.776125 282.380777 
L 283.796989 284.233202 
L 285.307421 288.203935 
L 286.817853 289.759979 
L 288.328285 291.121368 
L 291.349148 293.233236 
L 292.85958 294.216161 
L 294.370012 297.479714 
L 297.390876 299.873781 
L 300.411739 301.990821 
L 301.922171 303.275816 
L 303.432603 304.783244 
L 304.943035 305.393358 
L 306.453467 306.257029 
L 307.963899 306.741777 
L 309.474331 307.599838 
L 310.984762 307.79139 
L 312.495194 309.408232 
L 314.005626 309.638881 
L 315.516058 309.414316 
L 317.02649 309.443782 
L 318.536922 309.16853 
L 320.047354 309.454507 
L 321.557785 308.950769 
L 323.068217 309.662641 
L 324.578649 308.828153 
L 327.599513 307.45285 
L 330.620376 306.410891 
L 332.130808 306.707636 
L 333.64124 305.987257 
L 336.662104 304.857777 
L 339.682968 304.136031 
L 341.193399 304.939314 
L 344.214263 304.406278 
L 347.235127 304.140473 
L 348.745559 303.939609 
L 350.255991 305.001402 
L 354.787286 305.213909 
L 356.297718 305.22051 
L 357.80815 305.367591 
L 359.318582 306.144288 
L 363.849877 307.020174 
L 366.870741 307.292976 
L 368.381173 308.127433 
L 371.402036 308.961381 
L 372.912468 309.335271 
L 374.4229 309.392165 
L 375.933332 309.839932 
L 377.443764 310.167126 
L 378.954196 310.787498 
L 381.975059 311.662132 
L 384.995923 312.411643 
L 386.506355 312.701472 
L 389.527219 313.645039 
L 392.548082 314.51484 
L 394.058514 314.757315 
L 395.568946 315.154116 
L 398.58981 315.753685 
L 403.121105 316.831269 
L 406.141969 317.443816 
L 407.652401 317.56052 
L 409.162833 318.066955 
L 412.183696 318.671256 
L 415.20456 319.193859 
L 428.798447 321.673654 
L 430.308879 321.833846 
L 431.81931 321.816602 
L 433.329742 322.278158 
L 434.840174 322.492053 
L 436.350606 323.002608 
L 445.413197 324.213319 
L 446.923629 324.584347 
L 448.434061 324.754494 
L 449.944493 325.066498 
L 451.454924 325.189573 
L 452.965356 325.449829 
L 454.475788 325.584341 
L 455.98622 325.947154 
L 460.517516 326.414143 
L 463.538379 326.855051 
L 465.048811 326.72852 
L 466.559243 327.197452 
L 472.60097 328.077319 
L 474.111402 328.010603 
L 481.663561 329.049674 
L 484.684425 328.589657 
L 486.194857 329.025233 
L 487.705289 329.208906 
L 489.215721 329.161903 
L 490.726153 329.656383 
L 492.236584 329.771548 
L 493.747016 329.329523 
L 495.257448 329.658743 
L 499.788744 330.117824 
L 501.299175 330.126731 
L 502.809607 330.253573 
L 505.830471 330.696907 
L 507.340903 330.422477 
L 508.851335 330.537894 
L 510.361767 330.428049 
L 511.872198 330.73185 
L 514.893062 331.12224 
L 517.913926 330.89105 
L 519.424358 331.16915 
L 520.934789 331.213389 
L 522.445221 331.465472 
L 523.955653 331.218788 
L 525.466085 331.581127 
L 528.486949 331.820153 
L 529.997381 331.66122 
L 534.528676 331.886545 
L 537.54954 332.059739 
L 539.059972 331.888654 
L 540.570404 332.038902 
L 542.080835 331.248387 
L 543.591267 332.183073 
L 558.695586 332.387264 
L 564.737313 332.573906 
L 566.247745 332.758689 
L 567.758177 332.53542 
L 569.268609 332.622599 
L 572.289472 332.555534 
L 576.820768 332.531717 
L 578.3312 332.382167 
L 584.372927 332.414549 
L 591.925086 332.378982 
L 593.435518 331.647626 
L 594.94595 332.354211 
L 599.477246 332.419613 
L 600.987678 331.975887 
L 602.498109 332.366773 
L 604.008541 332.509061 
L 605.518973 331.897592 
L 607.029405 332.444017 
L 608.539837 332.362231 
L 610.050269 332.477474 
L 611.5607 332.422366 
L 613.071132 332.68393 
L 616.091996 332.730851 
L 617.602428 332.412624 
L 619.11286 332.798943 
L 620.623292 332.792408 
L 622.133723 333.203063 
L 623.644155 333.005945 
L 625.154587 333.301729 
L 629.685883 333.299125 
L 632.706746 333.5137 
L 634.217178 333.629618 
L 635.72761 333.559107 
L 637.238042 333.931734 
L 638.748474 334.035507 
L 640.258906 333.695959 
L 641.769337 334.298349 
L 643.279769 334.228337 
L 644.790201 334.473378 
L 646.300633 334.561637 
L 647.811065 334.53799 
L 649.321497 334.682189 
L 652.34236 334.788173 
L 653.852792 334.540801 
L 655.363224 334.016055 
L 656.873656 334.622543 
L 658.384088 335.090158 
L 659.89452 335.189773 
L 661.404951 335.032516 
L 662.915383 335.34282 
L 664.425815 335.351072 
L 665.936247 335.061089 
L 667.446679 335.528673 
L 670.467543 335.686673 
L 678.019702 335.907717 
L 679.530134 336.790699 
L 681.040566 337.068241 
L 682.550997 336.504983 
L 684.061429 337.213208 
L 685.571861 337.619225 
L 696.144884 338.395378 
L 697.655316 339.00611 
L 699.165748 339.300459 
L 703.697043 339.749461 
L 705.207475 340.164631 
L 706.717907 340.018538 
L 709.738771 340.874953 
L 715.780498 341.369766 
L 717.29093 341.117686 
L 718.801362 341.78619 
L 720.311794 341.935448 
L 721.822225 342.289079 
L 723.332657 342.452416 
L 724.843089 342.120697 
L 726.353521 343.10419 
L 727.863953 343.203386 
L 729.374385 343.492175 
L 730.884817 343.570278 
L 732.395248 343.784661 
L 733.90568 343.820703 
L 735.416112 344.16814 
L 741.45784 344.821551 
L 742.968271 344.801924 
L 744.478703 345.163486 
L 745.989135 343.206049 
L 747.499567 345.384463 
L 749.009999 345.701519 
L 750.520431 345.782443 
L 752.030862 346.140144 
L 755.051726 346.553159 
L 756.562158 345.510501 
L 758.07259 346.88888 
L 762.603885 347.361159 
L 764.114317 347.220036 
L 765.624749 347.193585 
L 767.135181 347.854154 
L 768.645613 347.908982 
L 770.156045 347.655923 
L 771.666476 348.312246 
L 773.176908 348.455076 
L 774.68734 348.394961 
L 776.197772 348.766965 
L 777.708204 348.93088 
L 780.729068 348.518645 
L 782.239499 349.418153 
L 783.749931 349.440788 
L 785.260363 348.35057 
L 786.770795 349.750929 
L 788.281227 349.758185 
L 789.791659 350.178688 
L 791.302091 349.289705 
L 792.812522 349.72062 
L 794.322954 350.453466 
L 795.833386 350.229816 
L 797.343818 350.923534 
L 804.895977 351.720604 
L 806.406409 351.58765 
L 807.916841 352.009552 
L 809.427273 351.867383 
L 809.427273 351.867383 
" style="fill:none;stroke:#d62728;stroke-linecap:square;stroke-width:1.5;"/>
   </g>
   <g id="line2d_92">
    <path clip-path="url(#pd7ead325c1)" d="M 194.672387 505 
L 194.68151 252.370957 
L 196.191942 253.814989 
L 200.723237 257.579538 
L 202.233669 258.955812 
L 203.744101 252.693132 
L 208.275397 257.944489 
L 211.29626 261.794464 
L 212.806692 258.837662 
L 214.317124 260.692559 
L 215.827556 262.740462 
L 217.337988 265.06751 
L 218.84842 267.791624 
L 220.358851 270.803347 
L 221.869283 261.166763 
L 224.890147 263.836702 
L 227.911011 267.087511 
L 229.421443 268.98217 
L 230.931874 260.478782 
L 233.952738 262.785273 
L 236.973602 265.551251 
L 238.484034 267.310771 
L 239.994465 263.738724 
L 241.504897 265.567839 
L 243.015329 267.653661 
L 244.525761 270.096167 
L 246.036193 272.982388 
L 247.546625 276.457472 
L 249.057057 277.662776 
L 250.567488 283.158464 
L 252.07792 291.450212 
L 253.588352 307.466326 
L 253.595495 505 
M 303.425173 505 
L 303.432603 299.4799 
L 304.943035 303.970084 
L 306.453467 308.987202 
L 307.963899 316.159053 
L 309.474331 326.215077 
L 310.984762 356.575229 
L 312.495194 308.379332 
L 314.005626 316.421194 
L 315.516058 331.582389 
L 315.522333 505 
M 388.012082 505 
L 388.016787 375.115782 
L 389.527219 407.71357 
L 389.530745 505 
M 398.584316 505 
L 398.58981 353.255817 
L 400.100242 359.932343 
L 401.610673 371.719145 
L 403.121105 423.703636 
L 403.124053 505 
M 407.647206 505 
L 407.652401 361.534388 
L 409.162833 378.41847 
L 409.167418 505 
M 474.106909 505 
L 474.111402 380.957714 
L 475.621834 383.123955 
L 477.132266 384.378723 
L 478.642698 387.828487 
L 480.15313 389.292202 
L 481.663561 391.879103 
L 483.173993 336.648897 
L 484.684425 337.352575 
L 486.194857 337.39818 
L 487.705289 338.016988 
L 489.215721 337.625805 
L 490.726153 338.639768 
L 492.236584 339.014223 
L 493.747016 328.336462 
L 495.257448 328.906144 
L 498.278312 329.750764 
L 499.788744 329.870959 
L 501.299175 330.500982 
L 502.809607 330.966375 
L 505.830471 331.618179 
L 507.340903 326.444633 
L 513.38263 328.243856 
L 514.893062 328.524638 
L 516.403494 325.429975 
L 517.913926 325.630542 
L 519.424358 326.45735 
L 520.934789 327.005818 
L 522.445221 327.366609 
L 523.955653 328.064947 
L 525.466085 328.441162 
L 528.486949 329.397979 
L 529.997381 327.770596 
L 537.54954 330.67464 
L 539.059972 329.899413 
L 540.570404 330.52121 
L 542.080835 331.665369 
L 543.591267 331.886914 
L 548.122563 334.093324 
L 549.632995 333.990072 
L 554.16429 336.670107 
L 555.674722 337.435605 
L 557.185154 338.604387 
L 560.206018 340.630423 
L 563.226881 342.77982 
L 564.737313 343.647202 
L 566.247745 344.166436 
L 567.758177 345.230558 
L 569.268609 346.552793 
L 570.779041 348.857864 
L 573.799904 352.242819 
L 575.310336 354.043707 
L 576.820768 354.852911 
L 578.3312 357.632604 
L 579.841632 359.98276 
L 581.352063 362.046242 
L 582.862495 366.204075 
L 584.372927 369.999798 
L 585.883359 375.010264 
L 587.393791 371.928512 
L 588.904223 379.532364 
L 590.414655 386.043934 
L 591.925086 401.099291 
L 591.928852 505 
M 696.140155 505 
L 696.144884 374.442356 
L 697.655316 376.434863 
L 699.165748 376.531995 
L 700.67618 377.306699 
L 702.186611 378.737937 
L 703.697043 380.715466 
L 705.207475 355.868409 
L 706.717907 355.531932 
L 708.228339 356.943713 
L 709.738771 357.216556 
L 712.759634 358.839588 
L 714.270066 359.540055 
L 715.780498 360.697456 
L 717.29093 362.020512 
L 718.801362 362.230956 
L 720.311794 363.222367 
L 721.822225 354.146276 
L 723.332657 354.756634 
L 724.843089 354.864672 
L 726.353521 356.153619 
L 729.374385 357.910582 
L 730.884817 359.131702 
L 732.395248 360.157974 
L 733.90568 361.453271 
L 735.416112 362.293685 
L 739.947408 366.453597 
L 741.45784 368.168672 
L 742.968271 369.508952 
L 744.478703 371.840801 
L 745.989135 376.294126 
L 747.499567 370.007616 
L 749.009999 372.063322 
L 750.520431 374.523496 
L 752.030862 376.575235 
L 753.541294 378.230641 
L 755.051726 382.485883 
L 756.562158 388.199545 
L 758.07259 392.562684 
L 759.583022 401.902653 
L 761.093454 418.068247 
L 761.096605 505 
L 761.096605 505 
" style="fill:none;stroke:#9467bd;stroke-linecap:square;stroke-width:1.5;"/>
   </g>
   <g id="line2d_93">
    <path clip-path="url(#pd7ead325c1)" d="M 150.878986 171.320318 
L 153.89985 174.577354 
L 156.920714 177.622314 
L 159.941577 180.613339 
L 161.452009 182.491519 
L 162.962441 184.821208 
L 164.472873 187.752775 
L 165.983305 191.440801 
L 167.493737 196.037415 
L 169.004169 201.670618 
L 170.5146 208.369546 
L 175.045896 231.043815 
L 176.556328 235.952937 
L 178.06676 238.011659 
L 181.087623 239.060145 
L 182.598055 240.55144 
L 184.108487 242.941148 
L 185.618919 245.995942 
L 188.639783 253.317661 
L 190.150214 256.931222 
L 191.660646 260.058615 
L 193.171078 262.597452 
L 194.68151 266.411617 
L 196.191942 269.135632 
L 202.233669 278.63544 
L 203.744101 283.569586 
L 205.254533 286.298419 
L 206.764965 288.572926 
L 208.275397 290.193339 
L 209.785829 291.282571 
L 211.29626 291.56369 
L 212.806692 293.080791 
L 214.317124 292.361378 
L 215.827556 291.09557 
L 218.84842 287.797269 
L 220.358851 286.013422 
L 221.869283 288.207549 
L 223.379715 288.862461 
L 224.890147 289.104124 
L 226.400579 289.084079 
L 227.911011 288.838563 
L 229.421443 288.446012 
L 230.931874 292.402514 
L 232.442306 294.909087 
L 233.952738 296.896102 
L 235.46317 298.433377 
L 236.973602 299.731589 
L 238.484034 300.845935 
L 239.994465 306.443584 
L 241.504897 310.763016 
L 243.015329 314.373427 
L 244.525761 317.611612 
L 246.036193 320.392923 
L 247.546625 322.885337 
L 249.057057 329.208538 
L 250.567488 333.220624 
L 252.07792 335.21193 
L 253.588352 335.475981 
L 255.098784 333.802619 
L 256.609216 330.972379 
L 258.119648 329.226486 
L 261.140511 320.341267 
L 264.161375 311.621895 
L 265.671807 307.558993 
L 267.182239 305.291389 
L 273.223966 293.363318 
L 274.734398 290.591844 
L 276.24483 290.15313 
L 277.755262 288.84387 
L 280.776125 285.706484 
L 283.796989 282.348546 
L 285.307421 283.960588 
L 286.817853 284.464415 
L 288.328285 284.768643 
L 289.838717 284.909318 
L 292.85958 284.843044 
L 294.370012 288.749121 
L 295.880444 291.036174 
L 298.901308 294.996738 
L 301.922171 298.339529 
L 303.432603 303.889323 
L 306.453467 310.666942 
L 307.963899 313.454448 
L 309.474331 315.978252 
L 310.984762 317.705221 
L 312.495194 323.329552 
L 314.005626 325.537287 
L 315.516058 326.43113 
L 317.02649 326.397827 
L 318.536922 325.677861 
L 320.047354 324.282552 
L 321.557785 322.311043 
L 323.068217 325.274969 
L 324.578649 326.109682 
L 326.089081 326.74726 
L 327.599513 326.778674 
L 330.620376 326.56194 
L 332.130808 331.615733 
L 333.64124 334.21467 
L 335.151672 335.92933 
L 336.662104 336.633148 
L 338.172536 336.814134 
L 339.682968 336.480454 
L 341.193399 337.899248 
L 342.703831 337.665636 
L 344.214263 337.10037 
L 345.724695 336.263379 
L 348.745559 334.06199 
L 350.255991 335.129217 
L 351.766422 334.820737 
L 353.276854 334.259695 
L 354.787286 333.858731 
L 357.80815 332.804215 
L 359.318582 333.817821 
L 362.339445 334.054031 
L 363.849877 334.362973 
L 366.870741 334.059871 
L 368.381173 335.015959 
L 369.891605 335.617325 
L 371.402036 336.350731 
L 372.912468 336.609459 
L 374.4229 336.682409 
L 377.443764 337.487021 
L 378.954196 338.476754 
L 380.464627 339.196535 
L 381.975059 340.153278 
L 383.485491 340.53452 
L 384.995923 341.17843 
L 386.506355 341.648198 
L 388.016787 342.90585 
L 389.527219 343.697988 
L 391.03765 345.065213 
L 397.079378 348.175531 
L 398.58981 349.751263 
L 401.610673 352.581482 
L 403.121105 353.582564 
L 404.631537 354.429274 
L 406.141969 355.445946 
L 407.652401 357.634216 
L 409.162833 358.871323 
L 412.183696 361.539975 
L 413.694128 362.609618 
L 415.20456 363.491424 
L 416.714992 365.278672 
L 418.225424 366.428031 
L 419.735856 366.896228 
L 421.246287 367.549947 
L 422.756719 367.663156 
L 424.267151 367.277074 
L 425.777583 367.845052 
L 427.288015 367.498308 
L 428.798447 366.753917 
L 430.308879 365.76841 
L 431.81931 364.567386 
L 434.840174 361.551546 
L 436.350606 361.482632 
L 437.861038 360.575444 
L 439.37147 359.43148 
L 443.902765 355.417387 
L 445.413197 354.011102 
L 446.923629 353.492012 
L 448.434061 352.707416 
L 449.944493 351.796253 
L 451.454924 350.544386 
L 452.965356 349.555478 
L 454.475788 348.433507 
L 455.98622 348.151713 
L 457.496652 347.754406 
L 463.538379 345.336224 
L 468.069675 345.751606 
L 472.60097 345.804894 
L 474.111402 346.366618 
L 477.132266 347.687615 
L 480.15313 348.666937 
L 481.663561 349.091454 
L 483.173993 349.748276 
L 484.684425 350.684029 
L 487.705289 352.241735 
L 489.215721 352.656477 
L 490.726153 353.588841 
L 493.747016 354.772181 
L 495.257448 355.82925 
L 498.278312 357.645891 
L 499.788744 358.337007 
L 501.299175 359.342543 
L 504.320039 360.928075 
L 505.830471 361.684851 
L 507.340903 362.291996 
L 511.872198 365.501655 
L 514.893062 367.265243 
L 516.403494 368.108945 
L 517.913926 368.791539 
L 519.424358 370.650334 
L 520.934789 371.922541 
L 522.445221 372.913972 
L 528.486949 377.96017 
L 529.997381 378.932784 
L 537.54954 386.387526 
L 539.059972 387.605218 
L 540.570404 389.412726 
L 542.080835 390.837219 
L 543.591267 393.054888 
L 546.612131 396.753815 
L 549.632995 400.108018 
L 552.653858 404.32676 
L 555.674722 408.2741 
L 558.695586 411.71614 
L 560.206018 413.168919 
L 561.716449 414.047793 
L 563.226881 415.410263 
L 564.737313 416.545293 
L 566.247745 416.622885 
L 567.758177 416.561219 
L 569.268609 414.005141 
L 570.779041 417.698543 
L 572.289472 417.078557 
L 573.799904 415.937968 
L 575.310336 414.377821 
L 576.820768 413.439567 
L 578.3312 412.639341 
L 581.352063 410.074008 
L 587.393791 403.852765 
L 590.414655 401.236948 
L 591.925086 399.887916 
L 593.435518 395.870702 
L 594.94595 397.196545 
L 599.477246 393.510339 
L 600.987678 391.075661 
L 602.498109 391.107086 
L 604.008541 390.176124 
L 605.518973 388.193189 
L 607.029405 387.432639 
L 608.539837 385.827394 
L 610.050269 385.324737 
L 611.5607 384.243918 
L 613.071132 384.400455 
L 614.581564 383.29518 
L 616.091996 382.746446 
L 617.602428 380.948322 
L 619.11286 381.22342 
L 620.623292 380.357021 
L 622.133723 380.317418 
L 623.644155 379.583947 
L 625.154587 379.547456 
L 626.665019 379.036711 
L 628.175451 378.716247 
L 629.685883 377.99003 
L 631.196314 377.740513 
L 634.217178 376.955316 
L 635.72761 376.307303 
L 637.238042 375.840675 
L 638.748474 375.546448 
L 640.258906 375.637857 
L 641.769337 375.608612 
L 643.279769 375.330046 
L 644.790201 375.396519 
L 646.300633 375.213391 
L 647.811065 374.866676 
L 652.34236 374.212289 
L 653.852792 373.518728 
L 655.363224 373.217721 
L 656.873656 373.178295 
L 658.384088 373.41561 
L 662.915383 372.750723 
L 664.425815 372.41791 
L 665.936247 371.71638 
L 667.446679 372.001868 
L 668.957111 371.890875 
L 671.977974 371.255817 
L 673.488406 371.200477 
L 676.50927 370.52155 
L 678.019702 370.267532 
L 679.530134 370.240578 
L 682.550997 370.647974 
L 684.061429 370.651396 
L 687.082293 370.94111 
L 690.103157 370.856862 
L 691.613588 371.043862 
L 694.634452 371.055756 
L 696.144884 371.106224 
L 697.655316 372.116696 
L 700.67618 373.129343 
L 703.697043 373.879869 
L 708.228339 376.439423 
L 709.738771 377.611331 
L 714.270066 380.013757 
L 715.780498 380.522398 
L 717.29093 380.637042 
L 718.801362 382.282589 
L 720.311794 383.015154 
L 721.822225 384.554247 
L 723.332657 385.787807 
L 724.843089 386.335245 
L 726.353521 388.667408 
L 727.863953 389.721051 
L 729.374385 391.094196 
L 730.884817 392.005332 
L 732.395248 393.192949 
L 733.90568 393.933505 
L 735.416112 395.478387 
L 738.436976 397.270273 
L 739.947408 398.294797 
L 741.45784 399.061859 
L 742.968271 399.609601 
L 744.478703 400.517608 
L 745.989135 395.279111 
L 747.499567 400.301522 
L 749.009999 400.645466 
L 750.520431 399.774929 
L 752.030862 401.557479 
L 753.541294 404.24632 
L 755.051726 402.817812 
L 756.562158 399.578721 
L 758.07259 402.848185 
L 759.583022 401.92159 
L 761.093454 402.200727 
L 762.603885 401.77933 
L 764.114317 398.878591 
L 765.624749 401.419077 
L 768.645613 400.307666 
L 770.156045 403.122393 
L 771.666476 398.904335 
L 773.176908 397.903672 
L 774.68734 398.205396 
L 776.197772 396.473959 
L 777.708204 395.8861 
L 779.218636 397.08537 
L 780.729068 391.343331 
L 782.239499 394.290388 
L 783.749931 394.413592 
L 785.260363 387.582829 
L 786.770795 390.560012 
L 788.281227 389.429928 
L 789.791659 390.112111 
L 791.302091 385.777579 
L 792.812522 385.929689 
L 794.322954 386.793489 
L 795.833386 389.079415 
L 797.343818 386.272624 
L 798.85425 385.82143 
L 800.364682 385.175159 
L 801.875113 384.362168 
L 803.385545 383.75943 
L 804.895977 383.450148 
L 806.406409 381.942608 
L 807.916841 381.815662 
L 809.427273 382.442245 
L 809.427273 382.442245 
" style="fill:none;stroke:#8c564b;stroke-linecap:square;stroke-width:1.5;"/>
   </g>
   <g id="line2d_94">
    <path clip-path="url(#pd7ead325c1)" d="M 150.878986 78.260433 
L 156.920714 82.357988 
L 158.431146 83.819392 
L 159.941577 85.54675 
L 161.452009 87.513821 
L 162.962441 89.712683 
L 165.983305 94.72755 
L 172.025032 105.561239 
L 173.535464 107.914686 
L 175.045896 109.895239 
L 176.556328 111.416228 
L 178.06676 112.507555 
L 182.598055 115.087891 
L 184.108487 116.265087 
L 185.618919 117.668553 
L 187.129351 119.290757 
L 188.639783 121.119418 
L 191.660646 125.340709 
L 193.171078 127.718676 
L 200.723237 141.186645 
L 202.233669 143.287584 
L 203.744101 145.124043 
L 205.254533 146.027577 
L 206.764965 146.396277 
L 208.275397 146.405248 
L 211.29626 145.904127 
L 212.806692 145.946999 
L 220.358851 144.475772 
L 221.869283 145.631539 
L 223.379715 146.325174 
L 226.400579 147.354774 
L 229.421443 148.174317 
L 230.931874 149.585199 
L 232.442306 150.645039 
L 233.952738 151.492593 
L 236.973602 152.794958 
L 238.484034 153.331301 
L 239.994465 154.399543 
L 241.504897 155.140422 
L 243.015329 155.619017 
L 244.525761 155.913762 
L 246.036193 156.06675 
L 249.057057 156.142114 
L 250.567488 155.927407 
L 252.07792 155.54368 
L 253.588352 155.035858 
L 256.609216 153.671662 
L 258.119648 152.965425 
L 261.140511 151.107313 
L 264.161375 148.854987 
L 265.671807 147.608573 
L 267.182239 146.980386 
L 268.692671 146.075989 
L 271.713534 143.796093 
L 274.734398 141.207414 
L 276.24483 141.214852 
L 277.755262 140.873558 
L 279.265694 140.298857 
L 280.776125 139.546335 
L 283.796989 137.732987 
L 285.307421 138.9122 
L 286.817853 139.757089 
L 288.328285 140.417124 
L 289.838717 140.909661 
L 292.85958 141.533162 
L 294.370012 143.994384 
L 297.390876 148.03839 
L 300.411739 151.628761 
L 301.922171 153.330452 
L 303.432603 156.478071 
L 306.453467 161.528914 
L 309.474331 165.920452 
L 312.495194 169.699146 
L 314.005626 170.859059 
L 315.516058 171.748129 
L 317.02649 172.365079 
L 318.536922 172.681957 
L 320.047354 172.789104 
L 321.557785 172.589041 
L 326.089081 168.349723 
L 327.599513 167.296386 
L 330.620376 165.629138 
L 333.64124 163.116572 
L 335.151672 162.137591 
L 336.662104 161.360054 
L 338.172536 160.75194 
L 341.193399 159.906937 
L 344.214263 159.232493 
L 347.235127 158.943659 
L 348.745559 158.92112 
L 350.255991 159.455909 
L 357.80815 161.423774 
L 359.318582 162.588803 
L 362.339445 164.421581 
L 366.870741 166.872397 
L 368.381173 168.374424 
L 371.402036 170.779626 
L 374.4229 172.855169 
L 377.443764 174.730501 
L 378.954196 176.199819 
L 381.975059 178.496905 
L 384.995923 180.324866 
L 386.506355 181.091687 
L 388.016787 182.143252 
L 389.527219 182.943422 
L 391.03765 183.57242 
L 392.548082 184.037878 
L 395.568946 184.53924 
L 398.58981 184.578544 
L 400.100242 184.418454 
L 403.121105 183.637464 
L 406.141969 182.415249 
L 409.162833 180.783355 
L 412.183696 178.857943 
L 418.225424 174.689615 
L 424.267151 170.47651 
L 427.288015 168.696829 
L 431.81931 166.05308 
L 434.840174 164.500034 
L 436.350606 164.019156 
L 445.413197 160.254595 
L 446.923629 160.035195 
L 454.475788 157.733588 
L 455.98622 157.720729 
L 459.007084 157.298903 
L 463.538379 156.500738 
L 465.048811 156.814015 
L 468.069675 157.000091 
L 472.60097 157.043956 
L 474.111402 157.570593 
L 477.132266 158.242553 
L 481.663561 158.955862 
L 483.173993 159.559875 
L 486.194857 160.446337 
L 492.236584 161.815374 
L 495.257448 162.957839 
L 499.788744 164.296514 
L 505.830471 165.837581 
L 508.851335 166.992157 
L 516.403494 169.425884 
L 519.424358 170.467235 
L 523.955653 171.761747 
L 536.039108 174.819974 
L 537.54954 175.093441 
L 540.570404 175.821931 
L 545.101699 176.463519 
L 552.653858 177.053155 
L 555.674722 177.023514 
L 560.206018 176.719935 
L 569.268609 175.661477 
L 575.310336 174.394612 
L 579.841632 173.261578 
L 588.904223 170.704925 
L 620.623292 161.315095 
L 625.154587 160.262629 
L 635.72761 157.727334 
L 640.258906 156.844305 
L 656.873656 153.599029 
L 668.957111 151.403718 
L 678.019702 149.859265 
L 681.040566 149.612682 
L 691.613588 148.367684 
L 694.634452 147.993889 
L 699.165748 147.718932 
L 703.697043 147.349864 
L 708.228339 147.257557 
L 721.822225 146.790008 
L 729.374385 146.792718 
L 742.968271 146.556302 
L 755.051726 146.320624 
L 771.666476 145.843997 
L 792.812522 144.99146 
L 809.427273 144.178122 
L 809.427273 144.178122 
" style="fill:none;stroke:#e377c2;stroke-linecap:square;stroke-width:1.5;"/>
   </g>
   <g id="patch_3">
    <path d="M 117 441 
L 117 60.48 
" style="fill:none;stroke:#000000;stroke-linecap:square;stroke-linejoin:miter;stroke-width:0.8;"/>
   </g>
   <g id="patch_4">
    <path d="M 842.4 441 
L 842.4 60.48 
" style="fill:none;stroke:#000000;stroke-linecap:square;stroke-linejoin:miter;stroke-width:0.8;"/>
   </g>
   <g id="patch_5">
    <path d="M 117 441 
L 842.4 441 
" style="fill:none;stroke:#000000;stroke-linecap:square;stroke-linejoin:miter;stroke-width:0.8;"/>
   </g>
   <g id="patch_6">
    <path d="M 117 60.48 
L 842.4 60.48 
" style="fill:none;stroke:#000000;stroke-linecap:square;stroke-linejoin:miter;stroke-width:0.8;"/>
   </g>
   <g id="legend_1">
    <g id="patch_7">
     <path d="M 717.123437 303.891563 
L 835.4 303.891563 
Q 837.4 303.891563 837.4 301.891563 
L 837.4 199.588438 
Q 837.4 197.588438 835.4 197.588438 
L 717.123437 197.588438 
Q 715.123437 197.588438 715.123437 199.588438 
L 715.123437 301.891563 
Q 715.123437 303.891563 717.123437 303.891563 
z
" style="fill:#ffffff;opacity:0.8;stroke:#cccccc;stroke-linejoin:miter;"/>
    </g>
    <g id="line2d_95">
     <path d="M 719.123437 205.686875 
L 739.123437 205.686875 
" style="fill:none;stroke:#1f77b4;stroke-linecap:square;stroke-width:1.5;"/>
    </g>
    <g id="line2d_96"/>
    <g id="text_17">
     <!-- Penalty MSE -->
     <defs>
      <path d="M 19.671875 64.796875 
L 19.671875 37.40625 
L 32.078125 37.40625 
Q 38.96875 37.40625 42.71875 40.96875 
Q 46.484375 44.53125 46.484375 51.125 
Q 46.484375 57.671875 42.71875 61.234375 
Q 38.96875 64.796875 32.078125 64.796875 
z
M 9.8125 72.90625 
L 32.078125 72.90625 
Q 44.34375 72.90625 50.609375 67.359375 
Q 56.890625 61.8125 56.890625 51.125 
Q 56.890625 40.328125 50.609375 34.8125 
Q 44.34375 29.296875 32.078125 29.296875 
L 19.671875 29.296875 
L 19.671875 0 
L 9.8125 0 
z
" id="DejaVuSans-80"/>
      <path d="M 32.171875 -5.078125 
Q 28.375 -14.84375 24.75 -17.8125 
Q 21.140625 -20.796875 15.09375 -20.796875 
L 7.90625 -20.796875 
L 7.90625 -13.28125 
L 13.1875 -13.28125 
Q 16.890625 -13.28125 18.9375 -11.515625 
Q 21 -9.765625 23.484375 -3.21875 
L 25.09375 0.875 
L 2.984375 54.6875 
L 12.5 54.6875 
L 29.59375 11.921875 
L 46.6875 54.6875 
L 56.203125 54.6875 
z
" id="DejaVuSans-121"/>
      <path d="M 9.8125 72.90625 
L 24.515625 72.90625 
L 43.109375 23.296875 
L 61.8125 72.90625 
L 76.515625 72.90625 
L 76.515625 0 
L 66.890625 0 
L 66.890625 64.015625 
L 48.09375 14.015625 
L 38.1875 14.015625 
L 19.390625 64.015625 
L 19.390625 0 
L 9.8125 0 
z
" id="DejaVuSans-77"/>
      <path d="M 53.515625 70.515625 
L 53.515625 60.890625 
Q 47.90625 63.578125 42.921875 64.890625 
Q 37.9375 66.21875 33.296875 66.21875 
Q 25.25 66.21875 20.875 63.09375 
Q 16.5 59.96875 16.5 54.203125 
Q 16.5 49.359375 19.40625 46.890625 
Q 22.3125 44.4375 30.421875 42.921875 
L 36.375 41.703125 
Q 47.40625 39.59375 52.65625 34.296875 
Q 57.90625 29 57.90625 20.125 
Q 57.90625 9.515625 50.796875 4.046875 
Q 43.703125 -1.421875 29.984375 -1.421875 
Q 24.8125 -1.421875 18.96875 -0.25 
Q 13.140625 0.921875 6.890625 3.21875 
L 6.890625 13.375 
Q 12.890625 10.015625 18.65625 8.296875 
Q 24.421875 6.59375 29.984375 6.59375 
Q 38.421875 6.59375 43.015625 9.90625 
Q 47.609375 13.234375 47.609375 19.390625 
Q 47.609375 24.75 44.3125 27.78125 
Q 41.015625 30.8125 33.5 32.328125 
L 27.484375 33.5 
Q 16.453125 35.6875 11.515625 40.375 
Q 6.59375 45.0625 6.59375 53.421875 
Q 6.59375 63.09375 13.40625 68.65625 
Q 20.21875 74.21875 32.171875 74.21875 
Q 37.3125 74.21875 42.625 73.28125 
Q 47.953125 72.359375 53.515625 70.515625 
z
" id="DejaVuSans-83"/>
      <path d="M 9.8125 72.90625 
L 55.90625 72.90625 
L 55.90625 64.59375 
L 19.671875 64.59375 
L 19.671875 43.015625 
L 54.390625 43.015625 
L 54.390625 34.71875 
L 19.671875 34.71875 
L 19.671875 8.296875 
L 56.78125 8.296875 
L 56.78125 0 
L 9.8125 0 
z
" id="DejaVuSans-69"/>
     </defs>
     <g transform="translate(747.123437 209.186875)scale(0.1 -0.1)">
      <use xlink:href="#DejaVuSans-80"/>
      <use x="60.255859" xlink:href="#DejaVuSans-101"/>
      <use x="121.779297" xlink:href="#DejaVuSans-110"/>
      <use x="185.158203" xlink:href="#DejaVuSans-97"/>
      <use x="246.4375" xlink:href="#DejaVuSans-108"/>
      <use x="274.220703" xlink:href="#DejaVuSans-116"/>
      <use x="313.429688" xlink:href="#DejaVuSans-121"/>
      <use x="372.609375" xlink:href="#DejaVuSans-32"/>
      <use x="404.396484" xlink:href="#DejaVuSans-77"/>
      <use x="490.675781" xlink:href="#DejaVuSans-83"/>
      <use x="554.152344" xlink:href="#DejaVuSans-69"/>
     </g>
    </g>
    <g id="line2d_97">
     <path d="M 719.123437 220.365 
L 739.123437 220.365 
" style="fill:none;stroke:#ff7f0e;stroke-linecap:square;stroke-width:1.5;"/>
    </g>
    <g id="line2d_98"/>
    <g id="text_18">
     <!-- Penalty Det -->
     <defs>
      <path d="M 19.671875 64.796875 
L 19.671875 8.109375 
L 31.59375 8.109375 
Q 46.6875 8.109375 53.6875 14.9375 
Q 60.6875 21.78125 60.6875 36.53125 
Q 60.6875 51.171875 53.6875 57.984375 
Q 46.6875 64.796875 31.59375 64.796875 
z
M 9.8125 72.90625 
L 30.078125 72.90625 
Q 51.265625 72.90625 61.171875 64.09375 
Q 71.09375 55.28125 71.09375 36.53125 
Q 71.09375 17.671875 61.125 8.828125 
Q 51.171875 0 30.078125 0 
L 9.8125 0 
z
" id="DejaVuSans-68"/>
     </defs>
     <g transform="translate(747.123437 223.865)scale(0.1 -0.1)">
      <use xlink:href="#DejaVuSans-80"/>
      <use x="60.255859" xlink:href="#DejaVuSans-101"/>
      <use x="121.779297" xlink:href="#DejaVuSans-110"/>
      <use x="185.158203" xlink:href="#DejaVuSans-97"/>
      <use x="246.4375" xlink:href="#DejaVuSans-108"/>
      <use x="274.220703" xlink:href="#DejaVuSans-116"/>
      <use x="313.429688" xlink:href="#DejaVuSans-121"/>
      <use x="372.609375" xlink:href="#DejaVuSans-32"/>
      <use x="404.396484" xlink:href="#DejaVuSans-68"/>
      <use x="481.398438" xlink:href="#DejaVuSans-101"/>
      <use x="542.921875" xlink:href="#DejaVuSans-116"/>
     </g>
    </g>
    <g id="line2d_99">
     <path d="M 719.123437 235.043125 
L 739.123437 235.043125 
" style="fill:none;stroke:#2ca02c;stroke-linecap:square;stroke-width:1.5;"/>
    </g>
    <g id="line2d_100"/>
    <g id="text_19">
     <!-- Penalty Test MSE -->
     <defs>
      <path d="M -0.296875 72.90625 
L 61.375 72.90625 
L 61.375 64.59375 
L 35.5 64.59375 
L 35.5 0 
L 25.59375 0 
L 25.59375 64.59375 
L -0.296875 64.59375 
z
" id="DejaVuSans-84"/>
     </defs>
     <g transform="translate(747.123437 238.543125)scale(0.1 -0.1)">
      <use xlink:href="#DejaVuSans-80"/>
      <use x="60.255859" xlink:href="#DejaVuSans-101"/>
      <use x="121.779297" xlink:href="#DejaVuSans-110"/>
      <use x="185.158203" xlink:href="#DejaVuSans-97"/>
      <use x="246.4375" xlink:href="#DejaVuSans-108"/>
      <use x="274.220703" xlink:href="#DejaVuSans-116"/>
      <use x="313.429688" xlink:href="#DejaVuSans-121"/>
      <use x="372.609375" xlink:href="#DejaVuSans-32"/>
      <use x="404.396484" xlink:href="#DejaVuSans-84"/>
      <use x="465.214844" xlink:href="#DejaVuSans-101"/>
      <use x="526.738281" xlink:href="#DejaVuSans-115"/>
      <use x="578.837891" xlink:href="#DejaVuSans-116"/>
      <use x="618.046875" xlink:href="#DejaVuSans-32"/>
      <use x="649.833984" xlink:href="#DejaVuSans-77"/>
      <use x="736.113281" xlink:href="#DejaVuSans-83"/>
      <use x="799.589844" xlink:href="#DejaVuSans-69"/>
     </g>
    </g>
    <g id="line2d_101">
     <path d="M 719.123437 249.72125 
L 739.123437 249.72125 
" style="fill:none;stroke:#d62728;stroke-linecap:square;stroke-width:1.5;"/>
    </g>
    <g id="line2d_102"/>
    <g id="text_20">
     <!-- ALM MSE -->
     <defs>
      <path d="M 34.1875 63.1875 
L 20.796875 26.90625 
L 47.609375 26.90625 
z
M 28.609375 72.90625 
L 39.796875 72.90625 
L 67.578125 0 
L 57.328125 0 
L 50.6875 18.703125 
L 17.828125 18.703125 
L 11.1875 0 
L 0.78125 0 
z
" id="DejaVuSans-65"/>
     </defs>
     <g transform="translate(747.123437 253.22125)scale(0.1 -0.1)">
      <use xlink:href="#DejaVuSans-65"/>
      <use x="68.408203" xlink:href="#DejaVuSans-76"/>
      <use x="124.121094" xlink:href="#DejaVuSans-77"/>
      <use x="210.400391" xlink:href="#DejaVuSans-32"/>
      <use x="242.1875" xlink:href="#DejaVuSans-77"/>
      <use x="328.466797" xlink:href="#DejaVuSans-83"/>
      <use x="391.943359" xlink:href="#DejaVuSans-69"/>
     </g>
    </g>
    <g id="line2d_103">
     <path d="M 719.123437 264.399375 
L 739.123437 264.399375 
" style="fill:none;stroke:#9467bd;stroke-linecap:square;stroke-width:1.5;"/>
    </g>
    <g id="line2d_104"/>
    <g id="text_21">
     <!-- ALM Det_lin -->
     <defs>
      <path d="M 50.984375 -16.609375 
L 50.984375 -23.578125 
L -0.984375 -23.578125 
L -0.984375 -16.609375 
z
" id="DejaVuSans-95"/>
     </defs>
     <g transform="translate(747.123437 267.899375)scale(0.1 -0.1)">
      <use xlink:href="#DejaVuSans-65"/>
      <use x="68.408203" xlink:href="#DejaVuSans-76"/>
      <use x="124.121094" xlink:href="#DejaVuSans-77"/>
      <use x="210.400391" xlink:href="#DejaVuSans-32"/>
      <use x="242.1875" xlink:href="#DejaVuSans-68"/>
      <use x="319.189453" xlink:href="#DejaVuSans-101"/>
      <use x="380.712891" xlink:href="#DejaVuSans-116"/>
      <use x="419.921875" xlink:href="#DejaVuSans-95"/>
      <use x="469.921875" xlink:href="#DejaVuSans-108"/>
      <use x="497.705078" xlink:href="#DejaVuSans-105"/>
      <use x="525.488281" xlink:href="#DejaVuSans-110"/>
     </g>
    </g>
    <g id="line2d_105">
     <path d="M 719.123437 279.355625 
L 739.123437 279.355625 
" style="fill:none;stroke:#8c564b;stroke-linecap:square;stroke-width:1.5;"/>
    </g>
    <g id="line2d_106"/>
    <g id="text_22">
     <!-- ALM Det_sq -->
     <defs>
      <path d="M 14.796875 27.296875 
Q 14.796875 17.390625 18.875 11.75 
Q 22.953125 6.109375 30.078125 6.109375 
Q 37.203125 6.109375 41.296875 11.75 
Q 45.40625 17.390625 45.40625 27.296875 
Q 45.40625 37.203125 41.296875 42.84375 
Q 37.203125 48.484375 30.078125 48.484375 
Q 22.953125 48.484375 18.875 42.84375 
Q 14.796875 37.203125 14.796875 27.296875 
z
M 45.40625 8.203125 
Q 42.578125 3.328125 38.25 0.953125 
Q 33.9375 -1.421875 27.875 -1.421875 
Q 17.96875 -1.421875 11.734375 6.484375 
Q 5.515625 14.40625 5.515625 27.296875 
Q 5.515625 40.1875 11.734375 48.09375 
Q 17.96875 56 27.875 56 
Q 33.9375 56 38.25 53.625 
Q 42.578125 51.265625 45.40625 46.390625 
L 45.40625 54.6875 
L 54.390625 54.6875 
L 54.390625 -20.796875 
L 45.40625 -20.796875 
z
" id="DejaVuSans-113"/>
     </defs>
     <g transform="translate(747.123437 282.855625)scale(0.1 -0.1)">
      <use xlink:href="#DejaVuSans-65"/>
      <use x="68.408203" xlink:href="#DejaVuSans-76"/>
      <use x="124.121094" xlink:href="#DejaVuSans-77"/>
      <use x="210.400391" xlink:href="#DejaVuSans-32"/>
      <use x="242.1875" xlink:href="#DejaVuSans-68"/>
      <use x="319.189453" xlink:href="#DejaVuSans-101"/>
      <use x="380.712891" xlink:href="#DejaVuSans-116"/>
      <use x="419.921875" xlink:href="#DejaVuSans-95"/>
      <use x="469.921875" xlink:href="#DejaVuSans-115"/>
      <use x="522.021484" xlink:href="#DejaVuSans-113"/>
     </g>
    </g>
    <g id="line2d_107">
     <path d="M 719.123437 294.311875 
L 739.123437 294.311875 
" style="fill:none;stroke:#e377c2;stroke-linecap:square;stroke-width:1.5;"/>
    </g>
    <g id="line2d_108"/>
    <g id="text_23">
     <!-- ALM Test MSE -->
     <g transform="translate(747.123437 297.811875)scale(0.1 -0.1)">
      <use xlink:href="#DejaVuSans-65"/>
      <use x="68.408203" xlink:href="#DejaVuSans-76"/>
      <use x="124.121094" xlink:href="#DejaVuSans-77"/>
      <use x="210.400391" xlink:href="#DejaVuSans-32"/>
      <use x="242.1875" xlink:href="#DejaVuSans-84"/>
      <use x="303.005859" xlink:href="#DejaVuSans-101"/>
      <use x="364.529297" xlink:href="#DejaVuSans-115"/>
      <use x="416.628906" xlink:href="#DejaVuSans-116"/>
      <use x="455.837891" xlink:href="#DejaVuSans-32"/>
      <use x="487.625" xlink:href="#DejaVuSans-77"/>
      <use x="573.904297" xlink:href="#DejaVuSans-83"/>
      <use x="637.380859" xlink:href="#DejaVuSans-69"/>
     </g>
    </g>
   </g>
  </g>
 </g>
 <defs>
  <clipPath id="pd7ead325c1">
   <rect height="380.52" width="725.4" x="117" y="60.48"/>
  </clipPath>
 </defs>
</svg>
