<?xml version="1.0" encoding="utf-8" standalone="no"?>
<!DOCTYPE svg PUBLIC "-//W3C//DTD SVG 1.1//EN"
  "http://www.w3.org/Graphics/SVG/1.1/DTD/svg11.dtd">
<!-- Created with matplotlib (https://matplotlib.org/) -->
<svg height="504pt" version="1.1" viewBox="0 0 936 504" width="936pt" xmlns="http://www.w3.org/2000/svg" xmlns:xlink="http://www.w3.org/1999/xlink">
 <defs>
  <style type="text/css">
*{stroke-linecap:butt;stroke-linejoin:round;}
  </style>
 </defs>
 <g id="figure_1">
  <g id="patch_1">
   <path d="M 0 504 
L 936 504 
L 936 0 
L 0 0 
z
" style="fill:#ffffff;"/>
  </g>
  <g id="axes_1">
   <g id="patch_2">
    <path d="M 117 233.443636 
L 446.727273 233.443636 
L 446.727273 60.48 
L 117 60.48 
z
" style="fill:#ffffff;"/>
   </g>
   <g id="matplotlib.axis_1">
    <g id="xtick_1">
     <g id="line2d_1">
      <defs>
       <path d="M 0 0 
L 0 3.5 
" id="me6918d37cf" style="stroke:#000000;stroke-width:0.8;"/>
      </defs>
      <g>
       <use style="stroke:#000000;stroke-width:0.8;" x="138.742567" xlink:href="#me6918d37cf" y="233.443636"/>
      </g>
     </g>
     <g id="text_1">
      <!-- −3 -->
      <defs>
       <path d="M 10.59375 35.5 
L 73.1875 35.5 
L 73.1875 27.203125 
L 10.59375 27.203125 
z
" id="DejaVuSans-8722"/>
       <path d="M 40.578125 39.3125 
Q 47.65625 37.796875 51.625 33 
Q 55.609375 28.21875 55.609375 21.1875 
Q 55.609375 10.40625 48.1875 4.484375 
Q 40.765625 -1.421875 27.09375 -1.421875 
Q 22.515625 -1.421875 17.65625 -0.515625 
Q 12.796875 0.390625 7.625 2.203125 
L 7.625 11.71875 
Q 11.71875 9.328125 16.59375 8.109375 
Q 21.484375 6.890625 26.8125 6.890625 
Q 36.078125 6.890625 40.9375 10.546875 
Q 45.796875 14.203125 45.796875 21.1875 
Q 45.796875 27.640625 41.28125 31.265625 
Q 36.765625 34.90625 28.71875 34.90625 
L 20.21875 34.90625 
L 20.21875 43.015625 
L 29.109375 43.015625 
Q 36.375 43.015625 40.234375 45.921875 
Q 44.09375 48.828125 44.09375 54.296875 
Q 44.09375 59.90625 40.109375 62.90625 
Q 36.140625 65.921875 28.71875 65.921875 
Q 24.65625 65.921875 20.015625 65.03125 
Q 15.375 64.15625 9.8125 62.3125 
L 9.8125 71.09375 
Q 15.4375 72.65625 20.34375 73.4375 
Q 25.25 74.21875 29.59375 74.21875 
Q 40.828125 74.21875 47.359375 69.109375 
Q 53.90625 64.015625 53.90625 55.328125 
Q 53.90625 49.265625 50.4375 45.09375 
Q 46.96875 40.921875 40.578125 39.3125 
z
" id="DejaVuSans-51"/>
      </defs>
      <g transform="translate(131.371474 248.042074)scale(0.1 -0.1)">
       <use xlink:href="#DejaVuSans-8722"/>
       <use x="83.789062" xlink:href="#DejaVuSans-51"/>
      </g>
     </g>
    </g>
    <g id="xtick_2">
     <g id="line2d_2">
      <g>
       <use style="stroke:#000000;stroke-width:0.8;" x="186.44959" xlink:href="#me6918d37cf" y="233.443636"/>
      </g>
     </g>
     <g id="text_2">
      <!-- −2 -->
      <defs>
       <path d="M 19.1875 8.296875 
L 53.609375 8.296875 
L 53.609375 0 
L 7.328125 0 
L 7.328125 8.296875 
Q 12.9375 14.109375 22.625 23.890625 
Q 32.328125 33.6875 34.8125 36.53125 
Q 39.546875 41.84375 41.421875 45.53125 
Q 43.3125 49.21875 43.3125 52.78125 
Q 43.3125 58.59375 39.234375 62.25 
Q 35.15625 65.921875 28.609375 65.921875 
Q 23.96875 65.921875 18.8125 64.3125 
Q 13.671875 62.703125 7.8125 59.421875 
L 7.8125 69.390625 
Q 13.765625 71.78125 18.9375 73 
Q 24.125 74.21875 28.421875 74.21875 
Q 39.75 74.21875 46.484375 68.546875 
Q 53.21875 62.890625 53.21875 53.421875 
Q 53.21875 48.921875 51.53125 44.890625 
Q 49.859375 40.875 45.40625 35.40625 
Q 44.1875 33.984375 37.640625 27.21875 
Q 31.109375 20.453125 19.1875 8.296875 
z
" id="DejaVuSans-50"/>
      </defs>
      <g transform="translate(179.078497 248.042074)scale(0.1 -0.1)">
       <use xlink:href="#DejaVuSans-8722"/>
       <use x="83.789062" xlink:href="#DejaVuSans-50"/>
      </g>
     </g>
    </g>
    <g id="xtick_3">
     <g id="line2d_3">
      <g>
       <use style="stroke:#000000;stroke-width:0.8;" x="234.156613" xlink:href="#me6918d37cf" y="233.443636"/>
      </g>
     </g>
     <g id="text_3">
      <!-- −1 -->
      <defs>
       <path d="M 12.40625 8.296875 
L 28.515625 8.296875 
L 28.515625 63.921875 
L 10.984375 60.40625 
L 10.984375 69.390625 
L 28.421875 72.90625 
L 38.28125 72.90625 
L 38.28125 8.296875 
L 54.390625 8.296875 
L 54.390625 0 
L 12.40625 0 
z
" id="DejaVuSans-49"/>
      </defs>
      <g transform="translate(226.78552 248.042074)scale(0.1 -0.1)">
       <use xlink:href="#DejaVuSans-8722"/>
       <use x="83.789062" xlink:href="#DejaVuSans-49"/>
      </g>
     </g>
    </g>
    <g id="xtick_4">
     <g id="line2d_4">
      <g>
       <use style="stroke:#000000;stroke-width:0.8;" x="281.863636" xlink:href="#me6918d37cf" y="233.443636"/>
      </g>
     </g>
     <g id="text_4">
      <!-- 0 -->
      <defs>
       <path d="M 31.78125 66.40625 
Q 24.171875 66.40625 20.328125 58.90625 
Q 16.5 51.421875 16.5 36.375 
Q 16.5 21.390625 20.328125 13.890625 
Q 24.171875 6.390625 31.78125 6.390625 
Q 39.453125 6.390625 43.28125 13.890625 
Q 47.125 21.390625 47.125 36.375 
Q 47.125 51.421875 43.28125 58.90625 
Q 39.453125 66.40625 31.78125 66.40625 
z
M 31.78125 74.21875 
Q 44.046875 74.21875 50.515625 64.515625 
Q 56.984375 54.828125 56.984375 36.375 
Q 56.984375 17.96875 50.515625 8.265625 
Q 44.046875 -1.421875 31.78125 -1.421875 
Q 19.53125 -1.421875 13.0625 8.265625 
Q 6.59375 17.96875 6.59375 36.375 
Q 6.59375 54.828125 13.0625 64.515625 
Q 19.53125 74.21875 31.78125 74.21875 
z
" id="DejaVuSans-48"/>
      </defs>
      <g transform="translate(278.682386 248.042074)scale(0.1 -0.1)">
       <use xlink:href="#DejaVuSans-48"/>
      </g>
     </g>
    </g>
    <g id="xtick_5">
     <g id="line2d_5">
      <g>
       <use style="stroke:#000000;stroke-width:0.8;" x="329.570659" xlink:href="#me6918d37cf" y="233.443636"/>
      </g>
     </g>
     <g id="text_5">
      <!-- 1 -->
      <g transform="translate(326.389409 248.042074)scale(0.1 -0.1)">
       <use xlink:href="#DejaVuSans-49"/>
      </g>
     </g>
    </g>
    <g id="xtick_6">
     <g id="line2d_6">
      <g>
       <use style="stroke:#000000;stroke-width:0.8;" x="377.277682" xlink:href="#me6918d37cf" y="233.443636"/>
      </g>
     </g>
     <g id="text_6">
      <!-- 2 -->
      <g transform="translate(374.096432 248.042074)scale(0.1 -0.1)">
       <use xlink:href="#DejaVuSans-50"/>
      </g>
     </g>
    </g>
    <g id="xtick_7">
     <g id="line2d_7">
      <g>
       <use style="stroke:#000000;stroke-width:0.8;" x="424.984705" xlink:href="#me6918d37cf" y="233.443636"/>
      </g>
     </g>
     <g id="text_7">
      <!-- 3 -->
      <g transform="translate(421.803455 248.042074)scale(0.1 -0.1)">
       <use xlink:href="#DejaVuSans-51"/>
      </g>
     </g>
    </g>
   </g>
   <g id="matplotlib.axis_2">
    <g id="ytick_1">
     <g id="line2d_8">
      <defs>
       <path d="M 0 0 
L -3.5 0 
" id="m58695c5128" style="stroke:#000000;stroke-width:0.8;"/>
      </defs>
      <g>
       <use style="stroke:#000000;stroke-width:0.8;" x="117" xlink:href="#m58695c5128" y="201.437463"/>
      </g>
     </g>
     <g id="text_8">
      <!-- −1.0 -->
      <defs>
       <path d="M 10.6875 12.40625 
L 21 12.40625 
L 21 0 
L 10.6875 0 
z
" id="DejaVuSans-46"/>
      </defs>
      <g transform="translate(85.717187 205.236681)scale(0.1 -0.1)">
       <use xlink:href="#DejaVuSans-8722"/>
       <use x="83.789062" xlink:href="#DejaVuSans-49"/>
       <use x="147.412109" xlink:href="#DejaVuSans-46"/>
       <use x="179.199219" xlink:href="#DejaVuSans-48"/>
      </g>
     </g>
    </g>
    <g id="ytick_2">
     <g id="line2d_9">
      <g>
       <use style="stroke:#000000;stroke-width:0.8;" x="117" xlink:href="#m58695c5128" y="168.18343"/>
      </g>
     </g>
     <g id="text_9">
      <!-- −0.5 -->
      <defs>
       <path d="M 10.796875 72.90625 
L 49.515625 72.90625 
L 49.515625 64.59375 
L 19.828125 64.59375 
L 19.828125 46.734375 
Q 21.96875 47.46875 24.109375 47.828125 
Q 26.265625 48.1875 28.421875 48.1875 
Q 40.625 48.1875 47.75 41.5 
Q 54.890625 34.8125 54.890625 23.390625 
Q 54.890625 11.625 47.5625 5.09375 
Q 40.234375 -1.421875 26.90625 -1.421875 
Q 22.3125 -1.421875 17.546875 -0.640625 
Q 12.796875 0.140625 7.71875 1.703125 
L 7.71875 11.625 
Q 12.109375 9.234375 16.796875 8.0625 
Q 21.484375 6.890625 26.703125 6.890625 
Q 35.15625 6.890625 40.078125 11.328125 
Q 45.015625 15.765625 45.015625 23.390625 
Q 45.015625 31 40.078125 35.4375 
Q 35.15625 39.890625 26.703125 39.890625 
Q 22.75 39.890625 18.8125 39.015625 
Q 14.890625 38.140625 10.796875 36.28125 
z
" id="DejaVuSans-53"/>
      </defs>
      <g transform="translate(85.717187 171.982648)scale(0.1 -0.1)">
       <use xlink:href="#DejaVuSans-8722"/>
       <use x="83.789062" xlink:href="#DejaVuSans-48"/>
       <use x="147.412109" xlink:href="#DejaVuSans-46"/>
       <use x="179.199219" xlink:href="#DejaVuSans-53"/>
      </g>
     </g>
    </g>
    <g id="ytick_3">
     <g id="line2d_10">
      <g>
       <use style="stroke:#000000;stroke-width:0.8;" x="117" xlink:href="#m58695c5128" y="134.929397"/>
      </g>
     </g>
     <g id="text_10">
      <!-- 0.0 -->
      <g transform="translate(94.096875 138.728615)scale(0.1 -0.1)">
       <use xlink:href="#DejaVuSans-48"/>
       <use x="63.623047" xlink:href="#DejaVuSans-46"/>
       <use x="95.410156" xlink:href="#DejaVuSans-48"/>
      </g>
     </g>
    </g>
    <g id="ytick_4">
     <g id="line2d_11">
      <g>
       <use style="stroke:#000000;stroke-width:0.8;" x="117" xlink:href="#m58695c5128" y="101.675364"/>
      </g>
     </g>
     <g id="text_11">
      <!-- 0.5 -->
      <g transform="translate(94.096875 105.474582)scale(0.1 -0.1)">
       <use xlink:href="#DejaVuSans-48"/>
       <use x="63.623047" xlink:href="#DejaVuSans-46"/>
       <use x="95.410156" xlink:href="#DejaVuSans-53"/>
      </g>
     </g>
    </g>
    <g id="ytick_5">
     <g id="line2d_12">
      <g>
       <use style="stroke:#000000;stroke-width:0.8;" x="117" xlink:href="#m58695c5128" y="68.421331"/>
      </g>
     </g>
     <g id="text_12">
      <!-- 1.0 -->
      <g transform="translate(94.096875 72.220549)scale(0.1 -0.1)">
       <use xlink:href="#DejaVuSans-49"/>
       <use x="63.623047" xlink:href="#DejaVuSans-46"/>
       <use x="95.410156" xlink:href="#DejaVuSans-48"/>
      </g>
     </g>
    </g>
   </g>
   <g id="line2d_13">
    <path clip-path="url(#pfcf233e894)" d="M 131.987603 201.437463 
L 135.015402 201.30356 
L 138.043201 200.902393 
L 141.070999 200.235575 
L 144.098798 199.305793 
L 147.126597 198.116789 
L 150.154395 196.673352 
L 153.182194 194.981294 
L 156.209992 193.047429 
L 159.237791 190.879542 
L 162.26559 188.486364 
L 165.293388 185.877531 
L 168.321187 183.063548 
L 171.348986 180.055745 
L 174.376784 176.866235 
L 177.404583 173.50786 
L 180.432382 169.994143 
L 183.46018 166.339232 
L 186.487979 162.557846 
L 189.515778 158.665209 
L 192.543576 154.676996 
L 195.571375 150.609267 
L 198.599174 146.478401 
L 201.626972 142.301031 
L 204.654771 138.093978 
L 207.682569 133.874182 
L 210.710368 129.658635 
L 213.738167 125.464312 
L 216.765965 121.308101 
L 219.793764 117.206739 
L 222.821563 113.176739 
L 225.849361 109.23433 
L 228.87716 105.395385 
L 231.904959 101.675364 
L 234.932757 98.089244 
L 237.960556 94.651468 
L 240.988355 91.375876 
L 244.016153 88.275659 
L 247.043952 85.363299 
L 250.071751 82.650526 
L 253.099549 80.14826 
L 256.127348 77.866579 
L 259.155147 75.81467 
L 262.182945 74.000795 
L 265.210744 72.432258 
L 268.238542 71.115375 
L 271.266341 70.055448 
L 274.29414 69.256746 
L 277.321938 68.722484 
L 280.349737 68.454815 
L 283.377536 68.454815 
L 286.405334 68.722484 
L 289.433133 69.256746 
L 292.460932 70.055448 
L 295.48873 71.115375 
L 298.516529 72.432258 
L 301.544328 74.000795 
L 304.572126 75.81467 
L 307.599925 77.866579 
L 310.627724 80.14826 
L 313.655522 82.650526 
L 316.683321 85.363299 
L 319.711119 88.275659 
L 322.738918 91.375876 
L 325.766717 94.651468 
L 328.794515 98.089244 
L 331.822314 101.675364 
L 334.850113 105.395385 
L 337.877911 109.23433 
L 340.90571 113.176739 
L 343.933509 117.206739 
L 346.961307 121.308101 
L 349.989106 125.464312 
L 353.016905 129.658635 
L 356.044703 133.874182 
L 359.072502 138.093978 
L 362.100301 142.301031 
L 365.128099 146.478401 
L 368.155898 150.609267 
L 371.183696 154.676996 
L 374.211495 158.665209 
L 377.239294 162.557846 
L 380.267092 166.339232 
L 383.294891 169.994143 
L 386.32269 173.50786 
L 389.350488 176.866235 
L 392.378287 180.055745 
L 395.406086 183.063548 
L 398.433884 185.877531 
L 401.461683 188.486364 
L 404.489482 190.879542 
L 407.51728 193.047429 
L 410.545079 194.981294 
L 413.572878 196.673352 
L 416.600676 198.116789 
L 419.628475 199.305793 
L 422.656273 200.235575 
L 425.684072 200.902393 
L 428.711871 201.30356 
L 431.739669 201.437463 
" style="fill:none;stroke:#1f77b4;stroke-linecap:square;stroke-width:1.5;"/>
   </g>
   <g id="line2d_14">
    <path clip-path="url(#pfcf233e894)" d="M 286.53015 233.443636 
L 286.53015 60.48 
" style="fill:none;stroke:#000000;stroke-dasharray:0.74,0.32;stroke-dashoffset:0;stroke-width:0.2;"/>
   </g>
   <g id="line2d_15">
    <path clip-path="url(#pfcf233e894)" d="M 178.247512 233.443636 
L 178.247512 60.48 
" style="fill:none;stroke:#000000;stroke-dasharray:0.74,0.32;stroke-dashoffset:0;stroke-width:0.2;"/>
   </g>
   <g id="line2d_16">
    <path clip-path="url(#pfcf233e894)" d="M 160.021383 233.443636 
L 160.021383 60.48 
" style="fill:none;stroke:#000000;stroke-dasharray:0.74,0.32;stroke-dashoffset:0;stroke-width:0.2;"/>
   </g>
   <g id="line2d_17">
    <path clip-path="url(#pfcf233e894)" d="M 391.214767 233.443636 
L 391.214767 60.48 
" style="fill:none;stroke:#000000;stroke-dasharray:0.74,0.32;stroke-dashoffset:0;stroke-width:0.2;"/>
   </g>
   <g id="line2d_18">
    <path clip-path="url(#pfcf233e894)" d="M 232.024239 233.443636 
L 232.024239 60.48 
" style="fill:none;stroke:#000000;stroke-dasharray:0.74,0.32;stroke-dashoffset:0;stroke-width:0.2;"/>
   </g>
   <g id="line2d_19">
    <path clip-path="url(#pfcf233e894)" d="M 272.796625 233.443636 
L 272.796625 60.48 
" style="fill:none;stroke:#000000;stroke-dasharray:0.74,0.32;stroke-dashoffset:0;stroke-width:0.2;"/>
   </g>
   <g id="line2d_20">
    <path clip-path="url(#pfcf233e894)" d="M 134.960473 233.443636 
L 134.960473 60.48 
" style="fill:none;stroke:#000000;stroke-dasharray:0.74,0.32;stroke-dashoffset:0;stroke-width:0.2;"/>
   </g>
   <g id="line2d_21">
    <path clip-path="url(#pfcf233e894)" d="M 401.874466 233.443636 
L 401.874466 60.48 
" style="fill:none;stroke:#000000;stroke-dasharray:0.74,0.32;stroke-dashoffset:0;stroke-width:0.2;"/>
   </g>
   <g id="line2d_22">
    <path clip-path="url(#pfcf233e894)" d="M 164.928731 233.443636 
L 164.928731 60.48 
" style="fill:none;stroke:#000000;stroke-dasharray:0.74,0.32;stroke-dashoffset:0;stroke-width:0.2;"/>
   </g>
   <g id="line2d_23">
    <path clip-path="url(#pfcf233e894)" d="M 226.028302 233.443636 
L 226.028302 60.48 
" style="fill:none;stroke:#000000;stroke-dasharray:0.74,0.32;stroke-dashoffset:0;stroke-width:0.2;"/>
   </g>
   <g id="line2d_24">
    <path clip-path="url(#pfcf233e894)" d="M 260.411929 233.443636 
L 260.411929 60.48 
" style="fill:none;stroke:#000000;stroke-dasharray:0.74,0.32;stroke-dashoffset:0;stroke-width:0.2;"/>
   </g>
   <g id="line2d_25">
    <path clip-path="url(#pfcf233e894)" d="M 230.762904 233.443636 
L 230.762904 60.48 
" style="fill:none;stroke:#000000;stroke-dasharray:0.74,0.32;stroke-dashoffset:0;stroke-width:0.2;"/>
   </g>
   <g id="line2d_26">
    <path clip-path="url(#pfcf233e894)" d="M 131.987603 199.74448 
L 135.015402 199.516864 
L 138.043201 199.096149 
L 141.070999 198.475583 
L 144.098798 197.649112 
L 147.126597 196.611557 
L 150.154395 195.358524 
L 153.182194 193.886744 
L 156.209992 192.194066 
L 159.237791 190.279581 
L 162.26559 188.143771 
L 165.293388 185.78863 
L 168.321187 183.217639 
L 171.348986 180.435971 
L 174.376784 177.450401 
L 177.404583 174.269495 
L 180.432382 170.903407 
L 183.46018 167.364107 
L 186.487979 163.665096 
L 189.515778 159.821417 
L 192.543576 155.84964 
L 195.571375 151.767591 
L 198.599174 147.594192 
L 201.626972 143.349433 
L 204.654771 139.053999 
L 207.682569 134.729181 
L 210.710368 130.39652 
L 213.738167 126.077716 
L 216.765965 121.794363 
L 219.793764 117.567673 
L 222.821563 113.418318 
L 225.849361 109.366211 
L 228.87716 105.430351 
L 231.904959 101.628662 
L 234.932757 97.977845 
L 237.960556 94.493271 
L 240.988355 91.188952 
L 244.016153 88.077416 
L 247.043952 85.169727 
L 250.071751 82.475509 
L 253.099549 80.002885 
L 256.127348 77.758599 
L 259.155147 75.748005 
L 262.182945 73.975224 
L 265.210744 72.443144 
L 268.238542 71.153581 
L 271.266341 70.107352 
L 274.29414 69.304342 
L 277.321938 68.743623 
L 280.349737 68.423594 
L 283.377536 68.341983 
L 286.405334 68.495893 
L 289.433133 68.882053 
L 292.460932 69.496613 
L 295.48873 70.335348 
L 298.516529 71.393605 
L 301.544328 72.666379 
L 304.572126 74.148237 
L 307.599925 75.833446 
L 310.627724 77.715817 
L 313.655522 79.788914 
L 316.683321 82.045803 
L 319.711119 84.479343 
L 322.738918 87.081972 
L 325.766717 89.845865 
L 328.794515 92.762878 
L 331.822314 95.82466 
L 334.850113 99.022639 
L 337.877911 102.348128 
L 340.90571 105.79224 
L 343.933509 109.346045 
L 346.961307 113.000627 
L 349.989106 116.74706 
L 353.016905 120.576447 
L 356.044703 124.480048 
L 359.072502 128.449217 
L 362.100301 132.475505 
L 365.128099 136.550704 
L 368.155898 140.666739 
L 371.183696 144.815885 
L 374.211495 148.990661 
L 377.239294 153.183921 
L 380.267092 157.388709 
L 383.294891 161.598536 
L 386.32269 165.807161 
L 389.350488 170.008681 
L 392.378287 174.197577 
L 395.406086 178.368634 
L 398.433884 182.51696 
L 401.461683 186.638076 
L 404.489482 190.72778 
L 407.51728 194.782151 
L 410.545079 198.797653 
L 413.572878 202.77104 
L 416.600676 206.699393 
L 419.628475 210.580018 
L 422.656273 214.410566 
L 425.684072 218.188859 
L 428.711871 221.913136 
L 431.739669 225.581653 
" style="fill:none;stroke:#ff7f0e;stroke-linecap:square;stroke-width:1.5;"/>
   </g>
   <g id="line2d_27">
    <path clip-path="url(#pfcf233e894)" d="M 131.987603 200.485407 
L 135.015402 200.093816 
L 138.043201 199.53347 
L 141.070999 198.796884 
L 144.098798 197.87716 
L 147.126597 196.767869 
L 150.154395 195.463389 
L 153.182194 193.958836 
L 156.209992 192.250334 
L 159.237791 190.335107 
L 162.26559 188.21153 
L 165.293388 185.879437 
L 168.321187 183.340112 
L 171.348986 180.596267 
L 174.376784 177.652491 
L 177.404583 174.514978 
L 180.432382 171.191798 
L 183.46018 167.692786 
L 186.487979 164.029609 
L 189.515778 160.215726 
L 192.543576 156.266302 
L 195.571375 152.19819 
L 198.599174 148.029616 
L 201.626972 143.780184 
L 204.654771 139.470635 
L 207.682569 135.122556 
L 210.710368 130.758201 
L 213.738167 126.4003 
L 216.765965 122.071577 
L 219.793764 117.79476 
L 222.821563 113.592057 
L 225.849361 109.485081 
L 228.87716 105.494502 
L 231.904959 101.639987 
L 234.932757 97.939733 
L 237.960556 94.410653 
L 240.988355 91.067937 
L 244.016153 87.925286 
L 247.043952 84.994498 
L 250.071751 82.285806 
L 253.099549 79.807681 
L 256.127348 77.566914 
L 259.155147 75.568796 
L 262.182945 73.817068 
L 265.210744 72.314141 
L 268.238542 71.061172 
L 271.266341 70.058256 
L 274.29414 69.304441 
L 277.321938 68.79804 
L 280.349737 68.536562 
L 283.377536 68.516971 
L 286.405334 68.735746 
L 289.433133 69.188822 
L 292.460932 69.871939 
L 295.48873 70.780301 
L 298.516529 71.908945 
L 301.544328 73.252528 
L 304.572126 74.805404 
L 307.599925 76.56154 
L 310.627724 78.514586 
L 313.655522 80.657777 
L 316.683321 82.983972 
L 319.711119 85.485661 
L 322.738918 88.154884 
L 325.766717 90.983373 
L 328.794515 93.962462 
L 331.822314 97.083167 
L 334.850113 100.3363 
L 337.877911 103.712468 
L 340.90571 107.202156 
L 343.933509 110.795618 
L 346.961307 114.483266 
L 349.989106 118.255486 
L 353.016905 122.102744 
L 356.044703 126.015629 
L 359.072502 129.984988 
L 362.100301 134.001867 
L 365.128099 138.057598 
L 368.155898 142.143854 
L 371.183696 146.252519 
L 374.211495 150.375973 
L 377.239294 154.506942 
L 380.267092 158.638495 
L 383.294891 162.764093 
L 386.32269 166.877622 
L 389.350488 170.973359 
L 392.378287 175.046044 
L 395.406086 179.090723 
L 398.433884 183.102871 
L 401.461683 187.078359 
L 404.489482 191.013396 
L 407.51728 194.904629 
L 410.545079 198.748925 
L 413.572878 202.543511 
L 416.600676 206.286063 
L 419.628475 209.974361 
L 422.656273 213.606597 
L 425.684072 217.181139 
L 428.711871 220.696693 
L 431.739669 224.152095 
" style="fill:none;stroke:#2ca02c;stroke-linecap:square;stroke-width:1.5;"/>
   </g>
   <g id="patch_3">
    <path d="M 117 233.443636 
L 117 60.48 
" style="fill:none;stroke:#000000;stroke-linecap:square;stroke-linejoin:miter;stroke-width:0.8;"/>
   </g>
   <g id="patch_4">
    <path d="M 446.727273 233.443636 
L 446.727273 60.48 
" style="fill:none;stroke:#000000;stroke-linecap:square;stroke-linejoin:miter;stroke-width:0.8;"/>
   </g>
   <g id="patch_5">
    <path d="M 117 233.443636 
L 446.727273 233.443636 
" style="fill:none;stroke:#000000;stroke-linecap:square;stroke-linejoin:miter;stroke-width:0.8;"/>
   </g>
   <g id="patch_6">
    <path d="M 117 60.48 
L 446.727273 60.48 
" style="fill:none;stroke:#000000;stroke-linecap:square;stroke-linejoin:miter;stroke-width:0.8;"/>
   </g>
   <g id="legend_1">
    <g id="patch_7">
     <path d="M 227.100355 228.443636 
L 336.626918 228.443636 
Q 338.626918 228.443636 338.626918 226.443636 
L 338.626918 183.409261 
Q 338.626918 181.409261 336.626918 181.409261 
L 227.100355 181.409261 
Q 225.100355 181.409261 225.100355 183.409261 
L 225.100355 226.443636 
Q 225.100355 228.443636 227.100355 228.443636 
z
" style="fill:#ffffff;opacity:0.8;stroke:#cccccc;stroke-linejoin:miter;"/>
    </g>
    <g id="line2d_28">
     <path d="M 229.100355 189.507699 
L 249.100355 189.507699 
" style="fill:none;stroke:#1f77b4;stroke-linecap:square;stroke-width:1.5;"/>
    </g>
    <g id="line2d_29"/>
    <g id="text_13">
     <!-- cos -->
     <defs>
      <path d="M 48.78125 52.59375 
L 48.78125 44.1875 
Q 44.96875 46.296875 41.140625 47.34375 
Q 37.3125 48.390625 33.40625 48.390625 
Q 24.65625 48.390625 19.8125 42.84375 
Q 14.984375 37.3125 14.984375 27.296875 
Q 14.984375 17.28125 19.8125 11.734375 
Q 24.65625 6.203125 33.40625 6.203125 
Q 37.3125 6.203125 41.140625 7.25 
Q 44.96875 8.296875 48.78125 10.40625 
L 48.78125 2.09375 
Q 45.015625 0.34375 40.984375 -0.53125 
Q 36.96875 -1.421875 32.421875 -1.421875 
Q 20.0625 -1.421875 12.78125 6.34375 
Q 5.515625 14.109375 5.515625 27.296875 
Q 5.515625 40.671875 12.859375 48.328125 
Q 20.21875 56 33.015625 56 
Q 37.15625 56 41.109375 55.140625 
Q 45.0625 54.296875 48.78125 52.59375 
z
" id="DejaVuSans-99"/>
      <path d="M 30.609375 48.390625 
Q 23.390625 48.390625 19.1875 42.75 
Q 14.984375 37.109375 14.984375 27.296875 
Q 14.984375 17.484375 19.15625 11.84375 
Q 23.34375 6.203125 30.609375 6.203125 
Q 37.796875 6.203125 41.984375 11.859375 
Q 46.1875 17.53125 46.1875 27.296875 
Q 46.1875 37.015625 41.984375 42.703125 
Q 37.796875 48.390625 30.609375 48.390625 
z
M 30.609375 56 
Q 42.328125 56 49.015625 48.375 
Q 55.71875 40.765625 55.71875 27.296875 
Q 55.71875 13.875 49.015625 6.21875 
Q 42.328125 -1.421875 30.609375 -1.421875 
Q 18.84375 -1.421875 12.171875 6.21875 
Q 5.515625 13.875 5.515625 27.296875 
Q 5.515625 40.765625 12.171875 48.375 
Q 18.84375 56 30.609375 56 
z
" id="DejaVuSans-111"/>
      <path d="M 44.28125 53.078125 
L 44.28125 44.578125 
Q 40.484375 46.53125 36.375 47.5 
Q 32.28125 48.484375 27.875 48.484375 
Q 21.1875 48.484375 17.84375 46.4375 
Q 14.5 44.390625 14.5 40.28125 
Q 14.5 37.15625 16.890625 35.375 
Q 19.28125 33.59375 26.515625 31.984375 
L 29.59375 31.296875 
Q 39.15625 29.25 43.1875 25.515625 
Q 47.21875 21.78125 47.21875 15.09375 
Q 47.21875 7.46875 41.1875 3.015625 
Q 35.15625 -1.421875 24.609375 -1.421875 
Q 20.21875 -1.421875 15.453125 -0.5625 
Q 10.6875 0.296875 5.421875 2 
L 5.421875 11.28125 
Q 10.40625 8.6875 15.234375 7.390625 
Q 20.0625 6.109375 24.8125 6.109375 
Q 31.15625 6.109375 34.5625 8.28125 
Q 37.984375 10.453125 37.984375 14.40625 
Q 37.984375 18.0625 35.515625 20.015625 
Q 33.0625 21.96875 24.703125 23.78125 
L 21.578125 24.515625 
Q 13.234375 26.265625 9.515625 29.90625 
Q 5.8125 33.546875 5.8125 39.890625 
Q 5.8125 47.609375 11.28125 51.796875 
Q 16.75 56 26.8125 56 
Q 31.78125 56 36.171875 55.265625 
Q 40.578125 54.546875 44.28125 53.078125 
z
" id="DejaVuSans-115"/>
     </defs>
     <g transform="translate(257.100355 193.007699)scale(0.1 -0.1)">
      <use xlink:href="#DejaVuSans-99"/>
      <use x="54.980469" xlink:href="#DejaVuSans-111"/>
      <use x="116.162109" xlink:href="#DejaVuSans-115"/>
     </g>
    </g>
    <g id="line2d_30">
     <path d="M 229.100355 204.185824 
L 249.100355 204.185824 
" style="fill:none;stroke:#ff7f0e;stroke-linecap:square;stroke-width:1.5;"/>
    </g>
    <g id="line2d_31"/>
    <g id="text_14">
     <!-- Original model -->
     <defs>
      <path d="M 39.40625 66.21875 
Q 28.65625 66.21875 22.328125 58.203125 
Q 16.015625 50.203125 16.015625 36.375 
Q 16.015625 22.609375 22.328125 14.59375 
Q 28.65625 6.59375 39.40625 6.59375 
Q 50.140625 6.59375 56.421875 14.59375 
Q 62.703125 22.609375 62.703125 36.375 
Q 62.703125 50.203125 56.421875 58.203125 
Q 50.140625 66.21875 39.40625 66.21875 
z
M 39.40625 74.21875 
Q 54.734375 74.21875 63.90625 63.9375 
Q 73.09375 53.65625 73.09375 36.375 
Q 73.09375 19.140625 63.90625 8.859375 
Q 54.734375 -1.421875 39.40625 -1.421875 
Q 24.03125 -1.421875 14.8125 8.828125 
Q 5.609375 19.09375 5.609375 36.375 
Q 5.609375 53.65625 14.8125 63.9375 
Q 24.03125 74.21875 39.40625 74.21875 
z
" id="DejaVuSans-79"/>
      <path d="M 41.109375 46.296875 
Q 39.59375 47.171875 37.8125 47.578125 
Q 36.03125 48 33.890625 48 
Q 26.265625 48 22.1875 43.046875 
Q 18.109375 38.09375 18.109375 28.8125 
L 18.109375 0 
L 9.078125 0 
L 9.078125 54.6875 
L 18.109375 54.6875 
L 18.109375 46.1875 
Q 20.953125 51.171875 25.484375 53.578125 
Q 30.03125 56 36.53125 56 
Q 37.453125 56 38.578125 55.875 
Q 39.703125 55.765625 41.0625 55.515625 
z
" id="DejaVuSans-114"/>
      <path d="M 9.421875 54.6875 
L 18.40625 54.6875 
L 18.40625 0 
L 9.421875 0 
z
M 9.421875 75.984375 
L 18.40625 75.984375 
L 18.40625 64.59375 
L 9.421875 64.59375 
z
" id="DejaVuSans-105"/>
      <path d="M 45.40625 27.984375 
Q 45.40625 37.75 41.375 43.109375 
Q 37.359375 48.484375 30.078125 48.484375 
Q 22.859375 48.484375 18.828125 43.109375 
Q 14.796875 37.75 14.796875 27.984375 
Q 14.796875 18.265625 18.828125 12.890625 
Q 22.859375 7.515625 30.078125 7.515625 
Q 37.359375 7.515625 41.375 12.890625 
Q 45.40625 18.265625 45.40625 27.984375 
z
M 54.390625 6.78125 
Q 54.390625 -7.171875 48.1875 -13.984375 
Q 42 -20.796875 29.203125 -20.796875 
Q 24.46875 -20.796875 20.265625 -20.09375 
Q 16.0625 -19.390625 12.109375 -17.921875 
L 12.109375 -9.1875 
Q 16.0625 -11.328125 19.921875 -12.34375 
Q 23.78125 -13.375 27.78125 -13.375 
Q 36.625 -13.375 41.015625 -8.765625 
Q 45.40625 -4.15625 45.40625 5.171875 
L 45.40625 9.625 
Q 42.625 4.78125 38.28125 2.390625 
Q 33.9375 0 27.875 0 
Q 17.828125 0 11.671875 7.65625 
Q 5.515625 15.328125 5.515625 27.984375 
Q 5.515625 40.671875 11.671875 48.328125 
Q 17.828125 56 27.875 56 
Q 33.9375 56 38.28125 53.609375 
Q 42.625 51.21875 45.40625 46.390625 
L 45.40625 54.6875 
L 54.390625 54.6875 
z
" id="DejaVuSans-103"/>
      <path d="M 54.890625 33.015625 
L 54.890625 0 
L 45.90625 0 
L 45.90625 32.71875 
Q 45.90625 40.484375 42.875 44.328125 
Q 39.84375 48.1875 33.796875 48.1875 
Q 26.515625 48.1875 22.3125 43.546875 
Q 18.109375 38.921875 18.109375 30.90625 
L 18.109375 0 
L 9.078125 0 
L 9.078125 54.6875 
L 18.109375 54.6875 
L 18.109375 46.1875 
Q 21.34375 51.125 25.703125 53.5625 
Q 30.078125 56 35.796875 56 
Q 45.21875 56 50.046875 50.171875 
Q 54.890625 44.34375 54.890625 33.015625 
z
" id="DejaVuSans-110"/>
      <path d="M 34.28125 27.484375 
Q 23.390625 27.484375 19.1875 25 
Q 14.984375 22.515625 14.984375 16.5 
Q 14.984375 11.71875 18.140625 8.90625 
Q 21.296875 6.109375 26.703125 6.109375 
Q 34.1875 6.109375 38.703125 11.40625 
Q 43.21875 16.703125 43.21875 25.484375 
L 43.21875 27.484375 
z
M 52.203125 31.203125 
L 52.203125 0 
L 43.21875 0 
L 43.21875 8.296875 
Q 40.140625 3.328125 35.546875 0.953125 
Q 30.953125 -1.421875 24.3125 -1.421875 
Q 15.921875 -1.421875 10.953125 3.296875 
Q 6 8.015625 6 15.921875 
Q 6 25.140625 12.171875 29.828125 
Q 18.359375 34.515625 30.609375 34.515625 
L 43.21875 34.515625 
L 43.21875 35.40625 
Q 43.21875 41.609375 39.140625 45 
Q 35.0625 48.390625 27.6875 48.390625 
Q 23 48.390625 18.546875 47.265625 
Q 14.109375 46.140625 10.015625 43.890625 
L 10.015625 52.203125 
Q 14.9375 54.109375 19.578125 55.046875 
Q 24.21875 56 28.609375 56 
Q 40.484375 56 46.34375 49.84375 
Q 52.203125 43.703125 52.203125 31.203125 
z
" id="DejaVuSans-97"/>
      <path d="M 9.421875 75.984375 
L 18.40625 75.984375 
L 18.40625 0 
L 9.421875 0 
z
" id="DejaVuSans-108"/>
      <path id="DejaVuSans-32"/>
      <path d="M 52 44.1875 
Q 55.375 50.25 60.0625 53.125 
Q 64.75 56 71.09375 56 
Q 79.640625 56 84.28125 50.015625 
Q 88.921875 44.046875 88.921875 33.015625 
L 88.921875 0 
L 79.890625 0 
L 79.890625 32.71875 
Q 79.890625 40.578125 77.09375 44.375 
Q 74.3125 48.1875 68.609375 48.1875 
Q 61.625 48.1875 57.5625 43.546875 
Q 53.515625 38.921875 53.515625 30.90625 
L 53.515625 0 
L 44.484375 0 
L 44.484375 32.71875 
Q 44.484375 40.625 41.703125 44.40625 
Q 38.921875 48.1875 33.109375 48.1875 
Q 26.21875 48.1875 22.15625 43.53125 
Q 18.109375 38.875 18.109375 30.90625 
L 18.109375 0 
L 9.078125 0 
L 9.078125 54.6875 
L 18.109375 54.6875 
L 18.109375 46.1875 
Q 21.1875 51.21875 25.484375 53.609375 
Q 29.78125 56 35.6875 56 
Q 41.65625 56 45.828125 52.96875 
Q 50 49.953125 52 44.1875 
z
" id="DejaVuSans-109"/>
      <path d="M 45.40625 46.390625 
L 45.40625 75.984375 
L 54.390625 75.984375 
L 54.390625 0 
L 45.40625 0 
L 45.40625 8.203125 
Q 42.578125 3.328125 38.25 0.953125 
Q 33.9375 -1.421875 27.875 -1.421875 
Q 17.96875 -1.421875 11.734375 6.484375 
Q 5.515625 14.40625 5.515625 27.296875 
Q 5.515625 40.1875 11.734375 48.09375 
Q 17.96875 56 27.875 56 
Q 33.9375 56 38.25 53.625 
Q 42.578125 51.265625 45.40625 46.390625 
z
M 14.796875 27.296875 
Q 14.796875 17.390625 18.875 11.75 
Q 22.953125 6.109375 30.078125 6.109375 
Q 37.203125 6.109375 41.296875 11.75 
Q 45.40625 17.390625 45.40625 27.296875 
Q 45.40625 37.203125 41.296875 42.84375 
Q 37.203125 48.484375 30.078125 48.484375 
Q 22.953125 48.484375 18.875 42.84375 
Q 14.796875 37.203125 14.796875 27.296875 
z
" id="DejaVuSans-100"/>
      <path d="M 56.203125 29.59375 
L 56.203125 25.203125 
L 14.890625 25.203125 
Q 15.484375 15.921875 20.484375 11.0625 
Q 25.484375 6.203125 34.421875 6.203125 
Q 39.59375 6.203125 44.453125 7.46875 
Q 49.3125 8.734375 54.109375 11.28125 
L 54.109375 2.78125 
Q 49.265625 0.734375 44.1875 -0.34375 
Q 39.109375 -1.421875 33.890625 -1.421875 
Q 20.796875 -1.421875 13.15625 6.1875 
Q 5.515625 13.8125 5.515625 26.8125 
Q 5.515625 40.234375 12.765625 48.109375 
Q 20.015625 56 32.328125 56 
Q 43.359375 56 49.78125 48.890625 
Q 56.203125 41.796875 56.203125 29.59375 
z
M 47.21875 32.234375 
Q 47.125 39.59375 43.09375 43.984375 
Q 39.0625 48.390625 32.421875 48.390625 
Q 24.90625 48.390625 20.390625 44.140625 
Q 15.875 39.890625 15.1875 32.171875 
z
" id="DejaVuSans-101"/>
     </defs>
     <g transform="translate(257.100355 207.685824)scale(0.1 -0.1)">
      <use xlink:href="#DejaVuSans-79"/>
      <use x="78.710938" xlink:href="#DejaVuSans-114"/>
      <use x="119.824219" xlink:href="#DejaVuSans-105"/>
      <use x="147.607422" xlink:href="#DejaVuSans-103"/>
      <use x="211.083984" xlink:href="#DejaVuSans-105"/>
      <use x="238.867188" xlink:href="#DejaVuSans-110"/>
      <use x="302.246094" xlink:href="#DejaVuSans-97"/>
      <use x="363.525391" xlink:href="#DejaVuSans-108"/>
      <use x="391.308594" xlink:href="#DejaVuSans-32"/>
      <use x="423.095703" xlink:href="#DejaVuSans-109"/>
      <use x="520.507812" xlink:href="#DejaVuSans-111"/>
      <use x="581.689453" xlink:href="#DejaVuSans-100"/>
      <use x="645.166016" xlink:href="#DejaVuSans-101"/>
      <use x="706.689453" xlink:href="#DejaVuSans-108"/>
     </g>
    </g>
    <g id="line2d_32">
     <path d="M 229.100355 218.863949 
L 249.100355 218.863949 
" style="fill:none;stroke:#2ca02c;stroke-linecap:square;stroke-width:1.5;"/>
    </g>
    <g id="line2d_33"/>
    <g id="text_15">
     <!-- Shared weights -->
     <defs>
      <path d="M 53.515625 70.515625 
L 53.515625 60.890625 
Q 47.90625 63.578125 42.921875 64.890625 
Q 37.9375 66.21875 33.296875 66.21875 
Q 25.25 66.21875 20.875 63.09375 
Q 16.5 59.96875 16.5 54.203125 
Q 16.5 49.359375 19.40625 46.890625 
Q 22.3125 44.4375 30.421875 42.921875 
L 36.375 41.703125 
Q 47.40625 39.59375 52.65625 34.296875 
Q 57.90625 29 57.90625 20.125 
Q 57.90625 9.515625 50.796875 4.046875 
Q 43.703125 -1.421875 29.984375 -1.421875 
Q 24.8125 -1.421875 18.96875 -0.25 
Q 13.140625 0.921875 6.890625 3.21875 
L 6.890625 13.375 
Q 12.890625 10.015625 18.65625 8.296875 
Q 24.421875 6.59375 29.984375 6.59375 
Q 38.421875 6.59375 43.015625 9.90625 
Q 47.609375 13.234375 47.609375 19.390625 
Q 47.609375 24.75 44.3125 27.78125 
Q 41.015625 30.8125 33.5 32.328125 
L 27.484375 33.5 
Q 16.453125 35.6875 11.515625 40.375 
Q 6.59375 45.0625 6.59375 53.421875 
Q 6.59375 63.09375 13.40625 68.65625 
Q 20.21875 74.21875 32.171875 74.21875 
Q 37.3125 74.21875 42.625 73.28125 
Q 47.953125 72.359375 53.515625 70.515625 
z
" id="DejaVuSans-83"/>
      <path d="M 54.890625 33.015625 
L 54.890625 0 
L 45.90625 0 
L 45.90625 32.71875 
Q 45.90625 40.484375 42.875 44.328125 
Q 39.84375 48.1875 33.796875 48.1875 
Q 26.515625 48.1875 22.3125 43.546875 
Q 18.109375 38.921875 18.109375 30.90625 
L 18.109375 0 
L 9.078125 0 
L 9.078125 75.984375 
L 18.109375 75.984375 
L 18.109375 46.1875 
Q 21.34375 51.125 25.703125 53.5625 
Q 30.078125 56 35.796875 56 
Q 45.21875 56 50.046875 50.171875 
Q 54.890625 44.34375 54.890625 33.015625 
z
" id="DejaVuSans-104"/>
      <path d="M 4.203125 54.6875 
L 13.1875 54.6875 
L 24.421875 12.015625 
L 35.59375 54.6875 
L 46.1875 54.6875 
L 57.421875 12.015625 
L 68.609375 54.6875 
L 77.59375 54.6875 
L 63.28125 0 
L 52.6875 0 
L 40.921875 44.828125 
L 29.109375 0 
L 18.5 0 
z
" id="DejaVuSans-119"/>
      <path d="M 18.3125 70.21875 
L 18.3125 54.6875 
L 36.8125 54.6875 
L 36.8125 47.703125 
L 18.3125 47.703125 
L 18.3125 18.015625 
Q 18.3125 11.328125 20.140625 9.421875 
Q 21.96875 7.515625 27.59375 7.515625 
L 36.8125 7.515625 
L 36.8125 0 
L 27.59375 0 
Q 17.1875 0 13.234375 3.875 
Q 9.28125 7.765625 9.28125 18.015625 
L 9.28125 47.703125 
L 2.6875 47.703125 
L 2.6875 54.6875 
L 9.28125 54.6875 
L 9.28125 70.21875 
z
" id="DejaVuSans-116"/>
     </defs>
     <g transform="translate(257.100355 222.363949)scale(0.1 -0.1)">
      <use xlink:href="#DejaVuSans-83"/>
      <use x="63.476562" xlink:href="#DejaVuSans-104"/>
      <use x="126.855469" xlink:href="#DejaVuSans-97"/>
      <use x="188.134766" xlink:href="#DejaVuSans-114"/>
      <use x="229.216797" xlink:href="#DejaVuSans-101"/>
      <use x="290.740234" xlink:href="#DejaVuSans-100"/>
      <use x="354.216797" xlink:href="#DejaVuSans-32"/>
      <use x="386.003906" xlink:href="#DejaVuSans-119"/>
      <use x="467.791016" xlink:href="#DejaVuSans-101"/>
      <use x="529.314453" xlink:href="#DejaVuSans-105"/>
      <use x="557.097656" xlink:href="#DejaVuSans-103"/>
      <use x="620.574219" xlink:href="#DejaVuSans-104"/>
      <use x="683.953125" xlink:href="#DejaVuSans-116"/>
      <use x="723.162109" xlink:href="#DejaVuSans-115"/>
     </g>
    </g>
   </g>
  </g>
  <g id="axes_2">
   <g id="patch_8">
    <path d="M 512.672727 233.443636 
L 842.4 233.443636 
L 842.4 60.48 
L 512.672727 60.48 
z
" style="fill:#ffffff;"/>
   </g>
   <g id="matplotlib.axis_3">
    <g id="xtick_8">
     <g id="line2d_34">
      <g>
       <use style="stroke:#000000;stroke-width:0.8;" x="534.415295" xlink:href="#me6918d37cf" y="233.443636"/>
      </g>
     </g>
     <g id="text_16">
      <!-- −3 -->
      <g transform="translate(527.044201 248.042074)scale(0.1 -0.1)">
       <use xlink:href="#DejaVuSans-8722"/>
       <use x="83.789062" xlink:href="#DejaVuSans-51"/>
      </g>
     </g>
    </g>
    <g id="xtick_9">
     <g id="line2d_35">
      <g>
       <use style="stroke:#000000;stroke-width:0.8;" x="582.122318" xlink:href="#me6918d37cf" y="233.443636"/>
      </g>
     </g>
     <g id="text_17">
      <!-- −2 -->
      <g transform="translate(574.751224 248.042074)scale(0.1 -0.1)">
       <use xlink:href="#DejaVuSans-8722"/>
       <use x="83.789062" xlink:href="#DejaVuSans-50"/>
      </g>
     </g>
    </g>
    <g id="xtick_10">
     <g id="line2d_36">
      <g>
       <use style="stroke:#000000;stroke-width:0.8;" x="629.829341" xlink:href="#me6918d37cf" y="233.443636"/>
      </g>
     </g>
     <g id="text_18">
      <!-- −1 -->
      <g transform="translate(622.458247 248.042074)scale(0.1 -0.1)">
       <use xlink:href="#DejaVuSans-8722"/>
       <use x="83.789062" xlink:href="#DejaVuSans-49"/>
      </g>
     </g>
    </g>
    <g id="xtick_11">
     <g id="line2d_37">
      <g>
       <use style="stroke:#000000;stroke-width:0.8;" x="677.536364" xlink:href="#me6918d37cf" y="233.443636"/>
      </g>
     </g>
     <g id="text_19">
      <!-- 0 -->
      <g transform="translate(674.355114 248.042074)scale(0.1 -0.1)">
       <use xlink:href="#DejaVuSans-48"/>
      </g>
     </g>
    </g>
    <g id="xtick_12">
     <g id="line2d_38">
      <g>
       <use style="stroke:#000000;stroke-width:0.8;" x="725.243387" xlink:href="#me6918d37cf" y="233.443636"/>
      </g>
     </g>
     <g id="text_20">
      <!-- 1 -->
      <g transform="translate(722.062137 248.042074)scale(0.1 -0.1)">
       <use xlink:href="#DejaVuSans-49"/>
      </g>
     </g>
    </g>
    <g id="xtick_13">
     <g id="line2d_39">
      <g>
       <use style="stroke:#000000;stroke-width:0.8;" x="772.95041" xlink:href="#me6918d37cf" y="233.443636"/>
      </g>
     </g>
     <g id="text_21">
      <!-- 2 -->
      <g transform="translate(769.76916 248.042074)scale(0.1 -0.1)">
       <use xlink:href="#DejaVuSans-50"/>
      </g>
     </g>
    </g>
    <g id="xtick_14">
     <g id="line2d_40">
      <g>
       <use style="stroke:#000000;stroke-width:0.8;" x="820.657433" xlink:href="#me6918d37cf" y="233.443636"/>
      </g>
     </g>
     <g id="text_22">
      <!-- 3 -->
      <g transform="translate(817.476183 248.042074)scale(0.1 -0.1)">
       <use xlink:href="#DejaVuSans-51"/>
      </g>
     </g>
    </g>
   </g>
   <g id="matplotlib.axis_4">
    <g id="ytick_6">
     <g id="line2d_41">
      <g>
       <use style="stroke:#000000;stroke-width:0.8;" x="512.672727" xlink:href="#m58695c5128" y="225.59155"/>
      </g>
     </g>
     <g id="text_23">
      <!-- −1.0 -->
      <g transform="translate(481.389915 229.390769)scale(0.1 -0.1)">
       <use xlink:href="#DejaVuSans-8722"/>
       <use x="83.789062" xlink:href="#DejaVuSans-49"/>
       <use x="147.412109" xlink:href="#DejaVuSans-46"/>
       <use x="179.199219" xlink:href="#DejaVuSans-48"/>
      </g>
     </g>
    </g>
    <g id="ytick_7">
     <g id="line2d_42">
      <g>
       <use style="stroke:#000000;stroke-width:0.8;" x="512.672727" xlink:href="#m58695c5128" y="186.276684"/>
      </g>
     </g>
     <g id="text_24">
      <!-- −0.5 -->
      <g transform="translate(481.389915 190.075903)scale(0.1 -0.1)">
       <use xlink:href="#DejaVuSans-8722"/>
       <use x="83.789062" xlink:href="#DejaVuSans-48"/>
       <use x="147.412109" xlink:href="#DejaVuSans-46"/>
       <use x="179.199219" xlink:href="#DejaVuSans-53"/>
      </g>
     </g>
    </g>
    <g id="ytick_8">
     <g id="line2d_43">
      <g>
       <use style="stroke:#000000;stroke-width:0.8;" x="512.672727" xlink:href="#m58695c5128" y="146.961818"/>
      </g>
     </g>
     <g id="text_25">
      <!-- 0.0 -->
      <g transform="translate(489.769602 150.761037)scale(0.1 -0.1)">
       <use xlink:href="#DejaVuSans-48"/>
       <use x="63.623047" xlink:href="#DejaVuSans-46"/>
       <use x="95.410156" xlink:href="#DejaVuSans-48"/>
      </g>
     </g>
    </g>
    <g id="ytick_9">
     <g id="line2d_44">
      <g>
       <use style="stroke:#000000;stroke-width:0.8;" x="512.672727" xlink:href="#m58695c5128" y="107.646952"/>
      </g>
     </g>
     <g id="text_26">
      <!-- 0.5 -->
      <g transform="translate(489.769602 111.446171)scale(0.1 -0.1)">
       <use xlink:href="#DejaVuSans-48"/>
       <use x="63.623047" xlink:href="#DejaVuSans-46"/>
       <use x="95.410156" xlink:href="#DejaVuSans-53"/>
      </g>
     </g>
    </g>
    <g id="ytick_10">
     <g id="line2d_45">
      <g>
       <use style="stroke:#000000;stroke-width:0.8;" x="512.672727" xlink:href="#m58695c5128" y="68.332086"/>
      </g>
     </g>
     <g id="text_27">
      <!-- 1.0 -->
      <g transform="translate(489.769602 72.131305)scale(0.1 -0.1)">
       <use xlink:href="#DejaVuSans-49"/>
       <use x="63.623047" xlink:href="#DejaVuSans-46"/>
       <use x="95.410156" xlink:href="#DejaVuSans-48"/>
      </g>
     </g>
    </g>
   </g>
   <g id="line2d_46">
    <path clip-path="url(#p1b3d5665cb)" d="M 527.660331 146.961818 
L 530.688129 141.974812 
L 533.715928 137.007887 
L 536.743727 132.081044 
L 539.771525 127.214119 
L 542.799324 122.426712 
L 545.827122 117.738099 
L 548.854921 113.167159 
L 551.88272 108.732299 
L 554.910518 104.451376 
L 557.938317 100.341627 
L 560.966116 96.419601 
L 563.993914 92.70109 
L 567.021713 89.201069 
L 570.049512 85.93363 
L 573.07731 82.911929 
L 576.105109 80.148135 
L 579.132908 77.653376 
L 582.160706 75.437698 
L 585.188505 73.510022 
L 588.216304 71.878111 
L 591.244102 70.548535 
L 594.271901 69.526648 
L 597.299699 68.816566 
L 600.327498 68.421147 
L 603.355297 68.341983 
L 606.383095 68.579394 
L 609.410894 69.132423 
L 612.438693 69.998844 
L 615.466491 71.175168 
L 618.49429 72.656657 
L 621.522089 74.437347 
L 624.549887 76.510068 
L 627.577686 78.866473 
L 630.605485 81.497074 
L 633.633283 84.391278 
L 636.661082 87.537432 
L 639.688881 90.922866 
L 642.716679 94.53395 
L 645.744478 98.356143 
L 648.772276 102.374053 
L 651.800075 106.571503 
L 654.827874 110.93159 
L 657.855672 115.436758 
L 660.883471 120.068866 
L 663.91127 124.809263 
L 666.939068 129.63886 
L 669.966867 134.538211 
L 672.994666 139.487587 
L 676.022464 144.467059 
L 679.050263 149.456577 
L 682.078062 154.436049 
L 685.10586 159.385426 
L 688.133659 164.284776 
L 691.161458 169.114374 
L 694.189256 173.85477 
L 697.217055 178.486879 
L 700.244853 182.992047 
L 703.272652 187.352134 
L 706.300451 191.549583 
L 709.328249 195.567494 
L 712.356048 199.389686 
L 715.383847 203.00077 
L 718.411645 206.386205 
L 721.439444 209.532358 
L 724.467243 212.426563 
L 727.495041 215.057164 
L 730.52284 217.413569 
L 733.550639 219.486289 
L 736.578437 221.266979 
L 739.606236 222.748469 
L 742.634035 223.924792 
L 745.661833 224.791213 
L 748.689632 225.344242 
L 751.717431 225.581653 
L 754.745229 225.502489 
L 757.773028 225.10707 
L 760.800826 224.396988 
L 763.828625 223.375101 
L 766.856424 222.045526 
L 769.884222 220.413614 
L 772.912021 218.485938 
L 775.93982 216.27026 
L 778.967618 213.775501 
L 781.995417 211.011707 
L 785.023216 207.990007 
L 788.051014 204.722567 
L 791.078813 201.222546 
L 794.106612 197.504036 
L 797.13441 193.58201 
L 800.162209 189.472261 
L 803.190008 185.191337 
L 806.217806 180.756477 
L 809.245605 176.185537 
L 812.273403 171.496924 
L 815.301202 166.709517 
L 818.329001 161.842593 
L 821.356799 156.915749 
L 824.384598 151.948824 
L 827.412397 146.961818 
" style="fill:none;stroke:#1f77b4;stroke-linecap:square;stroke-width:1.5;"/>
   </g>
   <g id="line2d_47">
    <path clip-path="url(#p1b3d5665cb)" d="M 682.202878 233.443636 
L 682.202878 60.48 
" style="fill:none;stroke:#000000;stroke-dasharray:0.74,0.32;stroke-dashoffset:0;stroke-width:0.2;"/>
   </g>
   <g id="line2d_48">
    <path clip-path="url(#p1b3d5665cb)" d="M 573.920239 233.443636 
L 573.920239 60.48 
" style="fill:none;stroke:#000000;stroke-dasharray:0.74,0.32;stroke-dashoffset:0;stroke-width:0.2;"/>
   </g>
   <g id="line2d_49">
    <path clip-path="url(#p1b3d5665cb)" d="M 555.69411 233.443636 
L 555.69411 60.48 
" style="fill:none;stroke:#000000;stroke-dasharray:0.74,0.32;stroke-dashoffset:0;stroke-width:0.2;"/>
   </g>
   <g id="line2d_50">
    <path clip-path="url(#p1b3d5665cb)" d="M 786.887494 233.443636 
L 786.887494 60.48 
" style="fill:none;stroke:#000000;stroke-dasharray:0.74,0.32;stroke-dashoffset:0;stroke-width:0.2;"/>
   </g>
   <g id="line2d_51">
    <path clip-path="url(#p1b3d5665cb)" d="M 627.696966 233.443636 
L 627.696966 60.48 
" style="fill:none;stroke:#000000;stroke-dasharray:0.74,0.32;stroke-dashoffset:0;stroke-width:0.2;"/>
   </g>
   <g id="line2d_52">
    <path clip-path="url(#p1b3d5665cb)" d="M 668.469352 233.443636 
L 668.469352 60.48 
" style="fill:none;stroke:#000000;stroke-dasharray:0.74,0.32;stroke-dashoffset:0;stroke-width:0.2;"/>
   </g>
   <g id="line2d_53">
    <path clip-path="url(#p1b3d5665cb)" d="M 530.6332 233.443636 
L 530.6332 60.48 
" style="fill:none;stroke:#000000;stroke-dasharray:0.74,0.32;stroke-dashoffset:0;stroke-width:0.2;"/>
   </g>
   <g id="line2d_54">
    <path clip-path="url(#p1b3d5665cb)" d="M 797.547194 233.443636 
L 797.547194 60.48 
" style="fill:none;stroke:#000000;stroke-dasharray:0.74,0.32;stroke-dashoffset:0;stroke-width:0.2;"/>
   </g>
   <g id="line2d_55">
    <path clip-path="url(#p1b3d5665cb)" d="M 560.601458 233.443636 
L 560.601458 60.48 
" style="fill:none;stroke:#000000;stroke-dasharray:0.74,0.32;stroke-dashoffset:0;stroke-width:0.2;"/>
   </g>
   <g id="line2d_56">
    <path clip-path="url(#p1b3d5665cb)" d="M 621.70103 233.443636 
L 621.70103 60.48 
" style="fill:none;stroke:#000000;stroke-dasharray:0.74,0.32;stroke-dashoffset:0;stroke-width:0.2;"/>
   </g>
   <g id="line2d_57">
    <path clip-path="url(#p1b3d5665cb)" d="M 656.084657 233.443636 
L 656.084657 60.48 
" style="fill:none;stroke:#000000;stroke-dasharray:0.74,0.32;stroke-dashoffset:0;stroke-width:0.2;"/>
   </g>
   <g id="line2d_58">
    <path clip-path="url(#p1b3d5665cb)" d="M 626.435631 233.443636 
L 626.435631 60.48 
" style="fill:none;stroke:#000000;stroke-dasharray:0.74,0.32;stroke-dashoffset:0;stroke-width:0.2;"/>
   </g>
   <g id="line2d_59">
    <path clip-path="url(#p1b3d5665cb)" d="M 527.660331 141.939645 
L 530.688129 137.19997 
L 533.715928 132.52976 
L 536.743727 127.938287 
L 539.771525 123.435261 
L 542.799324 119.030666 
L 545.827122 114.734839 
L 548.854921 110.558382 
L 551.88272 106.512284 
L 554.910518 102.607665 
L 557.938317 98.855992 
L 560.966116 95.268794 
L 563.993914 91.857816 
L 567.021713 88.634877 
L 570.049512 85.61177 
L 573.07731 82.800286 
L 576.105109 80.21202 
L 579.132908 77.85845 
L 582.160706 75.750659 
L 585.188505 73.899301 
L 588.216304 72.31456 
L 591.244102 71.005941 
L 594.271901 69.982155 
L 597.299699 69.251016 
L 600.327498 68.819339 
L 603.355297 68.692737 
L 606.383095 68.875523 
L 609.410894 69.370555 
L 612.438693 70.179198 
L 615.466491 71.301128 
L 618.49429 72.734254 
L 621.522089 74.47464 
L 624.549887 76.516484 
L 627.577686 78.852072 
L 630.605485 81.471673 
L 633.633283 84.363675 
L 636.661082 87.514541 
L 639.688881 90.908994 
L 642.716679 94.529955 
L 645.744478 98.358818 
L 648.772276 102.375533 
L 651.800075 106.558823 
L 654.827874 110.886301 
L 657.855672 115.334867 
L 660.883471 119.880673 
L 663.91127 124.499648 
L 666.939068 129.167514 
L 669.966867 133.860107 
L 672.994666 138.553675 
L 676.022464 143.224916 
L 679.050263 147.851408 
L 682.078062 152.411667 
L 685.10586 156.885297 
L 688.133659 161.253187 
L 691.161458 165.497647 
L 694.189256 169.602463 
L 697.217055 173.552992 
L 700.244853 177.336207 
L 703.272652 180.940708 
L 706.300451 184.356767 
L 709.328249 187.57624 
L 712.356048 190.592636 
L 715.383847 193.400951 
L 718.411645 195.9977 
L 721.439444 198.380783 
L 724.467243 200.549402 
L 727.495041 202.504045 
L 730.52284 204.246259 
L 733.550639 205.778641 
L 736.578437 207.104723 
L 739.606236 208.228809 
L 742.634035 209.155997 
L 745.661833 209.89193 
L 748.689632 210.442851 
L 751.717431 210.815331 
L 754.745229 211.016372 
L 757.773028 211.053209 
L 760.800826 210.933248 
L 763.828625 210.664138 
L 766.856424 210.25349 
L 769.884222 209.708821 
L 772.912021 209.037836 
L 775.93982 208.247996 
L 778.967618 207.346735 
L 781.995417 206.341241 
L 785.023216 205.238621 
L 788.051014 204.045669 
L 791.078813 202.769078 
L 794.106612 201.41526 
L 797.13441 199.990307 
L 800.162209 198.500162 
L 803.190008 196.950506 
L 806.217806 195.346671 
L 809.245605 193.693823 
L 812.273403 191.996798 
L 815.301202 190.260264 
L 818.329001 188.488562 
L 821.356799 186.685842 
L 824.384598 184.855928 
L 827.412397 183.002536 
" style="fill:none;stroke:#ff7f0e;stroke-linecap:square;stroke-width:1.5;"/>
   </g>
   <g id="line2d_60">
    <path clip-path="url(#p1b3d5665cb)" d="M 527.660331 143.599388 
L 530.688129 138.72594 
L 533.715928 133.915677 
L 536.743727 129.180222 
L 539.771525 124.531564 
L 542.799324 119.98206 
L 545.827122 115.544295 
L 548.854921 111.231193 
L 551.88272 107.055688 
L 554.910518 103.030916 
L 557.938317 99.169959 
L 560.966116 95.485868 
L 563.993914 91.991527 
L 567.021713 88.699451 
L 570.049512 85.621936 
L 573.07731 82.770797 
L 576.105109 80.157204 
L 579.132908 77.791824 
L 582.160706 75.684446 
L 585.188505 73.844176 
L 588.216304 72.279176 
L 591.244102 70.996624 
L 594.271901 70.002781 
L 597.299699 69.302795 
L 600.327498 68.900704 
L 603.355297 68.799472 
L 606.383095 69.00099 
L 609.410894 69.505973 
L 612.438693 70.31394 
L 615.466491 71.423385 
L 618.49429 72.831667 
L 621.522089 74.535 
L 624.549887 76.528487 
L 627.577686 78.80617 
L 630.605485 81.360964 
L 633.633283 84.18461 
L 636.661082 87.267801 
L 639.688881 90.60001 
L 642.716679 94.169567 
L 645.744478 97.963542 
L 648.772276 101.967837 
L 651.800075 106.166978 
L 654.827874 110.544264 
L 657.855672 115.081601 
L 660.883471 119.759658 
L 663.91127 124.557753 
L 666.939068 129.45392 
L 669.966867 134.424992 
L 672.994666 139.44672 
L 676.022464 144.493906 
L 679.050263 149.540565 
L 682.078062 154.560196 
L 685.10586 159.526017 
L 688.133659 164.411278 
L 691.161458 169.189637 
L 694.189256 173.835478 
L 697.217055 178.324331 
L 700.244853 182.633187 
L 703.272652 186.740827 
L 706.300451 190.628226 
L 709.328249 194.278648 
L 712.356048 197.677994 
L 715.383847 200.814805 
L 718.411645 203.680378 
L 721.439444 206.268785 
L 724.467243 208.57666 
L 727.495041 210.603253 
L 730.52284 212.350126 
L 733.550639 213.820962 
L 736.578437 215.021314 
L 739.606236 215.958442 
L 742.634035 216.641041 
L 745.661833 217.078779 
L 748.689632 217.282444 
L 751.717431 217.263369 
L 754.745229 217.033458 
L 757.773028 216.604893 
L 760.800826 215.990031 
L 763.828625 215.201171 
L 766.856424 214.250633 
L 769.884222 213.150441 
L 772.912021 211.912356 
L 775.93982 210.547754 
L 778.967618 209.067709 
L 781.995417 207.482785 
L 785.023216 205.80311 
L 788.051014 204.038259 
L 791.078813 202.197451 
L 794.106612 200.289295 
L 797.13441 198.321951 
L 800.162209 196.303081 
L 803.190008 194.239823 
L 806.217806 192.138955 
L 809.245605 190.006728 
L 812.273403 187.848987 
L 815.301202 185.671125 
L 818.329001 183.478189 
L 821.356799 181.274788 
L 824.384598 179.065258 
L 827.412397 176.853484 
" style="fill:none;stroke:#2ca02c;stroke-linecap:square;stroke-width:1.5;"/>
   </g>
   <g id="patch_9">
    <path d="M 512.672727 233.443636 
L 512.672727 60.48 
" style="fill:none;stroke:#000000;stroke-linecap:square;stroke-linejoin:miter;stroke-width:0.8;"/>
   </g>
   <g id="patch_10">
    <path d="M 842.4 233.443636 
L 842.4 60.48 
" style="fill:none;stroke:#000000;stroke-linecap:square;stroke-linejoin:miter;stroke-width:0.8;"/>
   </g>
   <g id="patch_11">
    <path d="M 512.672727 233.443636 
L 842.4 233.443636 
" style="fill:none;stroke:#000000;stroke-linecap:square;stroke-linejoin:miter;stroke-width:0.8;"/>
   </g>
   <g id="patch_12">
    <path d="M 512.672727 60.48 
L 842.4 60.48 
" style="fill:none;stroke:#000000;stroke-linecap:square;stroke-linejoin:miter;stroke-width:0.8;"/>
   </g>
   <g id="legend_2">
    <g id="patch_13">
     <path d="M 725.873437 112.514375 
L 835.4 112.514375 
Q 837.4 112.514375 837.4 110.514375 
L 837.4 67.48 
Q 837.4 65.48 835.4 65.48 
L 725.873437 65.48 
Q 723.873437 65.48 723.873437 67.48 
L 723.873437 110.514375 
Q 723.873437 112.514375 725.873437 112.514375 
z
" style="fill:#ffffff;opacity:0.8;stroke:#cccccc;stroke-linejoin:miter;"/>
    </g>
    <g id="line2d_61">
     <path d="M 727.873437 73.578438 
L 747.873437 73.578438 
" style="fill:none;stroke:#1f77b4;stroke-linecap:square;stroke-width:1.5;"/>
    </g>
    <g id="line2d_62"/>
    <g id="text_28">
     <!-- -sin -->
     <defs>
      <path d="M 4.890625 31.390625 
L 31.203125 31.390625 
L 31.203125 23.390625 
L 4.890625 23.390625 
z
" id="DejaVuSans-45"/>
     </defs>
     <g transform="translate(755.873437 77.078438)scale(0.1 -0.1)">
      <use xlink:href="#DejaVuSans-45"/>
      <use x="36.083984" xlink:href="#DejaVuSans-115"/>
      <use x="88.183594" xlink:href="#DejaVuSans-105"/>
      <use x="115.966797" xlink:href="#DejaVuSans-110"/>
     </g>
    </g>
    <g id="line2d_63">
     <path d="M 727.873437 88.256563 
L 747.873437 88.256563 
" style="fill:none;stroke:#ff7f0e;stroke-linecap:square;stroke-width:1.5;"/>
    </g>
    <g id="line2d_64"/>
    <g id="text_29">
     <!-- Original model -->
     <g transform="translate(755.873437 91.756563)scale(0.1 -0.1)">
      <use xlink:href="#DejaVuSans-79"/>
      <use x="78.710938" xlink:href="#DejaVuSans-114"/>
      <use x="119.824219" xlink:href="#DejaVuSans-105"/>
      <use x="147.607422" xlink:href="#DejaVuSans-103"/>
      <use x="211.083984" xlink:href="#DejaVuSans-105"/>
      <use x="238.867188" xlink:href="#DejaVuSans-110"/>
      <use x="302.246094" xlink:href="#DejaVuSans-97"/>
      <use x="363.525391" xlink:href="#DejaVuSans-108"/>
      <use x="391.308594" xlink:href="#DejaVuSans-32"/>
      <use x="423.095703" xlink:href="#DejaVuSans-109"/>
      <use x="520.507812" xlink:href="#DejaVuSans-111"/>
      <use x="581.689453" xlink:href="#DejaVuSans-100"/>
      <use x="645.166016" xlink:href="#DejaVuSans-101"/>
      <use x="706.689453" xlink:href="#DejaVuSans-108"/>
     </g>
    </g>
    <g id="line2d_65">
     <path d="M 727.873437 102.934687 
L 747.873437 102.934687 
" style="fill:none;stroke:#2ca02c;stroke-linecap:square;stroke-width:1.5;"/>
    </g>
    <g id="line2d_66"/>
    <g id="text_30">
     <!-- Shared weights -->
     <g transform="translate(755.873437 106.434687)scale(0.1 -0.1)">
      <use xlink:href="#DejaVuSans-83"/>
      <use x="63.476562" xlink:href="#DejaVuSans-104"/>
      <use x="126.855469" xlink:href="#DejaVuSans-97"/>
      <use x="188.134766" xlink:href="#DejaVuSans-114"/>
      <use x="229.216797" xlink:href="#DejaVuSans-101"/>
      <use x="290.740234" xlink:href="#DejaVuSans-100"/>
      <use x="354.216797" xlink:href="#DejaVuSans-32"/>
      <use x="386.003906" xlink:href="#DejaVuSans-119"/>
      <use x="467.791016" xlink:href="#DejaVuSans-101"/>
      <use x="529.314453" xlink:href="#DejaVuSans-105"/>
      <use x="557.097656" xlink:href="#DejaVuSans-103"/>
      <use x="620.574219" xlink:href="#DejaVuSans-104"/>
      <use x="683.953125" xlink:href="#DejaVuSans-116"/>
      <use x="723.162109" xlink:href="#DejaVuSans-115"/>
     </g>
    </g>
   </g>
  </g>
  <g id="axes_3">
   <g id="patch_14">
    <path d="M 117 441 
L 446.727273 441 
L 446.727273 268.036364 
L 117 268.036364 
z
" style="fill:#ffffff;"/>
   </g>
   <g id="matplotlib.axis_5">
    <g id="xtick_15">
     <g id="line2d_67">
      <g>
       <use style="stroke:#000000;stroke-width:0.8;" x="138.742567" xlink:href="#me6918d37cf" y="441"/>
      </g>
     </g>
     <g id="text_31">
      <!-- −3 -->
      <g transform="translate(131.371474 455.598437)scale(0.1 -0.1)">
       <use xlink:href="#DejaVuSans-8722"/>
       <use x="83.789062" xlink:href="#DejaVuSans-51"/>
      </g>
     </g>
    </g>
    <g id="xtick_16">
     <g id="line2d_68">
      <g>
       <use style="stroke:#000000;stroke-width:0.8;" x="186.44959" xlink:href="#me6918d37cf" y="441"/>
      </g>
     </g>
     <g id="text_32">
      <!-- −2 -->
      <g transform="translate(179.078497 455.598437)scale(0.1 -0.1)">
       <use xlink:href="#DejaVuSans-8722"/>
       <use x="83.789062" xlink:href="#DejaVuSans-50"/>
      </g>
     </g>
    </g>
    <g id="xtick_17">
     <g id="line2d_69">
      <g>
       <use style="stroke:#000000;stroke-width:0.8;" x="234.156613" xlink:href="#me6918d37cf" y="441"/>
      </g>
     </g>
     <g id="text_33">
      <!-- −1 -->
      <g transform="translate(226.78552 455.598437)scale(0.1 -0.1)">
       <use xlink:href="#DejaVuSans-8722"/>
       <use x="83.789062" xlink:href="#DejaVuSans-49"/>
      </g>
     </g>
    </g>
    <g id="xtick_18">
     <g id="line2d_70">
      <g>
       <use style="stroke:#000000;stroke-width:0.8;" x="281.863636" xlink:href="#me6918d37cf" y="441"/>
      </g>
     </g>
     <g id="text_34">
      <!-- 0 -->
      <g transform="translate(278.682386 455.598437)scale(0.1 -0.1)">
       <use xlink:href="#DejaVuSans-48"/>
      </g>
     </g>
    </g>
    <g id="xtick_19">
     <g id="line2d_71">
      <g>
       <use style="stroke:#000000;stroke-width:0.8;" x="329.570659" xlink:href="#me6918d37cf" y="441"/>
      </g>
     </g>
     <g id="text_35">
      <!-- 1 -->
      <g transform="translate(326.389409 455.598437)scale(0.1 -0.1)">
       <use xlink:href="#DejaVuSans-49"/>
      </g>
     </g>
    </g>
    <g id="xtick_20">
     <g id="line2d_72">
      <g>
       <use style="stroke:#000000;stroke-width:0.8;" x="377.277682" xlink:href="#me6918d37cf" y="441"/>
      </g>
     </g>
     <g id="text_36">
      <!-- 2 -->
      <g transform="translate(374.096432 455.598437)scale(0.1 -0.1)">
       <use xlink:href="#DejaVuSans-50"/>
      </g>
     </g>
    </g>
    <g id="xtick_21">
     <g id="line2d_73">
      <g>
       <use style="stroke:#000000;stroke-width:0.8;" x="424.984705" xlink:href="#me6918d37cf" y="441"/>
      </g>
     </g>
     <g id="text_37">
      <!-- 3 -->
      <g transform="translate(421.803455 455.598437)scale(0.1 -0.1)">
       <use xlink:href="#DejaVuSans-51"/>
      </g>
     </g>
    </g>
   </g>
   <g id="matplotlib.axis_6">
    <g id="ytick_11">
     <g id="line2d_74">
      <g>
       <use style="stroke:#000000;stroke-width:0.8;" x="117" xlink:href="#m58695c5128" y="433.147914"/>
      </g>
     </g>
     <g id="text_38">
      <!-- −1.0 -->
      <g transform="translate(85.717187 436.947133)scale(0.1 -0.1)">
       <use xlink:href="#DejaVuSans-8722"/>
       <use x="83.789062" xlink:href="#DejaVuSans-49"/>
       <use x="147.412109" xlink:href="#DejaVuSans-46"/>
       <use x="179.199219" xlink:href="#DejaVuSans-48"/>
      </g>
     </g>
    </g>
    <g id="ytick_12">
     <g id="line2d_75">
      <g>
       <use style="stroke:#000000;stroke-width:0.8;" x="117" xlink:href="#m58695c5128" y="393.833048"/>
      </g>
     </g>
     <g id="text_39">
      <!-- −0.5 -->
      <g transform="translate(85.717187 397.632267)scale(0.1 -0.1)">
       <use xlink:href="#DejaVuSans-8722"/>
       <use x="83.789062" xlink:href="#DejaVuSans-48"/>
       <use x="147.412109" xlink:href="#DejaVuSans-46"/>
       <use x="179.199219" xlink:href="#DejaVuSans-53"/>
      </g>
     </g>
    </g>
    <g id="ytick_13">
     <g id="line2d_76">
      <g>
       <use style="stroke:#000000;stroke-width:0.8;" x="117" xlink:href="#m58695c5128" y="354.518182"/>
      </g>
     </g>
     <g id="text_40">
      <!-- 0.0 -->
      <g transform="translate(94.096875 358.317401)scale(0.1 -0.1)">
       <use xlink:href="#DejaVuSans-48"/>
       <use x="63.623047" xlink:href="#DejaVuSans-46"/>
       <use x="95.410156" xlink:href="#DejaVuSans-48"/>
      </g>
     </g>
    </g>
    <g id="ytick_14">
     <g id="line2d_77">
      <g>
       <use style="stroke:#000000;stroke-width:0.8;" x="117" xlink:href="#m58695c5128" y="315.203316"/>
      </g>
     </g>
     <g id="text_41">
      <!-- 0.5 -->
      <g transform="translate(94.096875 319.002535)scale(0.1 -0.1)">
       <use xlink:href="#DejaVuSans-48"/>
       <use x="63.623047" xlink:href="#DejaVuSans-46"/>
       <use x="95.410156" xlink:href="#DejaVuSans-53"/>
      </g>
     </g>
    </g>
    <g id="ytick_15">
     <g id="line2d_78">
      <g>
       <use style="stroke:#000000;stroke-width:0.8;" x="117" xlink:href="#m58695c5128" y="275.88845"/>
      </g>
     </g>
     <g id="text_42">
      <!-- 1.0 -->
      <g transform="translate(94.096875 279.687669)scale(0.1 -0.1)">
       <use xlink:href="#DejaVuSans-49"/>
       <use x="63.623047" xlink:href="#DejaVuSans-46"/>
       <use x="95.410156" xlink:href="#DejaVuSans-48"/>
      </g>
     </g>
    </g>
   </g>
   <g id="line2d_79">
    <path clip-path="url(#p7f0ace3208)" d="M 131.987603 354.518182 
L 135.015402 359.505188 
L 138.043201 364.472113 
L 141.070999 369.398956 
L 144.098798 374.265881 
L 147.126597 379.053288 
L 150.154395 383.741901 
L 153.182194 388.312841 
L 156.209992 392.747701 
L 159.237791 397.028624 
L 162.26559 401.138373 
L 165.293388 405.060399 
L 168.321187 408.77891 
L 171.348986 412.278931 
L 174.376784 415.54637 
L 177.404583 418.568071 
L 180.432382 421.331865 
L 183.46018 423.826624 
L 186.487979 426.042302 
L 189.515778 427.969978 
L 192.543576 429.601889 
L 195.571375 430.931465 
L 198.599174 431.953352 
L 201.626972 432.663434 
L 204.654771 433.058853 
L 207.682569 433.138017 
L 210.710368 432.900606 
L 213.738167 432.347577 
L 216.765965 431.481156 
L 219.793764 430.304832 
L 222.821563 428.823343 
L 225.849361 427.042653 
L 228.87716 424.969932 
L 231.904959 422.613527 
L 234.932757 419.982926 
L 237.960556 417.088722 
L 240.988355 413.942568 
L 244.016153 410.557134 
L 247.043952 406.94605 
L 250.071751 403.123857 
L 253.099549 399.105947 
L 256.127348 394.908497 
L 259.155147 390.54841 
L 262.182945 386.043242 
L 265.210744 381.411134 
L 268.238542 376.670737 
L 271.266341 371.84114 
L 274.29414 366.941789 
L 277.321938 361.992413 
L 280.349737 357.012941 
L 283.377536 352.023423 
L 286.405334 347.043951 
L 289.433133 342.094574 
L 292.460932 337.195224 
L 295.48873 332.365626 
L 298.516529 327.62523 
L 301.544328 322.993121 
L 304.572126 318.487953 
L 307.599925 314.127866 
L 310.627724 309.930417 
L 313.655522 305.912506 
L 316.683321 302.090314 
L 319.711119 298.47923 
L 322.738918 295.093795 
L 325.766717 291.947642 
L 328.794515 289.053437 
L 331.822314 286.422836 
L 334.850113 284.066431 
L 337.877911 281.993711 
L 340.90571 280.213021 
L 343.933509 278.731531 
L 346.961307 277.555208 
L 349.989106 276.688787 
L 353.016905 276.135758 
L 356.044703 275.898347 
L 359.072502 275.977511 
L 362.100301 276.37293 
L 365.128099 277.083012 
L 368.155898 278.104899 
L 371.183696 279.434474 
L 374.211495 281.066386 
L 377.239294 282.994062 
L 380.267092 285.20974 
L 383.294891 287.704499 
L 386.32269 290.468293 
L 389.350488 293.489993 
L 392.378287 296.757433 
L 395.406086 300.257454 
L 398.433884 303.975964 
L 401.461683 307.89799 
L 404.489482 312.007739 
L 407.51728 316.288663 
L 410.545079 320.723523 
L 413.572878 325.294463 
L 416.600676 329.983076 
L 419.628475 334.770483 
L 422.656273 339.637407 
L 425.684072 344.564251 
L 428.711871 349.531176 
L 431.739669 354.518182 
" style="fill:none;stroke:#1f77b4;stroke-linecap:square;stroke-width:1.5;"/>
   </g>
   <g id="line2d_80">
    <path clip-path="url(#p7f0ace3208)" d="M 286.53015 441 
L 286.53015 268.036364 
" style="fill:none;stroke:#000000;stroke-dasharray:0.74,0.32;stroke-dashoffset:0;stroke-width:0.2;"/>
   </g>
   <g id="line2d_81">
    <path clip-path="url(#p7f0ace3208)" d="M 178.247512 441 
L 178.247512 268.036364 
" style="fill:none;stroke:#000000;stroke-dasharray:0.74,0.32;stroke-dashoffset:0;stroke-width:0.2;"/>
   </g>
   <g id="line2d_82">
    <path clip-path="url(#p7f0ace3208)" d="M 160.021383 441 
L 160.021383 268.036364 
" style="fill:none;stroke:#000000;stroke-dasharray:0.74,0.32;stroke-dashoffset:0;stroke-width:0.2;"/>
   </g>
   <g id="line2d_83">
    <path clip-path="url(#p7f0ace3208)" d="M 391.214767 441 
L 391.214767 268.036364 
" style="fill:none;stroke:#000000;stroke-dasharray:0.74,0.32;stroke-dashoffset:0;stroke-width:0.2;"/>
   </g>
   <g id="line2d_84">
    <path clip-path="url(#p7f0ace3208)" d="M 232.024239 441 
L 232.024239 268.036364 
" style="fill:none;stroke:#000000;stroke-dasharray:0.74,0.32;stroke-dashoffset:0;stroke-width:0.2;"/>
   </g>
   <g id="line2d_85">
    <path clip-path="url(#p7f0ace3208)" d="M 272.796625 441 
L 272.796625 268.036364 
" style="fill:none;stroke:#000000;stroke-dasharray:0.74,0.32;stroke-dashoffset:0;stroke-width:0.2;"/>
   </g>
   <g id="line2d_86">
    <path clip-path="url(#p7f0ace3208)" d="M 134.960473 441 
L 134.960473 268.036364 
" style="fill:none;stroke:#000000;stroke-dasharray:0.74,0.32;stroke-dashoffset:0;stroke-width:0.2;"/>
   </g>
   <g id="line2d_87">
    <path clip-path="url(#p7f0ace3208)" d="M 401.874466 441 
L 401.874466 268.036364 
" style="fill:none;stroke:#000000;stroke-dasharray:0.74,0.32;stroke-dashoffset:0;stroke-width:0.2;"/>
   </g>
   <g id="line2d_88">
    <path clip-path="url(#p7f0ace3208)" d="M 164.928731 441 
L 164.928731 268.036364 
" style="fill:none;stroke:#000000;stroke-dasharray:0.74,0.32;stroke-dashoffset:0;stroke-width:0.2;"/>
   </g>
   <g id="line2d_89">
    <path clip-path="url(#p7f0ace3208)" d="M 226.028302 441 
L 226.028302 268.036364 
" style="fill:none;stroke:#000000;stroke-dasharray:0.74,0.32;stroke-dashoffset:0;stroke-width:0.2;"/>
   </g>
   <g id="line2d_90">
    <path clip-path="url(#p7f0ace3208)" d="M 260.411929 441 
L 260.411929 268.036364 
" style="fill:none;stroke:#000000;stroke-dasharray:0.74,0.32;stroke-dashoffset:0;stroke-width:0.2;"/>
   </g>
   <g id="line2d_91">
    <path clip-path="url(#p7f0ace3208)" d="M 230.762904 441 
L 230.762904 268.036364 
" style="fill:none;stroke:#000000;stroke-dasharray:0.74,0.32;stroke-dashoffset:0;stroke-width:0.2;"/>
   </g>
   <g id="line2d_92">
    <path clip-path="url(#p7f0ace3208)" d="M 131.987603 359.581044 
L 135.015402 364.126714 
L 138.043201 368.613978 
L 141.070999 373.034729 
L 144.098798 377.380346 
L 147.126597 381.641748 
L 150.154395 385.809605 
L 153.182194 389.873998 
L 156.209992 393.82472 
L 159.237791 397.651038 
L 162.26559 401.34199 
L 165.293388 404.886117 
L 168.321187 408.271708 
L 171.348986 411.486763 
L 174.376784 414.519033 
L 177.404583 417.356083 
L 180.432382 419.985554 
L 183.46018 422.394807 
L 186.487979 424.571553 
L 189.515778 426.503569 
L 192.543576 428.179054 
L 195.571375 429.586666 
L 198.599174 430.715682 
L 201.626972 431.556176 
L 204.654771 432.099214 
L 207.682569 432.336961 
L 210.710368 432.262929 
L 213.738167 431.872078 
L 216.765965 431.161012 
L 219.793764 430.12813 
L 222.821563 428.773815 
L 225.849361 427.100354 
L 228.87716 425.112295 
L 231.904959 422.816338 
L 234.932757 420.221323 
L 237.960556 417.338348 
L 240.988355 414.180724 
L 244.016153 410.763676 
L 247.043952 407.104457 
L 250.071751 403.222213 
L 253.099549 399.137616 
L 256.127348 394.872853 
L 259.155147 390.451197 
L 262.182945 385.89711 
L 265.210744 381.235627 
L 268.238542 376.492404 
L 271.266341 371.693241 
L 274.29414 366.864045 
L 277.321938 362.030401 
L 280.349737 357.217491 
L 283.377536 352.449779 
L 286.405334 347.750934 
L 289.433133 343.143452 
L 292.460932 338.648656 
L 295.48873 334.286488 
L 298.516529 330.075411 
L 301.544328 326.032178 
L 304.572126 322.171999 
L 307.599925 318.508243 
L 310.627724 315.052512 
L 313.655522 311.814595 
L 316.683321 308.802497 
L 319.711119 306.022507 
L 322.738918 303.479121 
L 325.766717 301.175225 
L 328.794515 299.112136 
L 331.822314 297.289686 
L 334.850113 295.70636 
L 337.877911 294.359314 
L 340.90571 293.244663 
L 343.933509 292.357415 
L 346.961307 291.691716 
L 349.989106 291.240922 
L 353.016905 290.997757 
L 356.044703 290.954419 
L 359.072502 291.102589 
L 362.100301 291.433704 
L 365.128099 291.938902 
L 368.155898 292.609217 
L 371.183696 293.43558 
L 374.211495 294.408923 
L 377.239294 295.520289 
L 380.267092 296.760768 
L 383.294891 298.121649 
L 386.32269 299.594392 
L 389.350488 301.170735 
L 392.378287 302.842714 
L 395.406086 304.602508 
L 398.433884 306.442707 
L 401.461683 308.356164 
L 404.489482 310.336087 
L 407.51728 312.375981 
L 410.545079 314.469698 
L 413.572878 316.611293 
L 416.600676 318.795332 
L 419.628475 321.016494 
L 422.656273 323.269904 
L 425.684072 325.550911 
L 428.711871 327.855158 
L 431.739669 330.17856 
" style="fill:none;stroke:#ff7f0e;stroke-linecap:square;stroke-width:1.5;"/>
   </g>
   <g id="line2d_93">
    <path clip-path="url(#p7f0ace3208)" d="M 131.987603 358.515109 
L 135.015402 363.134257 
L 138.043201 367.707988 
L 141.070999 372.225621 
L 144.098798 376.676066 
L 147.126597 381.047794 
L 150.154395 385.32889 
L 153.182194 389.50695 
L 156.209992 393.569299 
L 159.237791 397.503018 
L 162.26559 401.294884 
L 165.293388 404.931536 
L 168.321187 408.399579 
L 171.348986 411.685606 
L 174.376784 414.776257 
L 177.404583 417.658417 
L 180.432382 420.319219 
L 183.46018 422.74622 
L 186.487979 424.927452 
L 189.515778 426.851566 
L 192.543576 428.507938 
L 195.571375 429.886732 
L 198.599174 430.979084 
L 201.626972 431.777106 
L 204.654771 432.274046 
L 207.682569 432.464439 
L 210.710368 432.343911 
L 213.738167 431.90966 
L 216.765965 431.160211 
L 219.793764 430.095679 
L 222.821563 428.717584 
L 225.849361 427.029182 
L 228.87716 425.035363 
L 231.904959 422.742612 
L 234.932757 420.15915 
L 237.960556 417.29494 
L 240.988355 414.16163 
L 244.016153 410.77259 
L 247.043952 407.142799 
L 250.071751 403.289008 
L 253.099549 399.229433 
L 256.127348 394.983843 
L 259.155147 390.573394 
L 262.182945 386.020577 
L 265.210744 381.348985 
L 268.238542 376.583213 
L 271.266341 371.748678 
L 274.29414 366.871339 
L 277.321938 361.977604 
L 280.349737 357.093924 
L 283.377536 352.246623 
L 286.405334 347.461647 
L 289.433133 342.764184 
L 292.460932 338.178543 
L 295.48873 333.727674 
L 298.516529 329.433071 
L 301.544328 325.3145 
L 304.572126 321.389737 
L 307.599925 317.674419 
L 310.627724 314.18192 
L 313.655522 310.92333 
L 316.683321 307.907314 
L 319.711119 305.140147 
L 322.738918 302.625856 
L 325.766717 300.366193 
L 328.794515 298.360924 
L 331.822314 296.607799 
L 334.850113 295.102948 
L 337.877911 293.840919 
L 340.90571 292.814968 
L 343.933509 292.017236 
L 346.961307 291.438963 
L 349.989106 291.070682 
L 353.016905 290.902383 
L 356.044703 290.923651 
L 359.072502 291.12389 
L 362.100301 291.492391 
L 365.128099 292.018449 
L 368.155898 292.691469 
L 371.183696 293.501044 
L 374.211495 294.437001 
L 377.239294 295.489511 
L 380.267092 296.64907 
L 383.294891 297.906502 
L 386.32269 299.253079 
L 389.350488 300.680464 
L 392.378287 302.180746 
L 395.406086 303.746394 
L 398.433884 305.370334 
L 401.461683 307.045861 
L 404.489482 308.766662 
L 407.51728 310.526911 
L 410.545079 312.32103 
L 413.572878 314.143864 
L 416.600676 315.990606 
L 419.628475 317.856764 
L 422.656273 319.738178 
L 425.684072 321.630966 
L 428.711871 323.531567 
L 431.739669 325.436654 
" style="fill:none;stroke:#2ca02c;stroke-linecap:square;stroke-width:1.5;"/>
   </g>
   <g id="patch_15">
    <path d="M 117 441 
L 117 268.036364 
" style="fill:none;stroke:#000000;stroke-linecap:square;stroke-linejoin:miter;stroke-width:0.8;"/>
   </g>
   <g id="patch_16">
    <path d="M 446.727273 441 
L 446.727273 268.036364 
" style="fill:none;stroke:#000000;stroke-linecap:square;stroke-linejoin:miter;stroke-width:0.8;"/>
   </g>
   <g id="patch_17">
    <path d="M 117 441 
L 446.727273 441 
" style="fill:none;stroke:#000000;stroke-linecap:square;stroke-linejoin:miter;stroke-width:0.8;"/>
   </g>
   <g id="patch_18">
    <path d="M 117 268.036364 
L 446.727273 268.036364 
" style="fill:none;stroke:#000000;stroke-linecap:square;stroke-linejoin:miter;stroke-width:0.8;"/>
   </g>
   <g id="legend_3">
    <g id="patch_19">
     <path d="M 330.20071 436 
L 439.727273 436 
Q 441.727273 436 441.727273 434 
L 441.727273 390.965625 
Q 441.727273 388.965625 439.727273 388.965625 
L 330.20071 388.965625 
Q 328.20071 388.965625 328.20071 390.965625 
L 328.20071 434 
Q 328.20071 436 330.20071 436 
z
" style="fill:#ffffff;opacity:0.8;stroke:#cccccc;stroke-linejoin:miter;"/>
    </g>
    <g id="line2d_94">
     <path d="M 332.20071 397.064062 
L 352.20071 397.064062 
" style="fill:none;stroke:#1f77b4;stroke-linecap:square;stroke-width:1.5;"/>
    </g>
    <g id="line2d_95"/>
    <g id="text_43">
     <!-- sin -->
     <g transform="translate(360.20071 400.564062)scale(0.1 -0.1)">
      <use xlink:href="#DejaVuSans-115"/>
      <use x="52.099609" xlink:href="#DejaVuSans-105"/>
      <use x="79.882812" xlink:href="#DejaVuSans-110"/>
     </g>
    </g>
    <g id="line2d_96">
     <path d="M 332.20071 411.742187 
L 352.20071 411.742187 
" style="fill:none;stroke:#ff7f0e;stroke-linecap:square;stroke-width:1.5;"/>
    </g>
    <g id="line2d_97"/>
    <g id="text_44">
     <!-- Original model -->
     <g transform="translate(360.20071 415.242187)scale(0.1 -0.1)">
      <use xlink:href="#DejaVuSans-79"/>
      <use x="78.710938" xlink:href="#DejaVuSans-114"/>
      <use x="119.824219" xlink:href="#DejaVuSans-105"/>
      <use x="147.607422" xlink:href="#DejaVuSans-103"/>
      <use x="211.083984" xlink:href="#DejaVuSans-105"/>
      <use x="238.867188" xlink:href="#DejaVuSans-110"/>
      <use x="302.246094" xlink:href="#DejaVuSans-97"/>
      <use x="363.525391" xlink:href="#DejaVuSans-108"/>
      <use x="391.308594" xlink:href="#DejaVuSans-32"/>
      <use x="423.095703" xlink:href="#DejaVuSans-109"/>
      <use x="520.507812" xlink:href="#DejaVuSans-111"/>
      <use x="581.689453" xlink:href="#DejaVuSans-100"/>
      <use x="645.166016" xlink:href="#DejaVuSans-101"/>
      <use x="706.689453" xlink:href="#DejaVuSans-108"/>
     </g>
    </g>
    <g id="line2d_98">
     <path d="M 332.20071 426.420312 
L 352.20071 426.420312 
" style="fill:none;stroke:#2ca02c;stroke-linecap:square;stroke-width:1.5;"/>
    </g>
    <g id="line2d_99"/>
    <g id="text_45">
     <!-- Shared weights -->
     <g transform="translate(360.20071 429.920312)scale(0.1 -0.1)">
      <use xlink:href="#DejaVuSans-83"/>
      <use x="63.476562" xlink:href="#DejaVuSans-104"/>
      <use x="126.855469" xlink:href="#DejaVuSans-97"/>
      <use x="188.134766" xlink:href="#DejaVuSans-114"/>
      <use x="229.216797" xlink:href="#DejaVuSans-101"/>
      <use x="290.740234" xlink:href="#DejaVuSans-100"/>
      <use x="354.216797" xlink:href="#DejaVuSans-32"/>
      <use x="386.003906" xlink:href="#DejaVuSans-119"/>
      <use x="467.791016" xlink:href="#DejaVuSans-101"/>
      <use x="529.314453" xlink:href="#DejaVuSans-105"/>
      <use x="557.097656" xlink:href="#DejaVuSans-103"/>
      <use x="620.574219" xlink:href="#DejaVuSans-104"/>
      <use x="683.953125" xlink:href="#DejaVuSans-116"/>
      <use x="723.162109" xlink:href="#DejaVuSans-115"/>
     </g>
    </g>
   </g>
  </g>
  <g id="axes_4">
   <g id="patch_20">
    <path d="M 512.672727 441 
L 842.4 441 
L 842.4 268.036364 
L 512.672727 268.036364 
z
" style="fill:#ffffff;"/>
   </g>
   <g id="matplotlib.axis_7">
    <g id="xtick_22">
     <g id="line2d_100">
      <g>
       <use style="stroke:#000000;stroke-width:0.8;" x="534.415295" xlink:href="#me6918d37cf" y="441"/>
      </g>
     </g>
     <g id="text_46">
      <!-- −3 -->
      <g transform="translate(527.044201 455.598437)scale(0.1 -0.1)">
       <use xlink:href="#DejaVuSans-8722"/>
       <use x="83.789062" xlink:href="#DejaVuSans-51"/>
      </g>
     </g>
    </g>
    <g id="xtick_23">
     <g id="line2d_101">
      <g>
       <use style="stroke:#000000;stroke-width:0.8;" x="582.122318" xlink:href="#me6918d37cf" y="441"/>
      </g>
     </g>
     <g id="text_47">
      <!-- −2 -->
      <g transform="translate(574.751224 455.598437)scale(0.1 -0.1)">
       <use xlink:href="#DejaVuSans-8722"/>
       <use x="83.789062" xlink:href="#DejaVuSans-50"/>
      </g>
     </g>
    </g>
    <g id="xtick_24">
     <g id="line2d_102">
      <g>
       <use style="stroke:#000000;stroke-width:0.8;" x="629.829341" xlink:href="#me6918d37cf" y="441"/>
      </g>
     </g>
     <g id="text_48">
      <!-- −1 -->
      <g transform="translate(622.458247 455.598437)scale(0.1 -0.1)">
       <use xlink:href="#DejaVuSans-8722"/>
       <use x="83.789062" xlink:href="#DejaVuSans-49"/>
      </g>
     </g>
    </g>
    <g id="xtick_25">
     <g id="line2d_103">
      <g>
       <use style="stroke:#000000;stroke-width:0.8;" x="677.536364" xlink:href="#me6918d37cf" y="441"/>
      </g>
     </g>
     <g id="text_49">
      <!-- 0 -->
      <g transform="translate(674.355114 455.598437)scale(0.1 -0.1)">
       <use xlink:href="#DejaVuSans-48"/>
      </g>
     </g>
    </g>
    <g id="xtick_26">
     <g id="line2d_104">
      <g>
       <use style="stroke:#000000;stroke-width:0.8;" x="725.243387" xlink:href="#me6918d37cf" y="441"/>
      </g>
     </g>
     <g id="text_50">
      <!-- 1 -->
      <g transform="translate(722.062137 455.598437)scale(0.1 -0.1)">
       <use xlink:href="#DejaVuSans-49"/>
      </g>
     </g>
    </g>
    <g id="xtick_27">
     <g id="line2d_105">
      <g>
       <use style="stroke:#000000;stroke-width:0.8;" x="772.95041" xlink:href="#me6918d37cf" y="441"/>
      </g>
     </g>
     <g id="text_51">
      <!-- 2 -->
      <g transform="translate(769.76916 455.598437)scale(0.1 -0.1)">
       <use xlink:href="#DejaVuSans-50"/>
      </g>
     </g>
    </g>
    <g id="xtick_28">
     <g id="line2d_106">
      <g>
       <use style="stroke:#000000;stroke-width:0.8;" x="820.657433" xlink:href="#me6918d37cf" y="441"/>
      </g>
     </g>
     <g id="text_52">
      <!-- 3 -->
      <g transform="translate(817.476183 455.598437)scale(0.1 -0.1)">
       <use xlink:href="#DejaVuSans-51"/>
      </g>
     </g>
    </g>
   </g>
   <g id="matplotlib.axis_8">
    <g id="ytick_16">
     <g id="line2d_107">
      <g>
       <use style="stroke:#000000;stroke-width:0.8;" x="512.672727" xlink:href="#m58695c5128" y="410.605169"/>
      </g>
     </g>
     <g id="text_53">
      <!-- −1.0 -->
      <g transform="translate(481.389915 414.404387)scale(0.1 -0.1)">
       <use xlink:href="#DejaVuSans-8722"/>
       <use x="83.789062" xlink:href="#DejaVuSans-49"/>
       <use x="147.412109" xlink:href="#DejaVuSans-46"/>
       <use x="179.199219" xlink:href="#DejaVuSans-48"/>
      </g>
     </g>
    </g>
    <g id="ytick_17">
     <g id="line2d_108">
      <g>
       <use style="stroke:#000000;stroke-width:0.8;" x="512.672727" xlink:href="#m58695c5128" y="376.919984"/>
      </g>
     </g>
     <g id="text_54">
      <!-- −0.5 -->
      <g transform="translate(481.389915 380.719203)scale(0.1 -0.1)">
       <use xlink:href="#DejaVuSans-8722"/>
       <use x="83.789062" xlink:href="#DejaVuSans-48"/>
       <use x="147.412109" xlink:href="#DejaVuSans-46"/>
       <use x="179.199219" xlink:href="#DejaVuSans-53"/>
      </g>
     </g>
    </g>
    <g id="ytick_18">
     <g id="line2d_109">
      <g>
       <use style="stroke:#000000;stroke-width:0.8;" x="512.672727" xlink:href="#m58695c5128" y="343.234799"/>
      </g>
     </g>
     <g id="text_55">
      <!-- 0.0 -->
      <g transform="translate(489.769602 347.034018)scale(0.1 -0.1)">
       <use xlink:href="#DejaVuSans-48"/>
       <use x="63.623047" xlink:href="#DejaVuSans-46"/>
       <use x="95.410156" xlink:href="#DejaVuSans-48"/>
      </g>
     </g>
    </g>
    <g id="ytick_19">
     <g id="line2d_110">
      <g>
       <use style="stroke:#000000;stroke-width:0.8;" x="512.672727" xlink:href="#m58695c5128" y="309.549614"/>
      </g>
     </g>
     <g id="text_56">
      <!-- 0.5 -->
      <g transform="translate(489.769602 313.348833)scale(0.1 -0.1)">
       <use xlink:href="#DejaVuSans-48"/>
       <use x="63.623047" xlink:href="#DejaVuSans-46"/>
       <use x="95.410156" xlink:href="#DejaVuSans-53"/>
      </g>
     </g>
    </g>
    <g id="ytick_20">
     <g id="line2d_111">
      <g>
       <use style="stroke:#000000;stroke-width:0.8;" x="512.672727" xlink:href="#m58695c5128" y="275.864429"/>
      </g>
     </g>
     <g id="text_57">
      <!-- 1.0 -->
      <g transform="translate(489.769602 279.663648)scale(0.1 -0.1)">
       <use xlink:href="#DejaVuSans-49"/>
       <use x="63.623047" xlink:href="#DejaVuSans-46"/>
       <use x="95.410156" xlink:href="#DejaVuSans-48"/>
      </g>
     </g>
    </g>
   </g>
   <g id="line2d_112">
    <path clip-path="url(#p03a7bef2c6)" d="M 527.660331 410.605169 
L 530.688129 410.46953 
L 533.715928 410.063161 
L 536.743727 409.387698 
L 539.771525 408.445861 
L 542.799324 407.241441 
L 545.827122 405.77929 
L 548.854921 404.065294 
L 551.88272 402.106355 
L 554.910518 399.91036 
L 557.938317 397.486154 
L 560.966116 394.843496 
L 563.993914 391.993029 
L 567.021713 388.946229 
L 570.049512 385.715365 
L 573.07731 382.313447 
L 576.105109 378.754174 
L 579.132908 375.051876 
L 582.160706 371.221462 
L 585.188505 367.278356 
L 588.216304 363.238434 
L 591.244102 359.117966 
L 594.271901 354.933541 
L 597.299699 350.702009 
L 600.327498 346.44041 
L 603.355297 342.165903 
L 606.383095 337.8957 
L 609.410894 333.646996 
L 612.438693 329.436898 
L 615.466491 325.282359 
L 618.49429 321.200109 
L 621.522089 317.206585 
L 624.549887 313.317867 
L 627.577686 309.549614 
L 630.605485 305.916999 
L 633.633283 302.43465 
L 636.661082 299.116589 
L 639.688881 295.976176 
L 642.716679 293.026057 
L 645.744478 290.278111 
L 648.772276 287.743403 
L 651.800075 285.432139 
L 654.827874 283.353626 
L 657.855672 281.516233 
L 660.883471 279.927359 
L 663.91127 278.593402 
L 666.939068 277.519733 
L 669.966867 276.710676 
L 672.994666 276.169487 
L 676.022464 275.898347 
L 679.050263 275.898347 
L 682.078062 276.169487 
L 685.10586 276.710676 
L 688.133659 277.519733 
L 691.161458 278.593402 
L 694.189256 279.927359 
L 697.217055 281.516233 
L 700.244853 283.353626 
L 703.272652 285.432139 
L 706.300451 287.743403 
L 709.328249 290.278111 
L 712.356048 293.026057 
L 715.383847 295.976176 
L 718.411645 299.116589 
L 721.439444 302.43465 
L 724.467243 305.916999 
L 727.495041 309.549614 
L 730.52284 313.317867 
L 733.550639 317.206585 
L 736.578437 321.200109 
L 739.606236 325.282359 
L 742.634035 329.436898 
L 745.661833 333.646996 
L 748.689632 337.8957 
L 751.717431 342.165903 
L 754.745229 346.44041 
L 757.773028 350.702009 
L 760.800826 354.933541 
L 763.828625 359.117966 
L 766.856424 363.238434 
L 769.884222 367.278356 
L 772.912021 371.221462 
L 775.93982 375.051876 
L 778.967618 378.754174 
L 781.995417 382.313447 
L 785.023216 385.715365 
L 788.051014 388.946229 
L 791.078813 391.993029 
L 794.106612 394.843496 
L 797.13441 397.486154 
L 800.162209 399.91036 
L 803.190008 402.106355 
L 806.217806 404.065294 
L 809.245605 405.77929 
L 812.273403 407.241441 
L 815.301202 408.445861 
L 818.329001 409.387698 
L 821.356799 410.063161 
L 824.384598 410.46953 
L 827.412397 410.605169 
" style="fill:none;stroke:#1f77b4;stroke-linecap:square;stroke-width:1.5;"/>
   </g>
   <g id="line2d_113">
    <path clip-path="url(#p03a7bef2c6)" d="M 682.202878 441 
L 682.202878 268.036364 
" style="fill:none;stroke:#000000;stroke-dasharray:0.74,0.32;stroke-dashoffset:0;stroke-width:0.2;"/>
   </g>
   <g id="line2d_114">
    <path clip-path="url(#p03a7bef2c6)" d="M 573.920239 441 
L 573.920239 268.036364 
" style="fill:none;stroke:#000000;stroke-dasharray:0.74,0.32;stroke-dashoffset:0;stroke-width:0.2;"/>
   </g>
   <g id="line2d_115">
    <path clip-path="url(#p03a7bef2c6)" d="M 555.69411 441 
L 555.69411 268.036364 
" style="fill:none;stroke:#000000;stroke-dasharray:0.74,0.32;stroke-dashoffset:0;stroke-width:0.2;"/>
   </g>
   <g id="line2d_116">
    <path clip-path="url(#p03a7bef2c6)" d="M 786.887494 441 
L 786.887494 268.036364 
" style="fill:none;stroke:#000000;stroke-dasharray:0.74,0.32;stroke-dashoffset:0;stroke-width:0.2;"/>
   </g>
   <g id="line2d_117">
    <path clip-path="url(#p03a7bef2c6)" d="M 627.696966 441 
L 627.696966 268.036364 
" style="fill:none;stroke:#000000;stroke-dasharray:0.74,0.32;stroke-dashoffset:0;stroke-width:0.2;"/>
   </g>
   <g id="line2d_118">
    <path clip-path="url(#p03a7bef2c6)" d="M 668.469352 441 
L 668.469352 268.036364 
" style="fill:none;stroke:#000000;stroke-dasharray:0.74,0.32;stroke-dashoffset:0;stroke-width:0.2;"/>
   </g>
   <g id="line2d_119">
    <path clip-path="url(#p03a7bef2c6)" d="M 530.6332 441 
L 530.6332 268.036364 
" style="fill:none;stroke:#000000;stroke-dasharray:0.74,0.32;stroke-dashoffset:0;stroke-width:0.2;"/>
   </g>
   <g id="line2d_120">
    <path clip-path="url(#p03a7bef2c6)" d="M 797.547194 441 
L 797.547194 268.036364 
" style="fill:none;stroke:#000000;stroke-dasharray:0.74,0.32;stroke-dashoffset:0;stroke-width:0.2;"/>
   </g>
   <g id="line2d_121">
    <path clip-path="url(#p03a7bef2c6)" d="M 560.601458 441 
L 560.601458 268.036364 
" style="fill:none;stroke:#000000;stroke-dasharray:0.74,0.32;stroke-dashoffset:0;stroke-width:0.2;"/>
   </g>
   <g id="line2d_122">
    <path clip-path="url(#p03a7bef2c6)" d="M 621.70103 441 
L 621.70103 268.036364 
" style="fill:none;stroke:#000000;stroke-dasharray:0.74,0.32;stroke-dashoffset:0;stroke-width:0.2;"/>
   </g>
   <g id="line2d_123">
    <path clip-path="url(#p03a7bef2c6)" d="M 656.084657 441 
L 656.084657 268.036364 
" style="fill:none;stroke:#000000;stroke-dasharray:0.74,0.32;stroke-dashoffset:0;stroke-width:0.2;"/>
   </g>
   <g id="line2d_124">
    <path clip-path="url(#p03a7bef2c6)" d="M 626.435631 441 
L 626.435631 268.036364 
" style="fill:none;stroke:#000000;stroke-dasharray:0.74,0.32;stroke-dashoffset:0;stroke-width:0.2;"/>
   </g>
   <g id="line2d_125">
    <path clip-path="url(#p03a7bef2c6)" d="M 527.660331 421.218622 
L 530.688129 419.351366 
L 533.715928 417.395486 
L 536.743727 415.347215 
L 539.771525 413.202747 
L 542.799324 410.958436 
L 545.827122 408.610683 
L 548.854921 406.156031 
L 551.88272 403.591336 
L 554.910518 400.91367 
L 557.938317 398.120548 
L 560.966116 395.209882 
L 563.993914 392.180194 
L 567.021713 389.030613 
L 570.049512 385.761033 
L 573.07731 382.372219 
L 576.105109 378.865873 
L 579.132908 375.244833 
L 582.160706 371.513062 
L 585.188505 367.675884 
L 588.216304 363.739974 
L 591.244102 359.713481 
L 594.271901 355.606134 
L 597.299699 351.429138 
L 600.327498 347.195444 
L 603.355297 342.919486 
L 606.383095 338.617336 
L 609.410894 334.306517 
L 612.438693 330.005985 
L 615.466491 325.735889 
L 618.49429 321.517561 
L 621.522089 317.373158 
L 624.549887 313.325523 
L 627.577686 309.397893 
L 630.605485 305.61368 
L 633.633283 301.99611 
L 636.661082 298.568004 
L 639.688881 295.35143 
L 642.716679 292.367459 
L 645.744478 289.635784 
L 648.772276 287.174579 
L 651.800075 285.000162 
L 654.827874 283.126843 
L 657.855672 281.566591 
L 660.883471 280.329071 
L 663.91127 279.421311 
L 666.939068 278.847797 
L 669.966867 278.610283 
L 672.994666 278.707858 
L 676.022464 279.136928 
L 679.050263 279.891308 
L 682.078062 280.962353 
L 685.10586 282.339057 
L 688.133659 284.008288 
L 691.161458 285.954948 
L 694.189256 288.16222 
L 697.217055 290.611825 
L 700.244853 293.284366 
L 703.272652 296.159454 
L 706.300451 299.216147 
L 709.328249 302.43313 
L 712.356048 305.789057 
L 715.383847 309.262732 
L 718.411645 312.833448 
L 721.439444 316.481115 
L 724.467243 320.18646 
L 727.495041 323.931238 
L 730.52284 327.698324 
L 733.550639 331.471823 
L 736.578437 335.237121 
L 739.606236 338.980959 
L 742.634035 342.691401 
L 745.661833 346.357857 
L 748.689632 349.971103 
L 751.717431 353.523078 
L 754.745229 357.007023 
L 757.773028 360.41723 
L 760.800826 363.749095 
L 763.828625 366.998952 
L 766.856424 370.163984 
L 769.884222 373.242236 
L 772.912021 376.232403 
L 775.93982 379.133785 
L 778.967618 381.946266 
L 781.995417 384.670171 
L 785.023216 387.306219 
L 788.051014 389.855502 
L 791.078813 392.319346 
L 794.106612 394.699312 
L 797.13441 396.997144 
L 800.162209 399.214764 
L 803.190008 401.354148 
L 806.217806 403.417372 
L 809.245605 405.406574 
L 812.273403 407.323928 
L 815.301202 409.171564 
L 818.329001 410.951666 
L 821.356799 412.666386 
L 824.384598 414.317844 
L 827.412397 415.908105 
" style="fill:none;stroke:#ff7f0e;stroke-linecap:square;stroke-width:1.5;"/>
   </g>
   <g id="line2d_126">
    <path clip-path="url(#p03a7bef2c6)" d="M 527.660331 419.014619 
L 530.688129 417.46241 
L 533.715928 415.798182 
L 536.743727 414.017277 
L 539.771525 412.115238 
L 542.799324 410.087929 
L 545.827122 407.931486 
L 548.854921 405.642518 
L 551.88272 403.218111 
L 554.910518 400.65593 
L 557.938317 397.954347 
L 560.966116 395.112476 
L 563.993914 392.130361 
L 567.021713 389.008912 
L 570.049512 385.750135 
L 573.07731 382.357161 
L 576.105109 378.83429 
L 579.132908 375.187138 
L 582.160706 371.422561 
L 585.188505 367.548806 
L 588.216304 363.575461 
L 591.244102 359.513498 
L 594.271901 355.375177 
L 597.299699 351.174147 
L 600.327498 346.925256 
L 603.355297 342.644488 
L 606.383095 338.348907 
L 609.410894 334.056561 
L 612.438693 329.786216 
L 615.466491 325.55739 
L 618.49429 321.390042 
L 621.522089 317.304495 
L 624.549887 313.321101 
L 627.577686 309.460331 
L 630.605485 305.742243 
L 633.633283 302.186589 
L 636.661082 298.812428 
L 639.688881 295.637946 
L 642.716679 292.680382 
L 645.744478 289.95575 
L 648.772276 287.478679 
L 651.800075 285.262212 
L 654.827874 283.317792 
L 657.855672 281.654938 
L 660.883471 280.281261 
L 663.91127 279.202329 
L 666.939068 278.421659 
L 669.966867 277.940544 
L 672.994666 277.75826 
L 676.022464 277.871861 
L 679.050263 278.276504 
L 682.078062 278.965346 
L 685.10586 279.929833 
L 688.133659 281.159792 
L 691.161458 282.643712 
L 694.189256 284.368856 
L 697.217055 286.321708 
L 700.244853 288.487933 
L 703.272652 290.852896 
L 706.300451 293.401798 
L 709.328249 296.119744 
L 712.356048 298.99221 
L 715.383847 302.004993 
L 718.411645 305.144447 
L 721.439444 308.397466 
L 724.467243 311.751722 
L 727.495041 315.195473 
L 730.52284 318.71787 
L 733.550639 322.308615 
L 736.578437 325.958174 
L 739.606236 329.657612 
L 742.634035 333.398618 
L 745.661833 337.173474 
L 748.689632 340.974864 
L 751.717431 344.796025 
L 754.745229 348.630488 
L 757.773028 352.472265 
L 760.800826 356.315673 
L 763.828625 360.155306 
L 766.856424 363.986059 
L 769.884222 367.803154 
L 772.912021 371.602015 
L 775.93982 375.378416 
L 778.967618 379.128231 
L 781.995417 382.847697 
L 785.023216 386.533223 
L 788.051014 390.181592 
L 791.078813 393.789637 
L 794.106612 397.354547 
L 797.13441 400.873735 
L 800.162209 404.344853 
L 803.190008 407.765743 
L 806.217806 411.134471 
L 809.245605 414.449346 
L 812.273403 417.708927 
L 815.301202 420.911855 
L 818.329001 424.057048 
L 821.356799 427.143596 
L 824.384598 430.170787 
L 827.412397 433.138017 
" style="fill:none;stroke:#2ca02c;stroke-linecap:square;stroke-width:1.5;"/>
   </g>
   <g id="patch_21">
    <path d="M 512.672727 441 
L 512.672727 268.036364 
" style="fill:none;stroke:#000000;stroke-linecap:square;stroke-linejoin:miter;stroke-width:0.8;"/>
   </g>
   <g id="patch_22">
    <path d="M 842.4 441 
L 842.4 268.036364 
" style="fill:none;stroke:#000000;stroke-linecap:square;stroke-linejoin:miter;stroke-width:0.8;"/>
   </g>
   <g id="patch_23">
    <path d="M 512.672727 441 
L 842.4 441 
" style="fill:none;stroke:#000000;stroke-linecap:square;stroke-linejoin:miter;stroke-width:0.8;"/>
   </g>
   <g id="patch_24">
    <path d="M 512.672727 268.036364 
L 842.4 268.036364 
" style="fill:none;stroke:#000000;stroke-linecap:square;stroke-linejoin:miter;stroke-width:0.8;"/>
   </g>
   <g id="legend_4">
    <g id="patch_25">
     <path d="M 622.773082 436 
L 732.299645 436 
Q 734.299645 436 734.299645 434 
L 734.299645 390.965625 
Q 734.299645 388.965625 732.299645 388.965625 
L 622.773082 388.965625 
Q 620.773082 388.965625 620.773082 390.965625 
L 620.773082 434 
Q 620.773082 436 622.773082 436 
z
" style="fill:#ffffff;opacity:0.8;stroke:#cccccc;stroke-linejoin:miter;"/>
    </g>
    <g id="line2d_127">
     <path d="M 624.773082 397.064062 
L 644.773082 397.064062 
" style="fill:none;stroke:#1f77b4;stroke-linecap:square;stroke-width:1.5;"/>
    </g>
    <g id="line2d_128"/>
    <g id="text_58">
     <!-- cos -->
     <g transform="translate(652.773082 400.564062)scale(0.1 -0.1)">
      <use xlink:href="#DejaVuSans-99"/>
      <use x="54.980469" xlink:href="#DejaVuSans-111"/>
      <use x="116.162109" xlink:href="#DejaVuSans-115"/>
     </g>
    </g>
    <g id="line2d_129">
     <path d="M 624.773082 411.742187 
L 644.773082 411.742187 
" style="fill:none;stroke:#ff7f0e;stroke-linecap:square;stroke-width:1.5;"/>
    </g>
    <g id="line2d_130"/>
    <g id="text_59">
     <!-- Original model -->
     <g transform="translate(652.773082 415.242187)scale(0.1 -0.1)">
      <use xlink:href="#DejaVuSans-79"/>
      <use x="78.710938" xlink:href="#DejaVuSans-114"/>
      <use x="119.824219" xlink:href="#DejaVuSans-105"/>
      <use x="147.607422" xlink:href="#DejaVuSans-103"/>
      <use x="211.083984" xlink:href="#DejaVuSans-105"/>
      <use x="238.867188" xlink:href="#DejaVuSans-110"/>
      <use x="302.246094" xlink:href="#DejaVuSans-97"/>
      <use x="363.525391" xlink:href="#DejaVuSans-108"/>
      <use x="391.308594" xlink:href="#DejaVuSans-32"/>
      <use x="423.095703" xlink:href="#DejaVuSans-109"/>
      <use x="520.507812" xlink:href="#DejaVuSans-111"/>
      <use x="581.689453" xlink:href="#DejaVuSans-100"/>
      <use x="645.166016" xlink:href="#DejaVuSans-101"/>
      <use x="706.689453" xlink:href="#DejaVuSans-108"/>
     </g>
    </g>
    <g id="line2d_131">
     <path d="M 624.773082 426.420312 
L 644.773082 426.420312 
" style="fill:none;stroke:#2ca02c;stroke-linecap:square;stroke-width:1.5;"/>
    </g>
    <g id="line2d_132"/>
    <g id="text_60">
     <!-- Shared weights -->
     <g transform="translate(652.773082 429.920312)scale(0.1 -0.1)">
      <use xlink:href="#DejaVuSans-83"/>
      <use x="63.476562" xlink:href="#DejaVuSans-104"/>
      <use x="126.855469" xlink:href="#DejaVuSans-97"/>
      <use x="188.134766" xlink:href="#DejaVuSans-114"/>
      <use x="229.216797" xlink:href="#DejaVuSans-101"/>
      <use x="290.740234" xlink:href="#DejaVuSans-100"/>
      <use x="354.216797" xlink:href="#DejaVuSans-32"/>
      <use x="386.003906" xlink:href="#DejaVuSans-119"/>
      <use x="467.791016" xlink:href="#DejaVuSans-101"/>
      <use x="529.314453" xlink:href="#DejaVuSans-105"/>
      <use x="557.097656" xlink:href="#DejaVuSans-103"/>
      <use x="620.574219" xlink:href="#DejaVuSans-104"/>
      <use x="683.953125" xlink:href="#DejaVuSans-116"/>
      <use x="723.162109" xlink:href="#DejaVuSans-115"/>
     </g>
    </g>
   </g>
  </g>
 </g>
 <defs>
  <clipPath id="pfcf233e894">
   <rect height="172.963636" width="329.727273" x="117" y="60.48"/>
  </clipPath>
  <clipPath id="p1b3d5665cb">
   <rect height="172.963636" width="329.727273" x="512.672727" y="60.48"/>
  </clipPath>
  <clipPath id="p7f0ace3208">
   <rect height="172.963636" width="329.727273" x="117" y="268.036364"/>
  </clipPath>
  <clipPath id="p03a7bef2c6">
   <rect height="172.963636" width="329.727273" x="512.672727" y="268.036364"/>
  </clipPath>
 </defs>
</svg>
