<?xml version="1.0" encoding="utf-8" standalone="no"?>
<!DOCTYPE svg PUBLIC "-//W3C//DTD SVG 1.1//EN"
  "http://www.w3.org/Graphics/SVG/1.1/DTD/svg11.dtd">
<!-- Created with matplotlib (https://matplotlib.org/) -->
<svg height="504pt" version="1.1" viewBox="0 0 936 504" width="936pt" xmlns="http://www.w3.org/2000/svg" xmlns:xlink="http://www.w3.org/1999/xlink">
 <defs>
  <style type="text/css">
*{stroke-linecap:butt;stroke-linejoin:round;}
  </style>
 </defs>
 <g id="figure_1">
  <g id="patch_1">
   <path d="M 0 504 
L 936 504 
L 936 0 
L 0 0 
z
" style="fill:#ffffff;"/>
  </g>
  <g id="axes_1">
   <g id="patch_2">
    <path d="M 117 441 
L 842.4 441 
L 842.4 60.48 
L 117 60.48 
z
" style="fill:#ffffff;"/>
   </g>
   <g id="matplotlib.axis_1">
    <g id="xtick_1">
     <g id="line2d_1">
      <defs>
       <path d="M 0 0 
L 0 3.5 
" id="m13e28379e0" style="stroke:#000000;stroke-width:0.8;"/>
      </defs>
      <g>
       <use style="stroke:#000000;stroke-width:0.8;" x="161.65318" xlink:href="#m13e28379e0" y="441"/>
      </g>
     </g>
     <g id="text_1">
      <!-- −3 -->
      <defs>
       <path d="M 10.59375 35.5 
L 73.1875 35.5 
L 73.1875 27.203125 
L 10.59375 27.203125 
z
" id="DejaVuSans-8722"/>
       <path d="M 40.578125 39.3125 
Q 47.65625 37.796875 51.625 33 
Q 55.609375 28.21875 55.609375 21.1875 
Q 55.609375 10.40625 48.1875 4.484375 
Q 40.765625 -1.421875 27.09375 -1.421875 
Q 22.515625 -1.421875 17.65625 -0.515625 
Q 12.796875 0.390625 7.625 2.203125 
L 7.625 11.71875 
Q 11.71875 9.328125 16.59375 8.109375 
Q 21.484375 6.890625 26.8125 6.890625 
Q 36.078125 6.890625 40.9375 10.546875 
Q 45.796875 14.203125 45.796875 21.1875 
Q 45.796875 27.640625 41.28125 31.265625 
Q 36.765625 34.90625 28.71875 34.90625 
L 20.21875 34.90625 
L 20.21875 43.015625 
L 29.109375 43.015625 
Q 36.375 43.015625 40.234375 45.921875 
Q 44.09375 48.828125 44.09375 54.296875 
Q 44.09375 59.90625 40.109375 62.90625 
Q 36.140625 65.921875 28.71875 65.921875 
Q 24.65625 65.921875 20.015625 65.03125 
Q 15.375 64.15625 9.8125 62.3125 
L 9.8125 71.09375 
Q 15.4375 72.65625 20.34375 73.4375 
Q 25.25 74.21875 29.59375 74.21875 
Q 40.828125 74.21875 47.359375 69.109375 
Q 53.90625 64.015625 53.90625 55.328125 
Q 53.90625 49.265625 50.4375 45.09375 
Q 46.96875 40.921875 40.578125 39.3125 
z
" id="DejaVuSans-51"/>
      </defs>
      <g transform="translate(154.282086 455.598437)scale(0.1 -0.1)">
       <use xlink:href="#DejaVuSans-8722"/>
       <use x="83.789062" xlink:href="#DejaVuSans-51"/>
      </g>
     </g>
    </g>
    <g id="xtick_2">
     <g id="line2d_2">
      <g>
       <use style="stroke:#000000;stroke-width:0.8;" x="267.668787" xlink:href="#m13e28379e0" y="441"/>
      </g>
     </g>
     <g id="text_2">
      <!-- −2 -->
      <defs>
       <path d="M 19.1875 8.296875 
L 53.609375 8.296875 
L 53.609375 0 
L 7.328125 0 
L 7.328125 8.296875 
Q 12.9375 14.109375 22.625 23.890625 
Q 32.328125 33.6875 34.8125 36.53125 
Q 39.546875 41.84375 41.421875 45.53125 
Q 43.3125 49.21875 43.3125 52.78125 
Q 43.3125 58.59375 39.234375 62.25 
Q 35.15625 65.921875 28.609375 65.921875 
Q 23.96875 65.921875 18.8125 64.3125 
Q 13.671875 62.703125 7.8125 59.421875 
L 7.8125 69.390625 
Q 13.765625 71.78125 18.9375 73 
Q 24.125 74.21875 28.421875 74.21875 
Q 39.75 74.21875 46.484375 68.546875 
Q 53.21875 62.890625 53.21875 53.421875 
Q 53.21875 48.921875 51.53125 44.890625 
Q 49.859375 40.875 45.40625 35.40625 
Q 44.1875 33.984375 37.640625 27.21875 
Q 31.109375 20.453125 19.1875 8.296875 
z
" id="DejaVuSans-50"/>
      </defs>
      <g transform="translate(260.297693 455.598437)scale(0.1 -0.1)">
       <use xlink:href="#DejaVuSans-8722"/>
       <use x="83.789062" xlink:href="#DejaVuSans-50"/>
      </g>
     </g>
    </g>
    <g id="xtick_3">
     <g id="line2d_3">
      <g>
       <use style="stroke:#000000;stroke-width:0.8;" x="373.684393" xlink:href="#m13e28379e0" y="441"/>
      </g>
     </g>
     <g id="text_3">
      <!-- −1 -->
      <defs>
       <path d="M 12.40625 8.296875 
L 28.515625 8.296875 
L 28.515625 63.921875 
L 10.984375 60.40625 
L 10.984375 69.390625 
L 28.421875 72.90625 
L 38.28125 72.90625 
L 38.28125 8.296875 
L 54.390625 8.296875 
L 54.390625 0 
L 12.40625 0 
z
" id="DejaVuSans-49"/>
      </defs>
      <g transform="translate(366.3133 455.598437)scale(0.1 -0.1)">
       <use xlink:href="#DejaVuSans-8722"/>
       <use x="83.789062" xlink:href="#DejaVuSans-49"/>
      </g>
     </g>
    </g>
    <g id="xtick_4">
     <g id="line2d_4">
      <g>
       <use style="stroke:#000000;stroke-width:0.8;" x="479.7" xlink:href="#m13e28379e0" y="441"/>
      </g>
     </g>
     <g id="text_4">
      <!-- 0 -->
      <defs>
       <path d="M 31.78125 66.40625 
Q 24.171875 66.40625 20.328125 58.90625 
Q 16.5 51.421875 16.5 36.375 
Q 16.5 21.390625 20.328125 13.890625 
Q 24.171875 6.390625 31.78125 6.390625 
Q 39.453125 6.390625 43.28125 13.890625 
Q 47.125 21.390625 47.125 36.375 
Q 47.125 51.421875 43.28125 58.90625 
Q 39.453125 66.40625 31.78125 66.40625 
z
M 31.78125 74.21875 
Q 44.046875 74.21875 50.515625 64.515625 
Q 56.984375 54.828125 56.984375 36.375 
Q 56.984375 17.96875 50.515625 8.265625 
Q 44.046875 -1.421875 31.78125 -1.421875 
Q 19.53125 -1.421875 13.0625 8.265625 
Q 6.59375 17.96875 6.59375 36.375 
Q 6.59375 54.828125 13.0625 64.515625 
Q 19.53125 74.21875 31.78125 74.21875 
z
" id="DejaVuSans-48"/>
      </defs>
      <g transform="translate(476.51875 455.598437)scale(0.1 -0.1)">
       <use xlink:href="#DejaVuSans-48"/>
      </g>
     </g>
    </g>
    <g id="xtick_5">
     <g id="line2d_5">
      <g>
       <use style="stroke:#000000;stroke-width:0.8;" x="585.715607" xlink:href="#m13e28379e0" y="441"/>
      </g>
     </g>
     <g id="text_5">
      <!-- 1 -->
      <g transform="translate(582.534357 455.598437)scale(0.1 -0.1)">
       <use xlink:href="#DejaVuSans-49"/>
      </g>
     </g>
    </g>
    <g id="xtick_6">
     <g id="line2d_6">
      <g>
       <use style="stroke:#000000;stroke-width:0.8;" x="691.731213" xlink:href="#m13e28379e0" y="441"/>
      </g>
     </g>
     <g id="text_6">
      <!-- 2 -->
      <g transform="translate(688.549963 455.598437)scale(0.1 -0.1)">
       <use xlink:href="#DejaVuSans-50"/>
      </g>
     </g>
    </g>
    <g id="xtick_7">
     <g id="line2d_7">
      <g>
       <use style="stroke:#000000;stroke-width:0.8;" x="797.74682" xlink:href="#m13e28379e0" y="441"/>
      </g>
     </g>
     <g id="text_7">
      <!-- 3 -->
      <g transform="translate(794.56557 455.598437)scale(0.1 -0.1)">
       <use xlink:href="#DejaVuSans-51"/>
      </g>
     </g>
    </g>
    <g id="text_8">
     <!-- Alpha -->
     <defs>
      <path d="M 34.1875 63.1875 
L 20.796875 26.90625 
L 47.609375 26.90625 
z
M 28.609375 72.90625 
L 39.796875 72.90625 
L 67.578125 0 
L 57.328125 0 
L 50.6875 18.703125 
L 17.828125 18.703125 
L 11.1875 0 
L 0.78125 0 
z
" id="DejaVuSans-65"/>
      <path d="M 9.421875 75.984375 
L 18.40625 75.984375 
L 18.40625 0 
L 9.421875 0 
z
" id="DejaVuSans-108"/>
      <path d="M 18.109375 8.203125 
L 18.109375 -20.796875 
L 9.078125 -20.796875 
L 9.078125 54.6875 
L 18.109375 54.6875 
L 18.109375 46.390625 
Q 20.953125 51.265625 25.265625 53.625 
Q 29.59375 56 35.59375 56 
Q 45.5625 56 51.78125 48.09375 
Q 58.015625 40.1875 58.015625 27.296875 
Q 58.015625 14.40625 51.78125 6.484375 
Q 45.5625 -1.421875 35.59375 -1.421875 
Q 29.59375 -1.421875 25.265625 0.953125 
Q 20.953125 3.328125 18.109375 8.203125 
z
M 48.6875 27.296875 
Q 48.6875 37.203125 44.609375 42.84375 
Q 40.53125 48.484375 33.40625 48.484375 
Q 26.265625 48.484375 22.1875 42.84375 
Q 18.109375 37.203125 18.109375 27.296875 
Q 18.109375 17.390625 22.1875 11.75 
Q 26.265625 6.109375 33.40625 6.109375 
Q 40.53125 6.109375 44.609375 11.75 
Q 48.6875 17.390625 48.6875 27.296875 
z
" id="DejaVuSans-112"/>
      <path d="M 54.890625 33.015625 
L 54.890625 0 
L 45.90625 0 
L 45.90625 32.71875 
Q 45.90625 40.484375 42.875 44.328125 
Q 39.84375 48.1875 33.796875 48.1875 
Q 26.515625 48.1875 22.3125 43.546875 
Q 18.109375 38.921875 18.109375 30.90625 
L 18.109375 0 
L 9.078125 0 
L 9.078125 75.984375 
L 18.109375 75.984375 
L 18.109375 46.1875 
Q 21.34375 51.125 25.703125 53.5625 
Q 30.078125 56 35.796875 56 
Q 45.21875 56 50.046875 50.171875 
Q 54.890625 44.34375 54.890625 33.015625 
z
" id="DejaVuSans-104"/>
      <path d="M 34.28125 27.484375 
Q 23.390625 27.484375 19.1875 25 
Q 14.984375 22.515625 14.984375 16.5 
Q 14.984375 11.71875 18.140625 8.90625 
Q 21.296875 6.109375 26.703125 6.109375 
Q 34.1875 6.109375 38.703125 11.40625 
Q 43.21875 16.703125 43.21875 25.484375 
L 43.21875 27.484375 
z
M 52.203125 31.203125 
L 52.203125 0 
L 43.21875 0 
L 43.21875 8.296875 
Q 40.140625 3.328125 35.546875 0.953125 
Q 30.953125 -1.421875 24.3125 -1.421875 
Q 15.921875 -1.421875 10.953125 3.296875 
Q 6 8.015625 6 15.921875 
Q 6 25.140625 12.171875 29.828125 
Q 18.359375 34.515625 30.609375 34.515625 
L 43.21875 34.515625 
L 43.21875 35.40625 
Q 43.21875 41.609375 39.140625 45 
Q 35.0625 48.390625 27.6875 48.390625 
Q 23 48.390625 18.546875 47.265625 
Q 14.109375 46.140625 10.015625 43.890625 
L 10.015625 52.203125 
Q 14.9375 54.109375 19.578125 55.046875 
Q 24.21875 56 28.609375 56 
Q 40.484375 56 46.34375 49.84375 
Q 52.203125 43.703125 52.203125 31.203125 
z
" id="DejaVuSans-97"/>
     </defs>
     <g transform="translate(465.483594 469.276563)scale(0.1 -0.1)">
      <use xlink:href="#DejaVuSans-65"/>
      <use x="68.408203" xlink:href="#DejaVuSans-108"/>
      <use x="96.191406" xlink:href="#DejaVuSans-112"/>
      <use x="159.667969" xlink:href="#DejaVuSans-104"/>
      <use x="223.046875" xlink:href="#DejaVuSans-97"/>
     </g>
    </g>
   </g>
   <g id="matplotlib.axis_2">
    <g id="ytick_1">
     <g id="line2d_8">
      <defs>
       <path d="M 0 0 
L -3.5 0 
" id="m8ffeb1a65a" style="stroke:#000000;stroke-width:0.8;"/>
      </defs>
      <g>
       <use style="stroke:#000000;stroke-width:0.8;" x="117" xlink:href="#m8ffeb1a65a" y="375.990625"/>
      </g>
     </g>
     <g id="text_9">
      <!-- 1 -->
      <g transform="translate(103.6375 379.789843)scale(0.1 -0.1)">
       <use xlink:href="#DejaVuSans-49"/>
      </g>
     </g>
    </g>
    <g id="ytick_2">
     <g id="line2d_9">
      <g>
       <use style="stroke:#000000;stroke-width:0.8;" x="117" xlink:href="#m8ffeb1a65a" y="308.400481"/>
      </g>
     </g>
     <g id="text_10">
      <!-- 2 -->
      <g transform="translate(103.6375 312.1997)scale(0.1 -0.1)">
       <use xlink:href="#DejaVuSans-50"/>
      </g>
     </g>
    </g>
    <g id="ytick_3">
     <g id="line2d_10">
      <g>
       <use style="stroke:#000000;stroke-width:0.8;" x="117" xlink:href="#m8ffeb1a65a" y="240.810337"/>
      </g>
     </g>
     <g id="text_11">
      <!-- 3 -->
      <g transform="translate(103.6375 244.609556)scale(0.1 -0.1)">
       <use xlink:href="#DejaVuSans-51"/>
      </g>
     </g>
    </g>
    <g id="ytick_4">
     <g id="line2d_11">
      <g>
       <use style="stroke:#000000;stroke-width:0.8;" x="117" xlink:href="#m8ffeb1a65a" y="173.220193"/>
      </g>
     </g>
     <g id="text_12">
      <!-- 4 -->
      <defs>
       <path d="M 37.796875 64.3125 
L 12.890625 25.390625 
L 37.796875 25.390625 
z
M 35.203125 72.90625 
L 47.609375 72.90625 
L 47.609375 25.390625 
L 58.015625 25.390625 
L 58.015625 17.1875 
L 47.609375 17.1875 
L 47.609375 0 
L 37.796875 0 
L 37.796875 17.1875 
L 4.890625 17.1875 
L 4.890625 26.703125 
z
" id="DejaVuSans-52"/>
      </defs>
      <g transform="translate(103.6375 177.019412)scale(0.1 -0.1)">
       <use xlink:href="#DejaVuSans-52"/>
      </g>
     </g>
    </g>
    <g id="ytick_5">
     <g id="line2d_12">
      <g>
       <use style="stroke:#000000;stroke-width:0.8;" x="117" xlink:href="#m8ffeb1a65a" y="105.630049"/>
      </g>
     </g>
     <g id="text_13">
      <!-- 5 -->
      <defs>
       <path d="M 10.796875 72.90625 
L 49.515625 72.90625 
L 49.515625 64.59375 
L 19.828125 64.59375 
L 19.828125 46.734375 
Q 21.96875 47.46875 24.109375 47.828125 
Q 26.265625 48.1875 28.421875 48.1875 
Q 40.625 48.1875 47.75 41.5 
Q 54.890625 34.8125 54.890625 23.390625 
Q 54.890625 11.625 47.5625 5.09375 
Q 40.234375 -1.421875 26.90625 -1.421875 
Q 22.3125 -1.421875 17.546875 -0.640625 
Q 12.796875 0.140625 7.71875 1.703125 
L 7.71875 11.625 
Q 12.109375 9.234375 16.796875 8.0625 
Q 21.484375 6.890625 26.703125 6.890625 
Q 35.15625 6.890625 40.078125 11.328125 
Q 45.015625 15.765625 45.015625 23.390625 
Q 45.015625 31 40.078125 35.4375 
Q 35.15625 39.890625 26.703125 39.890625 
Q 22.75 39.890625 18.8125 39.015625 
Q 14.890625 38.140625 10.796875 36.28125 
z
" id="DejaVuSans-53"/>
      </defs>
      <g transform="translate(103.6375 109.429268)scale(0.1 -0.1)">
       <use xlink:href="#DejaVuSans-53"/>
      </g>
     </g>
    </g>
    <g id="text_14">
     <!-- Norm, Determinant, MSE Loss -->
     <defs>
      <path d="M 9.8125 72.90625 
L 23.09375 72.90625 
L 55.421875 11.921875 
L 55.421875 72.90625 
L 64.984375 72.90625 
L 64.984375 0 
L 51.703125 0 
L 19.390625 60.984375 
L 19.390625 0 
L 9.8125 0 
z
" id="DejaVuSans-78"/>
      <path d="M 30.609375 48.390625 
Q 23.390625 48.390625 19.1875 42.75 
Q 14.984375 37.109375 14.984375 27.296875 
Q 14.984375 17.484375 19.15625 11.84375 
Q 23.34375 6.203125 30.609375 6.203125 
Q 37.796875 6.203125 41.984375 11.859375 
Q 46.1875 17.53125 46.1875 27.296875 
Q 46.1875 37.015625 41.984375 42.703125 
Q 37.796875 48.390625 30.609375 48.390625 
z
M 30.609375 56 
Q 42.328125 56 49.015625 48.375 
Q 55.71875 40.765625 55.71875 27.296875 
Q 55.71875 13.875 49.015625 6.21875 
Q 42.328125 -1.421875 30.609375 -1.421875 
Q 18.84375 -1.421875 12.171875 6.21875 
Q 5.515625 13.875 5.515625 27.296875 
Q 5.515625 40.765625 12.171875 48.375 
Q 18.84375 56 30.609375 56 
z
" id="DejaVuSans-111"/>
      <path d="M 41.109375 46.296875 
Q 39.59375 47.171875 37.8125 47.578125 
Q 36.03125 48 33.890625 48 
Q 26.265625 48 22.1875 43.046875 
Q 18.109375 38.09375 18.109375 28.8125 
L 18.109375 0 
L 9.078125 0 
L 9.078125 54.6875 
L 18.109375 54.6875 
L 18.109375 46.1875 
Q 20.953125 51.171875 25.484375 53.578125 
Q 30.03125 56 36.53125 56 
Q 37.453125 56 38.578125 55.875 
Q 39.703125 55.765625 41.0625 55.515625 
z
" id="DejaVuSans-114"/>
      <path d="M 52 44.1875 
Q 55.375 50.25 60.0625 53.125 
Q 64.75 56 71.09375 56 
Q 79.640625 56 84.28125 50.015625 
Q 88.921875 44.046875 88.921875 33.015625 
L 88.921875 0 
L 79.890625 0 
L 79.890625 32.71875 
Q 79.890625 40.578125 77.09375 44.375 
Q 74.3125 48.1875 68.609375 48.1875 
Q 61.625 48.1875 57.5625 43.546875 
Q 53.515625 38.921875 53.515625 30.90625 
L 53.515625 0 
L 44.484375 0 
L 44.484375 32.71875 
Q 44.484375 40.625 41.703125 44.40625 
Q 38.921875 48.1875 33.109375 48.1875 
Q 26.21875 48.1875 22.15625 43.53125 
Q 18.109375 38.875 18.109375 30.90625 
L 18.109375 0 
L 9.078125 0 
L 9.078125 54.6875 
L 18.109375 54.6875 
L 18.109375 46.1875 
Q 21.1875 51.21875 25.484375 53.609375 
Q 29.78125 56 35.6875 56 
Q 41.65625 56 45.828125 52.96875 
Q 50 49.953125 52 44.1875 
z
" id="DejaVuSans-109"/>
      <path d="M 11.71875 12.40625 
L 22.015625 12.40625 
L 22.015625 4 
L 14.015625 -11.625 
L 7.71875 -11.625 
L 11.71875 4 
z
" id="DejaVuSans-44"/>
      <path id="DejaVuSans-32"/>
      <path d="M 19.671875 64.796875 
L 19.671875 8.109375 
L 31.59375 8.109375 
Q 46.6875 8.109375 53.6875 14.9375 
Q 60.6875 21.78125 60.6875 36.53125 
Q 60.6875 51.171875 53.6875 57.984375 
Q 46.6875 64.796875 31.59375 64.796875 
z
M 9.8125 72.90625 
L 30.078125 72.90625 
Q 51.265625 72.90625 61.171875 64.09375 
Q 71.09375 55.28125 71.09375 36.53125 
Q 71.09375 17.671875 61.125 8.828125 
Q 51.171875 0 30.078125 0 
L 9.8125 0 
z
" id="DejaVuSans-68"/>
      <path d="M 56.203125 29.59375 
L 56.203125 25.203125 
L 14.890625 25.203125 
Q 15.484375 15.921875 20.484375 11.0625 
Q 25.484375 6.203125 34.421875 6.203125 
Q 39.59375 6.203125 44.453125 7.46875 
Q 49.3125 8.734375 54.109375 11.28125 
L 54.109375 2.78125 
Q 49.265625 0.734375 44.1875 -0.34375 
Q 39.109375 -1.421875 33.890625 -1.421875 
Q 20.796875 -1.421875 13.15625 6.1875 
Q 5.515625 13.8125 5.515625 26.8125 
Q 5.515625 40.234375 12.765625 48.109375 
Q 20.015625 56 32.328125 56 
Q 43.359375 56 49.78125 48.890625 
Q 56.203125 41.796875 56.203125 29.59375 
z
M 47.21875 32.234375 
Q 47.125 39.59375 43.09375 43.984375 
Q 39.0625 48.390625 32.421875 48.390625 
Q 24.90625 48.390625 20.390625 44.140625 
Q 15.875 39.890625 15.1875 32.171875 
z
" id="DejaVuSans-101"/>
      <path d="M 18.3125 70.21875 
L 18.3125 54.6875 
L 36.8125 54.6875 
L 36.8125 47.703125 
L 18.3125 47.703125 
L 18.3125 18.015625 
Q 18.3125 11.328125 20.140625 9.421875 
Q 21.96875 7.515625 27.59375 7.515625 
L 36.8125 7.515625 
L 36.8125 0 
L 27.59375 0 
Q 17.1875 0 13.234375 3.875 
Q 9.28125 7.765625 9.28125 18.015625 
L 9.28125 47.703125 
L 2.6875 47.703125 
L 2.6875 54.6875 
L 9.28125 54.6875 
L 9.28125 70.21875 
z
" id="DejaVuSans-116"/>
      <path d="M 9.421875 54.6875 
L 18.40625 54.6875 
L 18.40625 0 
L 9.421875 0 
z
M 9.421875 75.984375 
L 18.40625 75.984375 
L 18.40625 64.59375 
L 9.421875 64.59375 
z
" id="DejaVuSans-105"/>
      <path d="M 54.890625 33.015625 
L 54.890625 0 
L 45.90625 0 
L 45.90625 32.71875 
Q 45.90625 40.484375 42.875 44.328125 
Q 39.84375 48.1875 33.796875 48.1875 
Q 26.515625 48.1875 22.3125 43.546875 
Q 18.109375 38.921875 18.109375 30.90625 
L 18.109375 0 
L 9.078125 0 
L 9.078125 54.6875 
L 18.109375 54.6875 
L 18.109375 46.1875 
Q 21.34375 51.125 25.703125 53.5625 
Q 30.078125 56 35.796875 56 
Q 45.21875 56 50.046875 50.171875 
Q 54.890625 44.34375 54.890625 33.015625 
z
" id="DejaVuSans-110"/>
      <path d="M 9.8125 72.90625 
L 24.515625 72.90625 
L 43.109375 23.296875 
L 61.8125 72.90625 
L 76.515625 72.90625 
L 76.515625 0 
L 66.890625 0 
L 66.890625 64.015625 
L 48.09375 14.015625 
L 38.1875 14.015625 
L 19.390625 64.015625 
L 19.390625 0 
L 9.8125 0 
z
" id="DejaVuSans-77"/>
      <path d="M 53.515625 70.515625 
L 53.515625 60.890625 
Q 47.90625 63.578125 42.921875 64.890625 
Q 37.9375 66.21875 33.296875 66.21875 
Q 25.25 66.21875 20.875 63.09375 
Q 16.5 59.96875 16.5 54.203125 
Q 16.5 49.359375 19.40625 46.890625 
Q 22.3125 44.4375 30.421875 42.921875 
L 36.375 41.703125 
Q 47.40625 39.59375 52.65625 34.296875 
Q 57.90625 29 57.90625 20.125 
Q 57.90625 9.515625 50.796875 4.046875 
Q 43.703125 -1.421875 29.984375 -1.421875 
Q 24.8125 -1.421875 18.96875 -0.25 
Q 13.140625 0.921875 6.890625 3.21875 
L 6.890625 13.375 
Q 12.890625 10.015625 18.65625 8.296875 
Q 24.421875 6.59375 29.984375 6.59375 
Q 38.421875 6.59375 43.015625 9.90625 
Q 47.609375 13.234375 47.609375 19.390625 
Q 47.609375 24.75 44.3125 27.78125 
Q 41.015625 30.8125 33.5 32.328125 
L 27.484375 33.5 
Q 16.453125 35.6875 11.515625 40.375 
Q 6.59375 45.0625 6.59375 53.421875 
Q 6.59375 63.09375 13.40625 68.65625 
Q 20.21875 74.21875 32.171875 74.21875 
Q 37.3125 74.21875 42.625 73.28125 
Q 47.953125 72.359375 53.515625 70.515625 
z
" id="DejaVuSans-83"/>
      <path d="M 9.8125 72.90625 
L 55.90625 72.90625 
L 55.90625 64.59375 
L 19.671875 64.59375 
L 19.671875 43.015625 
L 54.390625 43.015625 
L 54.390625 34.71875 
L 19.671875 34.71875 
L 19.671875 8.296875 
L 56.78125 8.296875 
L 56.78125 0 
L 9.8125 0 
z
" id="DejaVuSans-69"/>
      <path d="M 9.8125 72.90625 
L 19.671875 72.90625 
L 19.671875 8.296875 
L 55.171875 8.296875 
L 55.171875 0 
L 9.8125 0 
z
" id="DejaVuSans-76"/>
      <path d="M 44.28125 53.078125 
L 44.28125 44.578125 
Q 40.484375 46.53125 36.375 47.5 
Q 32.28125 48.484375 27.875 48.484375 
Q 21.1875 48.484375 17.84375 46.4375 
Q 14.5 44.390625 14.5 40.28125 
Q 14.5 37.15625 16.890625 35.375 
Q 19.28125 33.59375 26.515625 31.984375 
L 29.59375 31.296875 
Q 39.15625 29.25 43.1875 25.515625 
Q 47.21875 21.78125 47.21875 15.09375 
Q 47.21875 7.46875 41.1875 3.015625 
Q 35.15625 -1.421875 24.609375 -1.421875 
Q 20.21875 -1.421875 15.453125 -0.5625 
Q 10.6875 0.296875 5.421875 2 
L 5.421875 11.28125 
Q 10.40625 8.6875 15.234375 7.390625 
Q 20.0625 6.109375 24.8125 6.109375 
Q 31.15625 6.109375 34.5625 8.28125 
Q 37.984375 10.453125 37.984375 14.40625 
Q 37.984375 18.0625 35.515625 20.015625 
Q 33.0625 21.96875 24.703125 23.78125 
L 21.578125 24.515625 
Q 13.234375 26.265625 9.515625 29.90625 
Q 5.8125 33.546875 5.8125 39.890625 
Q 5.8125 47.609375 11.28125 51.796875 
Q 16.75 56 26.8125 56 
Q 31.78125 56 36.171875 55.265625 
Q 40.578125 54.546875 44.28125 53.078125 
z
" id="DejaVuSans-115"/>
     </defs>
     <g transform="translate(97.557812 325.750938)rotate(-90)scale(0.1 -0.1)">
      <use xlink:href="#DejaVuSans-78"/>
      <use x="74.804688" xlink:href="#DejaVuSans-111"/>
      <use x="135.986328" xlink:href="#DejaVuSans-114"/>
      <use x="177.083984" xlink:href="#DejaVuSans-109"/>
      <use x="274.496094" xlink:href="#DejaVuSans-44"/>
      <use x="306.283203" xlink:href="#DejaVuSans-32"/>
      <use x="338.070312" xlink:href="#DejaVuSans-68"/>
      <use x="415.072266" xlink:href="#DejaVuSans-101"/>
      <use x="476.595703" xlink:href="#DejaVuSans-116"/>
      <use x="515.804688" xlink:href="#DejaVuSans-101"/>
      <use x="577.328125" xlink:href="#DejaVuSans-114"/>
      <use x="618.425781" xlink:href="#DejaVuSans-109"/>
      <use x="715.837891" xlink:href="#DejaVuSans-105"/>
      <use x="743.621094" xlink:href="#DejaVuSans-110"/>
      <use x="807" xlink:href="#DejaVuSans-97"/>
      <use x="868.279297" xlink:href="#DejaVuSans-110"/>
      <use x="931.658203" xlink:href="#DejaVuSans-116"/>
      <use x="970.867188" xlink:href="#DejaVuSans-44"/>
      <use x="1002.654297" xlink:href="#DejaVuSans-32"/>
      <use x="1034.441406" xlink:href="#DejaVuSans-77"/>
      <use x="1120.720703" xlink:href="#DejaVuSans-83"/>
      <use x="1184.197266" xlink:href="#DejaVuSans-69"/>
      <use x="1247.380859" xlink:href="#DejaVuSans-32"/>
      <use x="1279.167969" xlink:href="#DejaVuSans-76"/>
      <use x="1334.865234" xlink:href="#DejaVuSans-111"/>
      <use x="1396.046875" xlink:href="#DejaVuSans-115"/>
      <use x="1448.146484" xlink:href="#DejaVuSans-115"/>
     </g>
    </g>
   </g>
   <g id="line2d_13">
    <path clip-path="url(#p236aae9e24)" d="M 490.070031 441 
L 490.070031 60.48 
" style="fill:none;stroke:#000000;stroke-dasharray:0.74,0.32;stroke-dashoffset:0;stroke-width:0.2;"/>
   </g>
   <g id="line2d_14">
    <path clip-path="url(#p236aae9e24)" d="M 249.441945 441 
L 249.441945 60.48 
" style="fill:none;stroke:#000000;stroke-dasharray:0.74,0.32;stroke-dashoffset:0;stroke-width:0.2;"/>
   </g>
   <g id="line2d_15">
    <path clip-path="url(#p236aae9e24)" d="M 208.939437 441 
L 208.939437 60.48 
" style="fill:none;stroke:#000000;stroke-dasharray:0.74,0.32;stroke-dashoffset:0;stroke-width:0.2;"/>
   </g>
   <g id="line2d_16">
    <path clip-path="url(#p236aae9e24)" d="M 722.702512 441 
L 722.702512 60.48 
" style="fill:none;stroke:#000000;stroke-dasharray:0.74,0.32;stroke-dashoffset:0;stroke-width:0.2;"/>
   </g>
   <g id="line2d_17">
    <path clip-path="url(#p236aae9e24)" d="M 368.945784 441 
L 368.945784 60.48 
" style="fill:none;stroke:#000000;stroke-dasharray:0.74,0.32;stroke-dashoffset:0;stroke-width:0.2;"/>
   </g>
   <g id="line2d_18">
    <path clip-path="url(#p236aae9e24)" d="M 459.551086 441 
L 459.551086 60.48 
" style="fill:none;stroke:#000000;stroke-dasharray:0.74,0.32;stroke-dashoffset:0;stroke-width:0.2;"/>
   </g>
   <g id="line2d_19">
    <path clip-path="url(#p236aae9e24)" d="M 153.248526 441 
L 153.248526 60.48 
" style="fill:none;stroke:#000000;stroke-dasharray:0.74,0.32;stroke-dashoffset:0;stroke-width:0.2;"/>
   </g>
   <g id="line2d_20">
    <path clip-path="url(#p236aae9e24)" d="M 746.390733 441 
L 746.390733 60.48 
" style="fill:none;stroke:#000000;stroke-dasharray:0.74,0.32;stroke-dashoffset:0;stroke-width:0.2;"/>
   </g>
   <g id="line2d_21">
    <path clip-path="url(#p236aae9e24)" d="M 219.844654 441 
L 219.844654 60.48 
" style="fill:none;stroke:#000000;stroke-dasharray:0.74,0.32;stroke-dashoffset:0;stroke-width:0.2;"/>
   </g>
   <g id="line2d_22">
    <path clip-path="url(#p236aae9e24)" d="M 355.62148 441 
L 355.62148 60.48 
" style="fill:none;stroke:#000000;stroke-dasharray:0.74,0.32;stroke-dashoffset:0;stroke-width:0.2;"/>
   </g>
   <g id="line2d_23">
    <path clip-path="url(#p236aae9e24)" d="M 432.02954 441 
L 432.02954 60.48 
" style="fill:none;stroke:#000000;stroke-dasharray:0.74,0.32;stroke-dashoffset:0;stroke-width:0.2;"/>
   </g>
   <g id="line2d_24">
    <path clip-path="url(#p236aae9e24)" d="M 366.142817 441 
L 366.142817 60.48 
" style="fill:none;stroke:#000000;stroke-dasharray:0.74,0.32;stroke-dashoffset:0;stroke-width:0.2;"/>
   </g>
   <g id="line2d_25">
    <path clip-path="url(#p236aae9e24)" d="M 179.753818 441 
L 179.753818 60.48 
" style="fill:none;stroke:#000000;stroke-dasharray:0.74,0.32;stroke-dashoffset:0;stroke-width:0.2;"/>
   </g>
   <g id="line2d_26">
    <path clip-path="url(#p236aae9e24)" d="M 494.54321 441 
L 494.54321 60.48 
" style="fill:none;stroke:#000000;stroke-dasharray:0.74,0.32;stroke-dashoffset:0;stroke-width:0.2;"/>
   </g>
   <g id="line2d_27">
    <path clip-path="url(#p236aae9e24)" d="M 245.478882 441 
L 245.478882 60.48 
" style="fill:none;stroke:#000000;stroke-dasharray:0.74,0.32;stroke-dashoffset:0;stroke-width:0.2;"/>
   </g>
   <g id="line2d_28"/>
   <g id="line2d_29">
    <path clip-path="url(#p236aae9e24)" d="M 149.972727 370.88026 
L 156.633884 372.098412 
L 163.295041 373.263581 
L 169.956198 374.121641 
L 176.617355 374.809329 
L 183.278512 375.364925 
L 189.939669 375.797168 
L 196.600826 376.141597 
L 203.261983 376.415516 
L 209.92314 376.633727 
L 216.584298 376.783935 
L 223.245455 376.927438 
L 229.906612 377.036141 
L 236.567769 377.143604 
L 243.228926 377.25455 
L 249.890083 377.360873 
L 256.55124 377.461462 
L 263.212397 377.575375 
L 269.873554 377.665018 
L 276.534711 377.768994 
L 283.195868 377.840774 
L 289.857025 377.909545 
L 296.518182 377.951485 
L 303.179339 377.968035 
L 309.840496 377.957236 
L 316.501653 377.91496 
L 323.16281 377.853212 
L 329.823967 377.746035 
L 336.485124 377.62952 
L 343.146281 377.481024 
L 349.807438 377.333413 
L 356.468595 377.16324 
L 363.129752 376.995643 
L 369.790909 376.849387 
L 376.452066 376.713442 
L 383.113223 376.602193 
L 389.77438 376.504375 
L 396.435537 376.447907 
L 403.096694 376.422863 
L 409.757851 376.430368 
L 416.419008 376.467314 
L 423.080165 376.533463 
L 429.741322 376.62133 
L 436.402479 376.718722 
L 443.063636 376.835819 
L 449.724793 376.934431 
L 456.38595 377.032609 
L 463.047107 377.108902 
L 469.708264 377.168163 
L 476.369421 377.195807 
L 483.030579 377.198664 
L 489.691736 377.177545 
L 496.352893 377.139188 
L 503.01405 377.090895 
L 509.675207 377.045962 
L 516.336364 377.020823 
L 522.997521 377.036366 
L 529.658678 377.106855 
L 536.319835 377.260722 
L 542.980992 377.466963 
L 549.642149 377.883134 
L 556.303306 378.370826 
L 562.964463 378.974678 
L 569.62562 379.843792 
L 576.286777 380.599118 
L 582.947934 381.660984 
L 589.609091 382.768246 
L 596.270248 384.07953 
L 602.931405 385.398928 
L 609.592562 386.816919 
L 616.253719 388.204897 
L 622.914876 389.546563 
L 629.576033 390.956296 
L 636.23719 392.147867 
L 642.898347 393.33043 
L 649.559504 394.263851 
L 656.220661 394.981012 
L 662.881818 395.474236 
L 669.542975 395.687612 
L 676.204132 395.602028 
L 682.865289 395.174208 
L 689.526446 394.326276 
L 696.187603 393.239616 
L 702.84876 391.459558 
L 709.509917 389.648884 
L 716.171074 386.876705 
L 722.832231 384.037471 
L 729.493388 380.605293 
L 736.154545 376.733394 
L 742.815702 372.139387 
L 749.47686 367.266646 
L 756.138017 361.960937 
L 762.799174 356.30951 
L 769.460331 349.439992 
L 776.121488 343.733418 
L 782.782645 336.57422 
L 789.443802 329.156441 
L 796.104959 321.359999 
L 802.766116 313.656851 
L 809.427273 304.393973 
" style="fill:none;stroke:#1f77b4;stroke-linecap:square;stroke-width:1.5;"/>
   </g>
   <g id="line2d_30">
    <path clip-path="url(#p236aae9e24)" d="M 149.972727 373.375185 
L 156.633884 373.966532 
L 163.295041 373.918607 
L 169.956198 374.794484 
L 176.617355 374.912347 
L 183.278512 375.145543 
L 189.939669 375.621025 
L 196.600826 375.694065 
L 203.261983 375.761529 
L 209.92314 375.964736 
L 216.584298 376.012025 
L 223.245455 376.154794 
L 229.906612 376.13231 
L 236.567769 376.227882 
L 243.228926 376.206647 
L 249.890083 376.333188 
L 256.55124 376.43262 
L 263.212397 376.373048 
L 269.873554 376.551418 
L 276.534711 376.657211 
L 283.195868 376.656949 
L 289.857025 376.615152 
L 296.518182 376.672746 
L 303.179339 376.619696 
L 309.840496 376.609532 
L 316.501653 376.587511 
L 323.16281 376.531609 
L 329.823967 376.518612 
L 336.485124 376.465712 
L 343.146281 376.397413 
L 349.807438 376.314249 
L 356.468595 376.234618 
L 363.129752 376.146652 
L 369.790909 376.071243 
L 376.452066 376.001244 
L 383.113223 375.947212 
L 389.77438 375.895886 
L 396.435537 375.865582 
L 403.096694 375.852916 
L 409.757851 375.854133 
L 416.419008 375.877942 
L 423.080165 375.916964 
L 429.741322 375.959942 
L 436.402479 375.998287 
L 443.063636 376.057529 
L 449.724793 376.111421 
L 456.38595 376.157549 
L 463.047107 376.200386 
L 469.708264 376.223793 
L 476.369421 376.24552 
L 483.030579 376.251136 
L 489.691736 376.238868 
L 496.352893 376.229328 
L 503.01405 376.16698 
L 509.675207 376.134441 
L 516.336364 376.163806 
L 522.997521 376.123994 
L 529.658678 376.357735 
L 536.319835 376.306724 
L 542.980992 376.392244 
L 549.642149 376.633539 
L 556.303306 376.693502 
L 562.964463 377.022722 
L 569.62562 377.532882 
L 576.286777 377.960479 
L 582.947934 378.488024 
L 589.609091 379.157265 
L 596.270248 379.688548 
L 602.931405 380.62664 
L 609.592562 381.504527 
L 616.253719 382.221138 
L 622.914876 382.87656 
L 629.576033 383.630855 
L 636.23719 384.167227 
L 642.898347 384.800125 
L 649.559504 385.108211 
L 656.220661 385.638032 
L 662.881818 385.857261 
L 669.542975 385.982871 
L 676.204132 386.471861 
L 682.865289 386.744104 
L 689.526446 385.609831 
L 696.187603 385.371848 
L 702.84876 383.734115 
L 709.509917 382.76754 
L 716.171074 381.98438 
L 722.832231 379.365806 
L 729.493388 378.010024 
L 736.154545 375.176548 
L 742.815702 373.708253 
L 749.47686 372.134479 
L 756.138017 368.759584 
L 762.799174 366.176245 
L 769.460331 363.695847 
L 776.121488 360.959644 
L 782.782645 357.917599 
L 789.443802 355.605318 
L 796.104959 352.130793 
L 802.766116 349.513291 
L 809.427273 346.425939 
" style="fill:none;stroke:#1f77b4;stroke-dasharray:5.55,2.4;stroke-dashoffset:0;stroke-width:1.5;"/>
   </g>
   <g id="line2d_31"/>
   <g id="line2d_32">
    <path clip-path="url(#p236aae9e24)" d="M 149.972727 422.19336 
L 156.633884 422.592679 
L 163.295041 422.966516 
L 169.956198 423.230451 
L 176.617355 423.428105 
L 183.278512 423.569233 
L 189.939669 423.656907 
L 196.600826 423.700837 
L 203.261983 423.703636 
L 209.92314 423.668835 
L 216.584298 423.612925 
L 223.245455 423.524382 
L 229.906612 423.430828 
L 236.567769 423.317458 
L 243.228926 423.184773 
L 249.890083 423.050348 
L 256.55124 422.920375 
L 263.212397 422.770805 
L 269.873554 422.649338 
L 276.534711 422.49807 
L 283.195868 422.379117 
L 289.857025 422.23714 
L 296.518182 422.103691 
L 303.179339 421.970973 
L 309.840496 421.826718 
L 316.501653 421.678448 
L 323.16281 421.541748 
L 329.823967 421.360796 
L 336.485124 421.19212 
L 343.146281 420.99232 
L 349.807438 420.796775 
L 356.468595 420.564103 
L 363.129752 420.317832 
L 369.790909 420.077362 
L 376.452066 419.817304 
L 383.113223 419.558574 
L 389.77438 419.256395 
L 396.435537 418.989072 
L 403.096694 418.717739 
L 409.757851 418.46451 
L 416.419008 418.24267 
L 423.080165 418.037683 
L 429.741322 417.875047 
L 436.402479 417.766475 
L 443.063636 417.70443 
L 449.724793 417.710522 
L 456.38595 417.782799 
L 463.047107 417.920563 
L 469.708264 418.147979 
L 476.369421 418.411334 
L 483.030579 418.77772 
L 489.691736 419.183403 
L 496.352893 419.628336 
L 503.01405 420.121188 
L 509.675207 420.639477 
L 516.336364 421.168605 
L 522.997521 421.663377 
L 529.658678 422.08246 
L 536.319835 422.433989 
L 542.980992 422.635474 
L 549.642149 422.727632 
L 556.303306 422.601849 
L 562.964463 422.261245 
L 569.62562 421.541379 
L 576.286777 420.752871 
L 582.947934 419.441786 
L 589.609091 417.849023 
L 596.270248 415.672497 
L 602.931405 413.153428 
L 609.592562 410.03939 
L 616.253719 406.507059 
L 622.914876 402.547452 
L 629.576033 397.624897 
L 636.23719 392.588911 
L 642.898347 386.373258 
L 649.559504 379.921135 
L 656.220661 372.990806 
L 662.881818 365.467501 
L 669.542975 357.675168 
L 676.204132 348.167871 
L 682.865289 338.669357 
L 689.526446 328.117478 
L 696.187603 318.357153 
L 702.84876 305.998623 
L 709.509917 295.631912 
L 716.171074 282.017823 
L 722.832231 269.83688 
L 729.493388 256.670042 
L 736.154545 243.20373 
L 742.815702 228.604828 
L 749.47686 214.305517 
L 756.138017 199.797841 
L 762.799174 185.315246 
L 769.460331 168.758176 
L 776.121488 155.732877 
L 782.782645 140.148031 
L 789.443802 124.769657 
L 796.104959 109.323618 
L 802.766116 94.676033 
L 809.427273 77.776364 
" style="fill:none;stroke:#ff7f0e;stroke-linecap:square;stroke-width:1.5;"/>
   </g>
   <g id="line2d_33">
    <path clip-path="url(#p236aae9e24)" d="M 149.972727 399.435497 
L 156.633884 399.886972 
L 163.295041 400.429612 
L 169.956198 400.589301 
L 176.617355 400.745167 
L 183.278512 401.104038 
L 189.939669 401.17023 
L 196.600826 401.126003 
L 203.261983 401.178452 
L 209.92314 401.138234 
L 216.584298 401.040603 
L 223.245455 400.962313 
L 229.906612 400.834402 
L 236.567769 400.748873 
L 243.228926 400.615999 
L 249.890083 400.467558 
L 256.55124 400.362192 
L 263.212397 400.200887 
L 269.873554 400.048821 
L 276.534711 399.877553 
L 283.195868 399.787669 
L 289.857025 399.654364 
L 296.518182 399.488076 
L 303.179339 399.325075 
L 309.840496 399.256503 
L 316.501653 399.03876 
L 323.16281 398.891512 
L 329.823967 398.700407 
L 336.485124 398.586468 
L 343.146281 398.436778 
L 349.807438 398.177999 
L 356.468595 397.975099 
L 363.129752 397.703895 
L 369.790909 397.487309 
L 376.452066 397.240899 
L 383.113223 396.907428 
L 389.77438 396.6973 
L 396.435537 396.496744 
L 403.096694 396.103705 
L 409.757851 395.808934 
L 416.419008 395.60868 
L 423.080165 395.463914 
L 429.741322 395.29524 
L 436.402479 395.513281 
L 443.063636 395.212157 
L 449.724793 395.220939 
L 456.38595 395.10584 
L 463.047107 395.248673 
L 469.708264 395.271024 
L 476.369421 395.925343 
L 483.030579 396.212681 
L 489.691736 396.602751 
L 496.352893 396.921408 
L 503.01405 397.508222 
L 509.675207 398.002155 
L 516.336364 398.593252 
L 522.997521 399.005262 
L 529.658678 399.956624 
L 536.319835 399.883508 
L 542.980992 400.063896 
L 549.642149 400.197854 
L 556.303306 399.68352 
L 562.964463 399.287109 
L 569.62562 398.625627 
L 576.286777 398.276348 
L 582.947934 396.329187 
L 589.609091 395.155691 
L 596.270248 392.851753 
L 602.931405 390.962545 
L 609.592562 388.517326 
L 616.253719 385.731711 
L 622.914876 382.433502 
L 629.576033 379.845264 
L 636.23719 375.329783 
L 642.898347 370.742165 
L 649.559504 367.637748 
L 656.220661 364.306878 
L 662.881818 358.800719 
L 669.542975 354.836636 
L 676.204132 351.143419 
L 682.865289 345.751054 
L 689.526446 342.700138 
L 696.187603 335.703228 
L 702.84876 329.890486 
L 709.509917 328.62887 
L 716.171074 321.648341 
L 722.832231 319.543747 
L 729.493388 312.893586 
L 736.154545 307.913058 
L 742.815702 303.271705 
L 749.47686 298.108202 
L 756.138017 293.325087 
L 762.799174 288.092758 
L 769.460331 282.512705 
L 776.121488 281.013357 
L 782.782645 277.45311 
L 789.443802 271.764798 
L 796.104959 268.948504 
L 802.766116 266.99891 
L 809.427273 261.862851 
" style="fill:none;stroke:#ff7f0e;stroke-dasharray:5.55,2.4;stroke-dashoffset:0;stroke-width:1.5;"/>
   </g>
   <g id="patch_3">
    <path d="M 117 441 
L 117 60.48 
" style="fill:none;stroke:#000000;stroke-linecap:square;stroke-linejoin:miter;stroke-width:0.8;"/>
   </g>
   <g id="patch_4">
    <path d="M 842.4 441 
L 842.4 60.48 
" style="fill:none;stroke:#000000;stroke-linecap:square;stroke-linejoin:miter;stroke-width:0.8;"/>
   </g>
   <g id="patch_5">
    <path d="M 117 441 
L 842.4 441 
" style="fill:none;stroke:#000000;stroke-linecap:square;stroke-linejoin:miter;stroke-width:0.8;"/>
   </g>
   <g id="patch_6">
    <path d="M 117 60.48 
L 842.4 60.48 
" style="fill:none;stroke:#000000;stroke-linecap:square;stroke-linejoin:miter;stroke-width:0.8;"/>
   </g>
   <g id="legend_1">
    <g id="patch_7">
     <path d="M 376.421875 112.514375 
L 582.978125 112.514375 
Q 584.978125 112.514375 584.978125 110.514375 
L 584.978125 67.48 
Q 584.978125 65.48 582.978125 65.48 
L 376.421875 65.48 
Q 374.421875 65.48 374.421875 67.48 
L 374.421875 110.514375 
Q 374.421875 112.514375 376.421875 112.514375 
z
" style="fill:#ffffff;opacity:0.8;stroke:#cccccc;stroke-linejoin:miter;"/>
    </g>
    <g id="line2d_34"/>
    <g id="line2d_35"/>
    <g id="text_15">
     <!-- orig -->
     <defs>
      <path d="M 45.40625 27.984375 
Q 45.40625 37.75 41.375 43.109375 
Q 37.359375 48.484375 30.078125 48.484375 
Q 22.859375 48.484375 18.828125 43.109375 
Q 14.796875 37.75 14.796875 27.984375 
Q 14.796875 18.265625 18.828125 12.890625 
Q 22.859375 7.515625 30.078125 7.515625 
Q 37.359375 7.515625 41.375 12.890625 
Q 45.40625 18.265625 45.40625 27.984375 
z
M 54.390625 6.78125 
Q 54.390625 -7.171875 48.1875 -13.984375 
Q 42 -20.796875 29.203125 -20.796875 
Q 24.46875 -20.796875 20.265625 -20.09375 
Q 16.0625 -19.390625 12.109375 -17.921875 
L 12.109375 -9.1875 
Q 16.0625 -11.328125 19.921875 -12.34375 
Q 23.78125 -13.375 27.78125 -13.375 
Q 36.625 -13.375 41.015625 -8.765625 
Q 45.40625 -4.15625 45.40625 5.171875 
L 45.40625 9.625 
Q 42.625 4.78125 38.28125 2.390625 
Q 33.9375 0 27.875 0 
Q 17.828125 0 11.671875 7.65625 
Q 5.515625 15.328125 5.515625 27.984375 
Q 5.515625 40.671875 11.671875 48.328125 
Q 17.828125 56 27.875 56 
Q 33.9375 56 38.28125 53.609375 
Q 42.625 51.21875 45.40625 46.390625 
L 45.40625 54.6875 
L 54.390625 54.6875 
z
" id="DejaVuSans-103"/>
     </defs>
     <g transform="translate(406.421875 77.078438)scale(0.1 -0.1)">
      <use xlink:href="#DejaVuSans-111"/>
      <use x="61.181641" xlink:href="#DejaVuSans-114"/>
      <use x="102.294922" xlink:href="#DejaVuSans-105"/>
      <use x="130.078125" xlink:href="#DejaVuSans-103"/>
     </g>
    </g>
    <g id="line2d_36">
     <path d="M 378.421875 88.256563 
L 398.421875 88.256563 
" style="fill:none;stroke:#1f77b4;stroke-linecap:square;stroke-width:1.5;"/>
    </g>
    <g id="line2d_37"/>
    <g id="text_16">
     <!-- Determinant -->
     <g transform="translate(406.421875 91.756563)scale(0.1 -0.1)">
      <use xlink:href="#DejaVuSans-68"/>
      <use x="77.001953" xlink:href="#DejaVuSans-101"/>
      <use x="138.525391" xlink:href="#DejaVuSans-116"/>
      <use x="177.734375" xlink:href="#DejaVuSans-101"/>
      <use x="239.257812" xlink:href="#DejaVuSans-114"/>
      <use x="280.355469" xlink:href="#DejaVuSans-109"/>
      <use x="377.767578" xlink:href="#DejaVuSans-105"/>
      <use x="405.550781" xlink:href="#DejaVuSans-110"/>
      <use x="468.929688" xlink:href="#DejaVuSans-97"/>
      <use x="530.208984" xlink:href="#DejaVuSans-110"/>
      <use x="593.587891" xlink:href="#DejaVuSans-116"/>
     </g>
    </g>
    <g id="line2d_38">
     <path d="M 378.421875 102.934687 
L 398.421875 102.934687 
" style="fill:none;stroke:#1f77b4;stroke-dasharray:5.55,2.4;stroke-dashoffset:0;stroke-width:1.5;"/>
    </g>
    <g id="line2d_39"/>
    <g id="text_17">
     <!-- Norm -->
     <g transform="translate(406.421875 106.434687)scale(0.1 -0.1)">
      <use xlink:href="#DejaVuSans-78"/>
      <use x="74.804688" xlink:href="#DejaVuSans-111"/>
      <use x="135.986328" xlink:href="#DejaVuSans-114"/>
      <use x="177.083984" xlink:href="#DejaVuSans-109"/>
     </g>
    </g>
    <g id="line2d_40"/>
    <g id="line2d_41"/>
    <g id="text_18">
     <!-- normed -->
     <defs>
      <path d="M 45.40625 46.390625 
L 45.40625 75.984375 
L 54.390625 75.984375 
L 54.390625 0 
L 45.40625 0 
L 45.40625 8.203125 
Q 42.578125 3.328125 38.25 0.953125 
Q 33.9375 -1.421875 27.875 -1.421875 
Q 17.96875 -1.421875 11.734375 6.484375 
Q 5.515625 14.40625 5.515625 27.296875 
Q 5.515625 40.1875 11.734375 48.09375 
Q 17.96875 56 27.875 56 
Q 33.9375 56 38.25 53.625 
Q 42.578125 51.265625 45.40625 46.390625 
z
M 14.796875 27.296875 
Q 14.796875 17.390625 18.875 11.75 
Q 22.953125 6.109375 30.078125 6.109375 
Q 37.203125 6.109375 41.296875 11.75 
Q 45.40625 17.390625 45.40625 27.296875 
Q 45.40625 37.203125 41.296875 42.84375 
Q 37.203125 48.484375 30.078125 48.484375 
Q 22.953125 48.484375 18.875 42.84375 
Q 14.796875 37.203125 14.796875 27.296875 
z
" id="DejaVuSans-100"/>
     </defs>
     <g transform="translate(517.7 77.078438)scale(0.1 -0.1)">
      <use xlink:href="#DejaVuSans-110"/>
      <use x="63.378906" xlink:href="#DejaVuSans-111"/>
      <use x="124.560547" xlink:href="#DejaVuSans-114"/>
      <use x="165.658203" xlink:href="#DejaVuSans-109"/>
      <use x="263.070312" xlink:href="#DejaVuSans-101"/>
      <use x="324.59375" xlink:href="#DejaVuSans-100"/>
     </g>
    </g>
    <g id="line2d_42">
     <path d="M 489.7 88.256563 
L 509.7 88.256563 
" style="fill:none;stroke:#ff7f0e;stroke-linecap:square;stroke-width:1.5;"/>
    </g>
    <g id="line2d_43"/>
    <g id="text_19">
     <!-- Determinant -->
     <g transform="translate(517.7 91.756563)scale(0.1 -0.1)">
      <use xlink:href="#DejaVuSans-68"/>
      <use x="77.001953" xlink:href="#DejaVuSans-101"/>
      <use x="138.525391" xlink:href="#DejaVuSans-116"/>
      <use x="177.734375" xlink:href="#DejaVuSans-101"/>
      <use x="239.257812" xlink:href="#DejaVuSans-114"/>
      <use x="280.355469" xlink:href="#DejaVuSans-109"/>
      <use x="377.767578" xlink:href="#DejaVuSans-105"/>
      <use x="405.550781" xlink:href="#DejaVuSans-110"/>
      <use x="468.929688" xlink:href="#DejaVuSans-97"/>
      <use x="530.208984" xlink:href="#DejaVuSans-110"/>
      <use x="593.587891" xlink:href="#DejaVuSans-116"/>
     </g>
    </g>
    <g id="line2d_44">
     <path d="M 489.7 102.934687 
L 509.7 102.934687 
" style="fill:none;stroke:#ff7f0e;stroke-dasharray:5.55,2.4;stroke-dashoffset:0;stroke-width:1.5;"/>
    </g>
    <g id="line2d_45"/>
    <g id="text_20">
     <!-- Norm -->
     <g transform="translate(517.7 106.434687)scale(0.1 -0.1)">
      <use xlink:href="#DejaVuSans-78"/>
      <use x="74.804688" xlink:href="#DejaVuSans-111"/>
      <use x="135.986328" xlink:href="#DejaVuSans-114"/>
      <use x="177.083984" xlink:href="#DejaVuSans-109"/>
     </g>
    </g>
   </g>
  </g>
 </g>
 <defs>
  <clipPath id="p236aae9e24">
   <rect height="380.52" width="725.4" x="117" y="60.48"/>
  </clipPath>
 </defs>
</svg>
