<?xml version="1.0" encoding="utf-8" standalone="no"?>
<!DOCTYPE svg PUBLIC "-//W3C//DTD SVG 1.1//EN"
  "http://www.w3.org/Graphics/SVG/1.1/DTD/svg11.dtd">
<!-- Created with matplotlib (https://matplotlib.org/) -->
<svg height="504pt" version="1.1" viewBox="0 0 936 504" width="936pt" xmlns="http://www.w3.org/2000/svg" xmlns:xlink="http://www.w3.org/1999/xlink">
 <defs>
  <style type="text/css">
*{stroke-linecap:butt;stroke-linejoin:round;}
  </style>
 </defs>
 <g id="figure_1">
  <g id="patch_1">
   <path d="M 0 504 
L 936 504 
L 936 0 
L 0 0 
z
" style="fill:#ffffff;"/>
  </g>
  <g id="axes_1">
   <g id="patch_2">
    <path d="M 117 441 
L 842.4 441 
L 842.4 60.48 
L 117 60.48 
z
" style="fill:#ffffff;"/>
   </g>
   <g id="matplotlib.axis_1">
    <g id="xtick_1">
     <g id="line2d_1">
      <defs>
       <path d="M 0 0 
L 0 3.5 
" id="meac7b7e196" style="stroke:#000000;stroke-width:0.8;"/>
      </defs>
      <g>
       <use style="stroke:#000000;stroke-width:0.8;" x="161.65318" xlink:href="#meac7b7e196" y="441"/>
      </g>
     </g>
     <g id="text_1">
      <!-- −3 -->
      <defs>
       <path d="M 10.59375 35.5 
L 73.1875 35.5 
L 73.1875 27.203125 
L 10.59375 27.203125 
z
" id="DejaVuSans-8722"/>
       <path d="M 40.578125 39.3125 
Q 47.65625 37.796875 51.625 33 
Q 55.609375 28.21875 55.609375 21.1875 
Q 55.609375 10.40625 48.1875 4.484375 
Q 40.765625 -1.421875 27.09375 -1.421875 
Q 22.515625 -1.421875 17.65625 -0.515625 
Q 12.796875 0.390625 7.625 2.203125 
L 7.625 11.71875 
Q 11.71875 9.328125 16.59375 8.109375 
Q 21.484375 6.890625 26.8125 6.890625 
Q 36.078125 6.890625 40.9375 10.546875 
Q 45.796875 14.203125 45.796875 21.1875 
Q 45.796875 27.640625 41.28125 31.265625 
Q 36.765625 34.90625 28.71875 34.90625 
L 20.21875 34.90625 
L 20.21875 43.015625 
L 29.109375 43.015625 
Q 36.375 43.015625 40.234375 45.921875 
Q 44.09375 48.828125 44.09375 54.296875 
Q 44.09375 59.90625 40.109375 62.90625 
Q 36.140625 65.921875 28.71875 65.921875 
Q 24.65625 65.921875 20.015625 65.03125 
Q 15.375 64.15625 9.8125 62.3125 
L 9.8125 71.09375 
Q 15.4375 72.65625 20.34375 73.4375 
Q 25.25 74.21875 29.59375 74.21875 
Q 40.828125 74.21875 47.359375 69.109375 
Q 53.90625 64.015625 53.90625 55.328125 
Q 53.90625 49.265625 50.4375 45.09375 
Q 46.96875 40.921875 40.578125 39.3125 
z
" id="DejaVuSans-51"/>
      </defs>
      <g transform="translate(154.282086 455.598437)scale(0.1 -0.1)">
       <use xlink:href="#DejaVuSans-8722"/>
       <use x="83.789062" xlink:href="#DejaVuSans-51"/>
      </g>
     </g>
    </g>
    <g id="xtick_2">
     <g id="line2d_2">
      <g>
       <use style="stroke:#000000;stroke-width:0.8;" x="267.668787" xlink:href="#meac7b7e196" y="441"/>
      </g>
     </g>
     <g id="text_2">
      <!-- −2 -->
      <defs>
       <path d="M 19.1875 8.296875 
L 53.609375 8.296875 
L 53.609375 0 
L 7.328125 0 
L 7.328125 8.296875 
Q 12.9375 14.109375 22.625 23.890625 
Q 32.328125 33.6875 34.8125 36.53125 
Q 39.546875 41.84375 41.421875 45.53125 
Q 43.3125 49.21875 43.3125 52.78125 
Q 43.3125 58.59375 39.234375 62.25 
Q 35.15625 65.921875 28.609375 65.921875 
Q 23.96875 65.921875 18.8125 64.3125 
Q 13.671875 62.703125 7.8125 59.421875 
L 7.8125 69.390625 
Q 13.765625 71.78125 18.9375 73 
Q 24.125 74.21875 28.421875 74.21875 
Q 39.75 74.21875 46.484375 68.546875 
Q 53.21875 62.890625 53.21875 53.421875 
Q 53.21875 48.921875 51.53125 44.890625 
Q 49.859375 40.875 45.40625 35.40625 
Q 44.1875 33.984375 37.640625 27.21875 
Q 31.109375 20.453125 19.1875 8.296875 
z
" id="DejaVuSans-50"/>
      </defs>
      <g transform="translate(260.297693 455.598437)scale(0.1 -0.1)">
       <use xlink:href="#DejaVuSans-8722"/>
       <use x="83.789062" xlink:href="#DejaVuSans-50"/>
      </g>
     </g>
    </g>
    <g id="xtick_3">
     <g id="line2d_3">
      <g>
       <use style="stroke:#000000;stroke-width:0.8;" x="373.684393" xlink:href="#meac7b7e196" y="441"/>
      </g>
     </g>
     <g id="text_3">
      <!-- −1 -->
      <defs>
       <path d="M 12.40625 8.296875 
L 28.515625 8.296875 
L 28.515625 63.921875 
L 10.984375 60.40625 
L 10.984375 69.390625 
L 28.421875 72.90625 
L 38.28125 72.90625 
L 38.28125 8.296875 
L 54.390625 8.296875 
L 54.390625 0 
L 12.40625 0 
z
" id="DejaVuSans-49"/>
      </defs>
      <g transform="translate(366.3133 455.598437)scale(0.1 -0.1)">
       <use xlink:href="#DejaVuSans-8722"/>
       <use x="83.789062" xlink:href="#DejaVuSans-49"/>
      </g>
     </g>
    </g>
    <g id="xtick_4">
     <g id="line2d_4">
      <g>
       <use style="stroke:#000000;stroke-width:0.8;" x="479.7" xlink:href="#meac7b7e196" y="441"/>
      </g>
     </g>
     <g id="text_4">
      <!-- 0 -->
      <defs>
       <path d="M 31.78125 66.40625 
Q 24.171875 66.40625 20.328125 58.90625 
Q 16.5 51.421875 16.5 36.375 
Q 16.5 21.390625 20.328125 13.890625 
Q 24.171875 6.390625 31.78125 6.390625 
Q 39.453125 6.390625 43.28125 13.890625 
Q 47.125 21.390625 47.125 36.375 
Q 47.125 51.421875 43.28125 58.90625 
Q 39.453125 66.40625 31.78125 66.40625 
z
M 31.78125 74.21875 
Q 44.046875 74.21875 50.515625 64.515625 
Q 56.984375 54.828125 56.984375 36.375 
Q 56.984375 17.96875 50.515625 8.265625 
Q 44.046875 -1.421875 31.78125 -1.421875 
Q 19.53125 -1.421875 13.0625 8.265625 
Q 6.59375 17.96875 6.59375 36.375 
Q 6.59375 54.828125 13.0625 64.515625 
Q 19.53125 74.21875 31.78125 74.21875 
z
" id="DejaVuSans-48"/>
      </defs>
      <g transform="translate(476.51875 455.598437)scale(0.1 -0.1)">
       <use xlink:href="#DejaVuSans-48"/>
      </g>
     </g>
    </g>
    <g id="xtick_5">
     <g id="line2d_5">
      <g>
       <use style="stroke:#000000;stroke-width:0.8;" x="585.715607" xlink:href="#meac7b7e196" y="441"/>
      </g>
     </g>
     <g id="text_5">
      <!-- 1 -->
      <g transform="translate(582.534357 455.598437)scale(0.1 -0.1)">
       <use xlink:href="#DejaVuSans-49"/>
      </g>
     </g>
    </g>
    <g id="xtick_6">
     <g id="line2d_6">
      <g>
       <use style="stroke:#000000;stroke-width:0.8;" x="691.731213" xlink:href="#meac7b7e196" y="441"/>
      </g>
     </g>
     <g id="text_6">
      <!-- 2 -->
      <g transform="translate(688.549963 455.598437)scale(0.1 -0.1)">
       <use xlink:href="#DejaVuSans-50"/>
      </g>
     </g>
    </g>
    <g id="xtick_7">
     <g id="line2d_7">
      <g>
       <use style="stroke:#000000;stroke-width:0.8;" x="797.74682" xlink:href="#meac7b7e196" y="441"/>
      </g>
     </g>
     <g id="text_7">
      <!-- 3 -->
      <g transform="translate(794.56557 455.598437)scale(0.1 -0.1)">
       <use xlink:href="#DejaVuSans-51"/>
      </g>
     </g>
    </g>
    <g id="text_8">
     <!-- Alpha -->
     <defs>
      <path d="M 34.1875 63.1875 
L 20.796875 26.90625 
L 47.609375 26.90625 
z
M 28.609375 72.90625 
L 39.796875 72.90625 
L 67.578125 0 
L 57.328125 0 
L 50.6875 18.703125 
L 17.828125 18.703125 
L 11.1875 0 
L 0.78125 0 
z
" id="DejaVuSans-65"/>
      <path d="M 9.421875 75.984375 
L 18.40625 75.984375 
L 18.40625 0 
L 9.421875 0 
z
" id="DejaVuSans-108"/>
      <path d="M 18.109375 8.203125 
L 18.109375 -20.796875 
L 9.078125 -20.796875 
L 9.078125 54.6875 
L 18.109375 54.6875 
L 18.109375 46.390625 
Q 20.953125 51.265625 25.265625 53.625 
Q 29.59375 56 35.59375 56 
Q 45.5625 56 51.78125 48.09375 
Q 58.015625 40.1875 58.015625 27.296875 
Q 58.015625 14.40625 51.78125 6.484375 
Q 45.5625 -1.421875 35.59375 -1.421875 
Q 29.59375 -1.421875 25.265625 0.953125 
Q 20.953125 3.328125 18.109375 8.203125 
z
M 48.6875 27.296875 
Q 48.6875 37.203125 44.609375 42.84375 
Q 40.53125 48.484375 33.40625 48.484375 
Q 26.265625 48.484375 22.1875 42.84375 
Q 18.109375 37.203125 18.109375 27.296875 
Q 18.109375 17.390625 22.1875 11.75 
Q 26.265625 6.109375 33.40625 6.109375 
Q 40.53125 6.109375 44.609375 11.75 
Q 48.6875 17.390625 48.6875 27.296875 
z
" id="DejaVuSans-112"/>
      <path d="M 54.890625 33.015625 
L 54.890625 0 
L 45.90625 0 
L 45.90625 32.71875 
Q 45.90625 40.484375 42.875 44.328125 
Q 39.84375 48.1875 33.796875 48.1875 
Q 26.515625 48.1875 22.3125 43.546875 
Q 18.109375 38.921875 18.109375 30.90625 
L 18.109375 0 
L 9.078125 0 
L 9.078125 75.984375 
L 18.109375 75.984375 
L 18.109375 46.1875 
Q 21.34375 51.125 25.703125 53.5625 
Q 30.078125 56 35.796875 56 
Q 45.21875 56 50.046875 50.171875 
Q 54.890625 44.34375 54.890625 33.015625 
z
" id="DejaVuSans-104"/>
      <path d="M 34.28125 27.484375 
Q 23.390625 27.484375 19.1875 25 
Q 14.984375 22.515625 14.984375 16.5 
Q 14.984375 11.71875 18.140625 8.90625 
Q 21.296875 6.109375 26.703125 6.109375 
Q 34.1875 6.109375 38.703125 11.40625 
Q 43.21875 16.703125 43.21875 25.484375 
L 43.21875 27.484375 
z
M 52.203125 31.203125 
L 52.203125 0 
L 43.21875 0 
L 43.21875 8.296875 
Q 40.140625 3.328125 35.546875 0.953125 
Q 30.953125 -1.421875 24.3125 -1.421875 
Q 15.921875 -1.421875 10.953125 3.296875 
Q 6 8.015625 6 15.921875 
Q 6 25.140625 12.171875 29.828125 
Q 18.359375 34.515625 30.609375 34.515625 
L 43.21875 34.515625 
L 43.21875 35.40625 
Q 43.21875 41.609375 39.140625 45 
Q 35.0625 48.390625 27.6875 48.390625 
Q 23 48.390625 18.546875 47.265625 
Q 14.109375 46.140625 10.015625 43.890625 
L 10.015625 52.203125 
Q 14.9375 54.109375 19.578125 55.046875 
Q 24.21875 56 28.609375 56 
Q 40.484375 56 46.34375 49.84375 
Q 52.203125 43.703125 52.203125 31.203125 
z
" id="DejaVuSans-97"/>
     </defs>
     <g transform="translate(465.483594 469.276563)scale(0.1 -0.1)">
      <use xlink:href="#DejaVuSans-65"/>
      <use x="68.408203" xlink:href="#DejaVuSans-108"/>
      <use x="96.191406" xlink:href="#DejaVuSans-112"/>
      <use x="159.667969" xlink:href="#DejaVuSans-104"/>
      <use x="223.046875" xlink:href="#DejaVuSans-97"/>
     </g>
    </g>
   </g>
   <g id="matplotlib.axis_2">
    <g id="ytick_1">
     <g id="line2d_8">
      <defs>
       <path d="M 0 0 
L -3.5 0 
" id="mcfc1b97ec9" style="stroke:#000000;stroke-width:0.8;"/>
      </defs>
      <g>
       <use style="stroke:#000000;stroke-width:0.8;" x="117" xlink:href="#mcfc1b97ec9" y="423.7046"/>
      </g>
     </g>
     <g id="text_9">
      <!-- 0.0 -->
      <defs>
       <path d="M 10.6875 12.40625 
L 21 12.40625 
L 21 0 
L 10.6875 0 
z
" id="DejaVuSans-46"/>
      </defs>
      <g transform="translate(94.096875 427.503818)scale(0.1 -0.1)">
       <use xlink:href="#DejaVuSans-48"/>
       <use x="63.623047" xlink:href="#DejaVuSans-46"/>
       <use x="95.410156" xlink:href="#DejaVuSans-48"/>
      </g>
     </g>
    </g>
    <g id="ytick_2">
     <g id="line2d_9">
      <g>
       <use style="stroke:#000000;stroke-width:0.8;" x="117" xlink:href="#mcfc1b97ec9" y="364.082848"/>
      </g>
     </g>
     <g id="text_10">
      <!-- 0.1 -->
      <g transform="translate(94.096875 367.882066)scale(0.1 -0.1)">
       <use xlink:href="#DejaVuSans-48"/>
       <use x="63.623047" xlink:href="#DejaVuSans-46"/>
       <use x="95.410156" xlink:href="#DejaVuSans-49"/>
      </g>
     </g>
    </g>
    <g id="ytick_3">
     <g id="line2d_10">
      <g>
       <use style="stroke:#000000;stroke-width:0.8;" x="117" xlink:href="#mcfc1b97ec9" y="304.461095"/>
      </g>
     </g>
     <g id="text_11">
      <!-- 0.2 -->
      <g transform="translate(94.096875 308.260314)scale(0.1 -0.1)">
       <use xlink:href="#DejaVuSans-48"/>
       <use x="63.623047" xlink:href="#DejaVuSans-46"/>
       <use x="95.410156" xlink:href="#DejaVuSans-50"/>
      </g>
     </g>
    </g>
    <g id="ytick_4">
     <g id="line2d_11">
      <g>
       <use style="stroke:#000000;stroke-width:0.8;" x="117" xlink:href="#mcfc1b97ec9" y="244.839343"/>
      </g>
     </g>
     <g id="text_12">
      <!-- 0.3 -->
      <g transform="translate(94.096875 248.638562)scale(0.1 -0.1)">
       <use xlink:href="#DejaVuSans-48"/>
       <use x="63.623047" xlink:href="#DejaVuSans-46"/>
       <use x="95.410156" xlink:href="#DejaVuSans-51"/>
      </g>
     </g>
    </g>
    <g id="ytick_5">
     <g id="line2d_12">
      <g>
       <use style="stroke:#000000;stroke-width:0.8;" x="117" xlink:href="#mcfc1b97ec9" y="185.217591"/>
      </g>
     </g>
     <g id="text_13">
      <!-- 0.4 -->
      <defs>
       <path d="M 37.796875 64.3125 
L 12.890625 25.390625 
L 37.796875 25.390625 
z
M 35.203125 72.90625 
L 47.609375 72.90625 
L 47.609375 25.390625 
L 58.015625 25.390625 
L 58.015625 17.1875 
L 47.609375 17.1875 
L 47.609375 0 
L 37.796875 0 
L 37.796875 17.1875 
L 4.890625 17.1875 
L 4.890625 26.703125 
z
" id="DejaVuSans-52"/>
      </defs>
      <g transform="translate(94.096875 189.01681)scale(0.1 -0.1)">
       <use xlink:href="#DejaVuSans-48"/>
       <use x="63.623047" xlink:href="#DejaVuSans-46"/>
       <use x="95.410156" xlink:href="#DejaVuSans-52"/>
      </g>
     </g>
    </g>
    <g id="ytick_6">
     <g id="line2d_13">
      <g>
       <use style="stroke:#000000;stroke-width:0.8;" x="117" xlink:href="#mcfc1b97ec9" y="125.595839"/>
      </g>
     </g>
     <g id="text_14">
      <!-- 0.5 -->
      <defs>
       <path d="M 10.796875 72.90625 
L 49.515625 72.90625 
L 49.515625 64.59375 
L 19.828125 64.59375 
L 19.828125 46.734375 
Q 21.96875 47.46875 24.109375 47.828125 
Q 26.265625 48.1875 28.421875 48.1875 
Q 40.625 48.1875 47.75 41.5 
Q 54.890625 34.8125 54.890625 23.390625 
Q 54.890625 11.625 47.5625 5.09375 
Q 40.234375 -1.421875 26.90625 -1.421875 
Q 22.3125 -1.421875 17.546875 -0.640625 
Q 12.796875 0.140625 7.71875 1.703125 
L 7.71875 11.625 
Q 12.109375 9.234375 16.796875 8.0625 
Q 21.484375 6.890625 26.703125 6.890625 
Q 35.15625 6.890625 40.078125 11.328125 
Q 45.015625 15.765625 45.015625 23.390625 
Q 45.015625 31 40.078125 35.4375 
Q 35.15625 39.890625 26.703125 39.890625 
Q 22.75 39.890625 18.8125 39.015625 
Q 14.890625 38.140625 10.796875 36.28125 
z
" id="DejaVuSans-53"/>
      </defs>
      <g transform="translate(94.096875 129.395058)scale(0.1 -0.1)">
       <use xlink:href="#DejaVuSans-48"/>
       <use x="63.623047" xlink:href="#DejaVuSans-46"/>
       <use x="95.410156" xlink:href="#DejaVuSans-53"/>
      </g>
     </g>
    </g>
    <g id="ytick_7">
     <g id="line2d_14">
      <g>
       <use style="stroke:#000000;stroke-width:0.8;" x="117" xlink:href="#mcfc1b97ec9" y="65.974087"/>
      </g>
     </g>
     <g id="text_15">
      <!-- 0.6 -->
      <defs>
       <path d="M 33.015625 40.375 
Q 26.375 40.375 22.484375 35.828125 
Q 18.609375 31.296875 18.609375 23.390625 
Q 18.609375 15.53125 22.484375 10.953125 
Q 26.375 6.390625 33.015625 6.390625 
Q 39.65625 6.390625 43.53125 10.953125 
Q 47.40625 15.53125 47.40625 23.390625 
Q 47.40625 31.296875 43.53125 35.828125 
Q 39.65625 40.375 33.015625 40.375 
z
M 52.59375 71.296875 
L 52.59375 62.3125 
Q 48.875 64.0625 45.09375 64.984375 
Q 41.3125 65.921875 37.59375 65.921875 
Q 27.828125 65.921875 22.671875 59.328125 
Q 17.53125 52.734375 16.796875 39.40625 
Q 19.671875 43.65625 24.015625 45.921875 
Q 28.375 48.1875 33.59375 48.1875 
Q 44.578125 48.1875 50.953125 41.515625 
Q 57.328125 34.859375 57.328125 23.390625 
Q 57.328125 12.15625 50.6875 5.359375 
Q 44.046875 -1.421875 33.015625 -1.421875 
Q 20.359375 -1.421875 13.671875 8.265625 
Q 6.984375 17.96875 6.984375 36.375 
Q 6.984375 53.65625 15.1875 63.9375 
Q 23.390625 74.21875 37.203125 74.21875 
Q 40.921875 74.21875 44.703125 73.484375 
Q 48.484375 72.75 52.59375 71.296875 
z
" id="DejaVuSans-54"/>
      </defs>
      <g transform="translate(94.096875 69.773306)scale(0.1 -0.1)">
       <use xlink:href="#DejaVuSans-48"/>
       <use x="63.623047" xlink:href="#DejaVuSans-46"/>
       <use x="95.410156" xlink:href="#DejaVuSans-54"/>
      </g>
     </g>
    </g>
    <g id="text_16">
     <!-- Norm, Determinant, MSE Loss -->
     <defs>
      <path d="M 9.8125 72.90625 
L 23.09375 72.90625 
L 55.421875 11.921875 
L 55.421875 72.90625 
L 64.984375 72.90625 
L 64.984375 0 
L 51.703125 0 
L 19.390625 60.984375 
L 19.390625 0 
L 9.8125 0 
z
" id="DejaVuSans-78"/>
      <path d="M 30.609375 48.390625 
Q 23.390625 48.390625 19.1875 42.75 
Q 14.984375 37.109375 14.984375 27.296875 
Q 14.984375 17.484375 19.15625 11.84375 
Q 23.34375 6.203125 30.609375 6.203125 
Q 37.796875 6.203125 41.984375 11.859375 
Q 46.1875 17.53125 46.1875 27.296875 
Q 46.1875 37.015625 41.984375 42.703125 
Q 37.796875 48.390625 30.609375 48.390625 
z
M 30.609375 56 
Q 42.328125 56 49.015625 48.375 
Q 55.71875 40.765625 55.71875 27.296875 
Q 55.71875 13.875 49.015625 6.21875 
Q 42.328125 -1.421875 30.609375 -1.421875 
Q 18.84375 -1.421875 12.171875 6.21875 
Q 5.515625 13.875 5.515625 27.296875 
Q 5.515625 40.765625 12.171875 48.375 
Q 18.84375 56 30.609375 56 
z
" id="DejaVuSans-111"/>
      <path d="M 41.109375 46.296875 
Q 39.59375 47.171875 37.8125 47.578125 
Q 36.03125 48 33.890625 48 
Q 26.265625 48 22.1875 43.046875 
Q 18.109375 38.09375 18.109375 28.8125 
L 18.109375 0 
L 9.078125 0 
L 9.078125 54.6875 
L 18.109375 54.6875 
L 18.109375 46.1875 
Q 20.953125 51.171875 25.484375 53.578125 
Q 30.03125 56 36.53125 56 
Q 37.453125 56 38.578125 55.875 
Q 39.703125 55.765625 41.0625 55.515625 
z
" id="DejaVuSans-114"/>
      <path d="M 52 44.1875 
Q 55.375 50.25 60.0625 53.125 
Q 64.75 56 71.09375 56 
Q 79.640625 56 84.28125 50.015625 
Q 88.921875 44.046875 88.921875 33.015625 
L 88.921875 0 
L 79.890625 0 
L 79.890625 32.71875 
Q 79.890625 40.578125 77.09375 44.375 
Q 74.3125 48.1875 68.609375 48.1875 
Q 61.625 48.1875 57.5625 43.546875 
Q 53.515625 38.921875 53.515625 30.90625 
L 53.515625 0 
L 44.484375 0 
L 44.484375 32.71875 
Q 44.484375 40.625 41.703125 44.40625 
Q 38.921875 48.1875 33.109375 48.1875 
Q 26.21875 48.1875 22.15625 43.53125 
Q 18.109375 38.875 18.109375 30.90625 
L 18.109375 0 
L 9.078125 0 
L 9.078125 54.6875 
L 18.109375 54.6875 
L 18.109375 46.1875 
Q 21.1875 51.21875 25.484375 53.609375 
Q 29.78125 56 35.6875 56 
Q 41.65625 56 45.828125 52.96875 
Q 50 49.953125 52 44.1875 
z
" id="DejaVuSans-109"/>
      <path d="M 11.71875 12.40625 
L 22.015625 12.40625 
L 22.015625 4 
L 14.015625 -11.625 
L 7.71875 -11.625 
L 11.71875 4 
z
" id="DejaVuSans-44"/>
      <path id="DejaVuSans-32"/>
      <path d="M 19.671875 64.796875 
L 19.671875 8.109375 
L 31.59375 8.109375 
Q 46.6875 8.109375 53.6875 14.9375 
Q 60.6875 21.78125 60.6875 36.53125 
Q 60.6875 51.171875 53.6875 57.984375 
Q 46.6875 64.796875 31.59375 64.796875 
z
M 9.8125 72.90625 
L 30.078125 72.90625 
Q 51.265625 72.90625 61.171875 64.09375 
Q 71.09375 55.28125 71.09375 36.53125 
Q 71.09375 17.671875 61.125 8.828125 
Q 51.171875 0 30.078125 0 
L 9.8125 0 
z
" id="DejaVuSans-68"/>
      <path d="M 56.203125 29.59375 
L 56.203125 25.203125 
L 14.890625 25.203125 
Q 15.484375 15.921875 20.484375 11.0625 
Q 25.484375 6.203125 34.421875 6.203125 
Q 39.59375 6.203125 44.453125 7.46875 
Q 49.3125 8.734375 54.109375 11.28125 
L 54.109375 2.78125 
Q 49.265625 0.734375 44.1875 -0.34375 
Q 39.109375 -1.421875 33.890625 -1.421875 
Q 20.796875 -1.421875 13.15625 6.1875 
Q 5.515625 13.8125 5.515625 26.8125 
Q 5.515625 40.234375 12.765625 48.109375 
Q 20.015625 56 32.328125 56 
Q 43.359375 56 49.78125 48.890625 
Q 56.203125 41.796875 56.203125 29.59375 
z
M 47.21875 32.234375 
Q 47.125 39.59375 43.09375 43.984375 
Q 39.0625 48.390625 32.421875 48.390625 
Q 24.90625 48.390625 20.390625 44.140625 
Q 15.875 39.890625 15.1875 32.171875 
z
" id="DejaVuSans-101"/>
      <path d="M 18.3125 70.21875 
L 18.3125 54.6875 
L 36.8125 54.6875 
L 36.8125 47.703125 
L 18.3125 47.703125 
L 18.3125 18.015625 
Q 18.3125 11.328125 20.140625 9.421875 
Q 21.96875 7.515625 27.59375 7.515625 
L 36.8125 7.515625 
L 36.8125 0 
L 27.59375 0 
Q 17.1875 0 13.234375 3.875 
Q 9.28125 7.765625 9.28125 18.015625 
L 9.28125 47.703125 
L 2.6875 47.703125 
L 2.6875 54.6875 
L 9.28125 54.6875 
L 9.28125 70.21875 
z
" id="DejaVuSans-116"/>
      <path d="M 9.421875 54.6875 
L 18.40625 54.6875 
L 18.40625 0 
L 9.421875 0 
z
M 9.421875 75.984375 
L 18.40625 75.984375 
L 18.40625 64.59375 
L 9.421875 64.59375 
z
" id="DejaVuSans-105"/>
      <path d="M 54.890625 33.015625 
L 54.890625 0 
L 45.90625 0 
L 45.90625 32.71875 
Q 45.90625 40.484375 42.875 44.328125 
Q 39.84375 48.1875 33.796875 48.1875 
Q 26.515625 48.1875 22.3125 43.546875 
Q 18.109375 38.921875 18.109375 30.90625 
L 18.109375 0 
L 9.078125 0 
L 9.078125 54.6875 
L 18.109375 54.6875 
L 18.109375 46.1875 
Q 21.34375 51.125 25.703125 53.5625 
Q 30.078125 56 35.796875 56 
Q 45.21875 56 50.046875 50.171875 
Q 54.890625 44.34375 54.890625 33.015625 
z
" id="DejaVuSans-110"/>
      <path d="M 9.8125 72.90625 
L 24.515625 72.90625 
L 43.109375 23.296875 
L 61.8125 72.90625 
L 76.515625 72.90625 
L 76.515625 0 
L 66.890625 0 
L 66.890625 64.015625 
L 48.09375 14.015625 
L 38.1875 14.015625 
L 19.390625 64.015625 
L 19.390625 0 
L 9.8125 0 
z
" id="DejaVuSans-77"/>
      <path d="M 53.515625 70.515625 
L 53.515625 60.890625 
Q 47.90625 63.578125 42.921875 64.890625 
Q 37.9375 66.21875 33.296875 66.21875 
Q 25.25 66.21875 20.875 63.09375 
Q 16.5 59.96875 16.5 54.203125 
Q 16.5 49.359375 19.40625 46.890625 
Q 22.3125 44.4375 30.421875 42.921875 
L 36.375 41.703125 
Q 47.40625 39.59375 52.65625 34.296875 
Q 57.90625 29 57.90625 20.125 
Q 57.90625 9.515625 50.796875 4.046875 
Q 43.703125 -1.421875 29.984375 -1.421875 
Q 24.8125 -1.421875 18.96875 -0.25 
Q 13.140625 0.921875 6.890625 3.21875 
L 6.890625 13.375 
Q 12.890625 10.015625 18.65625 8.296875 
Q 24.421875 6.59375 29.984375 6.59375 
Q 38.421875 6.59375 43.015625 9.90625 
Q 47.609375 13.234375 47.609375 19.390625 
Q 47.609375 24.75 44.3125 27.78125 
Q 41.015625 30.8125 33.5 32.328125 
L 27.484375 33.5 
Q 16.453125 35.6875 11.515625 40.375 
Q 6.59375 45.0625 6.59375 53.421875 
Q 6.59375 63.09375 13.40625 68.65625 
Q 20.21875 74.21875 32.171875 74.21875 
Q 37.3125 74.21875 42.625 73.28125 
Q 47.953125 72.359375 53.515625 70.515625 
z
" id="DejaVuSans-83"/>
      <path d="M 9.8125 72.90625 
L 55.90625 72.90625 
L 55.90625 64.59375 
L 19.671875 64.59375 
L 19.671875 43.015625 
L 54.390625 43.015625 
L 54.390625 34.71875 
L 19.671875 34.71875 
L 19.671875 8.296875 
L 56.78125 8.296875 
L 56.78125 0 
L 9.8125 0 
z
" id="DejaVuSans-69"/>
      <path d="M 9.8125 72.90625 
L 19.671875 72.90625 
L 19.671875 8.296875 
L 55.171875 8.296875 
L 55.171875 0 
L 9.8125 0 
z
" id="DejaVuSans-76"/>
      <path d="M 44.28125 53.078125 
L 44.28125 44.578125 
Q 40.484375 46.53125 36.375 47.5 
Q 32.28125 48.484375 27.875 48.484375 
Q 21.1875 48.484375 17.84375 46.4375 
Q 14.5 44.390625 14.5 40.28125 
Q 14.5 37.15625 16.890625 35.375 
Q 19.28125 33.59375 26.515625 31.984375 
L 29.59375 31.296875 
Q 39.15625 29.25 43.1875 25.515625 
Q 47.21875 21.78125 47.21875 15.09375 
Q 47.21875 7.46875 41.1875 3.015625 
Q 35.15625 -1.421875 24.609375 -1.421875 
Q 20.21875 -1.421875 15.453125 -0.5625 
Q 10.6875 0.296875 5.421875 2 
L 5.421875 11.28125 
Q 10.40625 8.6875 15.234375 7.390625 
Q 20.0625 6.109375 24.8125 6.109375 
Q 31.15625 6.109375 34.5625 8.28125 
Q 37.984375 10.453125 37.984375 14.40625 
Q 37.984375 18.0625 35.515625 20.015625 
Q 33.0625 21.96875 24.703125 23.78125 
L 21.578125 24.515625 
Q 13.234375 26.265625 9.515625 29.90625 
Q 5.8125 33.546875 5.8125 39.890625 
Q 5.8125 47.609375 11.28125 51.796875 
Q 16.75 56 26.8125 56 
Q 31.78125 56 36.171875 55.265625 
Q 40.578125 54.546875 44.28125 53.078125 
z
" id="DejaVuSans-115"/>
     </defs>
     <g transform="translate(88.017187 325.750938)rotate(-90)scale(0.1 -0.1)">
      <use xlink:href="#DejaVuSans-78"/>
      <use x="74.804688" xlink:href="#DejaVuSans-111"/>
      <use x="135.986328" xlink:href="#DejaVuSans-114"/>
      <use x="177.083984" xlink:href="#DejaVuSans-109"/>
      <use x="274.496094" xlink:href="#DejaVuSans-44"/>
      <use x="306.283203" xlink:href="#DejaVuSans-32"/>
      <use x="338.070312" xlink:href="#DejaVuSans-68"/>
      <use x="415.072266" xlink:href="#DejaVuSans-101"/>
      <use x="476.595703" xlink:href="#DejaVuSans-116"/>
      <use x="515.804688" xlink:href="#DejaVuSans-101"/>
      <use x="577.328125" xlink:href="#DejaVuSans-114"/>
      <use x="618.425781" xlink:href="#DejaVuSans-109"/>
      <use x="715.837891" xlink:href="#DejaVuSans-105"/>
      <use x="743.621094" xlink:href="#DejaVuSans-110"/>
      <use x="807" xlink:href="#DejaVuSans-97"/>
      <use x="868.279297" xlink:href="#DejaVuSans-110"/>
      <use x="931.658203" xlink:href="#DejaVuSans-116"/>
      <use x="970.867188" xlink:href="#DejaVuSans-44"/>
      <use x="1002.654297" xlink:href="#DejaVuSans-32"/>
      <use x="1034.441406" xlink:href="#DejaVuSans-77"/>
      <use x="1120.720703" xlink:href="#DejaVuSans-83"/>
      <use x="1184.197266" xlink:href="#DejaVuSans-69"/>
      <use x="1247.380859" xlink:href="#DejaVuSans-32"/>
      <use x="1279.167969" xlink:href="#DejaVuSans-76"/>
      <use x="1334.865234" xlink:href="#DejaVuSans-111"/>
      <use x="1396.046875" xlink:href="#DejaVuSans-115"/>
      <use x="1448.146484" xlink:href="#DejaVuSans-115"/>
     </g>
    </g>
   </g>
   <g id="line2d_15">
    <path clip-path="url(#p61f501f7ff)" d="M 490.070031 441 
L 490.070031 60.48 
" style="fill:none;stroke:#000000;stroke-dasharray:0.74,0.32;stroke-dashoffset:0;stroke-width:0.2;"/>
   </g>
   <g id="line2d_16">
    <path clip-path="url(#p61f501f7ff)" d="M 249.441945 441 
L 249.441945 60.48 
" style="fill:none;stroke:#000000;stroke-dasharray:0.74,0.32;stroke-dashoffset:0;stroke-width:0.2;"/>
   </g>
   <g id="line2d_17">
    <path clip-path="url(#p61f501f7ff)" d="M 208.939437 441 
L 208.939437 60.48 
" style="fill:none;stroke:#000000;stroke-dasharray:0.74,0.32;stroke-dashoffset:0;stroke-width:0.2;"/>
   </g>
   <g id="line2d_18">
    <path clip-path="url(#p61f501f7ff)" d="M 722.702512 441 
L 722.702512 60.48 
" style="fill:none;stroke:#000000;stroke-dasharray:0.74,0.32;stroke-dashoffset:0;stroke-width:0.2;"/>
   </g>
   <g id="line2d_19">
    <path clip-path="url(#p61f501f7ff)" d="M 368.945784 441 
L 368.945784 60.48 
" style="fill:none;stroke:#000000;stroke-dasharray:0.74,0.32;stroke-dashoffset:0;stroke-width:0.2;"/>
   </g>
   <g id="line2d_20">
    <path clip-path="url(#p61f501f7ff)" d="M 459.551086 441 
L 459.551086 60.48 
" style="fill:none;stroke:#000000;stroke-dasharray:0.74,0.32;stroke-dashoffset:0;stroke-width:0.2;"/>
   </g>
   <g id="line2d_21">
    <path clip-path="url(#p61f501f7ff)" d="M 153.248526 441 
L 153.248526 60.48 
" style="fill:none;stroke:#000000;stroke-dasharray:0.74,0.32;stroke-dashoffset:0;stroke-width:0.2;"/>
   </g>
   <g id="line2d_22">
    <path clip-path="url(#p61f501f7ff)" d="M 746.390733 441 
L 746.390733 60.48 
" style="fill:none;stroke:#000000;stroke-dasharray:0.74,0.32;stroke-dashoffset:0;stroke-width:0.2;"/>
   </g>
   <g id="line2d_23">
    <path clip-path="url(#p61f501f7ff)" d="M 219.844654 441 
L 219.844654 60.48 
" style="fill:none;stroke:#000000;stroke-dasharray:0.74,0.32;stroke-dashoffset:0;stroke-width:0.2;"/>
   </g>
   <g id="line2d_24">
    <path clip-path="url(#p61f501f7ff)" d="M 355.62148 441 
L 355.62148 60.48 
" style="fill:none;stroke:#000000;stroke-dasharray:0.74,0.32;stroke-dashoffset:0;stroke-width:0.2;"/>
   </g>
   <g id="line2d_25">
    <path clip-path="url(#p61f501f7ff)" d="M 432.02954 441 
L 432.02954 60.48 
" style="fill:none;stroke:#000000;stroke-dasharray:0.74,0.32;stroke-dashoffset:0;stroke-width:0.2;"/>
   </g>
   <g id="line2d_26">
    <path clip-path="url(#p61f501f7ff)" d="M 366.142817 441 
L 366.142817 60.48 
" style="fill:none;stroke:#000000;stroke-dasharray:0.74,0.32;stroke-dashoffset:0;stroke-width:0.2;"/>
   </g>
   <g id="line2d_27"/>
   <g id="line2d_28">
    <path clip-path="url(#p61f501f7ff)" d="M 149.972727 350.705073 
L 156.633884 361.183142 
L 163.295041 371.790396 
L 169.956198 380.161055 
L 176.617355 387.298945 
L 183.278512 393.738254 
L 189.939669 399.19337 
L 196.600826 404.021709 
L 203.261983 408.343381 
L 209.92314 412.221555 
L 216.584298 415.172619 
L 223.245455 418.19305 
L 229.906612 420.541179 
L 236.567769 422.810074 
L 243.228926 422.44121 
L 249.890083 420.559522 
L 256.55124 418.995937 
L 263.212397 417.44941 
L 269.873554 416.382653 
L 276.534711 415.302835 
L 283.195868 414.661673 
L 289.857025 414.157295 
L 296.518182 413.968667 
L 303.179339 414.053139 
L 309.840496 414.424748 
L 316.501653 415.083483 
L 323.16281 415.876917 
L 329.823967 417.117955 
L 336.485124 418.385059 
L 343.146281 419.936717 
L 349.807438 421.439895 
L 356.468595 423.144573 
L 363.129752 422.602353 
L 369.790909 421.15975 
L 376.452066 419.824963 
L 383.113223 418.742656 
L 389.77438 417.819855 
L 396.435537 417.34438 
L 403.096694 417.265643 
L 409.757851 417.631158 
L 416.419008 418.456031 
L 423.080165 419.85407 
L 429.741322 421.810399 
L 436.402479 423.188885 
L 443.063636 419.819413 
L 449.724793 416.35431 
L 456.38595 411.965046 
L 463.047107 407.20363 
L 469.708264 401.335886 
L 476.369421 395.657258 
L 483.030579 388.635854 
L 489.691736 381.405565 
L 496.352893 373.726331 
L 503.01405 365.401015 
L 509.675207 356.399952 
L 516.336364 346.683649 
L 522.997521 336.649463 
L 529.658678 326.75825 
L 536.319835 316.116185 
L 542.980992 307.022377 
L 549.642149 294.506993 
L 556.303306 283.922993 
L 562.964463 273.740054 
L 569.62562 262.227487 
L 576.286777 254.076863 
L 582.947934 244.471693 
L 589.609091 236.099904 
L 596.270248 227.816229 
L 602.931405 220.896893 
L 609.592562 214.799751 
L 616.253719 210.068693 
L 622.914876 206.608154 
L 629.576033 204.253333 
L 636.23719 203.510054 
L 642.898347 204.290417 
L 649.559504 206.6545 
L 656.220661 210.555674 
L 662.881818 216.038918 
L 669.542975 222.918632 
L 676.204132 232.607191 
L 682.865289 243.487536 
L 689.526446 256.804494 
L 696.187603 270.071976 
L 702.84876 288.086404 
L 709.509917 304.118113 
L 716.171074 326.281542 
L 722.832231 347.099899 
L 729.493388 370.585914 
L 736.154545 395.573703 
L 742.815702 423.692051 
L 749.47686 395.136041 
L 756.138017 365.200844 
L 762.799174 334.367356 
L 769.460331 298.013294 
L 776.121488 268.587301 
L 782.782645 232.461137 
L 789.443802 195.819418 
L 796.104959 158.025994 
L 802.766116 121.283544 
L 809.427273 77.776364 
" style="fill:none;stroke:#1f77b4;stroke-linecap:square;stroke-width:1.5;"/>
   </g>
   <g id="line2d_29">
    <path clip-path="url(#p61f501f7ff)" d="M 149.972727 389.748393 
L 156.633884 395.866003 
L 163.295041 391.593065 
L 169.956198 402.484121 
L 176.617355 401.162203 
L 183.278512 406.247951 
L 189.939669 413.19088 
L 196.600826 413.229828 
L 203.261983 414.366028 
L 209.92314 418.044284 
L 216.584298 418.943592 
L 223.245455 421.147831 
L 229.906612 421.476338 
L 236.567769 423.255123 
L 243.228926 423.59749 
L 249.890083 422.181754 
L 256.55124 420.670458 
L 263.212397 421.260022 
L 269.873554 419.433474 
L 276.534711 418.417604 
L 283.195868 418.579548 
L 289.857025 418.949278 
L 296.518182 418.501721 
L 303.179339 418.835701 
L 309.840496 419.305717 
L 316.501653 419.41734 
L 323.16281 419.880321 
L 329.823967 420.323471 
L 336.485124 421.078249 
L 343.146281 421.90968 
L 349.807438 422.557597 
L 356.468595 423.364792 
L 363.129752 423.17886 
L 369.790909 422.415874 
L 376.452066 421.726023 
L 383.113223 421.223596 
L 389.77438 420.624934 
L 396.435537 420.081284 
L 403.096694 420.344829 
L 409.757851 420.610719 
L 416.419008 421.272211 
L 423.080165 421.945004 
L 429.741322 422.842535 
L 436.402479 423.201711 
L 443.063636 421.556084 
L 449.724793 419.781491 
L 456.38595 418.144748 
L 463.047107 416.099113 
L 469.708264 413.349447 
L 476.369421 410.088541 
L 483.030579 405.442781 
L 489.691736 402.040401 
L 496.352893 399.349799 
L 503.01405 395.950298 
L 509.675207 391.999612 
L 516.336364 384.158406 
L 522.997521 382.148592 
L 529.658678 359.675991 
L 536.319835 368.630084 
L 542.980992 362.35977 
L 549.642149 357.847204 
L 556.303306 368.417997 
L 562.964463 356.305133 
L 569.62562 347.43011 
L 576.286777 347.996859 
L 582.947934 334.661297 
L 589.609091 329.65064 
L 596.270248 333.6982 
L 602.931405 318.953725 
L 609.592562 311.569849 
L 616.253719 312.106711 
L 622.914876 313.561787 
L 629.576033 317.218259 
L 636.23719 318.414837 
L 642.898347 318.579339 
L 649.559504 328.517816 
L 656.220661 326.117483 
L 662.881818 329.279523 
L 669.542975 331.832703 
L 676.204132 322.149491 
L 682.865289 315.044867 
L 689.526446 337.606489 
L 696.187603 335.980443 
L 702.84876 356.156231 
L 709.509917 363.403288 
L 716.171074 366.256226 
L 722.832231 387.828951 
L 729.493388 396.39256 
L 736.154545 415.343625 
L 742.815702 422.731943 
L 749.47686 409.108066 
L 756.138017 391.253968 
L 762.799174 373.083445 
L 769.460331 350.380135 
L 776.121488 344.784498 
L 782.782645 332.671029 
L 789.443802 302.804885 
L 796.104959 295.955988 
L 802.766116 289.410438 
L 809.427273 262.193318 
" style="fill:none;stroke:#1f77b4;stroke-dasharray:5.55,2.4;stroke-dashoffset:0;stroke-width:1.5;"/>
   </g>
   <g id="line2d_30">
    <path clip-path="url(#p61f501f7ff)" d="M 149.972727 416.160469 
L 156.633884 417.818104 
L 163.295041 418.588163 
L 169.956198 420.645915 
L 176.617355 421.444367 
L 183.278512 421.808401 
L 189.939669 422.655663 
L 196.600826 423.047067 
L 203.261983 423.219601 
L 209.92314 423.502421 
L 216.584298 423.585645 
L 223.245455 423.64041 
L 229.906612 423.652175 
L 236.567769 423.643835 
L 243.228926 423.616102 
L 249.890083 423.588816 
L 256.55124 423.519428 
L 263.212397 423.53184 
L 269.873554 423.504326 
L 276.534711 423.480312 
L 283.195868 423.507866 
L 289.857025 423.509203 
L 296.518182 423.509421 
L 303.179339 423.521028 
L 309.840496 423.567272 
L 316.501653 423.585586 
L 323.16281 423.610695 
L 329.823967 423.640972 
L 336.485124 423.665091 
L 343.146281 423.683514 
L 349.807438 423.694897 
L 356.468595 423.701843 
L 363.129752 423.703236 
L 369.790909 423.700274 
L 376.452066 423.694373 
L 383.113223 423.684875 
L 389.77438 423.677875 
L 396.435537 423.670553 
L 403.096694 423.669325 
L 409.757851 423.672622 
L 416.419008 423.683827 
L 423.080165 423.69305 
L 429.741322 423.700781 
L 436.402479 423.701585 
L 443.063636 423.684082 
L 449.724793 423.643972 
L 456.38595 423.567181 
L 463.047107 423.448201 
L 469.708264 423.184328 
L 476.369421 423.003788 
L 483.030579 422.431584 
L 489.691736 421.905534 
L 496.352893 421.17843 
L 503.01405 420.666771 
L 509.675207 419.722488 
L 516.336364 417.83236 
L 522.997521 416.946175 
L 529.658678 411.911919 
L 536.319835 412.494005 
L 542.980992 410.615295 
L 549.642149 407.90519 
L 556.303306 409.469627 
L 562.964463 406.060875 
L 569.62562 402.181411 
L 576.286777 400.677176 
L 582.947934 397.053647 
L 589.609091 393.89787 
L 596.270248 394.689611 
L 602.931405 388.718179 
L 609.592562 385.408148 
L 616.253719 385.340924 
L 622.914876 386.003425 
L 629.576033 387.447333 
L 636.23719 388.427184 
L 642.898347 389.053789 
L 649.559504 393.535014 
L 656.220661 394.202085 
L 662.881818 395.132701 
L 669.542975 396.673673 
L 676.204132 395.796861 
L 682.865289 394.568926 
L 689.526446 403.548528 
L 696.187603 403.29859 
L 702.84876 409.540492 
L 709.509917 413.05215 
L 716.171074 414.65659 
L 722.832231 419.052755 
L 729.493388 420.453971 
L 736.154545 421.848851 
L 742.815702 421.785743 
L 749.47686 421.026217 
L 756.138017 417.26859 
L 762.799174 411.857698 
L 769.460331 403.259361 
L 776.121488 396.42714 
L 782.782645 385.456132 
L 789.443802 367.873721 
L 796.104959 351.594166 
L 802.766116 341.086234 
L 809.427273 310.790568 
" style="fill:none;stroke:#1f77b4;stroke-dasharray:1.5,2.475;stroke-dashoffset:0;stroke-width:1.5;"/>
   </g>
   <g id="line2d_31"/>
   <g id="line2d_32">
    <path clip-path="url(#p61f501f7ff)" d="M 149.972727 420.169544 
L 156.633884 423.300549 
L 163.295041 420.253298 
L 169.956198 418.672229 
L 176.617355 417.984707 
L 183.278512 418.00299 
L 189.939669 418.541054 
L 196.600826 419.437019 
L 203.261983 420.581245 
L 209.92314 421.838865 
L 216.584298 422.886543 
L 223.245455 423.452811 
L 229.906612 422.698365 
L 236.567769 422.11101 
L 243.228926 421.769022 
L 249.890083 421.705872 
L 256.55124 421.869799 
L 263.212397 422.280901 
L 269.873554 422.747193 
L 276.534711 423.434968 
L 283.195868 423.398357 
L 289.857025 422.72836 
L 296.518182 422.172435 
L 303.179339 421.73278 
L 309.840496 421.404575 
L 316.501653 421.245233 
L 323.16281 421.238016 
L 329.823967 421.397248 
L 336.485124 421.669385 
L 343.146281 422.092891 
L 349.807438 422.56647 
L 356.468595 423.162575 
L 363.129752 423.612038 
L 369.790909 423.011032 
L 376.452066 422.397417 
L 383.113223 421.833618 
L 389.77438 421.245706 
L 396.435537 420.800734 
L 403.096694 420.443299 
L 409.757851 420.217119 
L 416.419008 420.146808 
L 423.080165 420.244664 
L 429.741322 420.535357 
L 436.402479 420.993916 
L 443.063636 421.702826 
L 449.724793 422.440983 
L 456.38595 423.317592 
L 463.047107 423.285662 
L 469.708264 422.572811 
L 476.369421 422.245628 
L 483.030579 422.425862 
L 489.691736 423.321362 
L 496.352893 422.263855 
L 503.01405 419.255425 
L 509.675207 414.729686 
L 516.336364 408.412344 
L 522.997521 400.35491 
L 529.658678 390.981102 
L 536.319835 379.399175 
L 542.980992 368.414421 
L 549.642149 351.885719 
L 556.303306 336.907274 
L 562.964463 321.896997 
L 569.62562 304.58621 
L 576.286777 292.395797 
L 582.947934 278.452359 
L 589.609091 267.036423 
L 596.270248 256.917134 
L 602.931405 249.923748 
L 609.592562 245.604976 
L 616.253719 244.432317 
L 622.914876 246.067045 
L 629.576033 250.920203 
L 636.23719 257.959589 
L 642.898347 268.331554 
L 649.559504 280.191852 
L 656.220661 293.447889 
L 662.881818 307.909258 
L 669.542975 322.542454 
L 676.204132 339.555026 
L 682.865289 355.352197 
L 689.526446 371.225323 
L 696.187603 384.302518 
L 702.84876 398.422229 
L 709.509917 408.148647 
L 716.171074 418.07232 
L 722.832231 423.218916 
L 729.493388 419.557961 
L 736.154545 418.888636 
L 742.815702 421.66804 
L 749.47686 419.608794 
L 756.138017 409.981834 
L 762.799174 396.94887 
L 769.460331 378.019167 
L 776.121488 360.087816 
L 782.782645 335.246962 
L 789.443802 307.069679 
L 796.104959 275.129334 
L 802.766116 241.543295 
L 809.427273 198.753276 
" style="fill:none;stroke:#ff7f0e;stroke-linecap:square;stroke-width:1.5;"/>
   </g>
   <g id="line2d_33">
    <path clip-path="url(#p61f501f7ff)" d="M 149.972727 420.452436 
L 156.633884 423.114573 
L 163.295041 422.140531 
L 169.956198 422.550809 
L 176.617355 421.607684 
L 183.278512 420.428591 
L 189.939669 419.739877 
L 196.600826 422.726932 
L 203.261983 421.673215 
L 209.92314 422.969368 
L 216.584298 423.477303 
L 223.245455 422.851419 
L 229.906612 422.696405 
L 236.567769 422.941542 
L 243.228926 422.146217 
L 249.890083 422.763216 
L 256.55124 422.708417 
L 263.212397 422.792925 
L 269.873554 423.555485 
L 276.534711 423.639424 
L 283.195868 422.912899 
L 289.857025 422.90732 
L 296.518182 423.067984 
L 303.179339 423.207468 
L 309.840496 422.084488 
L 316.501653 422.657386 
L 323.16281 422.513495 
L 329.823967 422.888058 
L 336.485124 422.583041 
L 343.146281 422.492563 
L 349.807438 423.088951 
L 356.468595 423.264185 
L 363.129752 423.655487 
L 369.790909 423.444964 
L 376.452066 423.224277 
L 383.113223 422.402299 
L 389.77438 422.622346 
L 396.435537 422.615878 
L 403.096694 421.730572 
L 409.757851 421.346769 
L 416.419008 421.744929 
L 423.080165 422.068816 
L 429.741322 422.164056 
L 436.402479 422.190567 
L 443.063636 422.617584 
L 449.724793 423.034366 
L 456.38595 423.672581 
L 463.047107 423.267135 
L 469.708264 421.492969 
L 476.369421 423.346454 
L 483.030579 423.321507 
L 489.691736 423.4348 
L 496.352893 422.901776 
L 503.01405 419.143099 
L 509.675207 416.571759 
L 516.336364 414.907191 
L 522.997521 409.15988 
L 529.658678 406.629195 
L 536.319835 401.462067 
L 542.980992 393.471853 
L 549.642149 388.215739 
L 556.303306 381.200385 
L 562.964463 370.717725 
L 569.62562 363.95561 
L 576.286777 363.974871 
L 582.947934 350.26407 
L 589.609091 348.883374 
L 596.270248 342.875574 
L 602.931405 342.004483 
L 609.592562 341.324014 
L 616.253719 340.971342 
L 622.914876 340.757762 
L 629.576033 345.282305 
L 636.23719 345.62325 
L 642.898347 349.470735 
L 649.559504 355.42601 
L 656.220661 362.032827 
L 662.881818 367.819797 
L 669.542975 374.740195 
L 676.204132 383.102627 
L 682.865289 391.208693 
L 689.526446 397.584659 
L 696.187603 405.080549 
L 702.84876 411.871378 
L 709.509917 415.317291 
L 716.171074 421.420047 
L 722.832231 422.807353 
L 729.493388 421.604947 
L 736.154545 421.157603 
L 742.815702 422.67121 
L 749.47686 421.751326 
L 756.138017 417.29338 
L 762.799174 411.134476 
L 769.460331 401.65276 
L 776.121488 392.633172 
L 782.782645 381.021064 
L 789.443802 367.145583 
L 796.104959 353.30635 
L 802.766116 338.120892 
L 809.427273 319.070394 
" style="fill:none;stroke:#ff7f0e;stroke-dasharray:5.55,2.4;stroke-dashoffset:0;stroke-width:1.5;"/>
   </g>
   <g id="line2d_34">
    <path clip-path="url(#p61f501f7ff)" d="M 149.972727 421.048955 
L 156.633884 421.425373 
L 163.295041 421.456086 
L 169.956198 422.159066 
L 176.617355 422.353763 
L 183.278512 422.437551 
L 189.939669 422.883984 
L 196.600826 423.061883 
L 203.261983 423.138777 
L 209.92314 423.401317 
L 216.584298 423.488073 
L 223.245455 423.563222 
L 229.906612 423.617825 
L 236.567769 423.650087 
L 243.228926 423.654364 
L 249.890083 423.645991 
L 256.55124 423.606599 
L 263.212397 423.602704 
L 269.873554 423.565601 
L 276.534711 423.526299 
L 283.195868 423.520756 
L 289.857025 423.527426 
L 296.518182 423.521001 
L 303.179339 423.55493 
L 309.840496 423.563263 
L 316.501653 423.594304 
L 323.16281 423.623374 
L 329.823967 423.636533 
L 336.485124 423.650925 
L 343.146281 423.667922 
L 349.807438 423.686707 
L 356.468595 423.696649 
L 363.129752 423.702488 
L 369.790909 423.703636 
L 376.452066 423.701318 
L 383.113223 423.695502 
L 389.77438 423.691259 
L 396.435537 423.689079 
L 403.096694 423.679599 
L 409.757851 423.675679 
L 416.419008 423.676874 
L 423.080165 423.682734 
L 429.741322 423.688527 
L 436.402479 423.696385 
L 443.063636 423.698199 
L 449.724793 423.696141 
L 456.38595 423.684867 
L 463.047107 423.661431 
L 469.708264 423.598831 
L 476.369421 423.555692 
L 483.030579 423.391134 
L 489.691736 423.21692 
L 496.352893 422.968436 
L 503.01405 422.696463 
L 509.675207 422.252089 
L 516.336364 421.441382 
L 522.997521 420.786849 
L 529.658678 418.801933 
L 536.319835 418.535889 
L 542.980992 417.172858 
L 549.642149 415.802658 
L 556.303306 415.403169 
L 562.964463 413.145915 
L 569.62562 411.434879 
L 576.286777 411.657701 
L 582.947934 408.722826 
L 589.609091 408.685546 
L 596.270248 408.176448 
L 602.931405 408.257477 
L 609.592562 408.823059 
L 616.253719 409.610227 
L 622.914876 410.318216 
L 629.576033 412.266666 
L 636.23719 412.775802 
L 642.898347 414.097238 
L 649.559504 415.738932 
L 656.220661 417.272192 
L 662.881818 418.424042 
L 669.542975 419.615196 
L 676.204132 420.785818 
L 682.865289 421.718114 
L 689.526446 422.281163 
L 696.187603 422.845697 
L 702.84876 423.244748 
L 709.509917 423.365413 
L 716.171074 423.515231 
L 722.832231 423.61206 
L 729.493388 423.633021 
L 736.154545 423.642697 
L 742.815702 423.637575 
L 749.47686 423.609247 
L 756.138017 423.461604 
L 762.799174 423.217992 
L 769.460331 422.672331 
L 776.121488 421.814624 
L 782.782645 420.417804 
L 789.443802 418.184156 
L 796.104959 415.235088 
L 802.766116 411.259826 
L 809.427273 404.910958 
" style="fill:none;stroke:#ff7f0e;stroke-dasharray:1.5,2.475;stroke-dashoffset:0;stroke-width:1.5;"/>
   </g>
   <g id="patch_3">
    <path d="M 117 441 
L 117 60.48 
" style="fill:none;stroke:#000000;stroke-linecap:square;stroke-linejoin:miter;stroke-width:0.8;"/>
   </g>
   <g id="patch_4">
    <path d="M 842.4 441 
L 842.4 60.48 
" style="fill:none;stroke:#000000;stroke-linecap:square;stroke-linejoin:miter;stroke-width:0.8;"/>
   </g>
   <g id="patch_5">
    <path d="M 117 441 
L 842.4 441 
" style="fill:none;stroke:#000000;stroke-linecap:square;stroke-linejoin:miter;stroke-width:0.8;"/>
   </g>
   <g id="patch_6">
    <path d="M 117 60.48 
L 842.4 60.48 
" style="fill:none;stroke:#000000;stroke-linecap:square;stroke-linejoin:miter;stroke-width:0.8;"/>
   </g>
   <g id="legend_1">
    <g id="patch_7">
     <path d="M 376.421875 141.870625 
L 582.978125 141.870625 
Q 584.978125 141.870625 584.978125 139.870625 
L 584.978125 67.48 
Q 584.978125 65.48 582.978125 65.48 
L 376.421875 65.48 
Q 374.421875 65.48 374.421875 67.48 
L 374.421875 139.870625 
Q 374.421875 141.870625 376.421875 141.870625 
z
" style="fill:#ffffff;opacity:0.8;stroke:#cccccc;stroke-linejoin:miter;"/>
    </g>
    <g id="text_17">
     <!-- Determinant loss weight -->
     <defs>
      <path d="M 4.203125 54.6875 
L 13.1875 54.6875 
L 24.421875 12.015625 
L 35.59375 54.6875 
L 46.1875 54.6875 
L 57.421875 12.015625 
L 68.609375 54.6875 
L 77.59375 54.6875 
L 63.28125 0 
L 52.6875 0 
L 40.921875 44.828125 
L 29.109375 0 
L 18.5 0 
z
" id="DejaVuSans-119"/>
      <path d="M 45.40625 27.984375 
Q 45.40625 37.75 41.375 43.109375 
Q 37.359375 48.484375 30.078125 48.484375 
Q 22.859375 48.484375 18.828125 43.109375 
Q 14.796875 37.75 14.796875 27.984375 
Q 14.796875 18.265625 18.828125 12.890625 
Q 22.859375 7.515625 30.078125 7.515625 
Q 37.359375 7.515625 41.375 12.890625 
Q 45.40625 18.265625 45.40625 27.984375 
z
M 54.390625 6.78125 
Q 54.390625 -7.171875 48.1875 -13.984375 
Q 42 -20.796875 29.203125 -20.796875 
Q 24.46875 -20.796875 20.265625 -20.09375 
Q 16.0625 -19.390625 12.109375 -17.921875 
L 12.109375 -9.1875 
Q 16.0625 -11.328125 19.921875 -12.34375 
Q 23.78125 -13.375 27.78125 -13.375 
Q 36.625 -13.375 41.015625 -8.765625 
Q 45.40625 -4.15625 45.40625 5.171875 
L 45.40625 9.625 
Q 42.625 4.78125 38.28125 2.390625 
Q 33.9375 0 27.875 0 
Q 17.828125 0 11.671875 7.65625 
Q 5.515625 15.328125 5.515625 27.984375 
Q 5.515625 40.671875 11.671875 48.328125 
Q 17.828125 56 27.875 56 
Q 33.9375 56 38.28125 53.609375 
Q 42.625 51.21875 45.40625 46.390625 
L 45.40625 54.6875 
L 54.390625 54.6875 
z
" id="DejaVuSans-103"/>
     </defs>
     <g transform="translate(418.367188 77.078438)scale(0.1 -0.1)">
      <use xlink:href="#DejaVuSans-68"/>
      <use x="77.001953" xlink:href="#DejaVuSans-101"/>
      <use x="138.525391" xlink:href="#DejaVuSans-116"/>
      <use x="177.734375" xlink:href="#DejaVuSans-101"/>
      <use x="239.257812" xlink:href="#DejaVuSans-114"/>
      <use x="280.355469" xlink:href="#DejaVuSans-109"/>
      <use x="377.767578" xlink:href="#DejaVuSans-105"/>
      <use x="405.550781" xlink:href="#DejaVuSans-110"/>
      <use x="468.929688" xlink:href="#DejaVuSans-97"/>
      <use x="530.208984" xlink:href="#DejaVuSans-110"/>
      <use x="593.587891" xlink:href="#DejaVuSans-116"/>
      <use x="632.796875" xlink:href="#DejaVuSans-32"/>
      <use x="664.583984" xlink:href="#DejaVuSans-108"/>
      <use x="692.367188" xlink:href="#DejaVuSans-111"/>
      <use x="753.548828" xlink:href="#DejaVuSans-115"/>
      <use x="805.648438" xlink:href="#DejaVuSans-115"/>
      <use x="857.748047" xlink:href="#DejaVuSans-32"/>
      <use x="889.535156" xlink:href="#DejaVuSans-119"/>
      <use x="971.322266" xlink:href="#DejaVuSans-101"/>
      <use x="1032.845703" xlink:href="#DejaVuSans-105"/>
      <use x="1060.628906" xlink:href="#DejaVuSans-103"/>
      <use x="1124.105469" xlink:href="#DejaVuSans-104"/>
      <use x="1187.484375" xlink:href="#DejaVuSans-116"/>
     </g>
    </g>
    <g id="line2d_35"/>
    <g id="line2d_36"/>
    <g id="text_18">
     <!-- $\lambda$ = 0 -->
     <defs>
      <path d="M 36.71875 67.4375 
L 48.828125 0 
L 39.3125 0 
L 31.84375 40.4375 
L 5.125 0 
L -4.390625 0 
L 29.734375 52.4375 
L 28.03125 62.109375 
Q 26.953125 68.265625 21.734375 68.265625 
L 17.046875 68.265625 
L 18.5 75.984375 
L 24.21875 75.875 
Q 35.203125 75.734375 36.71875 67.4375 
z
" id="DejaVuSans-Oblique-955"/>
      <path d="M 10.59375 45.40625 
L 73.1875 45.40625 
L 73.1875 37.203125 
L 10.59375 37.203125 
z
M 10.59375 25.484375 
L 73.1875 25.484375 
L 73.1875 17.1875 
L 10.59375 17.1875 
z
" id="DejaVuSans-61"/>
     </defs>
     <g transform="translate(406.421875 91.756563)scale(0.1 -0.1)">
      <use transform="translate(0 0.015625)" xlink:href="#DejaVuSans-Oblique-955"/>
      <use transform="translate(59.179688 0.015625)" xlink:href="#DejaVuSans-32"/>
      <use transform="translate(90.966797 0.015625)" xlink:href="#DejaVuSans-61"/>
      <use transform="translate(174.755859 0.015625)" xlink:href="#DejaVuSans-32"/>
      <use transform="translate(206.542969 0.015625)" xlink:href="#DejaVuSans-48"/>
     </g>
    </g>
    <g id="line2d_37">
     <path d="M 378.421875 102.934688 
L 398.421875 102.934688 
" style="fill:none;stroke:#1f77b4;stroke-linecap:square;stroke-width:1.5;"/>
    </g>
    <g id="line2d_38"/>
    <g id="text_19">
     <!-- Determinant -->
     <g transform="translate(406.421875 106.434688)scale(0.1 -0.1)">
      <use xlink:href="#DejaVuSans-68"/>
      <use x="77.001953" xlink:href="#DejaVuSans-101"/>
      <use x="138.525391" xlink:href="#DejaVuSans-116"/>
      <use x="177.734375" xlink:href="#DejaVuSans-101"/>
      <use x="239.257812" xlink:href="#DejaVuSans-114"/>
      <use x="280.355469" xlink:href="#DejaVuSans-109"/>
      <use x="377.767578" xlink:href="#DejaVuSans-105"/>
      <use x="405.550781" xlink:href="#DejaVuSans-110"/>
      <use x="468.929688" xlink:href="#DejaVuSans-97"/>
      <use x="530.208984" xlink:href="#DejaVuSans-110"/>
      <use x="593.587891" xlink:href="#DejaVuSans-116"/>
     </g>
    </g>
    <g id="line2d_39">
     <path d="M 378.421875 117.612813 
L 398.421875 117.612813 
" style="fill:none;stroke:#1f77b4;stroke-dasharray:5.55,2.4;stroke-dashoffset:0;stroke-width:1.5;"/>
    </g>
    <g id="line2d_40"/>
    <g id="text_20">
     <!-- Norm -->
     <g transform="translate(406.421875 121.112813)scale(0.1 -0.1)">
      <use xlink:href="#DejaVuSans-78"/>
      <use x="74.804688" xlink:href="#DejaVuSans-111"/>
      <use x="135.986328" xlink:href="#DejaVuSans-114"/>
      <use x="177.083984" xlink:href="#DejaVuSans-109"/>
     </g>
    </g>
    <g id="line2d_41">
     <path d="M 378.421875 132.290938 
L 398.421875 132.290938 
" style="fill:none;stroke:#1f77b4;stroke-dasharray:1.5,2.475;stroke-dashoffset:0;stroke-width:1.5;"/>
    </g>
    <g id="line2d_42"/>
    <g id="text_21">
     <!-- MSE -->
     <g transform="translate(406.421875 135.790938)scale(0.1 -0.1)">
      <use xlink:href="#DejaVuSans-77"/>
      <use x="86.279297" xlink:href="#DejaVuSans-83"/>
      <use x="149.755859" xlink:href="#DejaVuSans-69"/>
     </g>
    </g>
    <g id="line2d_43"/>
    <g id="line2d_44"/>
    <g id="text_22">
     <!-- $\lambda$ = 0.1 -->
     <g transform="translate(517.7 91.756563)scale(0.1 -0.1)">
      <use transform="translate(0 0.015625)" xlink:href="#DejaVuSans-Oblique-955"/>
      <use transform="translate(59.179688 0.015625)" xlink:href="#DejaVuSans-32"/>
      <use transform="translate(90.966797 0.015625)" xlink:href="#DejaVuSans-61"/>
      <use transform="translate(174.755859 0.015625)" xlink:href="#DejaVuSans-32"/>
      <use transform="translate(206.542969 0.015625)" xlink:href="#DejaVuSans-48"/>
      <use transform="translate(270.166016 0.015625)" xlink:href="#DejaVuSans-46"/>
      <use transform="translate(301.953125 0.015625)" xlink:href="#DejaVuSans-49"/>
     </g>
    </g>
    <g id="line2d_45">
     <path d="M 489.7 102.934688 
L 509.7 102.934688 
" style="fill:none;stroke:#ff7f0e;stroke-linecap:square;stroke-width:1.5;"/>
    </g>
    <g id="line2d_46"/>
    <g id="text_23">
     <!-- Determinant -->
     <g transform="translate(517.7 106.434688)scale(0.1 -0.1)">
      <use xlink:href="#DejaVuSans-68"/>
      <use x="77.001953" xlink:href="#DejaVuSans-101"/>
      <use x="138.525391" xlink:href="#DejaVuSans-116"/>
      <use x="177.734375" xlink:href="#DejaVuSans-101"/>
      <use x="239.257812" xlink:href="#DejaVuSans-114"/>
      <use x="280.355469" xlink:href="#DejaVuSans-109"/>
      <use x="377.767578" xlink:href="#DejaVuSans-105"/>
      <use x="405.550781" xlink:href="#DejaVuSans-110"/>
      <use x="468.929688" xlink:href="#DejaVuSans-97"/>
      <use x="530.208984" xlink:href="#DejaVuSans-110"/>
      <use x="593.587891" xlink:href="#DejaVuSans-116"/>
     </g>
    </g>
    <g id="line2d_47">
     <path d="M 489.7 117.612813 
L 509.7 117.612813 
" style="fill:none;stroke:#ff7f0e;stroke-dasharray:5.55,2.4;stroke-dashoffset:0;stroke-width:1.5;"/>
    </g>
    <g id="line2d_48"/>
    <g id="text_24">
     <!-- Norm -->
     <g transform="translate(517.7 121.112813)scale(0.1 -0.1)">
      <use xlink:href="#DejaVuSans-78"/>
      <use x="74.804688" xlink:href="#DejaVuSans-111"/>
      <use x="135.986328" xlink:href="#DejaVuSans-114"/>
      <use x="177.083984" xlink:href="#DejaVuSans-109"/>
     </g>
    </g>
    <g id="line2d_49">
     <path d="M 489.7 132.290938 
L 509.7 132.290938 
" style="fill:none;stroke:#ff7f0e;stroke-dasharray:1.5,2.475;stroke-dashoffset:0;stroke-width:1.5;"/>
    </g>
    <g id="line2d_50"/>
    <g id="text_25">
     <!-- MSE -->
     <g transform="translate(517.7 135.790938)scale(0.1 -0.1)">
      <use xlink:href="#DejaVuSans-77"/>
      <use x="86.279297" xlink:href="#DejaVuSans-83"/>
      <use x="149.755859" xlink:href="#DejaVuSans-69"/>
     </g>
    </g>
   </g>
  </g>
 </g>
 <defs>
  <clipPath id="p61f501f7ff">
   <rect height="380.52" width="725.4" x="117" y="60.48"/>
  </clipPath>
 </defs>
</svg>
