<?xml version="1.0" encoding="utf-8" standalone="no"?>
<!DOCTYPE svg PUBLIC "-//W3C//DTD SVG 1.1//EN"
  "http://www.w3.org/Graphics/SVG/1.1/DTD/svg11.dtd">
<!-- Created with matplotlib (https://matplotlib.org/) -->
<svg height="504pt" version="1.1" viewBox="0 0 936 504" width="936pt" xmlns="http://www.w3.org/2000/svg" xmlns:xlink="http://www.w3.org/1999/xlink">
 <defs>
  <style type="text/css">
*{stroke-linecap:butt;stroke-linejoin:round;}
  </style>
 </defs>
 <g id="figure_1">
  <g id="patch_1">
   <path d="M 0 504 
L 936 504 
L 936 0 
L 0 0 
z
" style="fill:#ffffff;"/>
  </g>
  <g id="axes_1">
   <g id="patch_2">
    <path d="M 117 441 
L 842.4 441 
L 842.4 60.48 
L 117 60.48 
z
" style="fill:#ffffff;"/>
   </g>
   <g id="matplotlib.axis_1">
    <g id="xtick_1">
     <g id="line2d_1">
      <defs>
       <path d="M 0 0 
L 0 3.5 
" id="m3277342566" style="stroke:#000000;stroke-width:0.8;"/>
      </defs>
      <g>
       <use style="stroke:#000000;stroke-width:0.8;" x="149.245254" xlink:href="#m3277342566" y="441"/>
      </g>
     </g>
     <g id="text_1">
      <!-- 0 -->
      <defs>
       <path d="M 31.78125 66.40625 
Q 24.171875 66.40625 20.328125 58.90625 
Q 16.5 51.421875 16.5 36.375 
Q 16.5 21.390625 20.328125 13.890625 
Q 24.171875 6.390625 31.78125 6.390625 
Q 39.453125 6.390625 43.28125 13.890625 
Q 47.125 21.390625 47.125 36.375 
Q 47.125 51.421875 43.28125 58.90625 
Q 39.453125 66.40625 31.78125 66.40625 
z
M 31.78125 74.21875 
Q 44.046875 74.21875 50.515625 64.515625 
Q 56.984375 54.828125 56.984375 36.375 
Q 56.984375 17.96875 50.515625 8.265625 
Q 44.046875 -1.421875 31.78125 -1.421875 
Q 19.53125 -1.421875 13.0625 8.265625 
Q 6.59375 17.96875 6.59375 36.375 
Q 6.59375 54.828125 13.0625 64.515625 
Q 19.53125 74.21875 31.78125 74.21875 
z
" id="DejaVuSans-48"/>
      </defs>
      <g transform="translate(146.064004 455.598437)scale(0.1 -0.1)">
       <use xlink:href="#DejaVuSans-48"/>
      </g>
     </g>
    </g>
    <g id="xtick_2">
     <g id="line2d_2">
      <g>
       <use style="stroke:#000000;stroke-width:0.8;" x="240.179416" xlink:href="#m3277342566" y="441"/>
      </g>
     </g>
     <g id="text_2">
      <!-- 25000 -->
      <defs>
       <path d="M 19.1875 8.296875 
L 53.609375 8.296875 
L 53.609375 0 
L 7.328125 0 
L 7.328125 8.296875 
Q 12.9375 14.109375 22.625 23.890625 
Q 32.328125 33.6875 34.8125 36.53125 
Q 39.546875 41.84375 41.421875 45.53125 
Q 43.3125 49.21875 43.3125 52.78125 
Q 43.3125 58.59375 39.234375 62.25 
Q 35.15625 65.921875 28.609375 65.921875 
Q 23.96875 65.921875 18.8125 64.3125 
Q 13.671875 62.703125 7.8125 59.421875 
L 7.8125 69.390625 
Q 13.765625 71.78125 18.9375 73 
Q 24.125 74.21875 28.421875 74.21875 
Q 39.75 74.21875 46.484375 68.546875 
Q 53.21875 62.890625 53.21875 53.421875 
Q 53.21875 48.921875 51.53125 44.890625 
Q 49.859375 40.875 45.40625 35.40625 
Q 44.1875 33.984375 37.640625 27.21875 
Q 31.109375 20.453125 19.1875 8.296875 
z
" id="DejaVuSans-50"/>
       <path d="M 10.796875 72.90625 
L 49.515625 72.90625 
L 49.515625 64.59375 
L 19.828125 64.59375 
L 19.828125 46.734375 
Q 21.96875 47.46875 24.109375 47.828125 
Q 26.265625 48.1875 28.421875 48.1875 
Q 40.625 48.1875 47.75 41.5 
Q 54.890625 34.8125 54.890625 23.390625 
Q 54.890625 11.625 47.5625 5.09375 
Q 40.234375 -1.421875 26.90625 -1.421875 
Q 22.3125 -1.421875 17.546875 -0.640625 
Q 12.796875 0.140625 7.71875 1.703125 
L 7.71875 11.625 
Q 12.109375 9.234375 16.796875 8.0625 
Q 21.484375 6.890625 26.703125 6.890625 
Q 35.15625 6.890625 40.078125 11.328125 
Q 45.015625 15.765625 45.015625 23.390625 
Q 45.015625 31 40.078125 35.4375 
Q 35.15625 39.890625 26.703125 39.890625 
Q 22.75 39.890625 18.8125 39.015625 
Q 14.890625 38.140625 10.796875 36.28125 
z
" id="DejaVuSans-53"/>
      </defs>
      <g transform="translate(224.273166 455.598437)scale(0.1 -0.1)">
       <use xlink:href="#DejaVuSans-50"/>
       <use x="63.623047" xlink:href="#DejaVuSans-53"/>
       <use x="127.246094" xlink:href="#DejaVuSans-48"/>
       <use x="190.869141" xlink:href="#DejaVuSans-48"/>
       <use x="254.492188" xlink:href="#DejaVuSans-48"/>
      </g>
     </g>
    </g>
    <g id="xtick_3">
     <g id="line2d_3">
      <g>
       <use style="stroke:#000000;stroke-width:0.8;" x="331.113579" xlink:href="#m3277342566" y="441"/>
      </g>
     </g>
     <g id="text_3">
      <!-- 50000 -->
      <g transform="translate(315.207329 455.598437)scale(0.1 -0.1)">
       <use xlink:href="#DejaVuSans-53"/>
       <use x="63.623047" xlink:href="#DejaVuSans-48"/>
       <use x="127.246094" xlink:href="#DejaVuSans-48"/>
       <use x="190.869141" xlink:href="#DejaVuSans-48"/>
       <use x="254.492188" xlink:href="#DejaVuSans-48"/>
      </g>
     </g>
    </g>
    <g id="xtick_4">
     <g id="line2d_4">
      <g>
       <use style="stroke:#000000;stroke-width:0.8;" x="422.047741" xlink:href="#m3277342566" y="441"/>
      </g>
     </g>
     <g id="text_4">
      <!-- 75000 -->
      <defs>
       <path d="M 8.203125 72.90625 
L 55.078125 72.90625 
L 55.078125 68.703125 
L 28.609375 0 
L 18.3125 0 
L 43.21875 64.59375 
L 8.203125 64.59375 
z
" id="DejaVuSans-55"/>
      </defs>
      <g transform="translate(406.141491 455.598437)scale(0.1 -0.1)">
       <use xlink:href="#DejaVuSans-55"/>
       <use x="63.623047" xlink:href="#DejaVuSans-53"/>
       <use x="127.246094" xlink:href="#DejaVuSans-48"/>
       <use x="190.869141" xlink:href="#DejaVuSans-48"/>
       <use x="254.492188" xlink:href="#DejaVuSans-48"/>
      </g>
     </g>
    </g>
    <g id="xtick_5">
     <g id="line2d_5">
      <g>
       <use style="stroke:#000000;stroke-width:0.8;" x="512.981903" xlink:href="#m3277342566" y="441"/>
      </g>
     </g>
     <g id="text_5">
      <!-- 100000 -->
      <defs>
       <path d="M 12.40625 8.296875 
L 28.515625 8.296875 
L 28.515625 63.921875 
L 10.984375 60.40625 
L 10.984375 69.390625 
L 28.421875 72.90625 
L 38.28125 72.90625 
L 38.28125 8.296875 
L 54.390625 8.296875 
L 54.390625 0 
L 12.40625 0 
z
" id="DejaVuSans-49"/>
      </defs>
      <g transform="translate(493.894403 455.598437)scale(0.1 -0.1)">
       <use xlink:href="#DejaVuSans-49"/>
       <use x="63.623047" xlink:href="#DejaVuSans-48"/>
       <use x="127.246094" xlink:href="#DejaVuSans-48"/>
       <use x="190.869141" xlink:href="#DejaVuSans-48"/>
       <use x="254.492188" xlink:href="#DejaVuSans-48"/>
       <use x="318.115234" xlink:href="#DejaVuSans-48"/>
      </g>
     </g>
    </g>
    <g id="xtick_6">
     <g id="line2d_6">
      <g>
       <use style="stroke:#000000;stroke-width:0.8;" x="603.916066" xlink:href="#m3277342566" y="441"/>
      </g>
     </g>
     <g id="text_6">
      <!-- 125000 -->
      <g transform="translate(584.828566 455.598437)scale(0.1 -0.1)">
       <use xlink:href="#DejaVuSans-49"/>
       <use x="63.623047" xlink:href="#DejaVuSans-50"/>
       <use x="127.246094" xlink:href="#DejaVuSans-53"/>
       <use x="190.869141" xlink:href="#DejaVuSans-48"/>
       <use x="254.492188" xlink:href="#DejaVuSans-48"/>
       <use x="318.115234" xlink:href="#DejaVuSans-48"/>
      </g>
     </g>
    </g>
    <g id="xtick_7">
     <g id="line2d_7">
      <g>
       <use style="stroke:#000000;stroke-width:0.8;" x="694.850228" xlink:href="#m3277342566" y="441"/>
      </g>
     </g>
     <g id="text_7">
      <!-- 150000 -->
      <g transform="translate(675.762728 455.598437)scale(0.1 -0.1)">
       <use xlink:href="#DejaVuSans-49"/>
       <use x="63.623047" xlink:href="#DejaVuSans-53"/>
       <use x="127.246094" xlink:href="#DejaVuSans-48"/>
       <use x="190.869141" xlink:href="#DejaVuSans-48"/>
       <use x="254.492188" xlink:href="#DejaVuSans-48"/>
       <use x="318.115234" xlink:href="#DejaVuSans-48"/>
      </g>
     </g>
    </g>
    <g id="xtick_8">
     <g id="line2d_8">
      <g>
       <use style="stroke:#000000;stroke-width:0.8;" x="785.784391" xlink:href="#m3277342566" y="441"/>
      </g>
     </g>
     <g id="text_8">
      <!-- 175000 -->
      <g transform="translate(766.696891 455.598437)scale(0.1 -0.1)">
       <use xlink:href="#DejaVuSans-49"/>
       <use x="63.623047" xlink:href="#DejaVuSans-55"/>
       <use x="127.246094" xlink:href="#DejaVuSans-53"/>
       <use x="190.869141" xlink:href="#DejaVuSans-48"/>
       <use x="254.492188" xlink:href="#DejaVuSans-48"/>
       <use x="318.115234" xlink:href="#DejaVuSans-48"/>
      </g>
     </g>
    </g>
    <g id="text_9">
     <!-- Iteration -->
     <defs>
      <path d="M 9.8125 72.90625 
L 19.671875 72.90625 
L 19.671875 0 
L 9.8125 0 
z
" id="DejaVuSans-73"/>
      <path d="M 18.3125 70.21875 
L 18.3125 54.6875 
L 36.8125 54.6875 
L 36.8125 47.703125 
L 18.3125 47.703125 
L 18.3125 18.015625 
Q 18.3125 11.328125 20.140625 9.421875 
Q 21.96875 7.515625 27.59375 7.515625 
L 36.8125 7.515625 
L 36.8125 0 
L 27.59375 0 
Q 17.1875 0 13.234375 3.875 
Q 9.28125 7.765625 9.28125 18.015625 
L 9.28125 47.703125 
L 2.6875 47.703125 
L 2.6875 54.6875 
L 9.28125 54.6875 
L 9.28125 70.21875 
z
" id="DejaVuSans-116"/>
      <path d="M 56.203125 29.59375 
L 56.203125 25.203125 
L 14.890625 25.203125 
Q 15.484375 15.921875 20.484375 11.0625 
Q 25.484375 6.203125 34.421875 6.203125 
Q 39.59375 6.203125 44.453125 7.46875 
Q 49.3125 8.734375 54.109375 11.28125 
L 54.109375 2.78125 
Q 49.265625 0.734375 44.1875 -0.34375 
Q 39.109375 -1.421875 33.890625 -1.421875 
Q 20.796875 -1.421875 13.15625 6.1875 
Q 5.515625 13.8125 5.515625 26.8125 
Q 5.515625 40.234375 12.765625 48.109375 
Q 20.015625 56 32.328125 56 
Q 43.359375 56 49.78125 48.890625 
Q 56.203125 41.796875 56.203125 29.59375 
z
M 47.21875 32.234375 
Q 47.125 39.59375 43.09375 43.984375 
Q 39.0625 48.390625 32.421875 48.390625 
Q 24.90625 48.390625 20.390625 44.140625 
Q 15.875 39.890625 15.1875 32.171875 
z
" id="DejaVuSans-101"/>
      <path d="M 41.109375 46.296875 
Q 39.59375 47.171875 37.8125 47.578125 
Q 36.03125 48 33.890625 48 
Q 26.265625 48 22.1875 43.046875 
Q 18.109375 38.09375 18.109375 28.8125 
L 18.109375 0 
L 9.078125 0 
L 9.078125 54.6875 
L 18.109375 54.6875 
L 18.109375 46.1875 
Q 20.953125 51.171875 25.484375 53.578125 
Q 30.03125 56 36.53125 56 
Q 37.453125 56 38.578125 55.875 
Q 39.703125 55.765625 41.0625 55.515625 
z
" id="DejaVuSans-114"/>
      <path d="M 34.28125 27.484375 
Q 23.390625 27.484375 19.1875 25 
Q 14.984375 22.515625 14.984375 16.5 
Q 14.984375 11.71875 18.140625 8.90625 
Q 21.296875 6.109375 26.703125 6.109375 
Q 34.1875 6.109375 38.703125 11.40625 
Q 43.21875 16.703125 43.21875 25.484375 
L 43.21875 27.484375 
z
M 52.203125 31.203125 
L 52.203125 0 
L 43.21875 0 
L 43.21875 8.296875 
Q 40.140625 3.328125 35.546875 0.953125 
Q 30.953125 -1.421875 24.3125 -1.421875 
Q 15.921875 -1.421875 10.953125 3.296875 
Q 6 8.015625 6 15.921875 
Q 6 25.140625 12.171875 29.828125 
Q 18.359375 34.515625 30.609375 34.515625 
L 43.21875 34.515625 
L 43.21875 35.40625 
Q 43.21875 41.609375 39.140625 45 
Q 35.0625 48.390625 27.6875 48.390625 
Q 23 48.390625 18.546875 47.265625 
Q 14.109375 46.140625 10.015625 43.890625 
L 10.015625 52.203125 
Q 14.9375 54.109375 19.578125 55.046875 
Q 24.21875 56 28.609375 56 
Q 40.484375 56 46.34375 49.84375 
Q 52.203125 43.703125 52.203125 31.203125 
z
" id="DejaVuSans-97"/>
      <path d="M 9.421875 54.6875 
L 18.40625 54.6875 
L 18.40625 0 
L 9.421875 0 
z
M 9.421875 75.984375 
L 18.40625 75.984375 
L 18.40625 64.59375 
L 9.421875 64.59375 
z
" id="DejaVuSans-105"/>
      <path d="M 30.609375 48.390625 
Q 23.390625 48.390625 19.1875 42.75 
Q 14.984375 37.109375 14.984375 27.296875 
Q 14.984375 17.484375 19.15625 11.84375 
Q 23.34375 6.203125 30.609375 6.203125 
Q 37.796875 6.203125 41.984375 11.859375 
Q 46.1875 17.53125 46.1875 27.296875 
Q 46.1875 37.015625 41.984375 42.703125 
Q 37.796875 48.390625 30.609375 48.390625 
z
M 30.609375 56 
Q 42.328125 56 49.015625 48.375 
Q 55.71875 40.765625 55.71875 27.296875 
Q 55.71875 13.875 49.015625 6.21875 
Q 42.328125 -1.421875 30.609375 -1.421875 
Q 18.84375 -1.421875 12.171875 6.21875 
Q 5.515625 13.875 5.515625 27.296875 
Q 5.515625 40.765625 12.171875 48.375 
Q 18.84375 56 30.609375 56 
z
" id="DejaVuSans-111"/>
      <path d="M 54.890625 33.015625 
L 54.890625 0 
L 45.90625 0 
L 45.90625 32.71875 
Q 45.90625 40.484375 42.875 44.328125 
Q 39.84375 48.1875 33.796875 48.1875 
Q 26.515625 48.1875 22.3125 43.546875 
Q 18.109375 38.921875 18.109375 30.90625 
L 18.109375 0 
L 9.078125 0 
L 9.078125 54.6875 
L 18.109375 54.6875 
L 18.109375 46.1875 
Q 21.34375 51.125 25.703125 53.5625 
Q 30.078125 56 35.796875 56 
Q 45.21875 56 50.046875 50.171875 
Q 54.890625 44.34375 54.890625 33.015625 
z
" id="DejaVuSans-110"/>
     </defs>
     <g transform="translate(458.491406 469.276563)scale(0.1 -0.1)">
      <use xlink:href="#DejaVuSans-73"/>
      <use x="29.492188" xlink:href="#DejaVuSans-116"/>
      <use x="68.701172" xlink:href="#DejaVuSans-101"/>
      <use x="130.224609" xlink:href="#DejaVuSans-114"/>
      <use x="171.337891" xlink:href="#DejaVuSans-97"/>
      <use x="232.617188" xlink:href="#DejaVuSans-116"/>
      <use x="271.826172" xlink:href="#DejaVuSans-105"/>
      <use x="299.609375" xlink:href="#DejaVuSans-111"/>
      <use x="360.791016" xlink:href="#DejaVuSans-110"/>
     </g>
    </g>
   </g>
   <g id="matplotlib.axis_2">
    <g id="ytick_1">
     <g id="line2d_9">
      <defs>
       <path d="M 0 0 
L -3.5 0 
" id="m81a75ddd26" style="stroke:#000000;stroke-width:0.8;"/>
      </defs>
      <g>
       <use style="stroke:#000000;stroke-width:0.8;" x="117" xlink:href="#m81a75ddd26" y="406.577066"/>
      </g>
     </g>
     <g id="text_10">
      <!-- $\mathdefault{10^{-7}}$ -->
      <defs>
       <path d="M 10.59375 35.5 
L 73.1875 35.5 
L 73.1875 27.203125 
L 10.59375 27.203125 
z
" id="DejaVuSans-8722"/>
      </defs>
      <g transform="translate(86.5 410.376284)scale(0.1 -0.1)">
       <use transform="translate(0 0.684375)" xlink:href="#DejaVuSans-49"/>
       <use transform="translate(63.623047 0.684375)" xlink:href="#DejaVuSans-48"/>
       <use transform="translate(128.203125 38.965625)scale(0.7)" xlink:href="#DejaVuSans-8722"/>
       <use transform="translate(186.855469 38.965625)scale(0.7)" xlink:href="#DejaVuSans-55"/>
      </g>
     </g>
    </g>
    <g id="ytick_2">
     <g id="line2d_10">
      <g>
       <use style="stroke:#000000;stroke-width:0.8;" x="117" xlink:href="#m81a75ddd26" y="358.999149"/>
      </g>
     </g>
     <g id="text_11">
      <!-- $\mathdefault{10^{-6}}$ -->
      <defs>
       <path d="M 33.015625 40.375 
Q 26.375 40.375 22.484375 35.828125 
Q 18.609375 31.296875 18.609375 23.390625 
Q 18.609375 15.53125 22.484375 10.953125 
Q 26.375 6.390625 33.015625 6.390625 
Q 39.65625 6.390625 43.53125 10.953125 
Q 47.40625 15.53125 47.40625 23.390625 
Q 47.40625 31.296875 43.53125 35.828125 
Q 39.65625 40.375 33.015625 40.375 
z
M 52.59375 71.296875 
L 52.59375 62.3125 
Q 48.875 64.0625 45.09375 64.984375 
Q 41.3125 65.921875 37.59375 65.921875 
Q 27.828125 65.921875 22.671875 59.328125 
Q 17.53125 52.734375 16.796875 39.40625 
Q 19.671875 43.65625 24.015625 45.921875 
Q 28.375 48.1875 33.59375 48.1875 
Q 44.578125 48.1875 50.953125 41.515625 
Q 57.328125 34.859375 57.328125 23.390625 
Q 57.328125 12.15625 50.6875 5.359375 
Q 44.046875 -1.421875 33.015625 -1.421875 
Q 20.359375 -1.421875 13.671875 8.265625 
Q 6.984375 17.96875 6.984375 36.375 
Q 6.984375 53.65625 15.1875 63.9375 
Q 23.390625 74.21875 37.203125 74.21875 
Q 40.921875 74.21875 44.703125 73.484375 
Q 48.484375 72.75 52.59375 71.296875 
z
" id="DejaVuSans-54"/>
      </defs>
      <g transform="translate(86.5 362.798368)scale(0.1 -0.1)">
       <use transform="translate(0 0.765625)" xlink:href="#DejaVuSans-49"/>
       <use transform="translate(63.623047 0.765625)" xlink:href="#DejaVuSans-48"/>
       <use transform="translate(128.203125 39.046875)scale(0.7)" xlink:href="#DejaVuSans-8722"/>
       <use transform="translate(186.855469 39.046875)scale(0.7)" xlink:href="#DejaVuSans-54"/>
      </g>
     </g>
    </g>
    <g id="ytick_3">
     <g id="line2d_11">
      <g>
       <use style="stroke:#000000;stroke-width:0.8;" x="117" xlink:href="#m81a75ddd26" y="311.421233"/>
      </g>
     </g>
     <g id="text_12">
      <!-- $\mathdefault{10^{-5}}$ -->
      <g transform="translate(86.5 315.220452)scale(0.1 -0.1)">
       <use transform="translate(0 0.684375)" xlink:href="#DejaVuSans-49"/>
       <use transform="translate(63.623047 0.684375)" xlink:href="#DejaVuSans-48"/>
       <use transform="translate(128.203125 38.965625)scale(0.7)" xlink:href="#DejaVuSans-8722"/>
       <use transform="translate(186.855469 38.965625)scale(0.7)" xlink:href="#DejaVuSans-53"/>
      </g>
     </g>
    </g>
    <g id="ytick_4">
     <g id="line2d_12">
      <g>
       <use style="stroke:#000000;stroke-width:0.8;" x="117" xlink:href="#m81a75ddd26" y="263.843317"/>
      </g>
     </g>
     <g id="text_13">
      <!-- $\mathdefault{10^{-4}}$ -->
      <defs>
       <path d="M 37.796875 64.3125 
L 12.890625 25.390625 
L 37.796875 25.390625 
z
M 35.203125 72.90625 
L 47.609375 72.90625 
L 47.609375 25.390625 
L 58.015625 25.390625 
L 58.015625 17.1875 
L 47.609375 17.1875 
L 47.609375 0 
L 37.796875 0 
L 37.796875 17.1875 
L 4.890625 17.1875 
L 4.890625 26.703125 
z
" id="DejaVuSans-52"/>
      </defs>
      <g transform="translate(86.5 267.642536)scale(0.1 -0.1)">
       <use transform="translate(0 0.684375)" xlink:href="#DejaVuSans-49"/>
       <use transform="translate(63.623047 0.684375)" xlink:href="#DejaVuSans-48"/>
       <use transform="translate(128.203125 38.965625)scale(0.7)" xlink:href="#DejaVuSans-8722"/>
       <use transform="translate(186.855469 38.965625)scale(0.7)" xlink:href="#DejaVuSans-52"/>
      </g>
     </g>
    </g>
    <g id="ytick_5">
     <g id="line2d_13">
      <g>
       <use style="stroke:#000000;stroke-width:0.8;" x="117" xlink:href="#m81a75ddd26" y="216.265401"/>
      </g>
     </g>
     <g id="text_14">
      <!-- $\mathdefault{10^{-3}}$ -->
      <defs>
       <path d="M 40.578125 39.3125 
Q 47.65625 37.796875 51.625 33 
Q 55.609375 28.21875 55.609375 21.1875 
Q 55.609375 10.40625 48.1875 4.484375 
Q 40.765625 -1.421875 27.09375 -1.421875 
Q 22.515625 -1.421875 17.65625 -0.515625 
Q 12.796875 0.390625 7.625 2.203125 
L 7.625 11.71875 
Q 11.71875 9.328125 16.59375 8.109375 
Q 21.484375 6.890625 26.8125 6.890625 
Q 36.078125 6.890625 40.9375 10.546875 
Q 45.796875 14.203125 45.796875 21.1875 
Q 45.796875 27.640625 41.28125 31.265625 
Q 36.765625 34.90625 28.71875 34.90625 
L 20.21875 34.90625 
L 20.21875 43.015625 
L 29.109375 43.015625 
Q 36.375 43.015625 40.234375 45.921875 
Q 44.09375 48.828125 44.09375 54.296875 
Q 44.09375 59.90625 40.109375 62.90625 
Q 36.140625 65.921875 28.71875 65.921875 
Q 24.65625 65.921875 20.015625 65.03125 
Q 15.375 64.15625 9.8125 62.3125 
L 9.8125 71.09375 
Q 15.4375 72.65625 20.34375 73.4375 
Q 25.25 74.21875 29.59375 74.21875 
Q 40.828125 74.21875 47.359375 69.109375 
Q 53.90625 64.015625 53.90625 55.328125 
Q 53.90625 49.265625 50.4375 45.09375 
Q 46.96875 40.921875 40.578125 39.3125 
z
" id="DejaVuSans-51"/>
      </defs>
      <g transform="translate(86.5 220.064619)scale(0.1 -0.1)">
       <use transform="translate(0 0.765625)" xlink:href="#DejaVuSans-49"/>
       <use transform="translate(63.623047 0.765625)" xlink:href="#DejaVuSans-48"/>
       <use transform="translate(128.203125 39.046875)scale(0.7)" xlink:href="#DejaVuSans-8722"/>
       <use transform="translate(186.855469 39.046875)scale(0.7)" xlink:href="#DejaVuSans-51"/>
      </g>
     </g>
    </g>
    <g id="ytick_6">
     <g id="line2d_14">
      <g>
       <use style="stroke:#000000;stroke-width:0.8;" x="117" xlink:href="#m81a75ddd26" y="168.687484"/>
      </g>
     </g>
     <g id="text_15">
      <!-- $\mathdefault{10^{-2}}$ -->
      <g transform="translate(86.5 172.486703)scale(0.1 -0.1)">
       <use transform="translate(0 0.765625)" xlink:href="#DejaVuSans-49"/>
       <use transform="translate(63.623047 0.765625)" xlink:href="#DejaVuSans-48"/>
       <use transform="translate(128.203125 39.046875)scale(0.7)" xlink:href="#DejaVuSans-8722"/>
       <use transform="translate(186.855469 39.046875)scale(0.7)" xlink:href="#DejaVuSans-50"/>
      </g>
     </g>
    </g>
    <g id="ytick_7">
     <g id="line2d_15">
      <g>
       <use style="stroke:#000000;stroke-width:0.8;" x="117" xlink:href="#m81a75ddd26" y="121.109568"/>
      </g>
     </g>
     <g id="text_16">
      <!-- $\mathdefault{10^{-1}}$ -->
      <g transform="translate(86.5 124.908787)scale(0.1 -0.1)">
       <use transform="translate(0 0.684375)" xlink:href="#DejaVuSans-49"/>
       <use transform="translate(63.623047 0.684375)" xlink:href="#DejaVuSans-48"/>
       <use transform="translate(128.203125 38.965625)scale(0.7)" xlink:href="#DejaVuSans-8722"/>
       <use transform="translate(186.855469 38.965625)scale(0.7)" xlink:href="#DejaVuSans-49"/>
      </g>
     </g>
    </g>
    <g id="ytick_8">
     <g id="line2d_16">
      <g>
       <use style="stroke:#000000;stroke-width:0.8;" x="117" xlink:href="#m81a75ddd26" y="73.531652"/>
      </g>
     </g>
     <g id="text_17">
      <!-- $\mathdefault{10^{0}}$ -->
      <g transform="translate(92.4 77.330871)scale(0.1 -0.1)">
       <use transform="translate(0 0.765625)" xlink:href="#DejaVuSans-49"/>
       <use transform="translate(63.623047 0.765625)" xlink:href="#DejaVuSans-48"/>
       <use transform="translate(128.203125 39.046875)scale(0.7)" xlink:href="#DejaVuSans-48"/>
      </g>
     </g>
    </g>
    <g id="ytick_9">
     <g id="line2d_17">
      <defs>
       <path d="M 0 0 
L -2 0 
" id="m4344112b90" style="stroke:#000000;stroke-width:0.6;"/>
      </defs>
      <g>
       <use style="stroke:#000000;stroke-width:0.6;" x="117" xlink:href="#m4344112b90" y="439.832602"/>
      </g>
     </g>
    </g>
    <g id="ytick_10">
     <g id="line2d_18">
      <g>
       <use style="stroke:#000000;stroke-width:0.6;" x="117" xlink:href="#m4344112b90" y="431.454547"/>
      </g>
     </g>
    </g>
    <g id="ytick_11">
     <g id="line2d_19">
      <g>
       <use style="stroke:#000000;stroke-width:0.6;" x="117" xlink:href="#m4344112b90" y="425.510222"/>
      </g>
     </g>
    </g>
    <g id="ytick_12">
     <g id="line2d_20">
      <g>
       <use style="stroke:#000000;stroke-width:0.6;" x="117" xlink:href="#m4344112b90" y="420.899446"/>
      </g>
     </g>
    </g>
    <g id="ytick_13">
     <g id="line2d_21">
      <g>
       <use style="stroke:#000000;stroke-width:0.6;" x="117" xlink:href="#m4344112b90" y="417.132167"/>
      </g>
     </g>
    </g>
    <g id="ytick_14">
     <g id="line2d_22">
      <g>
       <use style="stroke:#000000;stroke-width:0.6;" x="117" xlink:href="#m4344112b90" y="413.946978"/>
      </g>
     </g>
    </g>
    <g id="ytick_15">
     <g id="line2d_23">
      <g>
       <use style="stroke:#000000;stroke-width:0.6;" x="117" xlink:href="#m4344112b90" y="411.187842"/>
      </g>
     </g>
    </g>
    <g id="ytick_16">
     <g id="line2d_24">
      <g>
       <use style="stroke:#000000;stroke-width:0.6;" x="117" xlink:href="#m4344112b90" y="408.754112"/>
      </g>
     </g>
    </g>
    <g id="ytick_17">
     <g id="line2d_25">
      <g>
       <use style="stroke:#000000;stroke-width:0.6;" x="117" xlink:href="#m4344112b90" y="392.254686"/>
      </g>
     </g>
    </g>
    <g id="ytick_18">
     <g id="line2d_26">
      <g>
       <use style="stroke:#000000;stroke-width:0.6;" x="117" xlink:href="#m4344112b90" y="383.876631"/>
      </g>
     </g>
    </g>
    <g id="ytick_19">
     <g id="line2d_27">
      <g>
       <use style="stroke:#000000;stroke-width:0.6;" x="117" xlink:href="#m4344112b90" y="377.932306"/>
      </g>
     </g>
    </g>
    <g id="ytick_20">
     <g id="line2d_28">
      <g>
       <use style="stroke:#000000;stroke-width:0.6;" x="117" xlink:href="#m4344112b90" y="373.321529"/>
      </g>
     </g>
    </g>
    <g id="ytick_21">
     <g id="line2d_29">
      <g>
       <use style="stroke:#000000;stroke-width:0.6;" x="117" xlink:href="#m4344112b90" y="369.554251"/>
      </g>
     </g>
    </g>
    <g id="ytick_22">
     <g id="line2d_30">
      <g>
       <use style="stroke:#000000;stroke-width:0.6;" x="117" xlink:href="#m4344112b90" y="366.369062"/>
      </g>
     </g>
    </g>
    <g id="ytick_23">
     <g id="line2d_31">
      <g>
       <use style="stroke:#000000;stroke-width:0.6;" x="117" xlink:href="#m4344112b90" y="363.609926"/>
      </g>
     </g>
    </g>
    <g id="ytick_24">
     <g id="line2d_32">
      <g>
       <use style="stroke:#000000;stroke-width:0.6;" x="117" xlink:href="#m4344112b90" y="361.176196"/>
      </g>
     </g>
    </g>
    <g id="ytick_25">
     <g id="line2d_33">
      <g>
       <use style="stroke:#000000;stroke-width:0.6;" x="117" xlink:href="#m4344112b90" y="344.67677"/>
      </g>
     </g>
    </g>
    <g id="ytick_26">
     <g id="line2d_34">
      <g>
       <use style="stroke:#000000;stroke-width:0.6;" x="117" xlink:href="#m4344112b90" y="336.298714"/>
      </g>
     </g>
    </g>
    <g id="ytick_27">
     <g id="line2d_35">
      <g>
       <use style="stroke:#000000;stroke-width:0.6;" x="117" xlink:href="#m4344112b90" y="330.35439"/>
      </g>
     </g>
    </g>
    <g id="ytick_28">
     <g id="line2d_36">
      <g>
       <use style="stroke:#000000;stroke-width:0.6;" x="117" xlink:href="#m4344112b90" y="325.743613"/>
      </g>
     </g>
    </g>
    <g id="ytick_29">
     <g id="line2d_37">
      <g>
       <use style="stroke:#000000;stroke-width:0.6;" x="117" xlink:href="#m4344112b90" y="321.976334"/>
      </g>
     </g>
    </g>
    <g id="ytick_30">
     <g id="line2d_38">
      <g>
       <use style="stroke:#000000;stroke-width:0.6;" x="117" xlink:href="#m4344112b90" y="318.791146"/>
      </g>
     </g>
    </g>
    <g id="ytick_31">
     <g id="line2d_39">
      <g>
       <use style="stroke:#000000;stroke-width:0.6;" x="117" xlink:href="#m4344112b90" y="316.03201"/>
      </g>
     </g>
    </g>
    <g id="ytick_32">
     <g id="line2d_40">
      <g>
       <use style="stroke:#000000;stroke-width:0.6;" x="117" xlink:href="#m4344112b90" y="313.598279"/>
      </g>
     </g>
    </g>
    <g id="ytick_33">
     <g id="line2d_41">
      <g>
       <use style="stroke:#000000;stroke-width:0.6;" x="117" xlink:href="#m4344112b90" y="297.098853"/>
      </g>
     </g>
    </g>
    <g id="ytick_34">
     <g id="line2d_42">
      <g>
       <use style="stroke:#000000;stroke-width:0.6;" x="117" xlink:href="#m4344112b90" y="288.720798"/>
      </g>
     </g>
    </g>
    <g id="ytick_35">
     <g id="line2d_43">
      <g>
       <use style="stroke:#000000;stroke-width:0.6;" x="117" xlink:href="#m4344112b90" y="282.776473"/>
      </g>
     </g>
    </g>
    <g id="ytick_36">
     <g id="line2d_44">
      <g>
       <use style="stroke:#000000;stroke-width:0.6;" x="117" xlink:href="#m4344112b90" y="278.165697"/>
      </g>
     </g>
    </g>
    <g id="ytick_37">
     <g id="line2d_45">
      <g>
       <use style="stroke:#000000;stroke-width:0.6;" x="117" xlink:href="#m4344112b90" y="274.398418"/>
      </g>
     </g>
    </g>
    <g id="ytick_38">
     <g id="line2d_46">
      <g>
       <use style="stroke:#000000;stroke-width:0.6;" x="117" xlink:href="#m4344112b90" y="271.213229"/>
      </g>
     </g>
    </g>
    <g id="ytick_39">
     <g id="line2d_47">
      <g>
       <use style="stroke:#000000;stroke-width:0.6;" x="117" xlink:href="#m4344112b90" y="268.454093"/>
      </g>
     </g>
    </g>
    <g id="ytick_40">
     <g id="line2d_48">
      <g>
       <use style="stroke:#000000;stroke-width:0.6;" x="117" xlink:href="#m4344112b90" y="266.020363"/>
      </g>
     </g>
    </g>
    <g id="ytick_41">
     <g id="line2d_49">
      <g>
       <use style="stroke:#000000;stroke-width:0.6;" x="117" xlink:href="#m4344112b90" y="249.520937"/>
      </g>
     </g>
    </g>
    <g id="ytick_42">
     <g id="line2d_50">
      <g>
       <use style="stroke:#000000;stroke-width:0.6;" x="117" xlink:href="#m4344112b90" y="241.142882"/>
      </g>
     </g>
    </g>
    <g id="ytick_43">
     <g id="line2d_51">
      <g>
       <use style="stroke:#000000;stroke-width:0.6;" x="117" xlink:href="#m4344112b90" y="235.198557"/>
      </g>
     </g>
    </g>
    <g id="ytick_44">
     <g id="line2d_52">
      <g>
       <use style="stroke:#000000;stroke-width:0.6;" x="117" xlink:href="#m4344112b90" y="230.587781"/>
      </g>
     </g>
    </g>
    <g id="ytick_45">
     <g id="line2d_53">
      <g>
       <use style="stroke:#000000;stroke-width:0.6;" x="117" xlink:href="#m4344112b90" y="226.820502"/>
      </g>
     </g>
    </g>
    <g id="ytick_46">
     <g id="line2d_54">
      <g>
       <use style="stroke:#000000;stroke-width:0.6;" x="117" xlink:href="#m4344112b90" y="223.635313"/>
      </g>
     </g>
    </g>
    <g id="ytick_47">
     <g id="line2d_55">
      <g>
       <use style="stroke:#000000;stroke-width:0.6;" x="117" xlink:href="#m4344112b90" y="220.876177"/>
      </g>
     </g>
    </g>
    <g id="ytick_48">
     <g id="line2d_56">
      <g>
       <use style="stroke:#000000;stroke-width:0.6;" x="117" xlink:href="#m4344112b90" y="218.442447"/>
      </g>
     </g>
    </g>
    <g id="ytick_49">
     <g id="line2d_57">
      <g>
       <use style="stroke:#000000;stroke-width:0.6;" x="117" xlink:href="#m4344112b90" y="201.943021"/>
      </g>
     </g>
    </g>
    <g id="ytick_50">
     <g id="line2d_58">
      <g>
       <use style="stroke:#000000;stroke-width:0.6;" x="117" xlink:href="#m4344112b90" y="193.564966"/>
      </g>
     </g>
    </g>
    <g id="ytick_51">
     <g id="line2d_59">
      <g>
       <use style="stroke:#000000;stroke-width:0.6;" x="117" xlink:href="#m4344112b90" y="187.620641"/>
      </g>
     </g>
    </g>
    <g id="ytick_52">
     <g id="line2d_60">
      <g>
       <use style="stroke:#000000;stroke-width:0.6;" x="117" xlink:href="#m4344112b90" y="183.009864"/>
      </g>
     </g>
    </g>
    <g id="ytick_53">
     <g id="line2d_61">
      <g>
       <use style="stroke:#000000;stroke-width:0.6;" x="117" xlink:href="#m4344112b90" y="179.242586"/>
      </g>
     </g>
    </g>
    <g id="ytick_54">
     <g id="line2d_62">
      <g>
       <use style="stroke:#000000;stroke-width:0.6;" x="117" xlink:href="#m4344112b90" y="176.057397"/>
      </g>
     </g>
    </g>
    <g id="ytick_55">
     <g id="line2d_63">
      <g>
       <use style="stroke:#000000;stroke-width:0.6;" x="117" xlink:href="#m4344112b90" y="173.298261"/>
      </g>
     </g>
    </g>
    <g id="ytick_56">
     <g id="line2d_64">
      <g>
       <use style="stroke:#000000;stroke-width:0.6;" x="117" xlink:href="#m4344112b90" y="170.86453"/>
      </g>
     </g>
    </g>
    <g id="ytick_57">
     <g id="line2d_65">
      <g>
       <use style="stroke:#000000;stroke-width:0.6;" x="117" xlink:href="#m4344112b90" y="154.365104"/>
      </g>
     </g>
    </g>
    <g id="ytick_58">
     <g id="line2d_66">
      <g>
       <use style="stroke:#000000;stroke-width:0.6;" x="117" xlink:href="#m4344112b90" y="145.987049"/>
      </g>
     </g>
    </g>
    <g id="ytick_59">
     <g id="line2d_67">
      <g>
       <use style="stroke:#000000;stroke-width:0.6;" x="117" xlink:href="#m4344112b90" y="140.042724"/>
      </g>
     </g>
    </g>
    <g id="ytick_60">
     <g id="line2d_68">
      <g>
       <use style="stroke:#000000;stroke-width:0.6;" x="117" xlink:href="#m4344112b90" y="135.431948"/>
      </g>
     </g>
    </g>
    <g id="ytick_61">
     <g id="line2d_69">
      <g>
       <use style="stroke:#000000;stroke-width:0.6;" x="117" xlink:href="#m4344112b90" y="131.664669"/>
      </g>
     </g>
    </g>
    <g id="ytick_62">
     <g id="line2d_70">
      <g>
       <use style="stroke:#000000;stroke-width:0.6;" x="117" xlink:href="#m4344112b90" y="128.479481"/>
      </g>
     </g>
    </g>
    <g id="ytick_63">
     <g id="line2d_71">
      <g>
       <use style="stroke:#000000;stroke-width:0.6;" x="117" xlink:href="#m4344112b90" y="125.720345"/>
      </g>
     </g>
    </g>
    <g id="ytick_64">
     <g id="line2d_72">
      <g>
       <use style="stroke:#000000;stroke-width:0.6;" x="117" xlink:href="#m4344112b90" y="123.286614"/>
      </g>
     </g>
    </g>
    <g id="ytick_65">
     <g id="line2d_73">
      <g>
       <use style="stroke:#000000;stroke-width:0.6;" x="117" xlink:href="#m4344112b90" y="106.787188"/>
      </g>
     </g>
    </g>
    <g id="ytick_66">
     <g id="line2d_74">
      <g>
       <use style="stroke:#000000;stroke-width:0.6;" x="117" xlink:href="#m4344112b90" y="98.409133"/>
      </g>
     </g>
    </g>
    <g id="ytick_67">
     <g id="line2d_75">
      <g>
       <use style="stroke:#000000;stroke-width:0.6;" x="117" xlink:href="#m4344112b90" y="92.464808"/>
      </g>
     </g>
    </g>
    <g id="ytick_68">
     <g id="line2d_76">
      <g>
       <use style="stroke:#000000;stroke-width:0.6;" x="117" xlink:href="#m4344112b90" y="87.854032"/>
      </g>
     </g>
    </g>
    <g id="ytick_69">
     <g id="line2d_77">
      <g>
       <use style="stroke:#000000;stroke-width:0.6;" x="117" xlink:href="#m4344112b90" y="84.086753"/>
      </g>
     </g>
    </g>
    <g id="ytick_70">
     <g id="line2d_78">
      <g>
       <use style="stroke:#000000;stroke-width:0.6;" x="117" xlink:href="#m4344112b90" y="80.901564"/>
      </g>
     </g>
    </g>
    <g id="ytick_71">
     <g id="line2d_79">
      <g>
       <use style="stroke:#000000;stroke-width:0.6;" x="117" xlink:href="#m4344112b90" y="78.142428"/>
      </g>
     </g>
    </g>
    <g id="ytick_72">
     <g id="line2d_80">
      <g>
       <use style="stroke:#000000;stroke-width:0.6;" x="117" xlink:href="#m4344112b90" y="75.708698"/>
      </g>
     </g>
    </g>
    <g id="text_18">
     <!-- Loss value -->
     <defs>
      <path d="M 9.8125 72.90625 
L 19.671875 72.90625 
L 19.671875 8.296875 
L 55.171875 8.296875 
L 55.171875 0 
L 9.8125 0 
z
" id="DejaVuSans-76"/>
      <path d="M 44.28125 53.078125 
L 44.28125 44.578125 
Q 40.484375 46.53125 36.375 47.5 
Q 32.28125 48.484375 27.875 48.484375 
Q 21.1875 48.484375 17.84375 46.4375 
Q 14.5 44.390625 14.5 40.28125 
Q 14.5 37.15625 16.890625 35.375 
Q 19.28125 33.59375 26.515625 31.984375 
L 29.59375 31.296875 
Q 39.15625 29.25 43.1875 25.515625 
Q 47.21875 21.78125 47.21875 15.09375 
Q 47.21875 7.46875 41.1875 3.015625 
Q 35.15625 -1.421875 24.609375 -1.421875 
Q 20.21875 -1.421875 15.453125 -0.5625 
Q 10.6875 0.296875 5.421875 2 
L 5.421875 11.28125 
Q 10.40625 8.6875 15.234375 7.390625 
Q 20.0625 6.109375 24.8125 6.109375 
Q 31.15625 6.109375 34.5625 8.28125 
Q 37.984375 10.453125 37.984375 14.40625 
Q 37.984375 18.0625 35.515625 20.015625 
Q 33.0625 21.96875 24.703125 23.78125 
L 21.578125 24.515625 
Q 13.234375 26.265625 9.515625 29.90625 
Q 5.8125 33.546875 5.8125 39.890625 
Q 5.8125 47.609375 11.28125 51.796875 
Q 16.75 56 26.8125 56 
Q 31.78125 56 36.171875 55.265625 
Q 40.578125 54.546875 44.28125 53.078125 
z
" id="DejaVuSans-115"/>
      <path id="DejaVuSans-32"/>
      <path d="M 2.984375 54.6875 
L 12.5 54.6875 
L 29.59375 8.796875 
L 46.6875 54.6875 
L 56.203125 54.6875 
L 35.6875 0 
L 23.484375 0 
z
" id="DejaVuSans-118"/>
      <path d="M 9.421875 75.984375 
L 18.40625 75.984375 
L 18.40625 0 
L 9.421875 0 
z
" id="DejaVuSans-108"/>
      <path d="M 8.5 21.578125 
L 8.5 54.6875 
L 17.484375 54.6875 
L 17.484375 21.921875 
Q 17.484375 14.15625 20.5 10.265625 
Q 23.53125 6.390625 29.59375 6.390625 
Q 36.859375 6.390625 41.078125 11.03125 
Q 45.3125 15.671875 45.3125 23.6875 
L 45.3125 54.6875 
L 54.296875 54.6875 
L 54.296875 0 
L 45.3125 0 
L 45.3125 8.40625 
Q 42.046875 3.421875 37.71875 1 
Q 33.40625 -1.421875 27.6875 -1.421875 
Q 18.265625 -1.421875 13.375 4.4375 
Q 8.5 10.296875 8.5 21.578125 
z
M 31.109375 56 
z
" id="DejaVuSans-117"/>
     </defs>
     <g transform="translate(80.420312 277.040781)rotate(-90)scale(0.1 -0.1)">
      <use xlink:href="#DejaVuSans-76"/>
      <use x="55.697266" xlink:href="#DejaVuSans-111"/>
      <use x="116.878906" xlink:href="#DejaVuSans-115"/>
      <use x="168.978516" xlink:href="#DejaVuSans-115"/>
      <use x="221.078125" xlink:href="#DejaVuSans-32"/>
      <use x="252.865234" xlink:href="#DejaVuSans-118"/>
      <use x="312.044922" xlink:href="#DejaVuSans-97"/>
      <use x="373.324219" xlink:href="#DejaVuSans-108"/>
      <use x="401.107422" xlink:href="#DejaVuSans-117"/>
      <use x="464.486328" xlink:href="#DejaVuSans-101"/>
     </g>
    </g>
   </g>
   <g id="line2d_81">
    <path clip-path="url(#p80f648771c)" d="M 149.972727 94.801234 
L 150.700201 97.134258 
L 151.427674 98.59556 
L 152.88262 100.738333 
L 155.06504 103.512016 
L 160.884827 110.621949 
L 162.339773 112.808128 
L 163.79472 115.293396 
L 165.249667 118.118311 
L 166.704613 121.324635 
L 168.15956 124.954856 
L 169.614506 129.041224 
L 171.796926 136.023655 
L 174.706819 146.48737 
L 176.889239 154.253941 
L 178.344186 158.863631 
L 179.799133 162.876946 
L 181.981552 168.034915 
L 191.438705 188.880517 
L 195.076072 197.593817 
L 197.258492 203.405394 
L 199.440912 210.064161 
L 201.623331 217.599878 
L 205.260698 230.562309 
L 206.715645 235.080986 
L 208.170591 238.982931 
L 210.353011 243.964058 
L 213.262904 249.827161 
L 215.445324 253.753525 
L 217.627744 257.103778 
L 219.810164 259.874458 
L 222.720057 263.013243 
L 230.722263 271.106654 
L 235.087103 275.225053 
L 239.451943 278.995168 
L 244.544256 282.990859 
L 250.364043 287.172874 
L 262.731089 295.894564 
L 267.095928 299.181294 
L 272.188241 303.264341 
L 277.280555 307.636789 
L 291.830021 321.152168 
L 294.739914 323.657188 
L 298.37728 326.51253 
L 302.74212 329.445736 
L 305.652013 331.088259 
L 308.561906 332.501902 
L 312.926746 334.347227 
L 313.65422 334.464194 
L 315.109166 335.051733 
L 318.019059 336.077735 
L 323.111372 337.494541 
L 327.476212 338.598124 
L 331.113579 339.363235 
L 331.113579 339.363235 
" style="fill:none;stroke:#1f77b4;stroke-linecap:square;stroke-width:1.5;"/>
   </g>
   <g id="line2d_82">
    <path clip-path="url(#p80f648771c)" d="M 149.972727 123.818685 
L 151.427674 130.018079 
L 152.155147 132.449137 
L 152.88262 134.280069 
L 153.610094 135.678268 
L 155.06504 137.776487 
L 157.24746 140.321096 
L 160.884827 144.49907 
L 163.067247 147.31443 
L 164.522193 149.454678 
L 165.97714 151.905022 
L 167.432086 154.76106 
L 168.887033 158.12522 
L 170.34198 162.100148 
L 171.796926 166.774021 
L 173.251873 172.187186 
L 175.434293 181.465686 
L 177.616713 190.860659 
L 179.071659 196.056476 
L 180.526606 200.03121 
L 182.709026 204.693998 
L 184.891446 209.445804 
L 186.346392 213.080959 
L 188.528812 219.276628 
L 191.438705 228.520388 
L 195.076072 240.235715 
L 197.258492 246.43607 
L 198.713438 250.009599 
L 200.168385 253.156959 
L 202.350805 257.278638 
L 204.533225 260.918842 
L 207.443118 265.257923 
L 209.625538 268.183694 
L 211.080484 269.900706 
L 212.535431 271.314133 
L 213.990378 272.368219 
L 215.445324 273.083384 
L 216.900271 273.537944 
L 219.082691 273.96147 
L 221.992584 274.501085 
L 225.62995 275.402586 
L 230.722263 276.920734 
L 235.087103 278.432494 
L 240.179416 280.527214 
L 244.544256 282.628949 
L 249.636569 285.398933 
L 256.183829 289.540825 
L 260.548669 292.726113 
L 264.913508 296.304095 
L 270.005822 301.124203 
L 272.915715 304.183047 
L 276.553081 308.332215 
L 282.372868 315.705831 
L 286.737707 321.709802 
L 296.922334 336.010219 
L 300.5597 340.412852 
L 302.74212 342.709932 
L 304.197067 344.092291 
L 304.92454 344.501765 
L 305.652013 345.312463 
L 307.10696 346.3883 
L 307.834433 346.792968 
L 309.28938 347.795307 
L 312.199273 349.195966 
L 312.926746 349.26832 
L 313.65422 349.932167 
L 314.381693 349.978371 
L 315.109166 350.40002 
L 318.019059 351.066536 
L 318.746533 351.379609 
L 323.111372 352.347108 
L 330.386105 353.689948 
L 331.113579 353.760827 
L 331.113579 353.760827 
" style="fill:none;stroke:#ff7f0e;stroke-linecap:square;stroke-width:1.5;"/>
   </g>
   <g id="line2d_83">
    <path clip-path="url(#p80f648771c)" d="M 149.972727 78.332848 
L 151.427674 77.776364 
L 152.155147 77.808935 
L 152.88262 78.109028 
L 154.337567 79.125498 
L 159.42988 83.285528 
L 160.884827 84.694914 
L 162.339773 86.32701 
L 163.79472 88.200302 
L 165.97714 91.469268 
L 168.15956 95.289076 
L 170.34198 99.603012 
L 176.161766 111.581895 
L 177.616713 114.085657 
L 179.799133 117.315308 
L 187.801339 128.261639 
L 190.711232 132.889403 
L 193.621125 137.895697 
L 196.531018 143.371237 
L 203.805751 157.602698 
L 205.260698 159.675361 
L 206.715645 161.174763 
L 207.443118 161.700066 
L 208.170591 162.08461 
L 209.625538 162.492877 
L 211.080484 162.544891 
L 213.262904 162.298782 
L 216.172797 161.990892 
L 217.627744 162.01779 
L 219.082691 162.211575 
L 220.537637 162.582981 
L 222.720057 163.416861 
L 225.62995 164.836469 
L 232.904683 168.785139 
L 238.72447 172.092739 
L 246.726676 176.864028 
L 251.818989 179.862086 
L 257.638776 183.073874 
L 262.003615 185.275666 
L 266.368455 187.170403 
L 269.278348 188.201609 
L 272.188241 188.987278 
L 274.370661 189.387403 
L 276.553081 189.601226 
L 278.735501 189.614752 
L 280.917921 189.440938 
L 283.827814 188.899662 
L 286.737707 188.058296 
L 289.647601 187.015206 
L 293.284967 185.512506 
L 296.922334 183.976773 
L 302.014647 182.096538 
L 304.92454 181.280875 
L 307.10696 180.798696 
L 310.016853 180.364968 
L 313.65422 180.109755 
L 317.291586 180.112918 
L 323.111372 180.498677 
L 330.386105 181.349022 
L 331.113579 181.452102 
L 331.113579 181.452102 
" style="fill:none;stroke:#2ca02c;stroke-linecap:square;stroke-width:1.5;"/>
   </g>
   <g id="line2d_84">
    <path clip-path="url(#p80f648771c)" d="M 151.063937 98.389147 
L 152.88262 101.844108 
L 154.701304 104.562226 
L 160.157353 112.052125 
L 161.976037 115.041792 
L 163.79472 118.492032 
L 165.613403 122.479286 
L 167.432086 127.068769 
L 169.25077 132.287872 
L 171.069453 138.080738 
L 174.706819 150.411171 
L 176.525503 156.060401 
L 178.344186 160.860368 
L 180.162869 164.91776 
L 185.618919 176.321956 
L 189.256285 184.947126 
L 192.893652 194.57998 
L 196.531018 205.210627 
L 198.349702 211.083622 
L 203.805751 230.104786 
L 205.624435 235.592019 
L 207.443118 240.014954 
L 211.080484 248.044325 
L 214.717851 255.557971 
L 216.536534 258.794247 
L 221.992584 264.707286 
L 227.448634 269.829193 
L 229.267317 271.133016 
L 234.723367 276.091967 
L 238.360733 279.186041 
L 241.9981 281.979267 
L 245.635466 284.407097 
L 249.272833 286.570822 
L 251.091516 287.957086 
L 254.728882 289.630302 
L 260.184932 291.844818 
L 262.003615 293.153069 
L 267.459665 294.920314 
L 271.097032 296.086609 
L 272.915715 297.278923 
L 280.190448 299.634467 
L 282.009131 300.303416 
L 283.827814 301.644351 
L 292.921231 305.514502 
L 294.739914 307.410188 
L 296.558597 308.36669 
L 300.195963 309.935999 
L 303.83333 311.097905 
L 305.652013 313.493597 
L 307.470696 314.0519 
L 309.28938 314.254679 
L 311.108063 314.202212 
L 312.926746 314.009207 
L 314.745429 313.646061 
L 316.564113 315.650721 
L 318.382796 315.625249 
L 322.020162 314.825611 
L 325.657529 313.812077 
L 327.476212 315.164734 
L 329.294895 315.460949 
L 338.388312 315.676317 
L 340.206995 315.165162 
L 343.844361 315.114399 
L 349.300411 315.926313 
L 351.119094 315.542451 
L 354.756461 315.917721 
L 360.212511 316.825701 
L 362.031194 317.526914 
L 365.66856 318.52743 
L 371.12461 319.935451 
L 372.943293 322.470133 
L 374.761977 323.895248 
L 376.58066 324.732149 
L 380.218026 326.040781 
L 382.03671 326.59262 
L 383.855393 329.57033 
L 385.674076 330.58862 
L 387.492759 331.029719 
L 389.311443 331.633895 
L 392.948809 332.113293 
L 394.767492 333.64878 
L 396.586176 334.040891 
L 403.860909 334.788863 
L 405.679592 335.640759 
L 414.773008 336.545532 
L 416.591691 337.208507 
L 425.685108 338.102425 
L 427.503791 338.773266 
L 436.597207 339.792641 
L 438.41589 340.431006 
L 440.234574 340.664424 
L 442.053257 340.658455 
L 443.87194 340.80346 
L 445.690623 341.184877 
L 447.509307 341.319114 
L 449.32799 341.857481 
L 452.965356 342.377694 
L 458.421406 342.89743 
L 462.058773 343.712843 
L 469.333505 344.499031 
L 471.152189 345.090826 
L 474.789555 345.269786 
L 476.608238 345.843377 
L 480.245605 346.188743 
L 482.064288 346.741623 
L 487.520338 347.574546 
L 491.157704 348.054009 
L 492.976388 348.584624 
L 496.613754 349.16919 
L 498.432437 349.00259 
L 500.251121 349.658168 
L 502.069804 349.835629 
L 503.888487 350.45416 
L 509.344537 351.325703 
L 511.16322 351.337422 
L 512.981903 351.801173 
L 514.800587 352.010077 
L 516.61927 352.54415 
L 520.256636 353.109773 
L 522.07532 353.207941 
L 523.894003 353.658378 
L 527.531369 353.901968 
L 529.350053 354.463376 
L 534.806102 355.277979 
L 538.443469 355.64266 
L 540.262152 356.170362 
L 547.536885 357.248326 
L 549.355568 357.41245 
L 551.174252 357.801676 
L 552.992935 357.804183 
L 554.811618 358.439476 
L 567.542401 360.248338 
L 569.361084 360.594515 
L 571.179767 360.641355 
L 578.4545 361.5564 
L 580.273184 361.625715 
L 582.091867 361.415572 
L 583.91055 362.17752 
L 587.547917 362.548274 
L 589.3666 362.989044 
L 593.003966 363.129482 
L 598.460016 363.693862 
L 600.278699 363.591956 
L 602.097383 364.05303 
L 607.553432 364.536537 
L 611.190799 364.866652 
L 614.828165 364.810015 
L 616.646849 365.322723 
L 620.284215 366.052306 
L 622.102898 365.466441 
L 623.921582 366.312896 
L 625.740265 366.456914 
L 627.558948 366.773207 
L 629.377631 366.545335 
L 631.196314 365.837649 
L 633.014998 366.184969 
L 634.833681 366.298601 
L 636.652364 366.120486 
L 638.471047 366.268129 
L 640.289731 366.144605 
L 642.108414 366.427029 
L 647.564464 366.694256 
L 649.383147 366.481385 
L 653.020513 366.582232 
L 654.839197 364.80513 
L 656.65788 366.540862 
L 658.476563 366.525027 
L 662.11393 366.16306 
L 663.932613 366.050614 
L 665.751296 365.727137 
L 667.569979 366.256761 
L 671.207346 366.264237 
L 673.026029 366.043077 
L 674.844712 366.21823 
L 676.663396 365.853822 
L 678.482079 365.93439 
L 680.300762 363.59626 
L 682.119445 366.198434 
L 683.938129 366.312861 
L 685.756812 365.786977 
L 687.575495 365.823482 
L 689.394178 366.15404 
L 691.212862 366.202718 
L 693.031545 367.091425 
L 696.668911 366.833142 
L 698.487595 366.599639 
L 700.306278 366.814615 
L 702.124961 366.340968 
L 703.943644 367.860621 
L 705.762328 367.010825 
L 707.581011 367.596386 
L 709.399694 367.478551 
L 711.218377 366.842656 
L 713.037061 367.565416 
L 714.855744 367.09619 
L 718.49311 367.101739 
L 720.311794 368.280279 
L 722.130477 367.367936 
L 723.94916 368.805855 
L 725.767843 367.572714 
L 727.586527 367.970944 
L 729.40521 367.593965 
L 731.223893 368.088715 
L 733.042576 367.375364 
L 734.86126 368.205397 
L 736.679943 367.870961 
L 740.317309 368.734576 
L 742.135993 368.713103 
L 743.954676 369.583039 
L 745.773359 368.267685 
L 747.592042 368.738264 
L 749.410726 368.891632 
L 751.229409 369.625517 
L 753.048092 369.380952 
L 754.866775 369.351722 
L 756.685459 369.554154 
L 758.504142 369.936195 
L 760.322825 369.855679 
L 762.141508 369.458995 
L 763.960192 371.018686 
L 765.778875 371.696973 
L 767.597558 370.434417 
L 769.416241 370.64933 
L 771.234925 370.717217 
L 773.053608 370.967577 
L 774.872291 371.574114 
L 776.690974 371.281033 
L 778.509658 370.674894 
L 780.328341 371.675079 
L 783.965707 371.629379 
L 785.784391 372.361778 
L 787.603074 372.21923 
L 789.421757 373.950237 
L 791.24044 371.872713 
L 793.059124 372.038323 
L 798.515173 373.578212 
L 800.333856 373.384093 
L 803.971223 373.904685 
L 805.789906 373.53014 
L 807.608589 374.021834 
L 809.427273 373.866702 
L 809.427273 373.866702 
" style="fill:none;stroke:#d62728;stroke-linecap:square;stroke-width:1.5;"/>
   </g>
   <g id="line2d_85">
    <path clip-path="url(#p80f648771c)" d="M 207.434576 505 
L 207.443118 282.522141 
L 209.261801 283.735886 
L 211.080484 285.106143 
L 212.899168 286.659611 
L 216.536534 290.191882 
L 218.355217 281.585223 
L 220.173901 283.535215 
L 221.992584 285.301789 
L 223.811267 286.852753 
L 225.62995 288.163417 
L 227.448634 289.279213 
L 229.267317 282.605808 
L 232.904683 284.105787 
L 238.360733 286.263515 
L 240.179416 279.656782 
L 243.816783 280.832054 
L 249.272833 282.821317 
L 251.091516 276.924843 
L 254.728882 278.172547 
L 258.366249 279.605715 
L 260.184932 280.38531 
L 262.003615 276.013257 
L 265.640982 277.767318 
L 269.278348 279.911529 
L 271.097032 281.144547 
L 272.915715 278.83486 
L 274.734398 280.340471 
L 276.553081 282.062466 
L 278.371765 284.008543 
L 280.190448 286.244738 
L 282.009131 288.862115 
L 283.827814 289.269694 
L 285.646498 292.897245 
L 287.465181 297.517157 
L 289.283864 303.756383 
L 291.102547 313.08391 
L 292.921231 331.594543 
L 294.739914 379.958016 
L 294.744725 505 
M 438.411709 505 
L 438.41589 396.358867 
L 440.234574 397.43383 
L 442.053257 400.470011 
L 443.87194 404.416396 
L 445.690623 405.773015 
L 447.509307 410.912683 
L 449.32799 382.612661 
L 451.146673 383.65879 
L 452.965356 384.233088 
L 454.78404 385.606757 
L 456.602723 386.802786 
L 458.421406 387.334511 
L 460.240089 374.784483 
L 462.058773 374.707911 
L 463.877456 375.208394 
L 465.696139 375.567365 
L 469.333505 376.746623 
L 471.152189 368.108839 
L 472.970872 368.344025 
L 474.789555 368.271036 
L 476.608238 368.507785 
L 480.245605 369.371695 
L 482.064288 362.900169 
L 483.882971 363.127352 
L 491.157704 363.562871 
L 492.976388 358.893154 
L 498.432437 358.837126 
L 502.069804 359.270591 
L 503.888487 355.421532 
L 511.16322 355.420693 
L 512.981903 355.66421 
L 514.800587 355.781312 
L 516.61927 352.681097 
L 523.894003 352.822355 
L 527.531369 353.111011 
L 529.350053 350.570918 
L 536.624786 350.844132 
L 538.443469 350.97931 
L 540.262152 348.775911 
L 542.080835 348.830494 
L 543.899519 348.647737 
L 547.536885 349.058365 
L 549.355568 349.195741 
L 551.174252 347.398012 
L 552.992935 347.582238 
L 554.811618 347.532605 
L 560.267668 347.871404 
L 562.086351 346.292204 
L 565.723718 346.647099 
L 571.179767 347.074979 
L 572.998451 347.226494 
L 574.817134 346.01262 
L 578.4545 346.375395 
L 582.091867 346.931051 
L 583.91055 346.971324 
L 585.729233 347.197059 
L 587.547917 346.198323 
L 589.3666 346.240243 
L 591.185283 346.670154 
L 596.641333 347.522584 
L 598.460016 346.692286 
L 602.097383 347.318616 
L 603.916066 347.417447 
L 605.734749 348.028153 
L 607.553432 348.392919 
L 609.372116 347.69909 
L 613.009482 348.569476 
L 614.828165 349.064341 
L 616.646849 349.405296 
L 618.465532 349.430368 
L 620.284215 349.098363 
L 622.102898 349.775963 
L 623.921582 350.127465 
L 627.558948 351.14392 
L 631.196314 352.813536 
L 633.014998 351.911617 
L 634.833681 352.529295 
L 636.652364 353.31227 
L 638.471047 353.950441 
L 640.289731 354.815633 
L 642.108414 355.497697 
L 643.927097 355.897067 
L 645.74578 357.138876 
L 647.564464 358.070653 
L 649.383147 356.197302 
L 653.020513 357.713426 
L 654.839197 359.285541 
L 656.65788 359.541678 
L 658.476563 360.521655 
L 660.295246 357.30582 
L 665.751296 359.814872 
L 667.569979 360.24259 
L 671.207346 361.950153 
L 673.026029 357.080239 
L 674.844712 357.484536 
L 676.663396 358.171825 
L 678.482079 358.688055 
L 680.300762 360.324887 
L 682.119445 359.565721 
L 683.938129 360.024263 
L 685.756812 354.908792 
L 687.575495 355.162735 
L 689.394178 355.267064 
L 691.212862 355.530997 
L 693.031545 355.249821 
L 702.124961 357.153942 
L 703.943644 356.537801 
L 705.762328 357.405445 
L 707.581011 357.343161 
L 709.399694 357.735033 
L 711.218377 358.352111 
L 713.037061 358.299414 
L 714.855744 358.747146 
L 716.674427 353.781688 
L 718.49311 354.006895 
L 720.311794 353.523996 
L 722.130477 354.313273 
L 723.94916 353.659078 
L 725.767843 354.668021 
L 727.586527 354.679892 
L 729.40521 355.097038 
L 731.223893 355.06603 
L 733.042576 355.642981 
L 734.86126 355.477887 
L 736.679943 355.837265 
L 740.317309 355.895514 
L 742.135993 356.138014 
L 743.954676 352.231858 
L 745.773359 353.123228 
L 747.592042 353.146937 
L 749.410726 353.304026 
L 751.229409 353.169814 
L 753.048092 353.540138 
L 754.866775 353.79172 
L 756.685459 353.916981 
L 758.504142 351.253554 
L 762.141508 351.913391 
L 763.960192 351.480905 
L 765.778875 351.309373 
L 767.597558 352.251974 
L 769.416241 352.393221 
L 771.234925 350.374911 
L 773.053608 350.520782 
L 774.872291 350.519666 
L 778.509658 351.318873 
L 780.328341 351.200441 
L 783.965707 351.694341 
L 785.784391 349.673287 
L 787.603074 349.981386 
L 789.421757 349.280027 
L 791.24044 350.500904 
L 793.059124 350.711411 
L 794.877807 350.750122 
L 796.69649 350.572621 
L 798.515173 349.057925 
L 800.333856 349.317926 
L 803.971223 349.568972 
L 805.789906 349.875089 
L 807.608589 349.934693 
L 809.427273 350.169711 
L 809.427273 350.169711 
" style="fill:none;stroke:#9467bd;stroke-linecap:square;stroke-width:1.5;"/>
   </g>
   <g id="line2d_86">
    <path clip-path="url(#p80f648771c)" d="M 151.063937 177.533435 
L 152.88262 179.77348 
L 160.157353 186.280914 
L 161.976037 188.29411 
L 163.79472 190.730252 
L 165.613403 193.776413 
L 167.432086 197.614251 
L 169.25077 202.416439 
L 171.069453 208.323389 
L 172.888136 215.365508 
L 176.525503 231.179145 
L 178.344186 237.718796 
L 180.162869 242.147276 
L 181.981552 245.195097 
L 183.800236 248.01276 
L 185.618919 251.208388 
L 187.437602 254.973631 
L 189.256285 259.375938 
L 191.074969 264.369933 
L 196.531018 280.383423 
L 198.349702 284.942964 
L 200.168385 288.597555 
L 201.987068 291.283872 
L 203.805751 293.188988 
L 205.624435 294.645574 
L 207.443118 297.910005 
L 211.080484 302.515767 
L 214.717851 307.563695 
L 216.536534 309.869186 
L 218.355217 313.594875 
L 220.173901 315.47878 
L 221.992584 316.773243 
L 223.811267 317.649578 
L 225.62995 318.257389 
L 227.448634 318.653822 
L 229.267317 318.595735 
L 232.904683 318.97225 
L 236.54205 319.027328 
L 238.360733 318.974857 
L 240.179416 318.518157 
L 243.816783 318.884667 
L 249.272833 319.103088 
L 251.091516 319.453601 
L 252.910199 320.174445 
L 260.184932 322.526841 
L 263.822299 325.542147 
L 269.278348 329.754578 
L 271.097032 331.300755 
L 272.915715 334.414477 
L 282.009131 348.232694 
L 283.827814 353.975734 
L 285.646498 358.324752 
L 287.465181 362.126417 
L 289.283864 365.201643 
L 291.102547 367.226727 
L 292.921231 367.202273 
L 294.739914 370.185665 
L 296.558597 366.804675 
L 298.37728 361.516633 
L 303.83333 343.955327 
L 305.652013 340.791081 
L 311.108063 327.462471 
L 314.745429 319.678324 
L 316.564113 317.829454 
L 318.382796 315.560185 
L 323.838846 308.230494 
L 325.657529 305.948197 
L 329.294895 306.012045 
L 331.113579 305.682247 
L 332.932262 305.116525 
L 338.388312 302.943909 
L 342.025678 307.972151 
L 345.663045 312.318944 
L 349.300411 316.347729 
L 352.937778 325.738978 
L 358.393827 339.396134 
L 360.212511 344.219006 
L 362.031194 351.529709 
L 363.849877 358.163298 
L 365.66856 363.132896 
L 367.487244 365.447839 
L 369.305927 364.818459 
L 371.12461 361.939966 
L 372.943293 364.650641 
L 374.761977 363.680349 
L 376.58066 360.996904 
L 380.218026 354.775664 
L 382.03671 351.893199 
L 383.855393 362.391444 
L 385.674076 367.749682 
L 387.492759 370.356444 
L 389.311443 372.437384 
L 391.130126 372.539216 
L 392.948809 372.849358 
L 394.767492 386.922117 
L 396.586176 392.604322 
L 398.404859 395.452493 
L 400.223542 397.183927 
L 402.042225 398.732484 
L 403.860909 399.031321 
L 405.679592 404.720501 
L 407.498275 403.878387 
L 409.316958 403.790311 
L 411.135642 403.399347 
L 412.954325 403.334316 
L 414.773008 403.123125 
L 416.591691 404.835193 
L 418.410375 404.803874 
L 420.229058 405.390619 
L 423.866424 405.270795 
L 425.685108 404.761258 
L 427.503791 405.959712 
L 429.322474 406.132347 
L 431.141157 406.139584 
L 432.959841 406.821362 
L 434.778524 406.883786 
L 436.597207 406.444269 
L 438.41589 407.601765 
L 440.234574 407.839769 
L 442.053257 406.466285 
L 443.87194 406.222479 
L 445.690623 407.444936 
L 447.509307 407.052802 
L 449.32799 408.472359 
L 451.146673 407.764916 
L 452.965356 407.934759 
L 454.78404 407.623019 
L 456.602723 407.525815 
L 458.421406 407.852962 
L 462.058773 407.95144 
L 463.877456 407.820179 
L 467.514822 407.811552 
L 469.333505 407.706297 
L 471.152189 407.878442 
L 474.789555 408.672395 
L 476.608238 408.044339 
L 478.426922 408.006692 
L 480.245605 407.800065 
L 482.064288 407.251568 
L 483.882971 408.179378 
L 485.701655 408.100097 
L 489.339021 408.270737 
L 491.157704 408.136341 
L 492.976388 408.14011 
L 496.613754 408.547863 
L 498.432437 406.923337 
L 500.251121 408.704936 
L 502.069804 408.493486 
L 503.888487 408.480814 
L 507.525854 408.970486 
L 509.344537 409.09758 
L 511.16322 408.05423 
L 512.981903 409.34011 
L 514.800587 409.460383 
L 516.61927 409.218218 
L 522.07532 410.193524 
L 523.894003 410.026265 
L 527.531369 410.689605 
L 529.350053 410.279846 
L 532.987419 410.927481 
L 538.443469 411.656111 
L 540.262152 411.42359 
L 542.080835 411.846695 
L 543.899519 411.693995 
L 545.718202 412.434256 
L 549.355568 413.121732 
L 551.174252 412.900346 
L 560.267668 414.720341 
L 562.086351 414.097748 
L 563.905034 415.025489 
L 565.723718 415.55759 
L 567.542401 415.889481 
L 569.361084 415.921455 
L 571.179767 416.751295 
L 572.998451 417.095078 
L 574.817134 416.86572 
L 583.91055 419.187952 
L 585.729233 419.6061 
L 589.3666 419.103699 
L 591.185283 420.279983 
L 593.003966 420.650952 
L 594.82265 421.254623 
L 596.641333 421.68338 
L 598.460016 421.407702 
L 600.278699 421.786418 
L 602.097383 422.290296 
L 603.916066 421.217333 
L 605.734749 423.044821 
L 607.553432 423.318783 
L 609.372116 422.969935 
L 614.828165 423.703636 
L 616.646849 423.637468 
L 618.465532 420.998764 
L 620.284215 422.292962 
L 622.102898 422.887217 
L 623.921582 421.913926 
L 627.558948 420.230493 
L 629.377631 420.946445 
L 631.196314 421.285111 
L 633.014998 420.161917 
L 636.652364 418.934886 
L 638.471047 417.821497 
L 640.289731 417.256426 
L 642.108414 416.203814 
L 643.927097 413.964506 
L 645.74578 414.067595 
L 647.564464 412.962043 
L 649.383147 412.327312 
L 656.65788 408.319626 
L 660.295246 406.259434 
L 662.11393 405.675995 
L 665.751296 404.182691 
L 667.569979 403.055419 
L 673.026029 400.621674 
L 680.300762 399.201797 
L 683.938129 398.073844 
L 685.756812 398.0504 
L 687.575495 398.287332 
L 691.212862 398.542232 
L 693.031545 398.173634 
L 698.487595 398.80962 
L 702.124961 398.892383 
L 703.943644 398.262444 
L 705.762328 398.811721 
L 707.581011 398.582231 
L 711.218377 398.680781 
L 714.855744 398.384105 
L 716.674427 398.829008 
L 718.49311 399.60454 
L 720.311794 399.7847 
L 722.130477 400.696815 
L 723.94916 400.565273 
L 725.767843 401.538596 
L 729.40521 402.391325 
L 731.223893 402.786691 
L 734.86126 403.345195 
L 736.679943 403.80621 
L 740.317309 404.180257 
L 742.135993 404.457094 
L 743.954676 404.562986 
L 745.773359 405.597597 
L 749.410726 406.758397 
L 754.866775 408.124201 
L 756.685459 408.567784 
L 758.504142 408.586035 
L 760.322825 409.208438 
L 763.960192 410.095235 
L 765.778875 410.110744 
L 767.597558 411.134576 
L 769.416241 411.529273 
L 771.234925 411.253543 
L 774.872291 412.138443 
L 776.690974 412.521133 
L 778.509658 412.578432 
L 780.328341 413.18692 
L 783.965707 413.656902 
L 785.784391 413.087615 
L 787.603074 413.445983 
L 789.421757 412.615935 
L 791.24044 413.523137 
L 794.877807 414.307509 
L 798.515173 413.570794 
L 800.333856 413.714465 
L 802.15254 414.000874 
L 803.971223 414.083658 
L 809.427273 414.684348 
L 809.427273 414.684348 
" style="fill:none;stroke:#8c564b;stroke-linecap:square;stroke-width:1.5;"/>
   </g>
   <g id="line2d_87">
    <path clip-path="url(#p80f648771c)" d="M 151.063937 77.995694 
L 152.88262 79.052992 
L 158.33867 83.627759 
L 160.157353 85.469045 
L 161.976037 87.669524 
L 163.79472 90.236557 
L 165.613403 93.149654 
L 167.432086 96.376234 
L 174.706819 110.347432 
L 176.525503 113.292166 
L 178.344186 115.840045 
L 185.618919 125.152442 
L 187.437602 127.847273 
L 189.256285 130.778285 
L 191.074969 133.948359 
L 194.712335 140.959302 
L 201.987068 156.079266 
L 203.805751 158.981122 
L 205.624435 161.043911 
L 207.443118 162.458227 
L 209.261801 162.873707 
L 211.080484 162.753247 
L 218.355217 161.203314 
L 220.173901 160.971493 
L 221.992584 160.975285 
L 223.811267 161.19317 
L 225.62995 161.554822 
L 227.448634 162.045623 
L 231.086 163.369303 
L 238.360733 165.865884 
L 240.179416 166.787039 
L 243.816783 168.235171 
L 249.272833 170.21025 
L 251.091516 171.315094 
L 256.547566 173.91366 
L 260.184932 175.617399 
L 262.003615 177.000159 
L 267.459665 180.347519 
L 271.097032 182.525199 
L 272.915715 183.974125 
L 276.553081 186.073722 
L 278.371765 186.920614 
L 280.190448 187.593879 
L 282.009131 187.986477 
L 283.827814 188.19975 
L 285.646498 187.960425 
L 287.465181 187.371391 
L 289.283864 186.410062 
L 291.102547 185.053957 
L 294.739914 181.567527 
L 296.558597 179.408531 
L 300.195963 174.513991 
L 303.83333 169.203375 
L 305.652013 167.298659 
L 309.28938 162.460881 
L 314.745429 155.128979 
L 316.564113 154.334507 
L 318.382796 152.880556 
L 325.657529 146.425505 
L 327.476212 147.615024 
L 329.294895 148.010809 
L 331.113579 148.137148 
L 332.932262 148.082534 
L 336.569628 147.622818 
L 338.388312 147.316333 
L 340.206995 150.723639 
L 342.025678 152.991368 
L 345.663045 156.822144 
L 349.300411 160.322354 
L 351.119094 164.279657 
L 352.937778 167.308114 
L 358.393827 175.554054 
L 360.212511 178.270627 
L 362.031194 181.710408 
L 363.849877 184.863673 
L 365.66856 187.68722 
L 367.487244 190.085807 
L 369.305927 191.968886 
L 371.12461 193.241777 
L 372.943293 194.29374 
L 374.761977 194.944324 
L 376.58066 195.024206 
L 378.399343 194.676538 
L 380.218026 194.006997 
L 382.03671 193.171322 
L 383.855393 194.103866 
L 385.674076 194.225272 
L 392.948809 194.127743 
L 394.767492 193.403191 
L 398.404859 192.684253 
L 403.860909 191.847629 
L 405.679592 191.007484 
L 409.316958 190.168374 
L 414.773008 189.228741 
L 416.591691 188.619174 
L 420.229058 188.125016 
L 425.685108 187.58903 
L 427.503791 187.099214 
L 431.141157 186.846638 
L 436.597207 186.683635 
L 438.41589 186.309166 
L 443.87194 186.238365 
L 447.509307 186.318851 
L 449.32799 186.092389 
L 452.965356 186.196497 
L 458.421406 186.499946 
L 460.240089 186.375355 
L 467.514822 186.974933 
L 469.333505 187.161638 
L 471.152189 187.150344 
L 480.245605 188.327211 
L 482.064288 188.406366 
L 498.432437 191.086518 
L 502.069804 191.813708 
L 503.888487 192.065808 
L 514.800587 194.401755 
L 516.61927 194.679358 
L 527.531369 197.110049 
L 529.350053 197.388235 
L 538.443469 199.42062 
L 542.080835 200.177026 
L 552.992935 202.489267 
L 560.267668 203.94225 
L 565.723718 204.989137 
L 572.998451 206.23738 
L 580.273184 207.321075 
L 587.547917 208.239109 
L 594.82265 208.986951 
L 600.278699 209.400852 
L 609.372116 209.695193 
L 614.828165 209.697384 
L 622.102898 209.444775 
L 631.196314 208.737909 
L 643.927097 206.934783 
L 649.383147 206.042661 
L 656.65788 204.710793 
L 671.207346 201.908453 
L 674.844712 201.352689 
L 683.938129 199.733362 
L 685.756812 199.628342 
L 700.306278 197.908968 
L 713.037061 196.753542 
L 714.855744 196.640184 
L 716.674427 196.721597 
L 736.679943 196.062193 
L 743.954676 196.079613 
L 756.685459 196.244524 
L 758.504142 196.424431 
L 771.234925 196.994485 
L 791.24044 198.049904 
L 809.427273 199.133354 
L 809.427273 199.133354 
" style="fill:none;stroke:#e377c2;stroke-linecap:square;stroke-width:1.5;"/>
   </g>
   <g id="patch_3">
    <path d="M 117 441 
L 117 60.48 
" style="fill:none;stroke:#000000;stroke-linecap:square;stroke-linejoin:miter;stroke-width:0.8;"/>
   </g>
   <g id="patch_4">
    <path d="M 842.4 441 
L 842.4 60.48 
" style="fill:none;stroke:#000000;stroke-linecap:square;stroke-linejoin:miter;stroke-width:0.8;"/>
   </g>
   <g id="patch_5">
    <path d="M 117 441 
L 842.4 441 
" style="fill:none;stroke:#000000;stroke-linecap:square;stroke-linejoin:miter;stroke-width:0.8;"/>
   </g>
   <g id="patch_6">
    <path d="M 117 60.48 
L 842.4 60.48 
" style="fill:none;stroke:#000000;stroke-linecap:square;stroke-linejoin:miter;stroke-width:0.8;"/>
   </g>
   <g id="legend_1">
    <g id="patch_7">
     <path d="M 717.123437 171.783125 
L 835.4 171.783125 
Q 837.4 171.783125 837.4 169.783125 
L 837.4 67.48 
Q 837.4 65.48 835.4 65.48 
L 717.123437 65.48 
Q 715.123437 65.48 715.123437 67.48 
L 715.123437 169.783125 
Q 715.123437 171.783125 717.123437 171.783125 
z
" style="fill:#ffffff;opacity:0.8;stroke:#cccccc;stroke-linejoin:miter;"/>
    </g>
    <g id="line2d_88">
     <path d="M 719.123437 73.578438 
L 739.123437 73.578438 
" style="fill:none;stroke:#1f77b4;stroke-linecap:square;stroke-width:1.5;"/>
    </g>
    <g id="line2d_89"/>
    <g id="text_19">
     <!-- Penalty MSE -->
     <defs>
      <path d="M 19.671875 64.796875 
L 19.671875 37.40625 
L 32.078125 37.40625 
Q 38.96875 37.40625 42.71875 40.96875 
Q 46.484375 44.53125 46.484375 51.125 
Q 46.484375 57.671875 42.71875 61.234375 
Q 38.96875 64.796875 32.078125 64.796875 
z
M 9.8125 72.90625 
L 32.078125 72.90625 
Q 44.34375 72.90625 50.609375 67.359375 
Q 56.890625 61.8125 56.890625 51.125 
Q 56.890625 40.328125 50.609375 34.8125 
Q 44.34375 29.296875 32.078125 29.296875 
L 19.671875 29.296875 
L 19.671875 0 
L 9.8125 0 
z
" id="DejaVuSans-80"/>
      <path d="M 32.171875 -5.078125 
Q 28.375 -14.84375 24.75 -17.8125 
Q 21.140625 -20.796875 15.09375 -20.796875 
L 7.90625 -20.796875 
L 7.90625 -13.28125 
L 13.1875 -13.28125 
Q 16.890625 -13.28125 18.9375 -11.515625 
Q 21 -9.765625 23.484375 -3.21875 
L 25.09375 0.875 
L 2.984375 54.6875 
L 12.5 54.6875 
L 29.59375 11.921875 
L 46.6875 54.6875 
L 56.203125 54.6875 
z
" id="DejaVuSans-121"/>
      <path d="M 9.8125 72.90625 
L 24.515625 72.90625 
L 43.109375 23.296875 
L 61.8125 72.90625 
L 76.515625 72.90625 
L 76.515625 0 
L 66.890625 0 
L 66.890625 64.015625 
L 48.09375 14.015625 
L 38.1875 14.015625 
L 19.390625 64.015625 
L 19.390625 0 
L 9.8125 0 
z
" id="DejaVuSans-77"/>
      <path d="M 53.515625 70.515625 
L 53.515625 60.890625 
Q 47.90625 63.578125 42.921875 64.890625 
Q 37.9375 66.21875 33.296875 66.21875 
Q 25.25 66.21875 20.875 63.09375 
Q 16.5 59.96875 16.5 54.203125 
Q 16.5 49.359375 19.40625 46.890625 
Q 22.3125 44.4375 30.421875 42.921875 
L 36.375 41.703125 
Q 47.40625 39.59375 52.65625 34.296875 
Q 57.90625 29 57.90625 20.125 
Q 57.90625 9.515625 50.796875 4.046875 
Q 43.703125 -1.421875 29.984375 -1.421875 
Q 24.8125 -1.421875 18.96875 -0.25 
Q 13.140625 0.921875 6.890625 3.21875 
L 6.890625 13.375 
Q 12.890625 10.015625 18.65625 8.296875 
Q 24.421875 6.59375 29.984375 6.59375 
Q 38.421875 6.59375 43.015625 9.90625 
Q 47.609375 13.234375 47.609375 19.390625 
Q 47.609375 24.75 44.3125 27.78125 
Q 41.015625 30.8125 33.5 32.328125 
L 27.484375 33.5 
Q 16.453125 35.6875 11.515625 40.375 
Q 6.59375 45.0625 6.59375 53.421875 
Q 6.59375 63.09375 13.40625 68.65625 
Q 20.21875 74.21875 32.171875 74.21875 
Q 37.3125 74.21875 42.625 73.28125 
Q 47.953125 72.359375 53.515625 70.515625 
z
" id="DejaVuSans-83"/>
      <path d="M 9.8125 72.90625 
L 55.90625 72.90625 
L 55.90625 64.59375 
L 19.671875 64.59375 
L 19.671875 43.015625 
L 54.390625 43.015625 
L 54.390625 34.71875 
L 19.671875 34.71875 
L 19.671875 8.296875 
L 56.78125 8.296875 
L 56.78125 0 
L 9.8125 0 
z
" id="DejaVuSans-69"/>
     </defs>
     <g transform="translate(747.123437 77.078438)scale(0.1 -0.1)">
      <use xlink:href="#DejaVuSans-80"/>
      <use x="60.255859" xlink:href="#DejaVuSans-101"/>
      <use x="121.779297" xlink:href="#DejaVuSans-110"/>
      <use x="185.158203" xlink:href="#DejaVuSans-97"/>
      <use x="246.4375" xlink:href="#DejaVuSans-108"/>
      <use x="274.220703" xlink:href="#DejaVuSans-116"/>
      <use x="313.429688" xlink:href="#DejaVuSans-121"/>
      <use x="372.609375" xlink:href="#DejaVuSans-32"/>
      <use x="404.396484" xlink:href="#DejaVuSans-77"/>
      <use x="490.675781" xlink:href="#DejaVuSans-83"/>
      <use x="554.152344" xlink:href="#DejaVuSans-69"/>
     </g>
    </g>
    <g id="line2d_90">
     <path d="M 719.123437 88.256563 
L 739.123437 88.256563 
" style="fill:none;stroke:#ff7f0e;stroke-linecap:square;stroke-width:1.5;"/>
    </g>
    <g id="line2d_91"/>
    <g id="text_20">
     <!-- Penalty Det -->
     <defs>
      <path d="M 19.671875 64.796875 
L 19.671875 8.109375 
L 31.59375 8.109375 
Q 46.6875 8.109375 53.6875 14.9375 
Q 60.6875 21.78125 60.6875 36.53125 
Q 60.6875 51.171875 53.6875 57.984375 
Q 46.6875 64.796875 31.59375 64.796875 
z
M 9.8125 72.90625 
L 30.078125 72.90625 
Q 51.265625 72.90625 61.171875 64.09375 
Q 71.09375 55.28125 71.09375 36.53125 
Q 71.09375 17.671875 61.125 8.828125 
Q 51.171875 0 30.078125 0 
L 9.8125 0 
z
" id="DejaVuSans-68"/>
     </defs>
     <g transform="translate(747.123437 91.756563)scale(0.1 -0.1)">
      <use xlink:href="#DejaVuSans-80"/>
      <use x="60.255859" xlink:href="#DejaVuSans-101"/>
      <use x="121.779297" xlink:href="#DejaVuSans-110"/>
      <use x="185.158203" xlink:href="#DejaVuSans-97"/>
      <use x="246.4375" xlink:href="#DejaVuSans-108"/>
      <use x="274.220703" xlink:href="#DejaVuSans-116"/>
      <use x="313.429688" xlink:href="#DejaVuSans-121"/>
      <use x="372.609375" xlink:href="#DejaVuSans-32"/>
      <use x="404.396484" xlink:href="#DejaVuSans-68"/>
      <use x="481.398438" xlink:href="#DejaVuSans-101"/>
      <use x="542.921875" xlink:href="#DejaVuSans-116"/>
     </g>
    </g>
    <g id="line2d_92">
     <path d="M 719.123437 102.934688 
L 739.123437 102.934688 
" style="fill:none;stroke:#2ca02c;stroke-linecap:square;stroke-width:1.5;"/>
    </g>
    <g id="line2d_93"/>
    <g id="text_21">
     <!-- Penalty Test MSE -->
     <defs>
      <path d="M -0.296875 72.90625 
L 61.375 72.90625 
L 61.375 64.59375 
L 35.5 64.59375 
L 35.5 0 
L 25.59375 0 
L 25.59375 64.59375 
L -0.296875 64.59375 
z
" id="DejaVuSans-84"/>
     </defs>
     <g transform="translate(747.123437 106.434688)scale(0.1 -0.1)">
      <use xlink:href="#DejaVuSans-80"/>
      <use x="60.255859" xlink:href="#DejaVuSans-101"/>
      <use x="121.779297" xlink:href="#DejaVuSans-110"/>
      <use x="185.158203" xlink:href="#DejaVuSans-97"/>
      <use x="246.4375" xlink:href="#DejaVuSans-108"/>
      <use x="274.220703" xlink:href="#DejaVuSans-116"/>
      <use x="313.429688" xlink:href="#DejaVuSans-121"/>
      <use x="372.609375" xlink:href="#DejaVuSans-32"/>
      <use x="404.396484" xlink:href="#DejaVuSans-84"/>
      <use x="465.214844" xlink:href="#DejaVuSans-101"/>
      <use x="526.738281" xlink:href="#DejaVuSans-115"/>
      <use x="578.837891" xlink:href="#DejaVuSans-116"/>
      <use x="618.046875" xlink:href="#DejaVuSans-32"/>
      <use x="649.833984" xlink:href="#DejaVuSans-77"/>
      <use x="736.113281" xlink:href="#DejaVuSans-83"/>
      <use x="799.589844" xlink:href="#DejaVuSans-69"/>
     </g>
    </g>
    <g id="line2d_94">
     <path d="M 719.123437 117.612813 
L 739.123437 117.612813 
" style="fill:none;stroke:#d62728;stroke-linecap:square;stroke-width:1.5;"/>
    </g>
    <g id="line2d_95"/>
    <g id="text_22">
     <!-- ALM MSE -->
     <defs>
      <path d="M 34.1875 63.1875 
L 20.796875 26.90625 
L 47.609375 26.90625 
z
M 28.609375 72.90625 
L 39.796875 72.90625 
L 67.578125 0 
L 57.328125 0 
L 50.6875 18.703125 
L 17.828125 18.703125 
L 11.1875 0 
L 0.78125 0 
z
" id="DejaVuSans-65"/>
     </defs>
     <g transform="translate(747.123437 121.112813)scale(0.1 -0.1)">
      <use xlink:href="#DejaVuSans-65"/>
      <use x="68.408203" xlink:href="#DejaVuSans-76"/>
      <use x="124.121094" xlink:href="#DejaVuSans-77"/>
      <use x="210.400391" xlink:href="#DejaVuSans-32"/>
      <use x="242.1875" xlink:href="#DejaVuSans-77"/>
      <use x="328.466797" xlink:href="#DejaVuSans-83"/>
      <use x="391.943359" xlink:href="#DejaVuSans-69"/>
     </g>
    </g>
    <g id="line2d_96">
     <path d="M 719.123437 132.290938 
L 739.123437 132.290938 
" style="fill:none;stroke:#9467bd;stroke-linecap:square;stroke-width:1.5;"/>
    </g>
    <g id="line2d_97"/>
    <g id="text_23">
     <!-- ALM Det_lin -->
     <defs>
      <path d="M 50.984375 -16.609375 
L 50.984375 -23.578125 
L -0.984375 -23.578125 
L -0.984375 -16.609375 
z
" id="DejaVuSans-95"/>
     </defs>
     <g transform="translate(747.123437 135.790938)scale(0.1 -0.1)">
      <use xlink:href="#DejaVuSans-65"/>
      <use x="68.408203" xlink:href="#DejaVuSans-76"/>
      <use x="124.121094" xlink:href="#DejaVuSans-77"/>
      <use x="210.400391" xlink:href="#DejaVuSans-32"/>
      <use x="242.1875" xlink:href="#DejaVuSans-68"/>
      <use x="319.189453" xlink:href="#DejaVuSans-101"/>
      <use x="380.712891" xlink:href="#DejaVuSans-116"/>
      <use x="419.921875" xlink:href="#DejaVuSans-95"/>
      <use x="469.921875" xlink:href="#DejaVuSans-108"/>
      <use x="497.705078" xlink:href="#DejaVuSans-105"/>
      <use x="525.488281" xlink:href="#DejaVuSans-110"/>
     </g>
    </g>
    <g id="line2d_98">
     <path d="M 719.123437 147.247188 
L 739.123437 147.247188 
" style="fill:none;stroke:#8c564b;stroke-linecap:square;stroke-width:1.5;"/>
    </g>
    <g id="line2d_99"/>
    <g id="text_24">
     <!-- ALM Det_sq -->
     <defs>
      <path d="M 14.796875 27.296875 
Q 14.796875 17.390625 18.875 11.75 
Q 22.953125 6.109375 30.078125 6.109375 
Q 37.203125 6.109375 41.296875 11.75 
Q 45.40625 17.390625 45.40625 27.296875 
Q 45.40625 37.203125 41.296875 42.84375 
Q 37.203125 48.484375 30.078125 48.484375 
Q 22.953125 48.484375 18.875 42.84375 
Q 14.796875 37.203125 14.796875 27.296875 
z
M 45.40625 8.203125 
Q 42.578125 3.328125 38.25 0.953125 
Q 33.9375 -1.421875 27.875 -1.421875 
Q 17.96875 -1.421875 11.734375 6.484375 
Q 5.515625 14.40625 5.515625 27.296875 
Q 5.515625 40.1875 11.734375 48.09375 
Q 17.96875 56 27.875 56 
Q 33.9375 56 38.25 53.625 
Q 42.578125 51.265625 45.40625 46.390625 
L 45.40625 54.6875 
L 54.390625 54.6875 
L 54.390625 -20.796875 
L 45.40625 -20.796875 
z
" id="DejaVuSans-113"/>
     </defs>
     <g transform="translate(747.123437 150.747188)scale(0.1 -0.1)">
      <use xlink:href="#DejaVuSans-65"/>
      <use x="68.408203" xlink:href="#DejaVuSans-76"/>
      <use x="124.121094" xlink:href="#DejaVuSans-77"/>
      <use x="210.400391" xlink:href="#DejaVuSans-32"/>
      <use x="242.1875" xlink:href="#DejaVuSans-68"/>
      <use x="319.189453" xlink:href="#DejaVuSans-101"/>
      <use x="380.712891" xlink:href="#DejaVuSans-116"/>
      <use x="419.921875" xlink:href="#DejaVuSans-95"/>
      <use x="469.921875" xlink:href="#DejaVuSans-115"/>
      <use x="522.021484" xlink:href="#DejaVuSans-113"/>
     </g>
    </g>
    <g id="line2d_100">
     <path d="M 719.123437 162.203438 
L 739.123437 162.203438 
" style="fill:none;stroke:#e377c2;stroke-linecap:square;stroke-width:1.5;"/>
    </g>
    <g id="line2d_101"/>
    <g id="text_25">
     <!-- ALM Test MSE -->
     <g transform="translate(747.123437 165.703438)scale(0.1 -0.1)">
      <use xlink:href="#DejaVuSans-65"/>
      <use x="68.408203" xlink:href="#DejaVuSans-76"/>
      <use x="124.121094" xlink:href="#DejaVuSans-77"/>
      <use x="210.400391" xlink:href="#DejaVuSans-32"/>
      <use x="242.1875" xlink:href="#DejaVuSans-84"/>
      <use x="303.005859" xlink:href="#DejaVuSans-101"/>
      <use x="364.529297" xlink:href="#DejaVuSans-115"/>
      <use x="416.628906" xlink:href="#DejaVuSans-116"/>
      <use x="455.837891" xlink:href="#DejaVuSans-32"/>
      <use x="487.625" xlink:href="#DejaVuSans-77"/>
      <use x="573.904297" xlink:href="#DejaVuSans-83"/>
      <use x="637.380859" xlink:href="#DejaVuSans-69"/>
     </g>
    </g>
   </g>
  </g>
 </g>
 <defs>
  <clipPath id="p80f648771c">
   <rect height="380.52" width="725.4" x="117" y="60.48"/>
  </clipPath>
 </defs>
</svg>
